<svg width="15" height="15" viewBox="0 0 15 15" fill="none" xmlns="http://www.w3.org/2000/svg">
<path d="M5.89307 6.42859V5.35716C5.89307 4.91339 6.25287 4.55359 6.69664 4.55359H7.23235V7.23216H6.69664C6.25287 7.23216 5.89307 6.87236 5.89307 6.42859Z" fill="#9e1f1f"/>
<path d="M8.30378 10.4464H7.76807V7.76782H8.30378C8.74755 7.76782 9.10735 8.12762 9.10735 8.57139V9.64282C9.10735 10.0866 8.74755 10.4464 8.30378 10.4464Z" fill="#9e1f1f"/>
<path fill-rule="evenodd" clip-rule="evenodd" d="M7.5 1.875C4.39335 1.875 1.875 4.39335 1.875 7.5C1.875 10.6066 4.39335 13.125 7.5 13.125C10.6066 13.125 13.125 10.6066 13.125 7.5C13.1216 4.39479 10.6052 1.8784 7.5 1.875ZM8.30357 7.23214C9.04292 7.23306 9.64194 7.83207 9.64286 8.57143V9.64286C9.64194 10.3822 9.04292 10.9812 8.30357 10.9821H7.76786V11.7857H7.23214V10.9821H6.69643C5.95707 10.9812 5.35806 10.3822 5.35714 9.64286H5.89286C5.89286 10.0866 6.25266 10.4464 6.69643 10.4464H7.23214V7.76786H6.69643C5.95707 7.76694 5.35806 7.16792 5.35714 6.42857V5.35714C5.35806 4.61779 5.95707 4.01877 6.69643 4.01786H7.23214V3.21429H7.76786V4.01786H8.30357C9.04292 4.01877 9.64194 4.61779 9.64286 5.35714H9.10714C9.10714 4.91337 8.74734 4.55357 8.30357 4.55357H7.76786V7.23214H8.30357Z" fill="#9e1f1f"/>
<path fill-rule="evenodd" clip-rule="evenodd" d="M0 7.5C0 3.35789 3.35789 0 7.5 0C11.6401 0.00470843 14.9953 3.35985 15 7.5C15 11.6421 11.6421 15 7.5 15C3.35789 15 0 11.6421 0 7.5ZM1.33929 7.5C1.33929 10.9025 4.09751 13.6607 7.5 13.6607C10.9009 13.6569 13.6569 10.9009 13.6607 7.5C13.6607 4.09751 10.9025 1.33929 7.5 1.33929C4.09751 1.33929 1.33929 4.09751 1.33929 7.5Z" fill="#9e1f1f"/>
</svg>
