<svg width="30" height="18" viewBox="0 0 30 18" fill="none" xmlns="http://www.w3.org/2000/svg">
<path d="M11.8125 5.29688C12.6875 4.26562 13.75 3.75 15 3.75C16.25 3.75 17.3125 4.26562 18.1875 5.29688C19.0625 6.32812 19.5 7.5625 19.5 9C19.5 10.4375 19.0625 11.6719 18.1875 12.7031C17.3125 13.7344 16.25 14.25 15 14.25C13.75 14.25 12.6875 13.7344 11.8125 12.7031C10.9375 11.6719 10.5 10.4375 10.5 9C10.5 7.5625 10.9375 6.32812 11.8125 5.29688ZM16.875 11.625V10.875C16.875 10.625 16.75 10.5 16.5 10.5H15.75V6.375C15.75 6.125 15.625 6 15.375 6H14.7188C14.5 6 14.2969 6.0625 14.1094 6.1875L13.4062 6.65625C13.2812 6.75 13.2188 6.85938 13.2188 6.98438C13.2188 7.04688 13.25 7.10938 13.3125 7.17188L13.6875 7.82812C13.7812 7.92188 13.8906 7.96875 14.0156 7.96875C14.1094 7.96875 14.1875 7.95312 14.25 7.92188V10.5H13.5C13.25 10.5 13.125 10.625 13.125 10.875V11.625C13.125 11.875 13.25 12 13.5 12H16.5C16.75 12 16.875 11.875 16.875 11.625ZM28.5 0C28.9062 0 29.25 0.15625 29.5312 0.46875C29.8438 0.75 30 1.09375 30 1.5V16.5C30 16.9062 29.8438 17.2656 29.5312 17.5781C29.25 17.8594 28.9062 18 28.5 18H1.5C1.09375 18 0.734375 17.8594 0.421875 17.5781C0.140625 17.2656 0 16.9062 0 16.5V1.5C0 1.09375 0.140625 0.75 0.421875 0.46875C0.734375 0.15625 1.09375 0 1.5 0H28.5ZM27.75 12.75V5.25C26.9062 5.25 26.1875 4.96875 25.5938 4.40625C25.0312 3.8125 24.75 3.09375 24.75 2.25H5.25C5.25 3.09375 4.95312 3.8125 4.35938 4.40625C3.79688 4.96875 3.09375 5.25 2.25 5.25V12.75C3.09375 12.75 3.79688 13.0469 4.35938 13.6406C4.95312 14.2031 5.25 14.9062 5.25 15.75H24.75C24.75 14.9062 25.0312 14.2031 25.5938 13.6406C26.1875 13.0469 26.9062 12.75 27.75 12.75Z" fill="#268BE9"/>
</svg>
