<svg width="15" height="15" viewBox="0 0 15 15" fill="none" xmlns="http://www.w3.org/2000/svg">
<path fill-rule="evenodd" clip-rule="evenodd" d="M14.0625 4.20949H11.0963C11.3091 4.06418 11.4919 3.91981 11.6194 3.79043C12.3759 3.03012 12.3759 1.79262 11.6194 1.0323C10.8844 0.29168 9.60375 0.293555 8.86969 1.0323C8.46281 1.44012 7.38469 3.10043 7.53375 4.20949H7.46625C7.61438 3.10043 6.53625 1.44012 6.13031 1.0323C5.39531 0.293555 4.11469 0.293555 3.38063 1.0323C2.625 1.79262 2.625 3.03012 3.37969 3.79043C3.50813 3.91981 3.69094 4.06418 3.90375 4.20949H0.9375C0.420938 4.20949 0 4.63043 0 5.14699V6.55324C0 6.81199 0.21 7.02199 0.46875 7.02199H6.5625V5.14699H8.4375V7.02199H14.5312C14.79 7.02199 15 6.81199 15 6.55324V5.14699C15 4.63043 14.58 4.20949 14.0625 4.20949ZM6.50719 4.17856C6.50719 4.17856 6.46781 4.20949 6.33375 4.20949C5.68594 4.20949 4.44938 3.53637 4.04531 3.12949C3.6525 2.73387 3.6525 2.08887 4.04531 1.69324C4.23563 1.50199 4.48781 1.39699 4.75594 1.39699C5.02313 1.39699 5.27531 1.50199 5.46562 1.69324C6.0975 2.32887 6.72563 3.95262 6.50719 4.17856ZM8.66531 4.20949C8.53219 4.20949 8.49281 4.17856 8.49281 4.17856C8.27437 3.95262 8.9025 2.32887 9.53438 1.69324C9.91219 1.31168 10.5731 1.3098 10.9547 1.69324C11.3484 2.08887 11.3484 2.73387 10.9547 3.12949C10.5506 3.53637 9.31406 4.20949 8.66531 4.20949Z" fill="#9e1f1f"/>
<path d="M0.9375 7.95947V13.5845C0.9375 14.102 1.35844 14.522 1.875 14.522H6.5625V7.95947H0.9375Z" fill="#9e1f1f"/>
<path d="M8.4375 14.522V7.95947H14.0625V13.5845C14.0625 14.102 13.6425 14.522 13.125 14.522H8.4375Z" fill="#9e1f1f"/>
</svg>
