<svg width="43" height="43" viewBox="0 0 43 43" fill="none" xmlns="http://www.w3.org/2000/svg">
<path d="M5.92653 35.6939C9.75918 39.649 15.1224 42.1224 21.0612 42.1224C32.6694 42.1224 42.1224 32.6694 42.1224 21.0612C42.1224 9.45306 32.6694 0 21.0612 0C9.45306 0 0 9.45306 0 21.0612C0 26.5959 2.1551 31.6408 5.65714 35.4C5.73061 35.5224 5.82857 35.6082 5.92653 35.6939ZM21.0612 39.698C16.4816 39.698 12.2694 38.0326 9.02449 35.2775C14.4857 33.4653 16.5061 31.2612 17.2531 29.7918C18.2939 30.2449 19.4571 30.4898 20.7429 30.502C20.7673 30.502 20.8041 30.502 20.8286 30.502C20.8408 30.502 20.9143 30.502 20.9388 30.502C20.9633 30.502 21 30.502 21.0245 30.502C22.4204 30.4776 23.6816 30.1959 24.7714 29.6694C25.4694 31.1388 27.4531 33.4163 33.0735 35.2775C29.8408 38.0326 25.6408 39.698 21.0612 39.698ZM14.2531 17.1673C14.2531 17.1429 14.2531 17.1184 14.2531 17.0939C14.5469 10.7143 19.249 10.2122 20.6939 10.2122C20.7551 10.2122 20.8041 10.2122 20.8408 10.2122C20.8776 10.2122 20.902 10.2122 20.9388 10.2122C20.9755 10.2122 21.0122 10.2122 21.0857 10.2122C22.5184 10.2122 27.2327 10.7143 27.5265 17.0939C27.5265 17.1184 27.5265 17.1429 27.5265 17.1673C27.5388 17.2286 28.1388 23.1306 25.3837 26.2286C24.2939 27.4531 22.8367 28.0653 20.9388 28.0776C20.9265 28.0776 20.902 28.0776 20.902 28.0776C20.8898 28.0776 20.8776 28.0776 20.8653 28.0776C18.9551 28.0531 17.5102 27.4531 16.4204 26.2286C13.6531 23.1551 14.2408 17.2286 14.2531 17.1673ZM21.0612 2.42449C31.3347 2.42449 39.698 10.7878 39.698 21.0612C39.698 25.7633 37.9347 30.0735 35.0571 33.3551C27.1469 31.0531 26.8408 28.2612 26.8408 28.2245C26.8408 28.2735 26.8408 28.2857 26.8408 28.2857H26.7551C26.902 28.1388 27.049 27.9918 27.1959 27.8327C30.5633 24.049 30 17.5714 29.9388 16.9347C29.6082 10.1755 24.9673 7.77551 21.0857 7.77551C21.0122 7.77551 20.9388 7.77551 20.8898 7.77551C20.8408 7.77551 20.7796 7.77551 20.6939 7.77551C16.8122 7.77551 12.1592 10.1755 11.8408 16.9347C11.7796 17.5592 11.2286 24.0367 14.5837 27.8327C14.7796 28.0531 14.9878 28.2612 15.1959 28.4571C14.9388 29.1673 13.6408 31.4204 7.06531 33.3429C4.17551 30.0612 2.42449 25.7633 2.42449 21.0612C2.42449 10.7878 10.7878 2.42449 21.0612 2.42449Z" fill="#113B79"/>
</svg>
