<svg width="32" height="32" viewBox="0 0 32 32" fill="none" xmlns="http://www.w3.org/2000/svg">
<circle cx="16" cy="16" r="16" fill="#070A14"/>
<path fill-rule="evenodd" clip-rule="evenodd" d="M9.52145 9.52145C9.71671 9.32618 10.0333 9.32618 10.2286 9.52145L16 15.2929L21.7714 9.52145C21.9667 9.32618 22.2833 9.32618 22.4786 9.52145C22.6738 9.71671 22.6738 10.0333 22.4786 10.2286L16.7071 16L22.4786 21.7714C22.6738 21.9667 22.6738 22.2833 22.4786 22.4786C22.2833 22.6738 21.9667 22.6738 21.7714 22.4786L16 16.7071L10.2286 22.4786C10.0333 22.6738 9.71671 22.6738 9.52145 22.4786C9.32618 22.2833 9.32618 21.9667 9.52145 21.7714L15.2929 16L9.52145 10.2286C9.32618 10.0333 9.32618 9.71671 9.52145 9.52145Z" fill="#6C7883"/>
</svg>
