<svg width="46" height="46" viewBox="0 0 46 46" fill="none" xmlns="http://www.w3.org/2000/svg">
<path d="M0 17C0 7.61116 7.61116 0 17 0H29C38.3888 0 46 7.61116 46 17V29C46 38.3888 38.3888 46 29 46H17C7.61116 46 0 38.3888 0 29V17Z" fill="url(#paint0_radial)"/>
<path d="M14.9955 33.4861L23 25.4815L31.0045 33.4861C31.6898 34.1713 32.8008 34.1713 33.4861 33.4861C34.1713 32.8008 34.1713 31.6898 33.4861 31.0045L25.4815 23L33.4861 14.9955C34.1713 14.3102 34.1713 13.1992 33.4861 12.5139C32.8008 11.8287 31.6898 11.8287 31.0045 12.5139L23 20.5185L14.9955 12.5139C14.3102 11.8287 13.1992 11.8287 12.5139 12.5139C11.8287 13.1992 11.8287 14.3102 12.5139 14.9955L20.5185 23L12.5139 31.0045C11.8287 31.6898 11.8287 32.8008 12.5139 33.4861C13.1992 34.1713 14.3102 34.1713 14.9955 33.4861Z" fill="white"/>
<defs>
<radialGradient id="paint0_radial" cx="0" cy="0" r="1" gradientUnits="userSpaceOnUse" gradientTransform="translate(2.875 2.875) rotate(61.8375) scale(53.8077)">
<stop offset="0.620898" stop-color="#E24C4B"/>
<stop offset="0.627918" stop-color="#D1403F"/>
<stop offset="1" stop-color="#D14140"/>
</radialGradient>
</defs>
</svg>
