<svg width="23" height="23" viewBox="0 0 23 23" fill="none" xmlns="http://www.w3.org/2000/svg">
<path d="M22.3263 1.66002H19.3748C19.3855 1.3331 19.3915 1.00426 19.3915 0.673833C19.3915 0.301646 19.0897 0 18.7176 0H4.28253C3.91051 0 3.60869 0.301646 3.60869 0.673833C3.60869 1.00426 3.61466 1.3331 3.62536 1.66002H0.673833C0.301646 1.66002 0 1.96166 0 2.33385C0 5.35311 0.789122 8.20164 2.22189 10.3549C3.63817 12.4836 5.52473 13.7046 7.56273 13.8234C8.02476 14.3262 8.51311 14.7361 9.02182 15.0488V18.0436H7.89139C6.52478 18.0436 5.41313 19.1555 5.41313 20.5219V21.6523H5.36522C4.99303 21.6523 4.69139 21.9542 4.69139 22.3262C4.69139 22.6984 4.99303 23 5.36522 23H17.635C18.0071 23 18.3088 22.6984 18.3088 22.3262C18.3088 21.9542 18.0071 21.6523 17.635 21.6523H17.587V20.5219C17.587 19.1555 16.4754 18.0436 15.1088 18.0436H13.9784V15.0488C14.4871 14.7362 14.9756 14.3262 15.4376 13.8234C17.4754 13.7046 19.362 12.4836 20.7785 10.3549C22.2112 8.20164 23.0002 5.35311 23.0002 2.33385C23.0002 1.96166 22.6985 1.66002 22.3263 1.66002ZM3.3439 9.60844C2.16206 7.83243 1.46769 5.50946 1.36188 3.00768H3.70064C3.94368 6.0831 4.66559 8.92583 5.79391 11.1823C5.9736 11.5417 6.16154 11.8812 6.35649 12.2009C5.23572 11.7777 4.19847 10.8929 3.3439 9.60844ZM16.2394 20.5219V21.6525H6.76079V20.5219C6.76079 19.8986 7.26792 19.3913 7.89139 19.3913H15.1088C15.7323 19.3913 16.2394 19.8986 16.2394 20.5219ZM12.6307 18.0436H10.3695V15.6343C10.7399 15.7319 11.1174 15.7826 11.5001 15.7826C11.8828 15.7826 12.2603 15.7319 12.6307 15.6343V18.0436ZM13.048 14.0312C13.0176 14.0436 12.9885 14.0587 12.9606 14.0754C12.4843 14.3123 11.9949 14.4349 11.5001 14.4349C11.0054 14.4349 10.5162 14.3123 10.0401 14.0757C10.0119 14.0587 9.98256 14.0436 9.95185 14.0308C9.42349 13.7515 8.91232 13.3296 8.42888 12.7753C8.40344 12.739 8.37484 12.7054 8.34307 12.6749C7.86314 12.1051 7.41164 11.4043 6.99927 10.5795C5.76092 8.10302 5.04568 4.84669 4.96426 1.34767H18.0359C17.9543 4.84669 17.2391 8.1032 16.0009 10.5795C15.5885 11.4043 15.137 12.1051 14.6573 12.6749C14.6253 12.7054 14.5964 12.7391 14.5711 12.7755C14.0877 13.33 13.5763 13.7516 13.048 14.0312ZM19.6563 9.60844C18.8017 10.8929 17.7645 11.7777 16.6437 12.2009C16.8386 11.8812 17.0266 11.5417 17.2063 11.1823C18.3346 8.92583 19.0563 6.0831 19.2995 3.00768H21.6383C21.5325 5.50946 20.8381 7.83243 19.6563 9.60844Z" fill="#6C7883"/>
</svg>
