<svg width="24" height="23" viewBox="0 0 24 23" fill="none" xmlns="http://www.w3.org/2000/svg">
<path fill-rule="evenodd" clip-rule="evenodd" d="M0 11.5019C0 5.14853 5.14853 0 11.5019 0C17.8538 0 23.0038 5.14853 23.0031 11.5019C23.0031 17.8522 17.8538 23 11.5019 23C5.14853 23 0 17.853 0 11.5019ZM1.92132 11.5019C1.92132 16.7936 6.211 21.081 11.5019 21.081C16.7921 21.081 21.0817 16.7936 21.081 11.5019C21.081 6.21177 16.7921 1.91979 11.5019 1.91979C6.211 1.91979 1.92132 6.21253 1.92132 11.5019ZM10.5191 7.57781L15.2956 11.05C15.4449 11.1587 15.5352 11.3294 15.5345 11.5146C15.5345 11.6968 15.4464 11.8683 15.2956 11.9792L10.5191 15.4483C10.4181 15.5226 10.2987 15.5601 10.1808 15.5601C10.0905 15.5601 10.0009 15.5394 9.919 15.4981C9.72533 15.4001 9.60439 15.2019 9.60439 14.9845V8.04245C9.60439 7.82735 9.72533 7.62833 9.919 7.53035C10.1111 7.4316 10.3438 7.45074 10.5191 7.57781Z" fill="#6C7883"/>
</svg>
