<svg width="25" height="23" viewBox="0 0 25 23" fill="none" xmlns="http://www.w3.org/2000/svg">
<path d="M12.8838 0.482794L24.7342 9.15941C25.0236 9.37137 25.0865 9.77781 24.8745 10.0672C24.7472 10.241 24.5499 10.3331 24.3499 10.3331C24.2167 10.3331 24.0823 10.2923 23.9667 10.2076L12.5 1.81194L1.03338 10.2076C0.743974 10.4195 0.337479 10.3567 0.125517 10.0673C-0.0864464 9.77781 -0.0235557 9.37137 0.265897 9.15941L12.1164 0.482794C12.3448 0.315509 12.6553 0.315509 12.8838 0.482794Z" fill="#6C7883"/>
<path d="M20.9444 11.0042C20.9444 10.6455 21.2353 10.3547 21.5939 10.3547C21.9527 10.3547 22.2435 10.6455 22.2436 11.0043V21.9932C22.2436 22.352 21.9527 22.6428 21.594 22.6428H15.0984C14.7566 22.6428 14.477 22.3785 14.4514 22.0432C14.4499 22.0282 14.4489 22.0119 14.4489 21.9932V15.6998C14.4489 14.6251 13.5746 13.7508 12.5 13.7508C11.4253 13.7508 10.551 14.6251 10.551 15.6998V21.9932C10.551 22.012 10.55 22.0286 10.5485 22.0438C10.5226 22.3789 10.2431 22.6428 9.90146 22.6428H3.40591C3.04722 22.6428 2.75635 22.352 2.75635 21.9932V11.0043C2.75635 10.6456 3.04722 10.3547 3.40591 10.3547C3.7646 10.3547 4.05547 10.6456 4.05547 11.0043V21.3436H9.2519V15.6997C9.2519 13.9088 10.709 12.4517 12.5 12.4517C14.2909 12.4517 15.748 13.9087 15.748 15.6997V21.3436H20.9444V11.0042Z" fill="#6C7883"/>
</svg>
