<svg width="25" height="25" viewBox="0 0 25 25" fill="none" xmlns="http://www.w3.org/2000/svg">
<path fill-rule="evenodd" clip-rule="evenodd" d="M12.5 2.08333V10.4167C12.4993 10.969 12.2796 11.4985 11.8891 11.8891C11.4985 12.2796 10.969 12.4993 10.4167 12.5H2.08333C1.531 12.4993 1.00148 12.2796 0.610917 11.8891C0.220358 11.4985 0.00065473 10.969 0 10.4167V2.08333C0.00065473 1.531 0.220358 1.00148 0.610917 0.610917C1.00148 0.220358 1.531 0.00065473 2.08333 0H10.4167C10.969 0.00065473 11.4985 0.220358 11.8891 0.610917C12.2796 1.00148 12.4993 1.531 12.5 2.08333ZM11 1.5H1.5V11H11V1.5ZM4.16667 5.20833C4.74196 5.20833 5.20833 4.74196 5.20833 4.16667C5.20833 3.59137 4.74196 3.125 4.16667 3.125C3.59137 3.125 3.125 3.59137 3.125 4.16667C3.125 4.74196 3.59137 5.20833 4.16667 5.20833ZM9.37483 4.16667C9.37483 4.74196 8.90847 5.20833 8.33317 5.20833C7.75787 5.20833 7.2915 4.74196 7.2915 4.16667C7.2915 3.59137 7.75787 3.125 8.33317 3.125C8.90847 3.125 9.37483 3.59137 9.37483 4.16667ZM4.16667 9.37502C4.74196 9.37502 5.20833 8.90865 5.20833 8.33335C5.20833 7.75806 4.74196 7.29169 4.16667 7.29169C3.59137 7.29169 3.125 7.75806 3.125 8.33335C3.125 8.90865 3.59137 9.37502 4.16667 9.37502ZM9.37483 8.33335C9.37483 8.90865 8.90847 9.37502 8.33317 9.37502C7.75787 9.37502 7.2915 8.90865 7.2915 8.33335C7.2915 7.75806 7.75787 7.29169 8.33317 7.29169C8.90847 7.29169 9.37483 7.75806 9.37483 8.33335ZM18.4001 9.56119L24.2928 15.4539C24.6829 15.845 24.902 16.3748 24.9019 16.9272C24.9019 17.4795 24.6828 18.0093 24.2927 18.4004L18.4001 24.293C18.0091 24.683 17.4793 24.902 16.927 24.902C16.3747 24.902 15.8449 24.683 15.4539 24.293L9.56119 18.4003C9.17117 18.0092 8.95215 17.4794 8.95215 16.9271C8.95215 16.3748 9.17117 15.8451 9.56119 15.454L15.4539 9.56119C15.845 9.17121 16.3747 8.95221 16.927 8.95221C17.4793 8.95221 18.009 9.17121 18.4001 9.56119ZM23.7175 17L17 10.2825L10.2825 17L17 23.7175L23.7175 17ZM15.0228 16.927C15.0228 17.5023 14.5564 17.9687 13.9811 17.9687C13.4058 17.9687 12.9395 17.5023 12.9395 16.927C12.9395 16.3517 13.4058 15.8854 13.9811 15.8854C14.5564 15.8854 15.0228 16.3517 15.0228 16.927ZM19.8732 17.9687C20.4485 17.9687 20.9149 17.5023 20.9149 16.927C20.9149 16.3517 20.4485 15.8854 19.8732 15.8854C19.2979 15.8854 18.8315 16.3517 18.8315 16.927C18.8315 17.5023 19.2979 17.9687 19.8732 17.9687ZM17.9686 16.927C17.9686 17.5023 17.5022 17.9687 16.9269 17.9687C16.3516 17.9687 15.8853 17.5023 15.8853 16.927C15.8853 16.3517 16.3516 15.8854 16.9269 15.8854C17.5022 15.8854 17.9686 16.3517 17.9686 16.927Z" fill="#6C7883"/>
</svg>
