<svg width="9" height="9" viewBox="0 0 9 9" fill="none" xmlns="http://www.w3.org/2000/svg">
<path d="M4.50031 0C5.74198 0 6.86619 0.504903 7.68227 1.31772C8.49508 2.13402 8.99999 3.25823 8.99999 4.49989C8.99999 5.74156 8.49508 6.86577 7.68227 7.68207C6.86597 8.49488 5.74198 8.99978 4.50031 8.99978C3.25865 8.99978 2.13465 8.49488 1.32184 7.68207C0.505541 6.86577 0.00390625 5.74177 0.00390625 4.49989C0.00390625 3.25823 0.505323 2.13402 1.32162 1.31772C2.13465 0.504903 3.25865 0 4.50031 0ZM6.79362 4.2543C6.92851 4.2543 7.03573 4.365 7.03573 4.49989C7.03573 4.63478 6.92851 4.74548 6.79362 4.74548H4.50729H4.50031C4.41032 4.74548 4.33078 4.69362 4.28937 4.62105L4.28589 4.61756L4.2824 4.61059V4.6071L4.27891 4.60013L4.27543 4.59316V4.58967L4.27194 4.5827L4.26845 4.57921V4.57224L4.26497 4.56527V4.56178L4.26148 4.55481V4.54783V4.54435V4.54086L4.25799 4.53737V4.5304V4.52343V4.51732V4.51384V4.50686V4.49989V1.57028C4.25799 1.43539 4.36521 1.32818 4.5001 1.32818C4.63498 1.32818 4.74568 1.43539 4.74568 1.57028V4.2543H6.79362ZM7.33644 1.66376C6.61014 0.937459 5.60709 0.491175 4.50031 0.491175C3.39354 0.491175 2.39048 0.937241 1.66418 1.66376C0.941366 2.39006 0.491594 3.39311 0.491594 4.49989C0.491594 5.60667 0.941148 6.60972 1.66418 7.33624C2.39048 8.06254 3.39354 8.50883 4.50031 8.50883C5.60709 8.50883 6.61014 8.06254 7.33644 7.33624C8.06275 6.60994 8.51252 5.60689 8.51252 4.49989C8.51252 3.39311 8.06297 2.39006 7.33644 1.66376Z" fill="#6C7883"/>
</svg>
