<svg width="17" height="17" viewBox="0 0 17 17" fill="none" xmlns="http://www.w3.org/2000/svg">
<path d="M7.96028 7.15142C7.96028 7.43201 8.25745 7.61049 8.98018 7.88247C9.99179 8.23942 10.3996 8.70704 10.3996 9.47179C10.3996 10.2282 9.86395 10.8743 8.88667 11.0442V11.4833C8.88667 11.7133 8.70023 11.8998 8.47023 11.8998C8.24023 11.8998 8.05378 11.7133 8.05378 11.4833V11.1037C7.71793 11.0887 7.38806 11.0293 7.1075 10.9449C6.82139 10.8585 6.6543 10.5622 6.72845 10.2725L6.73229 10.2581C6.76328 10.1358 6.84466 10.0329 6.95585 9.97366C7.06711 9.91445 7.1983 9.90424 7.31672 9.94658C7.60055 10.0473 7.92765 10.1178 8.2746 10.1178C8.7594 10.1178 9.09084 9.93075 9.09084 9.5907C9.09084 9.26783 8.81864 9.06388 8.18995 8.85139C7.28017 8.54539 6.65985 8.1204 6.65985 7.29584C6.65985 6.54796 7.1867 5.96136 8.09641 5.78292V5.39199C8.09641 5.14882 8.30495 4.95426 8.5526 4.97743C8.76854 4.99764 8.9293 5.18739 8.9293 5.4043V5.72343C9.22808 5.73674 9.47544 5.77602 9.68352 5.82996C9.95468 5.89995 10.1174 6.17613 10.0482 6.44701L10.0405 6.47629C10.01 6.59503 9.93259 6.69601 9.82577 6.7555C9.71839 6.81531 9.59168 6.82884 9.47494 6.79258C9.26907 6.72842 9.01003 6.67555 8.69129 6.67555C8.1385 6.67555 7.96028 6.91348 7.96028 7.15142Z" fill="#FF9800"/>
<path fill-rule="evenodd" clip-rule="evenodd" d="M14.9652 2.99026C15.5778 3.70797 16.0692 4.52919 16.4172 5.42374C16.7886 6.37864 17 7.4137 17 8.5C17 9.49859 16.819 10.4529 16.5025 11.343C16.1805 12.2484 15.715 13.0846 15.1246 13.8191C13.8479 15.4071 12.0129 16.5202 9.91667 16.8724C9.45511 16.9502 8.98366 17 8.5 17C8.01631 17 7.54482 16.9502 7.08333 16.8724C4.98705 16.5202 3.15208 15.4071 1.87539 13.8189C1.28491 13.0843 0.81951 12.2481 0.497463 11.3427C0.180931 10.4526 0 9.49859 0 8.5C0 7.41342 0.211353 6.37835 0.583286 5.42317C0.931307 4.52866 1.42272 3.70772 2.03479 2.98969C3.30316 1.50353 5.07287 0.465404 7.08333 0.127559C7.54482 0.0498139 8.01631 0 8.5 0C8.98366 0 9.45511 0.0498139 9.91667 0.127559C11.9271 0.465404 13.6973 1.50381 14.9652 2.99026ZM13.9337 6.85699L15.4201 5.99902C15.0919 5.09365 14.5927 4.27215 13.9591 3.57098L12.4589 4.43703C13.1379 5.09892 13.652 5.92732 13.9337 6.85699ZM8.5 13.045C11.0062 13.045 13.045 11.006 13.045 8.5C13.045 5.99404 11.0062 3.95505 8.5 3.95505C5.99372 3.95505 3.95501 5.99404 3.95501 8.5C3.95501 11.006 5.99368 13.045 8.5 13.045ZM9.91667 1.27307C9.45789 1.18344 8.98472 1.13334 8.5 1.13334C8.0152 1.13334 7.54204 1.18344 7.08333 1.27307V3.00791C7.53706 2.89063 8.01022 2.82171 8.5 2.82171C8.98971 2.82171 9.46287 2.8906 9.91667 3.00791V1.27307ZM4.54161 4.43703L3.04135 3.57073C2.40776 4.27186 1.90859 5.09337 1.57988 5.99874L3.0663 6.85671C3.34799 5.92704 3.86264 5.09863 4.54161 4.43703ZM3.00264 9.8965L1.49413 10.7672C1.79184 11.6845 2.2639 12.5226 2.87202 13.2434L4.36616 12.3809C3.71818 11.6912 3.24282 10.8414 3.00264 9.8965ZM7.08333 15.7269C7.54204 15.8166 8.0152 15.8667 8.5 15.8667C8.98472 15.8667 9.45789 15.8166 9.91667 15.7269V13.9921C9.46287 14.1094 8.98971 14.1783 8.5 14.1783C8.01022 14.1783 7.53706 14.1094 7.08333 13.9921V15.7269ZM12.6338 12.3809L14.1273 13.2434C14.7361 12.5226 15.2081 11.6845 15.5058 10.7675L13.9973 9.8965C13.7571 10.8414 13.2817 11.6914 12.6338 12.3809Z" fill="#FF9800"/>
</svg>
