<svg width="17" height="17" viewBox="0 0 17 17" fill="none" xmlns="http://www.w3.org/2000/svg">
<path fill-rule="evenodd" clip-rule="evenodd" d="M2.96713 0H14.0172C14.2651 0 14.4421 0.212487 14.4422 0.460428C14.4422 0.671364 14.2677 0.882267 14.0227 0.8854H14.025V0.931055H17V2.38318C17 5.75179 15.0135 8.67188 12.1681 10.0463C11.4096 11.0082 10.4448 11.8126 9.32258 12.3842L9.52712 12.8563L10.0584 13.9896L12.0417 13.9896C12.4313 13.9896 12.75 14.3083 12.7146 14.6979V17H4.24998V14.6979C4.24998 14.3083 4.56873 13.9896 4.95832 13.9896L6.9417 13.9896L7.47293 12.8563L7.48555 12.8271L7.47293 12.8208L7.66762 12.3716C6.56074 11.7973 5.60735 11.0039 4.85459 10.0571C1.99706 8.68731 0 5.7607 0 2.38314V0.931055H2.97501V0.885435H2.96713C2.71918 0.885435 2.54212 0.672915 2.54212 0.425008C2.54212 0.212487 2.71922 0 2.96713 0ZM1.4167 2.34772H2.97502V4.67498C2.97502 5.56269 3.11026 6.42641 3.36448 7.24339C3.25451 7.12641 3.14824 7.00557 3.04586 6.88106C2.0542 5.67688 1.4167 4.08314 1.4167 2.38314V2.34772ZM14.025 4.7104C14.025 5.57494 13.8942 6.42049 13.6479 7.22335C13.7535 7.1124 13.8556 6.99823 13.9542 6.88106C14.9813 5.64149 15.5833 4.08314 15.5833 2.38314H15.5479V2.34772H14.025V4.7104ZM9.24373 4.74582L8.50001 2.47917L7.75625 4.74582H5.38331L7.29582 6.16249L6.58749 8.42917L8.50001 7.0125L10.4125 8.42917L9.70415 6.16249L11.6167 4.74582H9.24373Z" fill="#D32423"/>
</svg>
