<svg width="7" height="11" viewBox="0 0 7 11" fill="none" xmlns="http://www.w3.org/2000/svg">
<path d="M6.42969 6.14844L1.88281 10.6953C1.77344 10.8047 1.64062 10.8594 1.48437 10.8594C1.32812 10.8594 1.19531 10.8047 1.08594 10.6953L0.570312 10.1797C0.460937 10.0703 0.398437 9.9375 0.382812 9.78125C0.382812 9.625 0.4375 9.49219 0.546875 9.38281L4.17969 5.75L0.546875 2.11719C0.4375 2.00781 0.382812 1.875 0.382812 1.71875C0.398437 1.5625 0.460937 1.42969 0.570312 1.32031L1.08594 0.804687C1.19531 0.695312 1.32812 0.640625 1.48437 0.640625C1.64062 0.640625 1.77344 0.695312 1.88281 0.804687L6.42969 5.35156C6.55469 5.46094 6.61719 5.59375 6.61719 5.75C6.61719 5.90625 6.55469 6.03906 6.42969 6.14844Z" fill="white"/>
</svg>
