<svg width="16" height="13" viewBox="0 0 16 13" fill="none" xmlns="http://www.w3.org/2000/svg">
<path d="M0.899383 5.27263L0.874407 5.27798H11.5809L8.21515 1.97832C8.05034 1.81722 7.95993 1.59899 7.95993 1.36995C7.95993 1.1409 8.05034 0.9242 8.21515 0.762722L8.73886 0.250169C8.90354 0.0890733 9.12299 0 9.35701 0C9.59115 0 9.81073 0.0884372 9.97541 0.249533L15.7449 5.89284C15.9102 6.05457 16.0006 6.27 16 6.49917C16.0006 6.72962 15.9102 6.94518 15.7449 7.10665L9.97541 12.7505C9.81073 12.9114 9.59128 13 9.35701 13C9.12299 13 8.90354 12.9113 8.73886 12.7505L8.21515 12.2379C8.05034 12.0771 7.95993 11.8623 7.95993 11.6332C7.95993 11.4043 8.05034 11.2008 8.21515 11.0399L11.6189 7.72177H0.887415C0.405203 7.72177 0 7.31521 0 6.84376V6.11883C0 5.64738 0.417171 5.27263 0.899383 5.27263Z" fill="#6C7883"/>
</svg>
