<svg width="25" height="25" viewBox="0 0 25 25" fill="none" xmlns="http://www.w3.org/2000/svg">
<g clip-path="url(#clip123)">
<path d="M16.4076 8.59329C16.1953 8.38101 15.8512 8.38101 15.639 8.59329L8.59374 15.6384C8.38151 15.8507 8.38151 16.1948 8.59374 16.4071C8.6999 16.5133 8.83894 16.5663 8.97807 16.5663C9.11716 16.5663 9.25624 16.5132 9.36241 16.4071L16.4076 9.3619C16.6198 9.14968 16.6198 8.80551 16.4076 8.59329Z" fill="white"/>
<path d="M9.9333 11.996C11.0704 11.996 11.9956 11.0709 11.9956 9.93374C11.9956 8.79668 11.0704 7.87158 9.9332 7.87158C8.79614 7.87158 7.87109 8.79668 7.87109 9.93374C7.87109 11.0709 8.79619 11.996 9.9333 11.996ZM9.9333 8.95859C10.4711 8.95859 10.9086 9.39603 10.9086 9.93374C10.9086 10.4715 10.4711 10.909 9.9333 10.909C9.39559 10.909 8.9581 10.4715 8.9581 9.93374C8.9581 9.39608 9.39554 8.95859 9.9333 8.95859Z" fill="white"/>
<path d="M15.0671 13.0039C13.93 13.0039 13.0049 13.9289 13.0049 15.066C13.0049 16.2032 13.93 17.1284 15.0671 17.1284C16.2043 17.1284 17.1293 16.2032 17.1293 15.066C17.1293 13.9289 16.2043 13.0039 15.0671 13.0039ZM15.0671 16.0414C14.5294 16.0414 14.0919 15.6038 14.0919 15.066C14.0919 14.5283 14.5294 14.0909 15.0671 14.0909C15.6049 14.0909 16.0423 14.5283 16.0423 15.066C16.0423 15.6038 15.6049 16.0414 15.0671 16.0414Z" fill="white"/>
<path d="M23.9446 10.2072C23.6291 9.7891 23.3311 9.39415 23.2097 9.02017C23.0795 8.61912 23.0865 8.10703 23.0939 7.56493C23.1056 6.71929 23.1175 5.84487 22.613 5.15157C22.1033 4.45133 21.2635 4.19267 20.4513 3.94251C19.9371 3.78422 19.4516 3.63468 19.1174 3.39155C18.7901 3.15334 18.5019 2.74162 18.1968 2.30579C17.729 1.63748 17.1987 0.879996 16.3635 0.608814C16.1531 0.540488 15.9245 0.505859 15.6839 0.505859C15.1001 0.505859 14.515 0.704885 13.9492 0.897389C13.4278 1.07478 12.9353 1.24228 12.5 1.24228C12.0646 1.24228 11.5722 1.07478 11.0508 0.897389C10.485 0.704885 9.89999 0.505859 9.31606 0.505859C9.07557 0.505859 8.84694 0.540488 8.63652 0.608814C7.80129 0.879996 7.27104 1.63748 6.80321 2.30579C6.49807 2.74162 6.20991 3.15334 5.88262 3.3915C5.54844 3.63468 5.06286 3.78422 4.54876 3.94256C3.73656 4.19267 2.89666 4.45128 2.38701 5.15162C1.88249 5.84482 1.8945 6.71929 1.90609 7.56493C1.91354 8.10714 1.92053 8.61917 1.79035 9.02022C1.66892 9.39426 1.37087 9.78915 1.05538 10.2073C0.560688 10.8627 0 11.6057 0 12.5C0 13.3942 0.560688 14.1372 1.05543 14.7928C1.37097 15.2109 1.66897 15.6058 1.7904 15.9799C1.92064 16.3809 1.9136 16.893 1.90614 17.4351C1.89455 18.2807 1.88254 19.1552 2.38707 19.8484C2.89672 20.5487 3.73656 20.8073 4.54881 21.0574C5.06291 21.2158 5.54844 21.3652 5.88267 21.6085C6.20996 21.8467 6.49817 22.2584 6.80331 22.6942C7.27114 23.3625 7.80139 24.12 8.63663 24.3912C8.84699 24.4595 9.07562 24.4941 9.31616 24.4941C9.90004 24.4941 10.4851 24.2951 11.0509 24.1026C11.5723 23.9252 12.0648 23.7577 12.5001 23.7577C12.9354 23.7577 13.4279 23.9252 13.9493 24.1026C14.5151 24.2951 15.1001 24.4941 15.684 24.4941C15.9246 24.4941 16.1533 24.4595 16.3636 24.3912C17.1989 24.12 17.7291 23.3625 18.1969 22.6942C18.502 22.2584 18.7902 21.8466 19.1174 21.6085C19.4517 21.3653 19.9372 21.2158 20.4513 21.0574C21.2635 20.8073 22.1034 20.5487 22.613 19.8484C23.1176 19.1552 23.1057 18.2807 23.094 17.435C23.0866 16.8928 23.0796 16.3808 23.2098 15.9798C23.3312 15.6058 23.6293 15.2109 23.9447 14.7927C24.4395 14.1372 25.0002 13.3942 25.0002 12.5C25.0002 11.6057 24.4394 10.8627 23.9446 10.2072ZM23.077 14.138C22.7213 14.6092 22.3536 15.0966 22.1758 15.6441C21.9901 16.2161 21.9987 16.8434 22.007 17.45C22.0165 18.1484 22.0255 18.8082 21.734 19.2088C21.4374 19.6164 20.803 19.8118 20.1313 20.0187C19.5547 20.1962 18.9585 20.3798 18.4778 20.7296C18.0037 21.0746 17.6491 21.581 17.3063 22.0708C16.9004 22.6508 16.5169 23.1985 16.0278 23.3574C15.9246 23.3909 15.8121 23.4072 15.6839 23.4072C15.2799 23.4072 14.8036 23.2451 14.2993 23.0736C13.7172 22.8756 13.1152 22.6708 12.5 22.6708C11.8849 22.6708 11.2829 22.8756 10.7007 23.0736C10.1964 23.2451 9.72011 23.4072 9.31611 23.4072C9.188 23.4072 9.07552 23.3909 8.97225 23.3574C8.4831 23.1986 8.0997 22.6508 7.69373 22.0709C7.35085 21.581 6.99628 21.0746 6.52219 20.7296C6.04148 20.3797 5.44528 20.1961 4.86865 20.0186C4.19698 19.8118 3.56253 19.6164 3.26594 19.2088C2.97441 18.8082 2.98342 18.1485 2.99305 17.45C3.00138 16.8434 3.00997 16.216 2.82425 15.6441C2.64645 15.0966 2.27868 14.6093 1.92302 14.1379C1.49313 13.5683 1.08701 13.0301 1.08701 12.5C1.08701 11.9699 1.49313 11.4317 1.92307 10.8621C2.27873 10.3908 2.6465 9.90344 2.8243 9.3559C3.01002 8.78393 3.00138 8.15662 2.9931 7.54997C2.98352 6.85154 2.97446 6.19183 3.26599 5.79124C3.56258 5.38362 4.19703 5.18827 4.8687 4.98143C5.44533 4.80383 6.04153 4.62023 6.52224 4.27047C6.99628 3.92542 7.35085 3.41898 7.69367 2.92921C8.09964 2.34927 8.4831 1.80152 8.9722 1.64266C9.07547 1.60917 9.18789 1.59287 9.31606 1.59287C9.72011 1.59287 10.1964 1.75488 10.7007 1.92642C11.2829 2.12451 11.8848 2.32929 12.5 2.32929C13.1151 2.32929 13.7171 2.12451 14.2993 1.92647C14.8036 1.75493 15.2799 1.59292 15.6839 1.59292C15.8121 1.59292 15.9245 1.60917 16.0277 1.64271C16.5169 1.80157 16.9004 2.34932 17.3063 2.92926C17.6492 3.41904 18.0037 3.92548 18.4778 4.27052C18.9585 4.62033 19.5548 4.80393 20.1314 4.98148C20.803 5.18832 21.4374 5.38372 21.7341 5.79124C22.0256 6.19188 22.0166 6.85164 22.007 7.55007C21.9987 8.15672 21.9901 8.78398 22.1758 9.35595C22.3536 9.90339 22.7213 10.3907 23.0769 10.862C23.5069 11.4318 23.913 11.9699 23.913 12.5C23.913 13.0301 23.5069 13.5683 23.077 14.138Z" fill="#429BDB"/>
<path d="M20.9391 9.75752C20.844 9.46481 20.8494 9.07649 20.855 8.66534C20.8639 8.01976 20.8739 7.2881 20.4581 6.7166C20.0382 6.13966 19.3354 5.92329 18.7155 5.73234C18.3258 5.61235 17.9577 5.49899 17.7142 5.32186C17.4762 5.14856 17.2579 4.83665 17.0266 4.5064C16.6521 3.97134 16.2276 3.36494 15.5399 3.14164C15.3642 3.08455 15.1739 3.05566 14.9742 3.05566C14.5004 3.05566 14.0359 3.21369 13.5868 3.36644C13.1913 3.50103 12.8177 3.6281 12.4994 3.6281C12.181 3.6281 11.8075 3.50103 11.4119 3.36644C10.9629 3.21369 10.4984 3.05566 10.0246 3.05566C9.82486 3.05566 9.63458 3.0846 9.45895 3.14164C8.77119 3.36494 8.34669 3.97134 7.97213 4.5063C7.74091 4.83659 7.52253 5.14856 7.28442 5.32186C7.04098 5.49905 6.6729 5.61235 6.28319 5.73239C5.66328 5.92329 4.96061 6.13971 4.54071 6.7166C4.12486 7.288 4.1349 8.01976 4.14375 8.66534C4.14939 9.07643 4.15472 9.46481 4.05969 9.75752C3.97154 10.0289 3.74585 10.328 3.50692 10.6446C3.11094 11.1694 2.66211 11.7641 2.66211 12.4997C2.66211 13.2354 3.11094 13.8301 3.50692 14.3549C3.74591 14.6715 3.97159 14.9706 4.05969 15.242C4.15472 15.5346 4.14939 15.923 4.14375 16.3342C4.1349 16.9797 4.12486 17.7115 4.54071 18.2829C4.96061 18.8598 5.66328 19.0762 6.28324 19.2671C6.67295 19.3871 7.04104 19.5005 7.28447 19.6776C7.52253 19.8509 7.74091 20.1628 7.97213 20.4931C8.34669 21.0281 8.77119 21.6345 9.45895 21.8578C9.63458 21.9149 9.82486 21.9438 10.0246 21.9438C10.4984 21.9438 10.9628 21.7858 11.4119 21.633C11.8075 21.4984 12.181 21.3713 12.4994 21.3713C12.8177 21.3713 13.1913 21.4984 13.5868 21.633C14.0359 21.7858 14.5003 21.9438 14.9743 21.9438C15.1739 21.9438 15.3642 21.9149 15.5399 21.8578C16.2276 21.6345 16.6521 21.0281 17.0266 20.4931C17.2579 20.1628 17.4762 19.8509 17.7142 19.6776C17.9577 19.5004 18.3258 19.3871 18.7155 19.2671C19.3355 19.0762 20.0382 18.8598 20.458 18.2829C20.8739 17.7114 20.8639 16.9796 20.855 16.3341C20.8494 15.923 20.844 15.5346 20.939 15.2419C21.0272 14.9705 21.2529 14.6715 21.4918 14.3548C21.8878 13.8301 22.3366 13.2354 22.3366 12.4997C22.3366 11.764 21.8878 11.1693 21.4918 10.6446C21.2529 10.3279 21.0272 10.0289 20.9391 9.75752ZM20.6242 13.7C20.3417 14.0743 20.0497 14.4613 19.9051 14.9062C19.7547 15.3698 19.7615 15.8675 19.7681 16.3489C19.7753 16.8711 19.782 17.3644 19.5791 17.6432C19.3723 17.9274 18.8979 18.0735 18.3956 18.2281C17.9379 18.3691 17.4646 18.5149 17.0746 18.7987C16.6898 19.0787 16.4083 19.4808 16.1362 19.8696C15.8326 20.3033 15.5458 20.7129 15.2041 20.8239C15.1362 20.846 15.061 20.8567 14.9743 20.8567C14.6802 20.8567 14.3192 20.7339 13.9369 20.6038C13.4752 20.4467 12.9977 20.2842 12.4995 20.2842C12.0013 20.2842 11.5237 20.4467 11.0619 20.6038C10.6797 20.7339 10.3187 20.8567 10.0247 20.8567C9.93796 20.8567 9.8628 20.846 9.79478 20.8239C9.4531 20.7129 9.16634 20.3033 8.86275 19.8696C8.59054 19.4807 8.30905 19.0787 7.9242 18.7986C7.53428 18.5149 7.06102 18.3691 6.60333 18.2282C6.10109 18.0735 5.62663 17.9274 5.41979 17.6432C5.21694 17.3644 5.22372 16.8712 5.23086 16.349C5.23749 15.8676 5.24427 15.3698 5.09374 14.9062C4.94927 14.4614 4.65718 14.0743 4.37476 13.7C4.05311 13.2738 3.74932 12.8712 3.74932 12.4997C3.74932 12.1282 4.05311 11.7256 4.37476 11.2995C4.65723 10.9252 4.94933 10.5381 5.09379 10.0933C5.24432 9.62962 5.23749 9.13182 5.23091 8.65043C5.22377 8.12825 5.21699 7.63507 5.41984 7.35627C5.62669 7.0721 6.10109 6.92598 6.60333 6.77131C7.06102 6.63036 7.53433 6.4846 7.92425 6.20084C8.30911 5.92075 8.59059 5.51866 8.86281 5.12983C9.16639 4.69616 9.45315 4.28652 9.79484 4.17554C9.86285 4.15344 9.93801 4.14272 10.0247 4.14272C10.3188 4.14272 10.6798 4.26555 11.062 4.39558C11.5238 4.55268 12.0014 4.71516 12.4995 4.71516C12.9977 4.71516 13.4752 4.55268 13.937 4.39558C14.3193 4.26555 14.6803 4.14272 14.9743 4.14272C15.061 4.14272 15.1362 4.15344 15.2042 4.17554C15.5459 4.28652 15.8326 4.69616 16.1362 5.12983C16.4084 5.51872 16.6899 5.92075 17.0747 6.20084C17.4646 6.4846 17.938 6.63036 18.3957 6.77126C18.8979 6.92592 19.3724 7.07205 19.5792 7.35622C19.7821 7.63506 19.7753 8.12826 19.7682 8.65048C19.7615 9.13187 19.7547 9.62962 19.9052 10.0933C20.0497 10.5381 20.3417 10.9251 20.6242 11.2994C20.9459 11.7256 21.2497 12.1282 21.2497 12.4997C21.2496 12.8712 20.9458 13.2738 20.6242 13.7Z" fill="#429BDB"/>
</g>
<defs>
<clipPath id="clip123">
<rect width="25" height="25" fill="white"/>
</clipPath>
</defs>
</svg>
