<svg width="25" height="25" viewBox="0 0 25 25" fill="none" xmlns="http://www.w3.org/2000/svg">
<path fill-rule="evenodd" clip-rule="evenodd" d="M1.04199 10.4167C1.04199 11.5625 1.97949 12.5 3.12533 12.5H6.25033L9.37533 15.625V12.5H11.4587C12.6045 12.5 13.542 11.5625 13.542 10.4167V5.20833C13.542 4.0625 12.6045 3.125 11.4587 3.125H3.12533C1.97949 3.125 1.04199 4.0625 1.04199 5.20833V10.4167Z" fill="white"/>
<path fill-rule="evenodd" clip-rule="evenodd" d="M23.9587 16.6667C23.9587 17.8125 23.0212 18.75 21.8753 18.75H18.7503L15.6253 21.875V18.75H13.542C12.3962 18.75 11.4587 17.8125 11.4587 16.6667V14.5833C13.7503 14.5833 15.6253 12.7083 15.6253 10.4167V9.375H21.8753C23.0212 9.375 23.9587 10.3125 23.9587 11.4583V16.6667Z" fill="#9e1f1f"/>
</svg>
