<svg width="21" height="24" viewBox="0 0 21 24" fill="none" xmlns="http://www.w3.org/2000/svg">
<path d="M17.9247 3.08906C15.9413 1.09688 13.3047 0 10.5 0C7.69533 0 5.05867 1.09688 3.07533 3.08906C1.092 5.08125 0 7.72969 0 10.5469C0 13.3641 1.092 16.0125 3.07533 18.0047C4.89253 19.83 7.25853 20.9039 9.8 21.0708V23.2969C9.8 23.6855 10.1136 24 10.5 24C11.9303 24 13.3425 23.5486 14.6977 22.6575C15.9082 21.8625 17.0189 20.7553 18.0003 19.3678C19.8786 16.7114 21 13.4142 21 10.5469C21 7.72969 19.908 5.08125 17.9247 3.08906ZM11.2 22.5469V20.3906C11.2 20.0025 10.8864 19.6875 10.5 19.6875C5.4824 19.6875 1.4 15.5869 1.4 10.5469C1.4 5.50688 5.4824 1.40625 10.5 1.40625C15.5176 1.40625 19.6 5.50688 19.6 10.5469C19.6 15.5981 15.7229 21.9403 11.2 22.5469Z" fill="#9e1f1f"/>
<path d="M16.25 7H11.75C11.336 7 11 7.29867 11 7.66667V11.6667C11 12.0347 11.336 12.3333 11.75 12.3333H12.5V14.3333C12.5 14.7013 12.836 15 13.25 15C15.3175 15 17 13.5049 17 11.6667V7.66667C17 7.29867 16.664 7 16.25 7ZM15.5 11.6667C15.5 12.536 14.873 13.2773 14 13.5524V11.6667C14 11.2987 13.664 11 13.25 11H12.5V8.33333H15.5V11.6667Z" fill="white"/>
<path d="M9.25 7H4.75C4.336 7 4 7.29867 4 7.66667V11.6667C4 12.0347 4.336 12.3333 4.75 12.3333H5.5V14.3333C5.5 14.7013 5.836 15 6.25 15C8.3175 15 10 13.5049 10 11.6667V7.66667C10 7.29867 9.664 7 9.25 7ZM8.5 11.6667C8.5 12.536 7.873 13.2773 7 13.5524V11.6667C7 11.2987 6.664 11 6.25 11H5.5V8.33333H8.5V11.6667Z" fill="white"/>
</svg>
