<svg width="25" height="25" viewBox="0 0 25 25" fill="none" xmlns="http://www.w3.org/2000/svg">
<path d="M3.43207 22.3806C2.57815 22.0148 1.81216 21.4916 1.15546 20.8258C0.972545 20.6402 0.800884 20.4458 0.640285 20.2437L0.451648 21.2025C0.112903 22.9233 1.21859 24.596 2.92128 24.9384C3.12842 24.98 3.33461 25 3.53812 25C4.83683 25 6.0131 24.1821 6.47429 22.9481C6.39228 22.9509 6.31007 22.9529 6.22767 22.9529C5.25855 22.9529 4.31803 22.7604 3.43207 22.3806Z" fill="#429BDB"/>
<path d="M24.205 20.6323C24.1451 20.6977 24.0845 20.7624 24.0219 20.8257C23.3654 21.4916 22.5994 22.0146 21.7455 22.3806C20.8595 22.7604 19.9188 22.9528 18.9497 22.9528C18.7265 22.9528 18.5049 22.9421 18.2852 22.9217C18.7391 24.1705 19.923 25 21.2307 25C21.4342 25 21.6404 24.9799 21.8475 24.9384C23.5502 24.596 24.6561 22.9232 24.3171 21.2024L24.205 20.6323Z" fill="#429BDB"/>
<path d="M16.2458 6.24886C16.5338 5.96391 16.5363 5.49928 16.2513 5.21127C15.2734 4.22307 13.9726 3.67871 12.5886 3.67871C11.2047 3.67871 9.90404 4.22307 8.92614 5.21127C8.64099 5.49928 8.64347 5.96391 8.93148 6.24886C9.21949 6.53382 9.68412 6.53134 9.96908 6.24333C10.6693 5.53571 11.5995 5.14603 12.5886 5.14603C13.5778 5.14603 14.508 5.53571 15.2082 6.24333C15.516 6.54317 15.9555 6.49434 16.2458 6.24886Z" fill="#429BDB"/>
<path d="M12.5887 7.19434C11.8639 7.19434 11.1828 7.47929 10.6711 7.99638C10.3861 8.28439 10.3886 8.74902 10.6766 9.03397C10.9646 9.31893 11.4293 9.31645 11.7142 9.02844C11.9483 8.79193 12.2588 8.66166 12.5887 8.66166C12.9187 8.66166 13.2292 8.79193 13.4633 9.02844C13.6069 9.1734 14.0757 9.37482 14.5009 9.03397C14.7889 8.74902 14.7913 8.28439 14.5064 7.99638C13.9946 7.47929 13.3135 7.19434 12.5887 7.19434Z" fill="#429BDB"/>
<path d="M7.44664 3.62053C8.82051 2.23198 10.6466 1.46732 12.5885 1.46732C14.5303 1.46732 16.3564 2.23198 17.7303 3.62053C17.8739 3.76549 18.3479 3.93066 18.7679 3.62606C19.0559 3.3411 19.0584 2.87647 18.7734 2.58846C17.1217 0.919151 14.9254 0 12.5885 0C10.2518 0 8.05509 0.919151 6.40351 2.58846C6.11856 2.87647 6.12104 3.3411 6.40905 3.62606C6.69705 3.91102 7.16168 3.90854 7.44664 3.62053Z" fill="#429BDB"/>
<path d="M24.6352 15.6557C24.5921 12.5719 22.1103 10.0511 19.0593 9.99314C19.0227 9.99257 18.986 9.99219 18.9498 9.99219C17.3915 9.99219 15.9797 10.6258 14.9526 11.652C14.3386 12.2656 13.5095 12.6087 12.646 12.6087H12.5308C11.6673 12.6087 10.8382 12.2656 10.2242 11.652C9.19714 10.6258 7.78532 9.99219 6.22702 9.99219C6.19059 9.99219 6.15435 9.99257 6.11773 9.99314C3.06654 10.0511 0.584701 12.5719 0.541595 15.6557C0.496772 18.8675 3.05949 21.4855 6.22702 21.4855C7.7754 21.4855 9.17902 20.8599 10.2044 19.8452C10.8283 19.2278 11.6582 18.869 12.5312 18.869H12.6456C13.5188 18.869 14.3485 19.2278 14.9724 19.8452C15.9978 20.8599 17.4014 21.4855 18.9498 21.4855C22.1173 21.4855 24.68 18.8675 24.6352 15.6557ZM7.7096 16.4129H6.71053V17.4305C6.71053 17.8356 6.38209 18.1642 5.97678 18.1642C5.57146 18.1642 5.24302 17.8358 5.24302 17.4305V16.4129H4.24395C3.83883 16.4129 3.51038 16.0844 3.51038 15.6793C3.51038 15.274 3.83883 14.9456 4.24395 14.9456H5.24302V13.928C5.24302 13.5229 5.57146 13.1944 5.97678 13.1944C6.38209 13.1944 6.71053 13.5229 6.71053 13.928V14.9456H7.7096C8.11472 14.9456 8.44317 15.274 8.44317 15.6793C8.44317 16.0844 8.11472 16.4129 7.7096 16.4129ZM20.6639 14.7875C21.1513 14.7875 21.5463 15.1867 21.5463 15.6793C21.5463 16.1718 21.1513 16.5712 20.6639 16.5712C20.1766 16.5712 19.7814 16.1718 19.7814 15.6793C19.7814 15.1867 20.1766 14.7875 20.6639 14.7875ZM19.007 13.1128C19.4943 13.1128 19.8895 13.5122 19.8895 14.0047C19.8895 14.4973 19.4943 14.8967 19.007 14.8967C18.5197 14.8967 18.1245 14.4973 18.1245 14.0047C18.1245 13.5122 18.5197 13.1128 19.007 13.1128ZM17.3503 16.5712C16.8628 16.5712 16.4678 16.1718 16.4678 15.6793C16.4678 15.1867 16.8628 14.7875 17.3503 14.7875C17.8376 14.7875 18.2326 15.1867 18.2326 15.6793C18.2326 16.1718 17.8374 16.5712 17.3503 16.5712ZM18.1245 17.3538C18.1245 16.8611 18.5197 16.4619 19.007 16.4619C19.4943 16.4619 19.8895 16.8611 19.8895 17.3538C19.8895 17.8463 19.4943 18.2457 19.007 18.2457C18.5197 18.2457 18.1245 17.8463 18.1245 17.3538Z" fill="white"/>
</svg>
