<svg width="25" height="25" viewBox="0 0 25 25" fill="none" xmlns="http://www.w3.org/2000/svg">
<path d="M7.69223 0C6.92719 0 6.19347 0.303914 5.6525 0.844884C5.11153 1.38585 4.80762 2.11957 4.80762 2.88462V22.1154C4.80762 22.8804 5.11153 23.6141 5.6525 24.1551C6.19347 24.6961 6.92719 25 7.69223 25H18.2692C19.0342 25 19.7679 24.6961 20.3089 24.1551C20.8499 23.6141 21.1538 22.8804 21.1538 22.1154V2.88462C21.1538 2.11957 20.8499 1.38585 20.3089 0.844884C19.7679 0.303914 19.0342 0 18.2692 0L7.69223 0ZM11.0576 0.961538H14.9038C15.0313 0.961538 15.1536 1.01219 15.2437 1.10235C15.3339 1.19251 15.3845 1.3148 15.3845 1.44231C15.3845 1.56982 15.3339 1.6921 15.2437 1.78226C15.1536 1.87242 15.0313 1.92308 14.9038 1.92308H11.0576C10.9301 1.92308 10.8078 1.87242 10.7177 1.78226C10.6275 1.6921 10.5768 1.56982 10.5768 1.44231C10.5768 1.3148 10.6275 1.19251 10.7177 1.10235C10.8078 1.01219 10.9301 0.961538 11.0576 0.961538ZM7.21146 2.88462H18.7499C18.8774 2.88462 18.9997 2.93527 19.0899 3.02543C19.18 3.11559 19.2307 3.23788 19.2307 3.36538V19.7115C19.2307 19.839 19.18 19.9613 19.0899 20.0515C18.9997 20.1417 18.8774 20.1923 18.7499 20.1923H7.21146C7.08396 20.1923 6.96167 20.1417 6.87151 20.0515C6.78135 19.9613 6.73069 19.839 6.73069 19.7115V3.36538C6.73069 3.23788 6.78135 3.11559 6.87151 3.02543C6.96167 2.93527 7.08396 2.88462 7.21146 2.88462ZM11.2076 6.46058C11.1692 6.48846 11.148 6.56731 11.1778 6.61058L11.6884 7.33173C10.8836 7.70481 10.3172 8.425 10.2461 9.25481H15.7153C15.6442 8.425 15.0778 7.70577 14.273 7.33173L14.7836 6.61058C14.8134 6.56731 14.823 6.4875 14.7836 6.46058C14.7442 6.43365 14.6643 6.44712 14.6336 6.49038L14.123 7.27212C13.7588 7.13096 13.3713 7.05921 12.9807 7.06058C12.5749 7.06058 12.1845 7.13462 11.8384 7.27212L11.3288 6.49038C11.297 6.44712 11.247 6.43462 11.2076 6.46058ZM11.8384 7.87212C12.0057 7.87212 12.1393 8.00577 12.1393 8.17308C12.1393 8.34038 12.0047 8.50385 11.8384 8.50385C11.7525 8.49858 11.6715 8.46202 11.6107 8.40107C11.5499 8.34011 11.5136 8.259 11.5086 8.17308C11.5086 8.00673 11.672 7.87212 11.8393 7.87212H11.8384ZM14.1826 7.87212C14.2222 7.87173 14.2616 7.87925 14.2982 7.89424C14.3349 7.90923 14.3683 7.93138 14.3963 7.95941C14.4243 7.98743 14.4465 8.02076 14.4615 8.05745C14.4764 8.09414 14.484 8.13345 14.4836 8.17308C14.4836 8.34038 14.3499 8.50385 14.1826 8.50385C14.0163 8.50385 13.8817 8.34135 13.8817 8.17308C13.8817 8.00673 14.0153 7.87212 14.1826 7.87212ZM9.25473 9.61538C8.91531 9.61538 8.65377 9.90192 8.65377 10.2462V12.6798C8.65377 13.025 8.91531 13.3115 9.25473 13.3115C9.4214 13.3095 9.58068 13.2424 9.69855 13.1246C9.81641 13.0067 9.88351 12.8474 9.8855 12.6808V10.2462C9.88326 10.0796 9.81609 9.92042 9.69828 9.80261C9.58047 9.6848 9.42133 9.61762 9.25473 9.61538ZM16.6768 9.61538C16.3365 9.61538 16.0759 9.90192 16.0759 10.2462V12.6798C16.0759 13.025 16.3355 13.3115 16.6768 13.3115C16.8434 13.3093 17.0026 13.2421 17.1204 13.1243C17.2382 13.0065 17.3054 12.8474 17.3076 12.6808V10.2462C17.3054 10.0796 17.2382 9.92042 17.1204 9.80261C17.0026 9.6848 16.8434 9.61762 16.6768 9.61538ZM10.2461 9.64519V14.0923C10.2461 14.2198 10.2967 14.3421 10.3869 14.4323C10.4771 14.5224 10.5993 14.5731 10.7268 14.5731H11.2682V15.9558C11.2682 16.3 11.5586 16.5567 11.899 16.5567C11.9783 16.5584 12.0573 16.5441 12.1309 16.5145C12.2046 16.4849 12.2716 16.4407 12.3277 16.3845C12.3839 16.3284 12.4281 16.2614 12.4577 16.1877C12.4873 16.1141 12.5016 16.0352 12.4999 15.9558V14.5731H13.4615V15.9558C13.4615 16.3 13.7528 16.5567 14.0922 16.5567C14.1716 16.5584 14.2505 16.5441 14.3242 16.5145C14.3979 16.4849 14.4648 16.4407 14.521 16.3845C14.5771 16.3284 14.6213 16.2614 14.6509 16.1877C14.6805 16.1141 14.6949 16.0352 14.6932 15.9558V14.5731H15.2643C15.3919 14.5731 15.5141 14.5224 15.6043 14.4323C15.6945 14.3421 15.7451 14.2198 15.7451 14.0923V9.64519H10.2461ZM8.173 22.1154H10.0961C10.2236 22.1154 10.3459 22.166 10.436 22.2562C10.5262 22.3464 10.5768 22.4686 10.5768 22.5962C10.5768 22.7237 10.5262 22.8459 10.436 22.9361C10.3459 23.0263 10.2236 23.0769 10.0961 23.0769H8.173C8.04549 23.0769 7.92321 23.0263 7.83305 22.9361C7.74288 22.8459 7.69223 22.7237 7.69223 22.5962C7.69223 22.4686 7.74288 22.3464 7.83305 22.2562C7.92321 22.166 8.04549 22.1154 8.173 22.1154ZM12.0192 22.1154H13.9422C14.0697 22.1154 14.192 22.166 14.2822 22.2562C14.3723 22.3464 14.423 22.4686 14.423 22.5962V23.5577C14.423 23.6852 14.3723 23.8075 14.2822 23.8976C14.192 23.9878 14.0697 24.0385 13.9422 24.0385H12.0192C11.8916 24.0385 11.7694 23.9878 11.6792 23.8976C11.589 23.8075 11.5384 23.6852 11.5384 23.5577V22.5962C11.5384 22.4686 11.589 22.3464 11.6792 22.2562C11.7694 22.166 11.8916 22.1154 12.0192 22.1154ZM15.8653 22.1154H17.7884C17.9159 22.1154 18.0382 22.166 18.1283 22.2562C18.2185 22.3464 18.2692 22.4686 18.2692 22.5962C18.2692 22.7237 18.2185 22.8459 18.1283 22.9361C18.0382 23.0263 17.9159 23.0769 17.7884 23.0769H15.8653C15.7378 23.0769 15.6155 23.0263 15.5254 22.9361C15.4352 22.8459 15.3845 22.7237 15.3845 22.5962C15.3845 22.4686 15.4352 22.3464 15.5254 22.2562C15.6155 22.166 15.7378 22.1154 15.8653 22.1154Z" fill="white"/>
<path d="M7.69223 0C6.92719 0 6.19347 0.303914 5.6525 0.844884C5.11153 1.38585 4.80762 2.11957 4.80762 2.88462V22.1154C4.80762 22.8804 5.11153 23.6141 5.6525 24.1551C6.19347 24.6961 6.92719 25 7.69223 25H18.2692C19.0342 25 19.7679 24.6961 20.3089 24.1551C20.8499 23.6141 21.1538 22.8804 21.1538 22.1154V2.88462C21.1538 2.11957 20.8499 1.38585 20.3089 0.844884C19.7679 0.303914 19.0342 0 18.2692 0L7.69223 0ZM11.0576 0.961538H14.9038C15.0313 0.961538 15.1536 1.01219 15.2437 1.10235C15.3339 1.19251 15.3845 1.3148 15.3845 1.44231C15.3845 1.56982 15.3339 1.6921 15.2437 1.78226C15.1536 1.87242 15.0313 1.92308 14.9038 1.92308H11.0576C10.9301 1.92308 10.8078 1.87242 10.7177 1.78226C10.6275 1.6921 10.5768 1.56982 10.5768 1.44231C10.5768 1.3148 10.6275 1.19251 10.7177 1.10235C10.8078 1.01219 10.9301 0.961538 11.0576 0.961538ZM7.21146 2.88462H18.7499C18.8774 2.88462 18.9997 2.93527 19.0899 3.02543C19.18 3.11559 19.2307 3.23788 19.2307 3.36538V19.7115C19.2307 19.839 19.18 19.9613 19.0899 20.0515C18.9997 20.1417 18.8774 20.1923 18.7499 20.1923H7.21146C7.08396 20.1923 6.96167 20.1417 6.87151 20.0515C6.78135 19.9613 6.73069 19.839 6.73069 19.7115V3.36538C6.73069 3.23788 6.78135 3.11559 6.87151 3.02543C6.96167 2.93527 7.08396 2.88462 7.21146 2.88462ZM8.173 22.1154H10.0961C10.2236 22.1154 10.3459 22.166 10.436 22.2562C10.5262 22.3464 10.5768 22.4686 10.5768 22.5962C10.5768 22.7237 10.5262 22.8459 10.436 22.9361C10.3459 23.0263 10.2236 23.0769 10.0961 23.0769H8.173C8.04549 23.0769 7.92321 23.0263 7.83305 22.9361C7.74288 22.8459 7.69223 22.7237 7.69223 22.5962C7.69223 22.4686 7.74288 22.3464 7.83305 22.2562C7.92321 22.166 8.04549 22.1154 8.173 22.1154ZM12.0192 22.1154H13.9422C14.0697 22.1154 14.192 22.166 14.2822 22.2562C14.3723 22.3464 14.423 22.4686 14.423 22.5962V23.5577C14.423 23.6852 14.3723 23.8075 14.2822 23.8976C14.192 23.9878 14.0697 24.0385 13.9422 24.0385H12.0192C11.8916 24.0385 11.7694 23.9878 11.6792 23.8976C11.589 23.8075 11.5384 23.6852 11.5384 23.5577V22.5962C11.5384 22.4686 11.589 22.3464 11.6792 22.2562C11.7694 22.166 11.8916 22.1154 12.0192 22.1154ZM15.8653 22.1154H17.7884C17.9159 22.1154 18.0382 22.166 18.1283 22.2562C18.2185 22.3464 18.2692 22.4686 18.2692 22.5962C18.2692 22.7237 18.2185 22.8459 18.1283 22.9361C18.0382 23.0263 17.9159 23.0769 17.7884 23.0769H15.8653C15.7378 23.0769 15.6155 23.0263 15.5254 22.9361C15.4352 22.8459 15.3845 22.7237 15.3845 22.5962C15.3845 22.4686 15.4352 22.3464 15.5254 22.2562C15.6155 22.166 15.7378 22.1154 15.8653 22.1154Z" fill="#429BDB"/>
</svg>
