<svg width="25" height="25" viewBox="0 0 25 25" fill="none" xmlns="http://www.w3.org/2000/svg">
<path d="M11.0832 8.15851C11.1289 8.24992 11.1746 8.34132 11.2203 8.40988C11.266 8.47843 11.3346 8.54699 11.3803 8.61555C11.4488 8.6841 11.5174 8.75266 11.6088 8.82121C11.6773 8.86692 11.7687 8.93547 11.883 8.95833C11.9744 9.00403 12.0658 9.02688 12.1801 9.04973C12.2943 9.07259 12.3857 9.07259 12.4771 9.07259C12.5686 9.07259 12.6828 9.07259 12.7742 9.04973C12.8656 9.02688 12.957 9.00403 13.0256 8.95833H13.0484C13.1399 8.91262 13.2313 8.86692 13.3227 8.79836C13.3912 8.75266 13.4598 8.6841 13.5283 8.61555L13.5512 8.59269C13.6197 8.52414 13.6654 8.45558 13.7112 8.38703C13.7569 8.31847 13.8026 8.24992 13.8254 8.15851C13.8254 8.13566 13.8254 8.13566 13.8483 8.1128C13.894 8.0214 13.9168 7.90714 13.9397 7.81573C13.9625 7.72432 13.9625 7.61006 13.9625 7.51865C13.9625 7.42724 13.9625 7.31298 13.9397 7.22158C13.9168 7.13017 13.894 7.03876 13.8483 6.9245C13.7797 6.76454 13.6883 6.62742 13.574 6.51316C13.5512 6.49031 13.5512 6.49031 13.5283 6.46746C13.4598 6.39891 13.3912 6.3532 13.2998 6.28465C13.2084 6.23894 13.1399 6.19324 13.0484 6.14753C12.957 6.10183 12.8656 6.07898 12.7742 6.05613C12.66 6.03327 12.5686 6.03327 12.4771 6.03327C12.3857 6.03327 12.2715 6.03327 12.1801 6.05613C12.0887 6.07898 11.9973 6.10183 11.9058 6.14753H11.883C11.7916 6.19324 11.7002 6.23894 11.6316 6.28465C11.5402 6.3532 11.4717 6.39891 11.4031 6.46746C11.3346 6.53602 11.266 6.60457 11.2203 6.67313C11.1746 6.74168 11.1289 6.83309 11.0832 6.9245C11.0375 7.01591 11.0146 7.10732 10.9918 7.19872C10.9689 7.31298 10.9689 7.40439 10.9689 7.4958C10.9689 7.58721 10.9689 7.70147 10.9918 7.79288C11.0146 7.97569 11.0603 8.0671 11.0832 8.15851Z" fill="white"/>
<path d="M14.2595 16.5212H13.7339V10.9225C13.7339 10.6026 13.4825 10.3283 13.1398 10.3283H10.7403C10.4204 10.3283 10.1462 10.5797 10.1462 10.9225V12.1565C10.1462 12.4764 10.3975 12.7506 10.7403 12.7506H11.2202V16.5441H10.7403C10.4204 16.5441 10.1462 16.7954 10.1462 17.1382V18.3722C10.1462 18.6922 10.3975 18.9664 10.7403 18.9664H14.2595C14.5794 18.9664 14.8537 18.715 14.8537 18.3722V17.1382C14.8537 16.7954 14.5794 16.5212 14.2595 16.5212Z" fill="white"/>
<path d="M12.5 0C5.59872 0 0 5.59872 0 12.5C0 19.4013 5.59872 25 12.5 25C19.4013 25 25 19.4013 25 12.5C25 5.59872 19.4013 0 12.5 0ZM12.5 23.3547C6.5128 23.3547 1.64534 18.4872 1.64534 12.5C1.64534 6.5128 6.5128 1.64534 12.5 1.64534C18.4872 1.64534 23.3547 6.5128 23.3547 12.5C23.3547 18.4872 18.4872 23.3547 12.5 23.3547Z" fill="white"/>
</svg>
