<svg width="25" height="25" viewBox="0 0 25 25" fill="none" xmlns="http://www.w3.org/2000/svg">
<path d="M15.625 2.34375C11.7617 2.34375 8.59375 5.51172 8.59375 9.375C8.59375 9.78125 8.66016 10.1391 8.71563 10.4984L2.5625 16.625L2.34375 16.8703V22.6562H7.8125V20.3125H10.1562V17.9688H12.5V15.6484C13.4219 16.1016 14.4961 16.4062 15.625 16.4062C19.4883 16.4062 22.6562 13.2383 22.6562 9.375C22.6562 5.51172 19.4883 2.34375 15.625 2.34375ZM15.625 3.90625C18.6367 3.90625 21.0938 6.36328 21.0938 9.375C21.0938 12.3867 18.6367 14.8438 15.625 14.8438C14.6959 14.8339 13.7829 14.5994 12.9641 14.1602L12.7688 14.0625H10.9375V16.4062H8.59375V18.75H6.25V21.0938H3.90625V17.5289L10.0828 11.3281L10.3758 11.0594L10.3039 10.6453C10.2258 10.1766 10.157 9.75703 10.157 9.375C10.157 6.36328 12.6133 3.90625 15.625 3.90625Z" fill="#9e1f1f"/>
<path d="M16.5791 6.35848C16.7727 6.28212 16.9796 6.24521 17.1877 6.24991C17.5959 6.25914 17.9843 6.42783 18.2698 6.71986C18.5552 7.01189 18.7149 7.40405 18.7148 7.8124C18.7147 8.22075 18.5548 8.61284 18.2692 8.90472C17.9836 9.19661 17.5951 9.3651 17.1869 9.37413C16.9788 9.37873 16.7719 9.34172 16.5783 9.26525C16.3848 9.18879 16.2084 9.07443 16.0596 8.92888C15.9109 8.78332 15.7927 8.60951 15.712 8.41765C15.6313 8.2258 15.5898 8.01975 15.5898 7.81162C15.5899 7.60349 15.6315 7.39747 15.7123 7.20565C15.7931 7.01383 15.9113 6.84008 16.0602 6.6946C16.209 6.54912 16.3854 6.43485 16.5791 6.35848Z" fill="white"/>
</svg>
