<svg width="27" height="27" viewBox="0 0 27 27" fill="none" xmlns="http://www.w3.org/2000/svg">
<g clip-path="url(#clip0)">
<path d="M26.979 12.8567C26.9736 11.7808 26.0982 10.9055 25.0171 10.9055L18.3833 10.9214L18.3621 3.74414C18.3569 2.66844 17.4814 1.79297 16.4057 1.79297L10.2778 1.80883L6.88719 1.81934C6.73949 1.81934 6.59715 1.87743 6.49168 1.98289C6.38622 2.08836 6.32812 2.23071 6.32812 2.3784C6.32812 2.6841 6.58129 2.93211 6.88719 2.93211L10.2778 2.9214L16.4004 2.90575C16.8645 2.90575 17.2388 3.28004 17.2388 3.74414L17.26 11.5593C17.26 11.7861 17.1755 11.9971 17.0173 12.1553C16.8591 12.3135 16.6482 12.4031 16.4214 12.4031L8.54297 12.4295C8.37941 12.4295 8.22656 12.498 8.12109 12.6245L6.32812 14.7024L4.30321 12.6089C4.19774 12.498 4.05004 12.4348 3.90234 12.44L1.98289 12.4453C1.76125 12.4453 1.55031 12.3609 1.39211 12.2027C1.2339 12.0444 1.14429 11.8335 1.14429 11.6069L1.11793 3.79152C1.11793 3.56493 1.20238 3.35399 1.36059 3.19579C1.51879 3.03758 1.72973 2.94777 1.95653 2.94777H2.68945C2.99535 2.94777 3.24852 2.69481 3.24316 2.38891C3.24316 2.24121 3.18507 2.09887 3.07446 1.9934C2.96899 1.88793 2.82664 1.82984 2.67895 1.8352H1.95117C1.42918 1.8352 0.938713 2.04078 0.569572 2.40992C0.200432 2.78442 0 3.27489 0 3.79688L0.0210114 11.6121C0.0210114 12.1343 0.226799 12.6245 0.60109 12.9937C0.97023 13.3577 1.4607 13.5632 1.97754 13.5632H1.98804L3.67039 13.5581L5.95363 15.9204C6.0591 16.0259 6.20679 16.0893 6.35449 16.0893H6.37035C6.52856 16.084 6.67625 16.0154 6.77637 15.8941L8.80128 13.5422L10.8528 13.5369L10.8579 20.7141C10.8579 21.2361 11.0637 21.7266 11.4329 22.0957C11.802 22.4648 12.2925 22.6653 12.8145 22.6653L18.2356 22.6494L20.2764 24.9907C20.3765 25.1069 20.5295 25.1807 20.6824 25.1807H20.6929C20.8459 25.1807 20.9936 25.1174 21.0938 25.0066L23.3667 22.6336L25.0488 22.6284C25.5708 22.6284 26.0613 22.4226 26.4304 22.0535C26.7996 21.6843 27 21.1887 27 20.6665L26.979 12.8567ZM25.8821 20.6772C25.8821 20.9038 25.7976 21.1148 25.6394 21.273C25.4812 21.4312 25.2703 21.521 25.0435 21.521L23.124 21.5261C22.9712 21.5261 22.8286 21.5894 22.7232 21.7002L20.7087 23.8042L18.8999 21.7319C18.7944 21.6106 18.6416 21.542 18.4834 21.542H18.478L12.8145 21.5525C12.593 21.5525 12.3821 21.4682 12.2239 21.31C12.0657 21.1518 11.9761 20.9409 11.9761 20.7193L11.9707 13.5369L16.4373 13.5264C17.3391 13.5264 18.1143 12.9146 18.3306 12.0444L25.0278 12.0234C25.4917 12.0234 25.8662 12.3979 25.8662 12.8618L25.8821 20.6772Z" fill="#9e1f1f"/>
<path d="M4.65145 2.93737L4.66195 2.94273C4.71469 2.95859 4.76742 2.96374 4.82016 2.96374C5.06282 2.96374 5.28426 2.80039 5.35286 2.56823C5.44246 2.27304 5.27376 1.96179 4.97836 1.87218L4.96785 1.86682C4.67267 1.77722 4.36141 1.94592 4.2718 2.24132C4.1927 2.53671 4.35626 2.84776 4.65145 2.93737Z" fill="#9e1f1f"/>
<path d="M7.57836 10.9685C7.83688 10.9685 7.98973 10.8789 8.04246 10.6995L8.32715 9.65015H10.0937L10.3786 10.6995C10.426 10.8789 10.5842 10.9685 10.8427 10.9685C11.0483 10.9685 11.2434 10.9104 11.4333 10.7998C11.6284 10.689 11.7234 10.5466 11.7234 10.3938C11.7234 10.3726 11.718 10.3411 11.7075 10.2935L10.1045 5.06762C10.0569 4.91992 9.94626 4.80395 9.77734 4.71949C9.61399 4.64039 9.41891 4.60352 9.20262 4.60352C8.98633 4.60352 8.79661 4.64574 8.6279 4.71949C8.45898 4.79859 8.34837 4.91457 8.30078 5.06762L6.70824 10.2988C6.69774 10.3462 6.69238 10.3779 6.69238 10.3989C6.69238 10.5571 6.7927 10.6943 6.98242 10.805C7.17235 10.9104 7.37278 10.9685 7.57836 10.9685ZM8.61204 8.5691L9.20262 6.39648L9.7932 8.5691H8.61204Z" fill="white"/>
<path d="M20.6133 16.1367C20.624 16.0366 20.5923 15.9468 20.5291 15.8677C20.4236 15.7517 20.2285 15.678 20.0069 15.678C19.7803 15.678 19.6377 15.7729 19.5745 15.9731C19.2371 15.9731 18.9207 16.0049 18.6201 16.0681C18.6253 15.8994 18.6306 15.7834 18.6411 15.6516C18.678 15.6516 18.7149 15.6462 18.7571 15.6462C18.8467 15.6411 18.9522 15.6357 19.0894 15.6252C19.2212 15.6147 19.3794 15.5989 19.5535 15.5776C19.7432 15.5566 19.9436 15.5356 20.1282 15.5249C20.8191 15.4565 21.0405 15.314 21.0405 14.9292C21.0405 14.6284 20.8613 14.4228 20.6082 14.4228C20.5606 14.4228 20.5078 14.4228 20.3972 14.4438L20.3023 14.4597C19.6748 14.5547 19.3848 14.6021 18.7307 14.6443C18.752 14.4756 18.7676 14.312 18.7676 14.2119C18.7676 13.9377 18.5884 13.7847 18.2615 13.7847C17.8448 13.79 17.7236 13.9692 17.6602 14.6865H17.4282C17.3491 14.6865 17.2332 14.6865 17.1223 14.6812C17.0117 14.6812 16.9009 14.676 16.8271 14.676C16.4737 14.676 16.3313 14.813 16.3313 15.1716C16.3313 15.7043 16.6372 15.7043 17.2542 15.7043C17.365 15.7043 17.4863 15.7043 17.6075 15.6938V15.7148C17.5969 15.9521 17.5864 16.1736 17.5811 16.4214C16.5686 16.9331 16.0098 17.7082 16.0098 18.6099C16.0098 19.4062 16.4263 19.8598 17.1592 19.8598C17.4336 19.8598 17.6602 19.8071 17.9556 19.6804C18.0452 19.8228 18.1455 19.8755 18.3247 19.8755C18.6885 19.8755 18.9575 19.6646 18.9575 19.3904C18.9575 19.3008 18.9365 19.1953 18.8889 19.0581C19.3848 18.6047 19.9014 17.8664 20.2813 17.0754C20.6133 17.2231 20.7979 17.5183 20.7979 17.9087C20.7979 18.6521 20.1758 18.8999 19.7644 19.0635L19.7539 19.0688C19.5323 19.1531 19.4163 19.3218 19.4163 19.5539C19.4163 19.865 19.6694 20.1235 19.9753 20.1235C20.3814 20.1235 21.8843 19.5644 21.8843 17.8928C21.8948 17.0332 21.4255 16.395 20.6133 16.1367ZM19.2634 16.9119C19.1475 17.1967 18.9048 17.5923 18.6621 17.8928C18.6411 17.6819 18.6094 17.2705 18.6094 17.0385C18.8257 16.9751 19.0366 16.9331 19.2634 16.9119ZM17.6075 17.55C17.6287 17.9297 17.6655 18.3093 17.7236 18.6733C17.5232 18.7839 17.3596 18.8367 17.2383 18.8367C17.1013 18.8367 17.0117 18.7153 17.0117 18.5361C17.0117 18.1037 17.2805 17.8401 17.6075 17.55Z" fill="white"/>
</g>
<defs>
<clipPath id="clip0">
<rect width="27" height="27" fill="white"/>
</clipPath>
</defs>
</svg>
