<svg width="20" height="20" viewBox="0 0 20 20" fill="none" xmlns="http://www.w3.org/2000/svg">
<g clip-path="url(#clip0)">
<path d="M12.8594 5.71972C12.8594 7.29717 11.5805 8.57615 10.0029 8.57615C8.42546 8.57615 7.14648 7.29717 7.14648 5.71972C7.14648 4.14209 8.42546 2.86328 10.0029 2.86328C11.5805 2.86328 12.8594 4.14209 12.8594 5.71972Z" fill="white"/>
<path d="M12.5015 10.7183H7.50279C5.33466 10.7207 3.57781 12.4777 3.5752 14.6459V17.6561L3.62994 17.7016C3.82555 17.8639 4.02657 18.0192 4.23299 18.1657C4.26437 18.1878 4.29645 18.2093 4.32818 18.2314C4.53757 18.3759 4.75131 18.5131 4.97098 18.6409C5.00237 18.6591 5.0341 18.6767 5.06565 18.6941C5.28794 18.8208 5.51476 18.9397 5.74611 19.0487C5.7754 19.0625 5.80469 19.075 5.83398 19.0883C6.07004 19.1953 6.30959 19.2972 6.55349 19.3868C6.57912 19.3964 6.60527 19.4045 6.6309 19.414C6.88091 19.5032 7.13074 19.5836 7.38755 19.6528L7.45066 19.6689C7.71235 19.7377 7.97665 19.7973 8.24375 19.8453C8.25909 19.8481 8.27478 19.8498 8.29047 19.8528C8.56367 19.9002 8.8393 19.9373 9.11703 19.9619H9.14249C9.42806 19.9867 9.71363 19.9998 10.0029 19.9998C10.2921 19.9998 10.5785 19.9867 10.8634 19.9619H10.8887C11.1666 19.9373 11.4426 19.9002 11.7161 19.8524C11.7315 19.8498 11.7468 19.8481 11.7622 19.8453C12.0296 19.7973 12.2941 19.7381 12.5563 19.6685L12.6177 19.6532C12.8743 19.5817 13.1274 19.5025 13.3778 19.4129C13.402 19.4042 13.4268 19.3964 13.4493 19.3875C13.6949 19.2972 13.9366 19.196 14.1744 19.0865C14.2016 19.0743 14.2286 19.0625 14.2554 19.0508C14.4896 18.9404 14.7195 18.8201 14.945 18.6917C14.9727 18.6754 15.0013 18.6601 15.0292 18.6441C15.252 18.5142 15.4696 18.3752 15.6819 18.2274C15.7098 18.2082 15.7379 18.1896 15.7658 18.1699C15.9764 18.021 16.1814 17.8632 16.3807 17.6969L16.4291 17.6564V14.6459C16.4267 12.4777 14.6697 10.7207 12.5015 10.7183Z" fill="white"/>
<path d="M20.0001 10.0042C20.0032 5.491 16.9822 1.53551 12.6273 0.350672C8.27258 -0.834336 3.66382 1.04543 1.37993 4.93798C-0.904132 8.83053 -0.297071 13.7705 2.8615 16.9941V14.6459C2.86446 12.0836 4.94089 10.0072 7.5032 10.0042H12.502C15.0643 10.0072 17.1407 12.0836 17.1437 14.6459V16.9945C18.9753 15.1288 20.0011 12.6187 20.0001 10.0042ZM10.0026 9.2901C8.03059 9.2901 6.43204 7.69155 6.43204 5.71956C6.43204 3.74757 8.03059 2.14902 10.0026 2.14902C11.9746 2.14902 13.5731 3.74757 13.5731 5.71956C13.571 7.69051 11.9737 9.28783 10.0026 9.2901Z" fill="#9e1f1f"/>
</g>
<defs>
<clipPath id="clip0">
<rect width="20" height="20" fill="white"/>
</clipPath>
</defs>
</svg>
