<svg width="25" height="25" viewBox="0 0 25 25" fill="none" xmlns="http://www.w3.org/2000/svg">
<path d="M19.2543 15.1416L17.3662 17.0297L17.9334 17.5968L18.8532 16.6771V20.1211H19.6554V16.6771L20.5751 17.5968L21.1423 17.0297L19.2543 15.1416Z" fill="#9e1f1f"/>
<path d="M10.3116 3.79297L9.7444 4.36015L10.6642 5.27991H4.81348V6.08214H10.6642L9.7444 7.0019L10.3116 7.56908L12.1996 5.68102L10.3116 3.79297Z" fill="#9e1f1f"/>
<path d="M1.60449 16.9121V22.5277H8.82459V16.9121H1.60449ZM8.02236 21.7255H2.40673V17.7143H8.02236V21.7255Z" fill="#9e1f1f"/>
<path d="M14.0395 16.9121H10.0283V17.7143H14.0395V16.9121Z" fill="#9e1f1f"/>
<path d="M14.0395 18.5166H10.0283V19.3188H14.0395V18.5166Z" fill="#9e1f1f"/>
<path d="M14.0395 20.1211H10.0283V20.9233H14.0395V20.1211Z" fill="#9e1f1f"/>
<path d="M14.0395 21.7256H10.0283V22.5278H14.0395V21.7256Z" fill="#9e1f1f"/>
<path d="M24.4549 12.5975C24.1649 11.5819 23.3414 10.8222 22.3061 10.6156L20.0558 10.1656V10.0605C20.7979 9.62966 21.3506 8.91086 21.5624 8.05728C22.3025 7.91448 22.8637 7.26427 22.8637 6.4833V3.72482C22.8637 2.61854 22.1477 1.65225 21.1044 1.32293C20.5203 0.532731 19.5986 0.0654297 18.6098 0.0654297C16.0892 0.0654297 14.0391 2.11554 14.0391 4.63616V6.4833C14.0391 7.26427 14.6002 7.91448 15.3403 8.05728C15.5521 8.91086 16.1048 9.62966 16.8469 10.0605V10.1656L14.5974 10.6156C13.7411 10.7869 13.0347 11.3392 12.65 12.0989H0V24.9347H16.0447V14.5056H25L24.4549 12.5975ZM21.6603 7.17402V5.79257C21.899 5.93176 22.0614 6.18767 22.0614 6.4833C22.0614 6.77892 21.899 7.03483 21.6603 7.17402ZM15.2424 7.17402C15.0038 7.03483 14.8413 6.77892 14.8413 6.4833C14.8413 6.18767 15.0038 5.93176 15.2424 5.79257V7.17402ZM14.8413 5.10185V4.63575C14.8413 2.55837 16.5316 0.867663 18.6098 0.867663C19.3808 0.867663 20.0967 1.25073 20.5243 1.89252L20.6102 2.02127L20.7606 2.05898C21.5267 2.25031 22.0614 2.93542 22.0614 3.72482V5.10185C21.8244 4.96387 21.5528 4.87883 21.2592 4.87883C20.3105 4.87883 19.3703 4.56556 18.6114 3.99637L18.0125 3.54712L17.4141 4.14559C16.9412 4.61851 16.3126 4.87883 15.6436 4.87883C15.3499 4.87883 15.0784 4.96387 14.8413 5.10185ZM16.0447 7.28553V5.65419C16.7759 5.56634 17.4526 5.24144 17.9813 4.71277L18.088 4.60607L18.1305 4.63776C18.9199 5.22981 19.8757 5.5872 20.8581 5.66462V7.28553C20.8581 8.61283 19.7787 9.69223 18.4514 9.69223C17.1241 9.69223 16.0447 8.61283 16.0447 7.28553ZM15.2424 24.1324H0.802233V16.1101H15.2424V24.1324ZM15.2424 15.3079H0.802233V12.9012H12.3612L11.9027 14.5056H15.2424V15.3079ZM21.9732 13.7034L21.6479 12.403L20.8697 12.5971L21.1465 13.7034H15.7563L16.0326 12.5971L15.2545 12.403L14.9292 13.7034H12.9661L13.2196 12.8177C13.427 12.0921 14.015 11.5502 14.7547 11.4022L17.6491 10.8234V10.3886C17.9062 10.4556 18.1738 10.4945 18.4514 10.4945C18.7289 10.4945 18.9965 10.4556 19.2536 10.389V10.8238L22.1485 11.4022C22.8881 11.5502 23.4762 12.0925 23.6835 12.8177L23.9362 13.7034H21.9732Z" fill="white"/>
<path d="M2.40673 13.7031H1.60449V14.5054H2.40673V13.7031Z" fill="#9e1f1f"/>
<path d="M4.01122 13.7031H3.20898V14.5054H4.01122V13.7031Z" fill="#9e1f1f"/>
<path d="M5.61571 13.7031H4.81348V14.5054H5.61571V13.7031Z" fill="#9e1f1f"/>
<path d="M0.802233 5.27979H0V6.08202H0.802233V5.27979Z" fill="#9e1f1f"/>
<path d="M2.40673 5.27979H1.60449V6.08202H2.40673V5.27979Z" fill="#9e1f1f"/>
<path d="M4.01122 5.27979H3.20898V6.08202H4.01122V5.27979Z" fill="#9e1f1f"/>
<path d="M19.6548 24.1323H18.8525V24.9346H19.6548V24.1323Z" fill="#9e1f1f"/>
<path d="M19.6548 22.5278H18.8525V23.3301H19.6548V22.5278Z" fill="#9e1f1f"/>
<path d="M19.6548 20.9233H18.8525V21.7256H19.6548V20.9233Z" fill="#9e1f1f"/>
</svg>
