<svg width="25" height="25" viewBox="0 0 25 25" fill="none" xmlns="http://www.w3.org/2000/svg">
<path d="M9.0498 20.875C9.0498 21.4972 9.56371 22 10.1998 22H15.9498V17.5001H9.0498V20.875ZM17.0998 22H22.8498C23.4859 22 23.9998 21.4972 23.9998 20.875V17.5001H17.0998V22ZM22.8498 11.8754H22.1167C22.2101 11.6082 22.2748 11.3305 22.2748 11.0387C22.2748 9.79067 21.3045 8.50049 19.6837 8.50049C17.9551 8.50049 16.9561 10.1774 16.5248 11.1476C16.09 10.1774 15.0909 8.50049 13.3659 8.50049C11.7451 8.50049 10.7748 9.79067 10.7748 11.0387C10.7748 11.3305 10.8359 11.6082 10.9329 11.8754H10.1998C9.56371 11.8754 9.0498 12.3781 9.0498 13.0003V16.3752H15.9498V11.8754H16.4996L16.5248 11.8683L16.55 11.8754H17.0998V16.3752H23.9998V13.0003C23.9998 12.3781 23.4859 11.8754 22.8498 11.8754ZM13.0748 11.8754C12.9778 11.8261 12.8915 11.7699 12.8161 11.7066C12.5537 11.4816 12.4998 11.2215 12.4998 11.0387C12.4998 10.6977 12.7298 10.1879 13.3659 10.1879C14.0379 10.1879 14.6453 11.1512 14.9651 11.8754H13.0748ZM20.2336 11.7066C20.1581 11.7699 20.0718 11.8261 19.9748 11.8754H18.0845C18.4007 11.1617 19.0117 10.1879 19.6837 10.1879C20.3198 10.1879 20.5498 10.6977 20.5498 11.0387C20.5498 11.2215 20.4959 11.4816 20.2336 11.7066Z" fill="white"/>
<path d="M11.2278 8.01891C10.2683 8.67279 9.71484 9.7415 9.64656 10.8243C8.6475 11.0668 7.9 11.9492 7.9 13.0004V20.875C7.9 21.2864 8.02219 21.666 8.21984 22H2.15C1.51391 22 1 21.4973 1 20.875V8.50054C1 7.87829 1.51391 7.37558 2.15 7.37558H3.20656L2.10328 6.60217C1.84453 6.42288 1.78703 6.07134 1.97031 5.81822L2.30453 5.36121C2.48781 5.10809 2.84719 5.05184 3.10594 5.23113L4.25953 6.03267L3.84625 4.95693C3.73125 4.66866 3.88219 4.34172 4.18047 4.23274L4.71953 4.03587C5.01781 3.92689 5.34844 4.07454 5.45984 4.36632L6.175 6.23305L6.89016 4.36984C7.00156 4.07806 7.33219 3.9304 7.63047 4.03938L8.16953 4.23625C8.46781 4.34523 8.61875 4.66866 8.50734 4.96044L8.09406 6.03618L9.24406 5.23113C9.50281 5.04833 9.86219 5.10809 10.0455 5.36121L10.3797 5.81822C10.5666 6.07134 10.5055 6.42288 10.2467 6.60217L9.14344 7.37558H10.2C10.6564 7.37558 11.0409 7.63924 11.2278 8.01891Z" fill="#9e1f1f"/>
</svg>
