<svg width="25" height="25" viewBox="0 0 25 25" fill="none" xmlns="http://www.w3.org/2000/svg">
<path d="M8.33301 2.0835H16.6663C18.3239 2.0835 19.9137 2.74198 21.0858 3.91408C22.2579 5.08618 22.9163 6.67589 22.9163 8.3335V16.6668C22.9163 18.3244 22.2579 19.9141 21.0858 21.0862C19.9137 22.2584 18.3239 22.9168 16.6663 22.9168H8.33301C6.67541 22.9168 5.08569 22.2584 3.91359 21.0862C2.74149 19.9141 2.08301 18.3244 2.08301 16.6668V8.3335C2.08301 6.67589 2.74149 5.08618 3.91359 3.91408C5.08569 2.74198 6.67541 2.0835 8.33301 2.0835ZM8.33301 4.16683C7.22794 4.16683 6.16813 4.60582 5.38673 5.38722C4.60533 6.16862 4.16634 7.22843 4.16634 8.3335V16.6668C4.16634 17.7719 4.60533 18.8317 5.38673 19.6131C6.16813 20.3945 7.22794 20.8335 8.33301 20.8335H16.6663C17.7714 20.8335 18.8312 20.3945 19.6126 19.6131C20.394 18.8317 20.833 17.7719 20.833 16.6668V8.3335C20.833 7.22843 20.394 6.16862 19.6126 5.38722C18.8312 4.60582 17.7714 4.16683 16.6663 4.16683H8.33301Z" fill="#9e1f1f"/>
<path d="M17.7083 11.4582H14.5833C14.307 11.4582 14.0421 11.5679 13.8467 11.7633C13.6514 11.9586 13.5416 12.2236 13.5416 12.4998C13.5416 12.7761 13.6514 13.0411 13.8467 13.2364C14.0421 13.4318 14.307 13.5415 14.5833 13.5415H17.7083C17.9846 13.5415 18.2495 13.4318 18.4449 13.2364C18.6402 13.0411 18.75 12.7761 18.75 12.4998C18.75 12.2236 18.6402 11.9586 18.4449 11.7633C18.2495 11.5679 17.9846 11.4582 17.7083 11.4582Z" fill="white"/>
<path d="M17.7083 15.6248H12.5C12.2237 15.6248 11.9587 15.7346 11.7634 15.9299C11.568 16.1253 11.4583 16.3902 11.4583 16.6665C11.4583 16.9428 11.568 17.2077 11.7634 17.4031C11.9587 17.5984 12.2237 17.7082 12.5 17.7082H17.7083C17.9846 17.7082 18.2495 17.5984 18.4449 17.4031C18.6402 17.2077 18.75 16.9428 18.75 16.6665C18.75 16.3902 18.6402 16.1253 18.4449 15.9299C18.2495 15.7346 17.9846 15.6248 17.7083 15.6248Z" fill="white"/>
<path d="M17.7083 7.2915H12.5C12.2237 7.2915 11.9587 7.40125 11.7634 7.5966C11.568 7.79195 11.4583 8.0569 11.4583 8.33317C11.4583 8.60944 11.568 8.87439 11.7634 9.06974C11.9587 9.26509 12.2237 9.37484 12.5 9.37484H17.7083C17.9846 9.37484 18.2495 9.26509 18.4449 9.06974C18.6402 8.87439 18.75 8.60944 18.75 8.33317C18.75 8.0569 18.6402 7.79195 18.4449 7.5966C18.2495 7.40125 17.9846 7.2915 17.7083 7.2915Z" fill="white"/>
<path d="M10.3645 10.5415L8.15413 12.753L7.41767 12.0165C7.22121 11.8268 6.95808 11.7218 6.68496 11.7241C6.41184 11.7265 6.15057 11.8361 5.95744 12.0292C5.76431 12.2223 5.65476 12.4836 5.65238 12.7567C5.65001 13.0298 5.755 13.293 5.94475 13.4894L7.41767 14.9613C7.51441 15.0581 7.6293 15.135 7.75575 15.1874C7.88221 15.2398 8.01776 15.2668 8.15465 15.2668C8.29154 15.2668 8.42709 15.2398 8.55354 15.1874C8.68 15.135 8.79488 15.0581 8.89163 14.9613L11.8375 12.0155C11.9342 11.9187 12.011 11.8039 12.0634 11.6775C12.1158 11.5511 12.1428 11.4157 12.1429 11.2789C12.1429 11.142 12.116 11.0065 12.0637 10.8801C12.0114 10.7537 11.9347 10.6388 11.838 10.542C11.7413 10.4452 11.6264 10.3685 11.5001 10.3161C11.3737 10.2637 11.2382 10.2367 11.1014 10.2366C10.9645 10.2366 10.8291 10.2635 10.7026 10.3158C10.5762 10.3681 10.4613 10.4448 10.3645 10.5415Z" fill="white"/>
</svg>
