<svg width="25" height="25" viewBox="0 0 25 25" fill="none" xmlns="http://www.w3.org/2000/svg">
<g clip-path="url(#clipresults)">
<path d="M11.0808 19.5289C10.1061 20.4295 8.75815 20.6313 7.56254 20.0556C7.13031 19.8474 6.76557 19.56 6.48002 19.2158L4.85204 22.8166C4.77797 22.9804 4.86068 23.1039 4.89965 23.1493C4.93861 23.1947 5.04804 23.2953 5.22118 23.2471L6.40634 22.9172C6.5414 22.8797 6.67792 22.8616 6.81254 22.8616C7.38046 22.8616 7.91498 23.183 8.17235 23.7157L8.70761 24.8233C8.78578 24.9852 8.93241 25.0014 8.99345 25.0001C9.05331 24.9994 9.20058 24.9799 9.2746 24.8161L11.8641 19.0884C11.5796 19.1703 11.3101 19.3169 11.0808 19.5289Z" fill="white"/>
<path d="M20.1479 22.8166L18.5199 19.2158C18.2344 19.5601 17.8696 19.8475 17.4374 20.0556C16.2417 20.6313 14.8938 20.4295 13.9192 19.5289C13.6898 19.3169 13.4204 19.1703 13.1357 19.0884L15.7252 24.8161C15.7993 24.98 15.9466 24.9994 16.0064 25.0001C16.0674 25.0014 16.2141 24.9852 16.2922 24.8233L16.8275 23.7157C17.0848 23.183 17.6194 22.8616 18.1873 22.8616C18.3219 22.8616 18.4585 22.8797 18.5935 22.9172L19.7787 23.2471C19.9518 23.2953 20.0613 23.1948 20.1002 23.1493C20.1393 23.1038 20.222 22.9803 20.1479 22.8166Z" fill="white"/>
<path d="M21.4265 10.146C20.0744 9.22026 19.6549 7.38213 20.4714 5.96138C20.9622 5.10732 20.7068 4.26338 20.3041 3.75835C19.9014 3.25347 19.1353 2.8167 18.1936 3.10503C16.627 3.58486 14.9281 2.76689 14.3263 1.24268C13.9646 0.326465 13.1455 0 12.4997 0C11.8538 0 11.0347 0.326465 10.673 1.24272C10.0713 2.76699 8.37254 3.58486 6.80579 3.10508C5.86395 2.8168 5.09808 3.25347 4.69529 3.7584C4.29261 4.26343 4.03719 5.10728 4.52796 5.96143C5.34446 7.38213 4.92493 9.22031 3.57288 10.1461C2.76009 10.7027 2.6241 11.5738 2.76776 12.2035C2.91141 12.8332 3.41199 13.559 4.38577 13.7078C6.0056 13.9553 7.18109 15.4293 7.06199 17.0636C6.99031 18.0461 7.58665 18.6956 8.16854 18.9759C8.75047 19.2561 9.63006 19.3174 10.3535 18.6488C10.9552 18.0928 11.7276 17.8147 12.4996 17.8147C13.272 17.8147 14.044 18.0927 14.6457 18.6488C15.3693 19.3175 16.2489 19.2562 16.8308 18.9759C17.4127 18.6957 18.009 18.0461 17.9373 17.0637C17.8182 15.4293 18.9937 13.9553 20.6136 13.7078C21.5873 13.559 22.0878 12.8332 22.2316 12.2035C22.3753 11.5737 22.2392 10.7026 21.4265 10.146ZM12.4997 16.4025C8.95599 16.4025 6.07298 13.5195 6.07298 9.97578C6.07298 6.43208 8.95594 3.54902 12.4997 3.54902C16.0434 3.54902 18.9264 6.43203 18.9264 9.97573C18.9263 13.5194 16.0434 16.4025 12.4997 16.4025Z" fill="#9e1f1f"/>
<path d="M12.4999 4.74756C9.61694 4.74756 7.27148 7.09307 7.27148 9.97603C7.27148 12.859 9.61689 15.2045 12.4999 15.2045C15.383 15.2045 17.7284 12.859 17.7284 9.97603C17.7284 7.09307 15.3829 4.74756 12.4999 4.74756ZM15.1794 9.46909L11.9254 11.8458C11.8221 11.9212 11.6982 11.9611 11.572 11.9611C11.5395 11.9611 11.5068 11.9585 11.4743 11.9531C11.3157 11.9269 11.1742 11.838 11.0817 11.7063L10.1083 10.3205C9.91816 10.0497 9.98354 9.67598 10.2543 9.48579C10.5251 9.29561 10.8987 9.36094 11.089 9.63174L11.7115 10.5182L14.4726 8.50146C14.7399 8.3064 15.1147 8.3646 15.3098 8.63188C15.505 8.89907 15.4466 9.27388 15.1794 9.46909Z" fill="white"/>
</g>
<defs>
<clipPath id="clipresults">
<rect width="25" height="25" fill="white"/>
</clipPath>
</defs>
</svg>
