<svg width="24" height="24" viewBox="0 0 24 24" fill="none" xmlns="http://www.w3.org/2000/svg">
<g clip-path="url(#clip0)">
<path d="M21.6 21.9998H2.3999C2.17908 21.9998 2 21.821 2 21.5999V7.19989C2 6.9787 2.17908 6.7998 2.3999 6.7998H21.6C21.8208 6.7998 21.9999 6.9787 21.9999 7.19989V21.5999C21.9999 21.821 21.8208 21.9998 21.6 21.9998ZM2.79999 21.1998H21.1999V7.59979H2.79999V21.1998Z" fill="#9e1f1f"/>
<path d="M7.60004 16.0002H4.40009C4.17926 16.0002 4 15.8215 4 15.6003C4 15.3791 4.17926 15.2002 4.40009 15.2002H7.60004C7.82086 15.2002 8.00012 15.3791 8.00012 15.6003C8.00012 15.8215 7.82086 16.0002 7.60004 16.0002Z" fill="white"/>
<path d="M7.60004 17.5998H4.40009C4.17926 17.5998 4 17.4211 4 17.1999C4 16.9787 4.17926 16.7998 4.40009 16.7998H7.60004C7.82086 16.7998 8.00012 16.9787 8.00012 17.1999C8.00012 17.4211 7.82086 17.5998 7.60004 17.5998Z" fill="white"/>
<path d="M7.60004 19.1999H4.40009C4.17926 19.1999 4 19.021 4 18.7998C4 18.5786 4.17926 18.3999 4.40009 18.3999H7.60004C7.82086 18.3999 8.00012 18.5786 8.00012 18.7998C8.00012 19.021 7.82086 19.1999 7.60004 19.1999Z" fill="white"/>
<path d="M5.99939 14.0003C5.34534 14.0003 4.71582 13.8031 4.17786 13.4294C4.0625 13.3499 3.99786 13.2155 4.00665 13.0754C4.0398 12.5482 4.28735 12.0529 4.68213 11.705C4.49866 11.441 4.39941 11.1273 4.39941 10.8001C4.39941 10.3246 4.60944 9.87619 4.97492 9.5715C5.34058 9.26626 5.82251 9.14175 6.2973 9.22781C6.92261 9.34189 7.43091 9.83536 7.56293 10.4559C7.65668 10.8963 7.56458 11.3458 7.31665 11.705C7.71143 12.0526 7.95899 12.5479 7.99213 13.0758C8.00092 13.2159 7.93628 13.3503 7.82092 13.4299C7.28333 13.8031 6.65344 14.0003 5.99939 14.0003ZM4.84107 12.9011C5.54932 13.2939 6.4502 13.2939 7.15827 12.9011C7.08466 12.6175 6.90814 12.3703 6.65381 12.2035C6.51611 12.1126 6.42822 11.9671 6.41138 11.8034C6.39453 11.6378 6.45184 11.4758 6.56867 11.3586C6.76093 11.1642 6.8382 10.8959 6.78015 10.6222C6.71625 10.3199 6.45862 10.0703 6.15375 10.0143C5.91022 9.97067 5.67346 10.0311 5.48743 10.1855C5.30414 10.3382 5.1994 10.5623 5.1994 10.8001C5.1994 11.0098 5.2818 11.2086 5.43103 11.3586C5.54785 11.4765 5.60461 11.6386 5.5874 11.8034C5.57056 11.9671 5.48267 12.1123 5.34625 12.2022C5.091 12.3703 4.91412 12.6171 4.84107 12.9011Z" fill="white"/>
<path d="M9.59998 21.9998H2.3999C2.17908 21.9998 2 21.821 2 21.5999V7.19989C2 6.9787 2.17908 6.7998 2.3999 6.7998H9.59998C9.8208 6.7998 9.99988 6.9787 9.99988 7.19989V21.5999C9.99988 21.821 9.8208 21.9998 9.59998 21.9998ZM2.79999 21.1998H9.19989V7.59979H2.79999V21.1998Z" fill="#9e1f1f"/>
<path d="M20.0002 11.9998H13.6001C13.3793 11.9998 13.2002 11.821 13.2002 11.5997V9.19971C13.2002 8.97852 13.3793 8.7998 13.6001 8.7998H20.0002C20.221 8.7998 20.4001 8.97852 20.4001 9.19971V11.5997C20.4001 11.821 20.221 11.9998 20.0002 11.9998ZM14.0002 11.1998H19.6001V9.59979H14.0002V11.1998Z" fill="white"/>
<path d="M20.0002 15.9998H13.6001C13.3793 15.9998 13.2002 15.821 13.2002 15.5999V13.1999C13.2002 12.9787 13.3793 12.7998 13.6001 12.7998H20.0002C20.221 12.7998 20.4001 12.9787 20.4001 13.1999V15.5999C20.4001 15.821 20.221 15.9998 20.0002 15.9998ZM14.0002 15.1998H19.6001V13.5998H14.0002V15.1998Z" fill="white"/>
<path d="M20.0002 19.9999H13.6001C13.3793 19.9999 13.2002 19.821 13.2002 19.5999V17.1999C13.2002 16.9787 13.3793 16.7998 13.6001 16.7998H20.0002C20.221 16.7998 20.4001 16.9787 20.4001 17.1999V19.5999C20.4001 19.821 20.221 19.9999 20.0002 19.9999ZM14.0002 19.2H19.6001V17.5998H14.0002V19.2Z" fill="white"/>
<path d="M13.5999 11.9998H11.1999C10.9791 11.9998 10.7998 11.821 10.7998 11.5997V9.19971C10.7998 8.97852 10.9791 8.7998 11.1999 8.7998H13.5999C13.8207 8.7998 13.9999 8.97852 13.9999 9.19971V11.5997C13.9999 11.821 13.8207 11.9998 13.5999 11.9998ZM11.5998 11.1998H13.2V9.59979H11.5998V11.1998Z" fill="white"/>
<path d="M13.5999 15.9998H11.1999C10.9791 15.9998 10.7998 15.821 10.7998 15.5999V13.1999C10.7998 12.9787 10.9791 12.7998 11.1999 12.7998H13.5999C13.8207 12.7998 13.9999 12.9787 13.9999 13.1999V15.5999C13.9999 15.821 13.8207 15.9998 13.5999 15.9998ZM11.5998 15.1998H13.2V13.5998H11.5998V15.1998Z" fill="white"/>
<path d="M13.5999 19.9999H11.1999C10.9791 19.9999 10.7998 19.821 10.7998 19.5999V17.1999C10.7998 16.9787 10.9791 16.7998 11.1999 16.7998H13.5999C13.8207 16.7998 13.9999 16.9787 13.9999 17.1999V19.5999C13.9999 19.821 13.8207 19.9999 13.5999 19.9999ZM11.5998 19.2H13.2V17.5998H11.5998V19.2Z" fill="white"/>
<path d="M22.2001 24H1.79993C0.807678 24 0 23.1923 0 22.2001V1.79993C0 0.807678 0.807678 0 1.79993 0H22.2001C23.1923 0 24 0.807678 24 1.79993V22.2001C24 23.1923 23.1923 24 22.2001 24ZM1.79993 0.799988C1.24878 0.799988 0.799988 1.24841 0.799988 1.79993V22.2001C0.799988 22.7516 1.24878 23.2 1.79993 23.2H22.2001C22.7516 23.2 23.2 22.7516 23.2 22.2001V1.79993C23.2 1.24841 22.7512 0.799988 22.2001 0.799988H1.79993Z" fill="#9e1f1f"/>
<path d="M3.59967 4.00006H1.99969C1.77887 4.00006 1.59961 3.82135 1.59961 3.60016V2.00018C1.59961 1.77899 1.77887 1.6001 1.99969 1.6001H3.59967C3.8205 1.6001 3.99957 1.77899 3.99957 2.00018V3.60016C3.99957 3.82135 3.8205 4.00006 3.59967 4.00006ZM2.3996 3.20007H3.19958V2.40009H2.3996V3.20007Z" fill="white"/>
<path d="M6.79987 4.00006H5.19989C4.97906 4.00006 4.7998 3.82135 4.7998 3.60016V2.00018C4.7998 1.77899 4.97906 1.6001 5.19989 1.6001H6.79987C7.02069 1.6001 7.19995 1.77899 7.19995 2.00018V3.60016C7.19995 3.82135 7.02069 4.00006 6.79987 4.00006ZM5.59979 3.20007H6.39996V2.40009H5.59979V3.20007Z" fill="white"/>
<path d="M9.99988 4.00006H8.3999C8.17908 4.00006 8 3.82135 8 3.60016V2.00018C8 1.77899 8.17908 1.6001 8.3999 1.6001H9.99988C10.2207 1.6001 10.4 1.77899 10.4 2.00018V3.60016C10.4 3.82135 10.2207 4.00006 9.99988 4.00006ZM8.79999 3.20007H9.59998V2.40009H8.79999V3.20007Z" fill="white"/>
<path d="M23.5999 5.59991H0.400085C0.17926 5.59991 0 5.4212 0 5.20001V1.79993C0 0.807678 0.807678 0 1.79993 0H22.2001C23.1923 0 24 0.807678 24 1.79993V5.20001C24 5.4212 23.8207 5.59991 23.5999 5.59991ZM0.799988 4.79993H23.2V1.79993C23.2 1.24841 22.7512 0.799988 22.2001 0.799988H1.79993C1.24878 0.799988 0.799988 1.24841 0.799988 1.79993V4.79993Z" fill="#9e1f1f"/>
</g>
<defs>
<clipPath id="clip0">
<rect width="24" height="24" fill="white"/>
</clipPath>
</defs>
</svg>
