<svg width="25" height="25" viewBox="0 0 25 25" fill="none" xmlns="http://www.w3.org/2000/svg">
<path d="M12.4997 2.0835C9.82924 2.09111 7.26373 3.12403 5.33301 4.96891V3.12516C5.33301 2.8489 5.22326 2.58394 5.02791 2.38859C4.83256 2.19324 4.56761 2.0835 4.29134 2.0835C4.01507 2.0835 3.75012 2.19324 3.55477 2.38859C3.35942 2.58394 3.24967 2.8489 3.24967 3.12516V7.81266C3.24967 8.08893 3.35942 8.35388 3.55477 8.54923C3.75012 8.74458 4.01507 8.85433 4.29134 8.85433H8.97884C9.25511 8.85433 9.52006 8.74458 9.71541 8.54923C9.91076 8.35388 10.0205 8.08893 10.0205 7.81266C10.0205 7.5364 9.91076 7.27144 9.71541 7.07609C9.52006 6.88074 9.25511 6.771 8.97884 6.771H6.47884C7.81819 5.37137 9.60333 4.4821 11.5273 4.25607C13.4513 4.03004 15.3939 4.48139 17.0212 5.5325C18.6484 6.58361 19.8587 8.16882 20.4438 10.0156C21.0289 11.8623 20.9523 13.8552 20.2272 15.6516C19.5021 17.448 18.1738 18.9357 16.4707 19.8588C14.7675 20.782 12.796 21.0829 10.895 20.7099C8.99408 20.3369 7.28245 19.3132 6.05446 17.8149C4.82646 16.3167 4.15883 14.4374 4.16634 12.5002C4.16634 12.2239 4.05659 11.9589 3.86124 11.7636C3.66589 11.5682 3.40094 11.4585 3.12467 11.4585C2.84841 11.4585 2.58346 11.5682 2.3881 11.7636C2.19275 11.9589 2.08301 12.2239 2.08301 12.5002C2.08301 14.5604 2.69393 16.5743 3.83853 18.2874C4.98313 20.0004 6.60999 21.3355 8.51339 22.1239C10.4168 22.9123 12.5112 23.1186 14.5319 22.7167C16.5525 22.3147 18.4086 21.3227 19.8654 19.8659C21.3222 18.4091 22.3143 16.553 22.7162 14.5324C23.1181 12.5117 22.9118 10.4173 22.1234 8.51388C21.335 6.61048 19.9999 4.98362 18.2869 3.83902C16.5739 2.69442 14.5599 2.0835 12.4997 2.0835Z" fill="#9e1f1f"/>
<path d="M11.7631 6.5551C11.9585 6.35975 12.2234 6.25 12.4997 6.25C12.7759 6.25 13.0409 6.35975 13.2362 6.5551C13.4316 6.75045 13.5413 7.0154 13.5413 7.29167V11.4583H16.6663C16.9426 11.4583 17.2076 11.5681 17.4029 11.7634C17.5983 11.9588 17.708 12.2237 17.708 12.5C17.708 12.7763 17.5983 13.0412 17.4029 13.2366C17.2076 13.4319 16.9426 13.5417 16.6663 13.5417H12.4997C12.2234 13.5417 11.9585 13.4319 11.7631 13.2366C11.5678 13.0412 11.458 12.7763 11.458 12.5V7.29167C11.458 7.0154 11.5678 6.75045 11.7631 6.5551Z" fill="white"/>
</svg>
