<svg width="25" height="25" viewBox="0 0 25 25" fill="none" xmlns="http://www.w3.org/2000/svg">
<path d="M5.84243 5.06821L15.8087 2.34783L15.2809 1.28101C14.9356 0.58758 14.0934 0.301224 13.4 0.646535L4.47803 5.06821H5.84243Z" fill="white"/>
<path d="M18.9023 2.42578C18.7788 2.42578 18.6552 2.44263 18.5317 2.47631L16.1903 3.1164L9.03979 5.06756H17.156H20.6934L20.2554 3.46172C20.087 2.83566 19.5199 2.42578 18.9023 2.42578Z" fill="white"/>
<path d="M22.1561 6.05078H21.836H21.4009H20.9657H17.6446H5.44076H3.84054H2.49298H2.24312H1.40651C0.962942 6.05078 0.567097 6.25572 0.308815 6.57857C0.190904 6.72737 0.101067 6.89862 0.0505334 7.08672C0.0196519 7.20463 0 7.32815 0 7.45449V7.62293V9.22316V23.0946C0 23.8694 0.62886 24.4983 1.40371 24.4983H22.1533C22.9282 24.4983 23.557 23.8694 23.557 23.0946V19.1782H15.2274C13.9107 19.1782 12.8411 18.1086 12.8411 16.7919V15.5061V15.071V14.6358V13.6701C12.8411 13.0244 13.0994 12.4377 13.5177 12.0081C13.8883 11.6263 14.3852 11.368 14.941 11.3034C15.0337 11.2922 15.1291 11.2866 15.2246 11.2866H22.3891H22.8243H23.2594H23.557V7.45449C23.5598 6.67964 22.9309 6.05078 22.1561 6.05078Z" fill="white"/>
<path d="M24.5422 12.6295C24.4018 12.5003 24.2361 12.4021 24.0509 12.3375C23.9077 12.2898 23.7561 12.2617 23.5961 12.2617H23.5596H23.5315H23.0963H21.527H15.2272C14.4523 12.2617 13.8235 12.8906 13.8235 13.6654V14.3644V14.7996V15.2347V16.79C13.8235 17.5649 14.4523 18.1938 15.2272 18.1938H23.5596H23.5961C23.7561 18.1938 23.9077 18.1657 24.0509 18.118C24.2361 18.0562 24.4018 17.9551 24.5422 17.826C24.8229 17.5705 24.9998 17.1999 24.9998 16.7901V13.6654C24.9998 13.2555 24.8229 12.8849 24.5422 12.6295ZM18.1581 15.5071C18.1581 15.8945 17.8437 16.2089 17.4563 16.2089H16.9902C16.6028 16.2089 16.2884 15.8945 16.2884 15.5071V15.041C16.2884 14.8164 16.3923 14.6171 16.5579 14.4907C16.6786 14.3981 16.8274 14.3392 16.9902 14.3392H17.1082H17.4563C17.8437 14.3392 18.1581 14.6536 18.1581 15.041V15.5071Z" fill="white"/>
</svg>
