<svg id="Capa_1" enable-background="new 0 0 512 512" height="512" viewBox="0 0 512 512" width="512" xmlns="http://www.w3.org/2000/svg"><path d="m163.361 307.94c-17.06 0-30.891-13.83-30.891-30.891v-160.695c0-60.022 48.832-108.854 108.854-108.854h39.648c60.023 0 108.855 48.832 108.855 108.854v56.695c0 17.06-13.83 30.891-30.891 30.891s-30.891-13.83-30.891-30.891v-56.695c0-25.956-21.117-47.073-47.073-47.073h-39.648c-25.956 0-47.073 21.117-47.073 47.073v160.695c.001 17.06-13.83 30.891-30.89 30.891z" fill="#50e2ce"/><path d="m132.47 204.447v72.602c0 3.553.607 6.962 1.711 10.14h58.359c1.104-3.177 1.711-6.586 1.711-10.14v-72.602z" fill="#00ae8e"/><path d="m376.753 240.06h-241.506c-25.653 0-46.449 20.796-46.449 46.449v171.542c0 25.653 20.796 46.449 46.449 46.449h241.507c25.653 0 46.449-20.796 46.449-46.449v-171.542c0-25.653-20.796-46.449-46.45-46.449z" fill="#4487da"/><path d="m118.797 458.051v-171.542c0-25.653 20.796-46.449 46.449-46.449h-30c-25.653 0-46.449 20.796-46.449 46.449v171.542c0 25.653 20.796 46.449 46.449 46.449h30c-25.652 0-46.449-20.796-46.449-46.449z" fill="#006ad0"/><ellipse cx="165.936" cy="393.817" fill="#ff97c1" rx="33.232" ry="26.464"/><ellipse cx="346.064" cy="393.817" fill="#ff97c1" rx="33.232" ry="26.464"/><ellipse cx="256" cy="373.483" fill="#5c576e" rx="17.64" ry="19.74"/><path d="m163.992 348.992v12.89c0 4.142 3.358 7.5 7.5 7.5s7.5-3.358 7.5-7.5v-12.89c0-4.142-3.358-7.5-7.5-7.5s-7.5 3.358-7.5 7.5z"/><path d="m230.86 373.483c0 15.02 11.278 27.24 25.14 27.24s25.14-12.22 25.14-27.24-11.278-27.24-25.14-27.24-25.14 12.22-25.14 27.24zm35.28 0c0 6.749-4.549 12.24-10.14 12.24s-10.14-5.491-10.14-12.24 4.549-12.24 10.14-12.24 10.14 5.491 10.14 12.24z"/><path d="m333.008 348.992v12.89c0 4.142 3.358 7.5 7.5 7.5s7.5-3.358 7.5-7.5v-12.89c0-4.142-3.358-7.5-7.5-7.5s-7.5 3.358-7.5 7.5z"/><path d="m135.247 512h241.507c29.748 0 53.949-24.202 53.949-53.949v-30.12c0-4.142-3.358-7.5-7.5-7.5s-7.5 3.358-7.5 7.5v30.12c0 21.477-17.473 38.949-38.949 38.949h-241.507c-21.477 0-38.949-17.473-38.949-38.949v-171.542c0-20.691 16.22-37.659 36.612-38.872h.002c1.87-.109-8.517-.076 243.842-.076 21.477 0 38.949 17.472 38.949 38.949v111.422c0 4.142 3.358 7.5 7.5 7.5s7.5-3.358 7.5-7.5v-111.423c0-29.748-24.202-53.949-53.949-53.949h-175.003v-116.206c0-21.82 17.752-39.573 39.573-39.573h39.647c21.821 0 39.573 17.752 39.573 39.573v56.696c0 21.168 17.222 38.391 38.391 38.391 21.168 0 38.391-17.222 38.391-38.391v-56.696c.001-64.158-52.196-116.354-116.354-116.354h-39.647c-27.764 0-54.666 9.981-75.752 28.106-3.142 2.7-3.499 7.435-.799 10.576 2.7 3.142 7.435 3.499 10.576.799 18.366-15.787 41.796-24.481 65.974-24.481h39.647c55.887 0 101.355 45.467 101.355 101.354v56.696c0 12.897-10.493 23.391-23.391 23.391s-23.391-10.493-23.391-23.391v-56.696c0-30.091-24.481-54.573-54.573-54.573h-39.647c-30.091 0-54.573 24.481-54.573 54.573v116.206h-46.781v-116.206c0-19.953 5.825-39.276 16.844-55.882 2.291-3.451 1.349-8.106-2.102-10.396-3.45-2.291-8.106-1.349-10.396 2.102-12.656 19.072-19.346 41.263-19.346 64.176v117.2c-24.848 4.813-43.673 26.722-43.673 52.955v171.542c0 29.747 24.202 53.949 53.95 53.949z"/></svg>