<svg width="26" height="26" viewBox="0 0 26 26" fill="none" xmlns="http://www.w3.org/2000/svg">
<g clip-path="url(#clip0)">
<path d="M26 10.384L17.389 8.56655L13 0.938965V22.0748L21.0342 25.6661L20.1016 16.9151L26 10.384Z" fill="url(#paint0_linear)"/>
<path d="M8.61099 8.56655L0 10.384L5.89834 16.9151L4.96576 25.6661L13 22.0748V0.938965L8.61099 8.56655Z" fill="#FFDA44"/>
<path d="M1.90697 11.0035L8.81751 9.545L9.25484 9.4527L9.47775 9.06529L13 2.94402L16.5223 9.06529L16.7452 9.4527L17.1825 9.545L24.093 11.0035L19.3595 16.2449L19.0599 16.5766L19.1073 17.0211L19.8557 24.044L13.4081 21.1619L13 20.9795L12.5919 21.1619L6.1443 24.044L6.89271 17.0211L6.94008 16.5766L6.64049 16.2449L1.90697 11.0035Z" stroke="#FF9C00" stroke-width="2"/>
<path opacity="0.5" d="M6.18576 25.1208L4.96576 25.6661L5.89834 16.9151L0 10.384L8.61099 8.56655L13 0.938965L16.205 6.50889C15.4992 14.018 11.7417 20.6396 6.18576 25.1208Z" fill="url(#paint1_linear)"/>
</g>
<defs>
<linearGradient id="paint0_linear" x1="13.3023" y1="13.0002" x2="26" y2="13.0002" gradientUnits="userSpaceOnUse">
<stop stop-color="#FFCD00"/>
<stop offset="1" stop-color="#FF9F09"/>
</linearGradient>
<linearGradient id="paint1_linear" x1="9.06977" y1="25.0933" x2="-10.8837" y2="2.72118" gradientUnits="userSpaceOnUse">
<stop stop-color="white"/>
<stop offset="1" stop-color="white" stop-opacity="0"/>
</linearGradient>
<clipPath id="clip0">
<rect width="26" height="24.7272" fill="white" transform="translate(0 0.938965)"/>
</clipPath>
</defs>
</svg>
