<svg width="9" height="6" viewBox="0 0 9 6" fill="none" xmlns="http://www.w3.org/2000/svg">
<path d="M4.70703 0.808594L8.49609 4.59766C8.58724 4.6888 8.63281 4.79948 8.63281 4.92969C8.63281 5.0599 8.58724 5.17057 8.49609 5.26172L8.06641 5.69141C7.97526 5.78255 7.86458 5.83464 7.73438 5.84766C7.60417 5.84766 7.49349 5.80208 7.40234 5.71094L4.375 2.68359L1.34766 5.71094C1.25651 5.80208 1.14583 5.84766 1.01562 5.84766C0.885417 5.83464 0.77474 5.78255 0.683594 5.69141L0.253906 5.26172C0.16276 5.17057 0.117188 5.0599 0.117188 4.92969C0.117188 4.79948 0.16276 4.6888 0.253906 4.59766L4.04297 0.808594C4.13411 0.704427 4.24479 0.652344 4.375 0.652344C4.50521 0.652344 4.61589 0.704427 4.70703 0.808594Z" fill="black"/>
</svg>
