<svg width="22" height="22" viewBox="0 0 22 22" fill="none" xmlns="http://www.w3.org/2000/svg">
<g clip-path="url(#clip0)">
<path d="M21.811 10.1597L20.0791 8.42773L18.4775 14.4047L21.811 11.0712C22.0627 10.8195 22.0627 10.4114 21.811 10.1597Z" fill="white"/>
<path d="M10.1604 21.8121C10.4121 22.0639 10.8202 22.0639 11.0719 21.8121L12.9353 19.9487L6.59912 18.251L10.1604 21.8121Z" fill="white"/>
<path d="M6.62333 7.31306C6.37162 7.56464 5.9635 7.56477 5.71183 7.31302C5.39189 6.99307 4.87175 6.99355 4.55223 7.31306C4.23259 7.63271 4.23259 8.15293 4.55223 8.47262L6.1676 10.088L7.78297 8.47262C8.10261 8.15293 8.10261 7.63271 7.78292 7.31302C7.46324 6.99329 6.94301 6.99337 6.62333 7.31306Z" fill="white"/>
<path d="M12.3349 15.8326V0.644531C12.3349 0.288578 12.0463 0 11.6904 0H0.644531C0.288578 0 0 0.288578 0 0.644531V15.8326C0 16.1885 0.288578 16.4771 0.644531 16.4771H11.6904C12.0464 16.4771 12.3349 16.1885 12.3349 15.8326ZM2.07109 2.71563C2.07109 2.35967 2.35967 2.07109 2.71563 2.07109C3.07158 2.07109 3.36016 2.35967 3.36016 2.71563V4.09634C3.36016 4.45229 3.07158 4.74087 2.71563 4.74087C2.35967 4.74087 2.07109 4.45229 2.07109 4.09634V2.71563ZM6.6232 11.4558C6.49735 11.5816 6.33239 11.6446 6.16748 11.6446C6.00256 11.6446 5.83756 11.5816 5.71175 11.4558L3.64066 9.38468C2.81836 8.56238 2.81836 7.22442 3.64061 6.40209C4.32407 5.71867 5.36379 5.60325 6.16752 6.05584C6.97129 5.60325 8.01096 5.71871 8.69438 6.40204C9.51668 7.22442 9.51668 8.56238 8.69438 9.38468L6.6232 11.4558ZM10.2638 13.7615C10.2638 14.1174 9.97524 14.406 9.61929 14.406C9.26333 14.406 8.97475 14.1174 8.97475 13.7615V12.3808C8.97475 12.0248 9.26333 11.7362 9.61929 11.7362C9.97524 11.7362 10.2638 12.0248 10.2638 12.3808V13.7615Z" fill="white"/>
<path d="M19.4511 3.30061L13.6238 1.73926V7.73593L14.5826 10.1249C14.6896 10.3909 14.608 10.6951 14.3828 10.8721L13.6238 11.4679V14.5561C13.7162 14.2127 14.0694 14.0089 14.413 14.1009C14.7568 14.1931 14.9609 14.5465 14.8688 14.8903L14.5114 16.224C14.4193 16.5678 14.0658 16.7719 13.722 16.6797C13.6313 16.6555 13.5508 16.6126 13.4824 16.5569C13.195 17.265 12.5002 17.7659 11.6902 17.7659H9.77344L15.1866 19.2163C15.5304 19.3084 15.8838 19.1043 15.9759 18.7605L19.9068 4.08999C19.9989 3.74616 19.7949 3.39274 19.4511 3.30061Z" fill="white"/>
</g>
<defs>
<clipPath id="clip0">
<rect width="22" height="22" fill="white"/>
</clipPath>
</defs>
</svg>
