<svg width="22" height="22" viewBox="0 0 22 22" fill="none" xmlns="http://www.w3.org/2000/svg">
<path d="M8.06263 16.2121C7.95869 16.2552 7.84482 16.2793 7.72528 16.2793C7.23866 16.2793 6.84416 15.8848 6.84416 15.3982C6.84416 15.2761 6.86908 15.1598 6.91403 15.054C6.33584 14.3738 6.32153 13.3756 6.87119 12.6797C6.85417 12.6114 6.84416 12.5402 6.84416 12.4667C6.84416 12.3996 6.85233 12.3346 6.86651 12.2718H5.85334C4.8193 12.2718 3.97806 11.4305 3.97806 10.3964V10.0273H1.01157C0.453794 10.0273 0 10.4811 0 11.0389V19.7575C0 20.3153 0.453794 20.7691 1.01157 20.7691H10.1766C10.7343 20.7691 11.1881 20.3153 11.1881 19.7575V19.3375L8.06263 16.2121ZM3.46282 19.2109C2.97619 19.2109 2.58174 18.8164 2.58174 18.3298C2.58174 17.8432 2.97624 17.4487 3.46282 17.4487C3.94939 17.4487 4.34389 17.8432 4.34389 18.3298C4.34389 18.8164 3.94944 19.2109 3.46282 19.2109ZM3.46282 16.2793C2.97619 16.2793 2.58174 15.8848 2.58174 15.3982C2.58174 14.9117 2.97624 14.5172 3.46282 14.5172C3.94939 14.5172 4.34389 14.9117 4.34389 15.3982C4.34389 15.8848 3.94944 16.2793 3.46282 16.2793ZM3.46282 13.3478C2.97619 13.3478 2.58174 12.9533 2.58174 12.4667C2.58174 11.9801 2.97624 11.5856 3.46282 11.5856C3.94939 11.5856 4.34389 11.9801 4.34389 12.4667C4.34389 12.9533 3.94944 13.3478 3.46282 13.3478ZM7.72528 19.2109C7.23866 19.2109 6.84416 18.8164 6.84416 18.3298C6.84416 17.8432 7.23862 17.4487 7.72528 17.4487C8.2119 17.4487 8.60636 17.8432 8.60636 18.3298C8.60636 18.8164 8.2119 19.2109 7.72528 19.2109Z" fill="white"/>
<path d="M15.0184 0.666992H5.85333C5.29559 0.666992 4.8418 1.12079 4.8418 1.67856V10.3972H4.84184C4.84184 10.955 5.29563 11.4088 5.85337 11.4088H8.12397L13.1823 6.35043C13.9135 5.61932 15.1032 5.61923 15.8344 6.35043L16.0299 6.54598V1.67856C16.0299 1.12079 15.5761 0.666992 15.0184 0.666992ZM8.46493 9.31231C8.10498 9.6723 7.52138 9.6723 7.16138 9.31231C6.80143 8.95236 6.80143 8.36876 7.16138 8.00877C7.52138 7.64882 8.10498 7.64882 8.46493 8.00877C8.82492 8.36872 8.82492 8.95236 8.46493 9.31231ZM8.46493 4.06698C8.10498 4.42693 7.52138 4.42693 7.16138 4.06698C6.80143 3.70699 6.80143 3.12339 7.16138 2.76344C7.52138 2.40349 8.10498 2.40349 8.46493 2.76344C8.82492 3.12339 8.82492 3.70703 8.46493 4.06698ZM11.0877 6.68967C10.7277 7.04962 10.1441 7.04962 9.78411 6.68967C9.42412 6.32967 9.42412 5.74607 9.78411 5.38612C10.1441 5.02617 10.7277 5.02617 11.0877 5.38612C11.4476 5.74607 11.4476 6.32972 11.0877 6.68967ZM13.7103 4.06698C13.3504 4.42693 12.7667 4.42693 12.4068 4.06698C12.0468 3.70703 12.0468 3.12339 12.4068 2.76344C12.7667 2.40349 13.3504 2.40349 13.7103 2.76344C14.0703 3.12339 14.0703 3.70703 13.7103 4.06698Z" fill="white"/>
<path d="M21.704 13.4415L15.2234 6.96084C15.0262 6.76361 14.7672 6.66504 14.5082 6.66504C14.2491 6.66504 13.9901 6.76361 13.7929 6.96084L7.62787 13.1258C7.23342 13.5202 7.23342 14.162 7.62787 14.5564L14.1085 21.037C14.1085 21.037 14.1085 21.037 14.1085 21.037C14.2996 21.228 14.5535 21.3333 14.8237 21.3333C15.094 21.3333 15.348 21.228 15.539 21.037L21.704 14.872C22.0984 14.4775 22.0984 13.8359 21.704 13.4415ZM12.33 14.4028C11.9539 14.7788 11.3443 14.7788 10.9682 14.4028C10.5922 14.0267 10.5922 13.4171 10.9682 13.041C11.3443 12.6649 11.9539 12.6649 12.33 13.041C12.7061 13.4171 12.7061 14.0267 12.33 14.4028ZM13.708 10.3012C14.0841 9.92517 14.6938 9.92517 15.0698 10.3012C15.4458 10.6773 15.4458 11.2869 15.0698 11.663C14.6938 12.039 14.0841 12.039 13.708 11.663C13.332 11.2869 13.332 10.6773 13.708 10.3012ZM15.6239 17.6967C15.2478 18.0727 14.6382 18.0727 14.2621 17.6967C13.8861 17.3206 13.8861 16.711 14.2621 16.3349C14.6382 15.9589 15.2478 15.9589 15.6239 16.3349C15.9999 16.7109 15.9999 17.3206 15.6239 17.6967ZM18.3637 14.9569C17.9877 15.3329 17.378 15.3329 17.002 14.9569C16.6259 14.5808 16.6259 13.9712 17.002 13.5951C17.378 13.219 17.9877 13.219 18.3637 13.5951C18.7397 13.9711 18.7397 14.5808 18.3637 14.9569Z" fill="white"/>
</svg>
