<svg width="22" height="16" viewBox="0 0 22 16" fill="none" xmlns="http://www.w3.org/2000/svg">
<path d="M20.033 3.29097C17.1272 -1.4831 12.7499 1.83827 12.7499 1.83827C12.466 2.05283 11.9425 2.22924 11.5868 2.23006L10.4143 2.23088C10.0587 2.23129 9.53518 2.05489 9.2517 1.84033C9.2517 1.84033 4.87393 -1.48187 1.96773 3.2922C-0.93765 8.06462 0.2332 13.2621 0.2332 13.2621C0.438324 14.5347 1.11441 15.3839 2.39029 15.2772C3.66247 15.1709 6.42385 11.85 6.42385 11.85C6.65195 11.5763 7.12989 11.3528 7.48476 11.3528L14.514 11.3515C14.8692 11.3515 15.3468 11.5751 15.5745 11.8488C15.5745 11.8488 18.3362 15.1697 19.6105 15.276C20.8847 15.3826 21.5624 14.5326 21.7663 13.2608C21.7659 13.2608 22.9388 8.06421 20.033 3.29097ZM8.35859 7.17684H6.85133V8.62953C6.85133 8.62953 6.53216 8.87322 6.03822 8.86707C5.5451 8.85968 5.32193 8.60123 5.32193 8.60123V7.17725H3.89836C3.89836 7.17725 3.72072 6.9951 3.67314 6.51552C3.62637 6.03594 3.86964 5.64825 3.86964 5.64825H5.37731V4.141C5.37731 4.141 5.68746 3.97485 6.1334 3.98757C6.57975 4.00152 6.90672 4.16931 6.90672 4.16931L6.90056 5.64784H8.32413C8.32413 5.64784 8.57274 5.96702 8.59325 6.35265C8.61376 6.7387 8.35859 7.17684 8.35859 7.17684ZM15.2721 8.83261C14.612 8.83261 14.0799 8.29887 14.0799 7.6396C14.0799 6.9791 14.612 6.4466 15.2721 6.4466C15.9293 6.4466 16.4655 6.9791 16.4655 7.6396C16.4655 8.29928 15.9293 8.83261 15.2721 8.83261ZM15.2721 5.55021C14.612 5.55021 14.0799 5.01688 14.0799 4.35761C14.0799 3.69711 14.612 3.16461 15.2721 3.16461C15.9293 3.16461 16.4655 3.69711 16.4655 4.35761C16.4655 5.01729 15.9293 5.55021 15.2721 5.55021ZM18.2431 7.31222C17.583 7.31222 17.0509 6.7789 17.0509 6.11922C17.0509 5.45913 17.583 4.92622 18.2431 4.92622C18.9003 4.92622 19.4365 5.45913 19.4365 6.11922C19.4365 6.7789 18.9003 7.31222 18.2431 7.31222Z" fill="white"/>
</svg>
