<svg width="22" height="18" viewBox="0 0 22 18" fill="none" xmlns="http://www.w3.org/2000/svg">
<path d="M11.0001 3.53396L3.1539 10.0023C3.1539 10.0114 3.1516 10.0249 3.14701 10.0432C3.14252 10.0613 3.14013 10.0745 3.14013 10.0839V16.6338C3.14013 16.8703 3.22659 17.0752 3.39947 17.2478C3.57229 17.4205 3.77695 17.5074 4.01349 17.5074H9.25328V12.2673H12.747V17.5076H17.9867C18.2232 17.5076 18.4281 17.4209 18.6007 17.2478C18.7736 17.0754 18.8603 16.8703 18.8603 16.6338V10.0839C18.8603 10.0476 18.8554 10.0201 18.8466 10.0023L11.0001 3.53396Z" fill="white"/>
<path d="M21.8482 8.52875L18.86 6.04522V0.477712C18.86 0.350434 18.8191 0.245762 18.737 0.163842C18.6555 0.0820165 18.5509 0.0411038 18.4233 0.0411038H15.8034C15.6759 0.0411038 15.5713 0.0820165 15.4893 0.163842C15.4076 0.245762 15.3667 0.350481 15.3667 0.477712V3.13861L12.0372 0.354783C11.7464 0.118245 11.4007 0 11.0003 0C10.6 0 10.2543 0.118245 9.96326 0.354783L0.151633 8.52875C0.0606787 8.6014 0.0108284 8.69919 0.00155609 8.82202C-0.00766838 8.94476 0.0241154 9.05196 0.097003 9.14287L0.943025 10.1527C1.01591 10.2345 1.11131 10.2846 1.22961 10.3029C1.33882 10.312 1.44803 10.2801 1.55724 10.2074L11 2.3335L20.4429 10.2073C20.5159 10.2708 20.6112 10.3025 20.7295 10.3025H20.7705C20.8886 10.2845 20.9838 10.2341 21.0571 10.1525L21.9032 9.14282C21.976 9.05172 22.0078 8.94471 21.9984 8.82183C21.9891 8.69933 21.939 8.60154 21.8482 8.52875Z" fill="white"/>
</svg>
