<svg width="9" height="21" viewBox="0 0 9 21" fill="none" xmlns="http://www.w3.org/2000/svg">
<path d="M1.45654 17.0625H2.23779V11.4375H1.45654C1.2482 11.4375 1.06591 11.3594 0.909663 11.2031C0.753413 11.0469 0.675288 10.8646 0.675288 10.6562V8.78125C0.675288 8.57292 0.753413 8.39062 0.909663 8.23438C1.06591 8.07812 1.2482 8 1.45654 8H5.83154C6.03987 8 6.22216 8.07812 6.37841 8.23438C6.53466 8.39062 6.61279 8.57292 6.61279 8.78125V17.0625H7.39404C7.60237 17.0625 7.78466 17.1406 7.94091 17.2969C8.09716 17.4531 8.17529 17.6354 8.17529 17.8438V19.7188C8.17529 19.9271 8.09716 20.1094 7.94091 20.2656C7.78466 20.4219 7.60237 20.5 7.39404 20.5H1.45654C1.2482 20.5 1.06591 20.4219 0.909663 20.2656C0.753413 20.1094 0.675288 19.9271 0.675288 19.7188V17.8438C0.675288 17.6354 0.753413 17.4531 0.909663 17.2969C1.06591 17.1406 1.2482 17.0625 1.45654 17.0625ZM4.42529 0.5C3.64404 0.5 2.97998 0.773438 2.4331 1.32031C1.88623 1.86719 1.61279 2.53125 1.61279 3.3125C1.61279 4.09375 1.88623 4.75781 2.4331 5.30469C2.97998 5.85156 3.64404 6.125 4.42529 6.125C5.20654 6.125 5.8706 5.85156 6.41748 5.30469C6.96435 4.75781 7.23779 4.09375 7.23779 3.3125C7.23779 2.53125 6.96435 1.86719 6.41748 1.32031C5.8706 0.773438 5.20654 0.5 4.42529 0.5Z" fill="white"/>
</svg>
