<svg width="22" height="22" viewBox="0 0 22 22" fill="none" xmlns="http://www.w3.org/2000/svg">
<path fill-rule="evenodd" clip-rule="evenodd" d="M16.2035 0H5.79638C5.01964 0 4.3877 0.631941 4.3877 1.40869V20.5913C4.3877 21.368 5.01964 22 5.79638 22H16.2035C16.9802 22 17.6121 21.368 17.6121 20.5913V1.40869C17.6122 0.631941 16.9802 0 16.2035 0ZM11.0002 17.9666C10.3272 17.9666 9.77974 18.5141 9.77974 19.187C9.77974 19.86 10.3272 20.4075 11.0002 20.4075C11.6732 20.4075 12.2207 19.86 12.2207 19.187C12.2207 18.5141 11.6731 17.9666 11.0002 17.9666ZM11.0002 19.5623C10.7933 19.5623 10.6249 19.3939 10.6249 19.187C10.6249 18.9801 10.7933 18.8118 11.0002 18.8118C11.2071 18.8118 11.3755 18.9801 11.3755 19.187C11.3754 19.3939 11.207 19.5623 11.0002 19.5623ZM10.836 1.73809H13.0018C13.2481 1.73809 13.4479 1.93781 13.4479 2.18419C13.4479 2.43057 13.2481 2.63029 13.0018 2.63029H10.836C10.5897 2.63029 10.3899 2.43057 10.3899 2.18419C10.3899 1.93781 10.5896 1.73809 10.836 1.73809ZM9.46655 2.66347C9.7252 2.66347 9.93487 2.4538 9.93487 2.19515C9.93487 1.93651 9.7252 1.72684 9.46655 1.72684C9.20791 1.72684 8.99824 1.93651 8.99824 2.19515C8.99824 2.4538 9.20791 2.66347 9.46655 2.66347ZM6.73045 3.47565H15.2696C15.503 3.47565 15.6922 3.66488 15.6922 3.89824V16.8437C15.6922 17.0771 15.503 17.2662 15.2696 17.2662H6.73045C6.49705 17.2662 6.30786 17.0771 6.30786 16.8437V3.89824C6.30786 3.66484 6.49705 3.47565 6.73045 3.47565Z" fill="white"/>
<path d="M11.7916 8.81717C11.6082 8.63386 11.311 8.63386 11.1275 8.81717L8.87188 11.0728C8.68853 11.2562 8.68853 11.5535 8.87192 11.7369C8.96362 11.8286 9.0838 11.8745 9.20395 11.8745C9.32409 11.8745 9.44431 11.8286 9.53597 11.7369L11.7916 9.48129C11.975 9.2979 11.975 9.00056 11.7916 8.81717Z" fill="white"/>
<path d="M13.1284 10.1248C12.945 9.94148 12.6477 9.94148 12.4643 10.1248L11.5657 11.0233C11.3824 11.2067 11.3824 11.504 11.5657 11.6875C11.6574 11.7791 11.7776 11.825 11.8978 11.825C12.0179 11.825 12.1381 11.7791 12.2298 11.6875L13.1283 10.7889C13.3118 10.6055 13.3118 10.3082 13.1284 10.1248Z" fill="white"/>
</svg>
