<svg width="22" height="22" viewBox="0 0 22 22" fill="none" xmlns="http://www.w3.org/2000/svg">
<path d="M20.625 5.84553H16.2745C16.5866 5.6179 16.8547 5.39174 17.0417 5.18907C18.15 3.99805 18.15 2.05951 17.0417 0.868486C15.9651 -0.288761 14.0869 -0.29023 13.0089 0.868486C12.4135 1.50732 10.8309 4.10819 11.0495 5.84553H10.9505C11.1678 4.10819 9.5865 1.50732 8.99113 0.868486C7.91313 -0.29023 6.03487 -0.288761 4.95825 0.868486C3.85 2.05951 3.85 3.99805 4.95687 5.18907C5.14525 5.39174 5.41337 5.6179 5.7255 5.84553H1.375C0.617375 5.84553 0 6.50493 0 7.31412V10.9856C0 11.3909 0.308 11.7199 0.6875 11.7199H1.375V20.5314C1.375 21.3406 1.99238 22 2.75 22H19.25C20.0076 22 20.625 21.3406 20.625 20.5314V11.7199H21.3125C21.692 11.7199 22 11.3909 22 10.9856V7.31412C22 6.50493 21.3826 5.84553 20.625 5.84553ZM5.93313 1.90384C6.21225 1.60425 6.58212 1.43977 6.97538 1.43977C7.36725 1.43977 7.73712 1.60425 8.01625 1.90384C8.943 2.89954 9.86425 5.44314 9.54387 5.79707C9.54387 5.79707 9.48612 5.84553 9.2895 5.84553C8.33938 5.84553 6.52575 4.79108 5.93313 4.15372C5.357 3.53397 5.357 2.52358 5.93313 1.90384ZM10.3125 20.5314H2.75V11.7199H10.3125V20.5314ZM10.3125 10.2513H1.375V7.31412H9.2895H10.3125V10.2513ZM13.9838 1.90384C14.542 1.30613 15.51 1.30759 16.0669 1.90384C16.643 2.52358 16.643 3.53397 16.0669 4.15372C15.4743 4.79108 13.6606 5.84553 12.7105 5.84553C12.5139 5.84553 12.4561 5.79854 12.4547 5.79707C12.1357 5.44314 13.057 2.89954 13.9838 1.90384ZM19.25 20.5314H11.6875V11.7199H19.25V20.5314ZM20.625 10.2513H11.6875V7.31412H12.7105H20.625V10.2513Z" fill="white"/>
</svg>
