<svg width="22" height="22" viewBox="0 0 22 22" fill="none" xmlns="http://www.w3.org/2000/svg">
<g clip-path="url(#clip0)">
<path d="M9.75063 17.1855C8.89298 17.9781 7.70674 18.1556 6.65461 17.649C6.27425 17.4658 5.95327 17.2129 5.70199 16.91L4.26937 20.0786C4.20418 20.2228 4.27697 20.3315 4.31126 20.3715C4.34555 20.4114 4.44184 20.4999 4.59421 20.4575L5.63715 20.1672C5.756 20.1342 5.87614 20.1183 5.99461 20.1183C6.49437 20.1183 6.96475 20.4011 7.19124 20.8699L7.66227 21.8446C7.73106 21.9871 7.86009 22.0013 7.9138 22.0002C7.96648 21.9995 8.09608 21.9824 8.16122 21.8383L10.44 16.7979C10.1896 16.8699 9.9525 16.9989 9.75063 17.1855Z" fill="white"/>
<path d="M17.7303 20.0786L16.2976 16.91C16.0464 17.2129 15.7254 17.4658 15.345 17.649C14.2929 18.1556 13.1067 17.9781 12.249 17.1855C12.0471 16.9989 11.81 16.8699 11.5596 16.7979L13.8383 21.8383C13.9035 21.9825 14.0331 21.9995 14.0857 22.0002C14.1395 22.0013 14.2685 21.9871 14.3373 21.8446L14.8083 20.8699C15.0348 20.4011 15.5052 20.1183 16.0049 20.1183C16.1234 20.1183 16.2436 20.1342 16.3624 20.1672L17.4053 20.4575C17.5577 20.5 17.654 20.4115 17.6883 20.3715C17.7227 20.3314 17.7955 20.2228 17.7303 20.0786Z" fill="white"/>
<path d="M18.8558 8.92852C17.666 8.11383 17.2968 6.49627 18.0153 5.24601C18.4472 4.49445 18.2224 3.75177 17.868 3.30735C17.5136 2.86305 16.8395 2.4787 16.0108 2.73243C14.6322 3.15468 13.1372 2.43487 12.6076 1.09355C12.2893 0.287289 11.5685 0 11.0002 0C10.4318 0 9.71103 0.287289 9.39271 1.0936C8.86317 2.43495 7.36829 3.15468 5.98955 2.73247C5.16072 2.47878 4.48676 2.86305 4.13231 3.30739C3.77795 3.75182 3.55318 4.4944 3.98505 5.24605C4.70358 6.49627 4.33439 8.11388 3.14459 8.92856C2.42933 9.41836 2.30966 10.185 2.43607 10.7391C2.56249 11.2932 3.003 11.9319 3.85993 12.0629C5.28537 12.2806 6.3198 13.5778 6.215 15.016C6.15193 15.8806 6.6767 16.4521 7.18876 16.6988C7.70086 16.9454 8.4749 16.9993 9.11153 16.411C9.64099 15.9217 10.3207 15.6769 11.0001 15.6769C11.6798 15.6769 12.3591 15.9216 12.8887 16.411C13.5254 16.9994 14.2995 16.9454 14.8115 16.6988C15.3236 16.4522 15.8483 15.8806 15.7853 15.016C15.6805 13.5778 16.7149 12.2807 18.1404 12.0629C18.9973 11.9319 19.4377 11.2932 19.5642 10.7391C19.6907 10.1849 19.5709 9.41828 18.8558 8.92852ZM11.0002 14.4342C7.88172 14.4342 5.34467 11.8971 5.34467 8.77869C5.34467 5.66023 7.88168 3.12314 11.0002 3.12314C14.1187 3.12314 16.6557 5.66019 16.6557 8.77864C16.6556 11.8971 14.1186 14.4342 11.0002 14.4342Z" fill="white"/>
<path d="M11 4.17773C8.46293 4.17773 6.39893 6.24178 6.39893 8.77879C6.39893 11.3158 8.46288 13.3798 11 13.3798C13.5371 13.3798 15.601 11.3158 15.601 8.77879C15.601 6.24178 13.537 4.17773 11 4.17773ZM13.3579 8.33268L10.4944 10.4242C10.4035 10.4906 10.2944 10.5257 10.1834 10.5257C10.1548 10.5257 10.126 10.5234 10.0974 10.5186C9.95781 10.4956 9.83328 10.4173 9.7519 10.3015L8.89536 9.08193C8.728 8.84358 8.78554 8.51474 9.0238 8.34738C9.2621 8.18002 9.5909 8.23751 9.7583 8.47581L10.3062 9.25587L12.7359 7.48117C12.9711 7.30951 13.301 7.36073 13.4727 7.59594C13.6444 7.83107 13.593 8.16089 13.3579 8.33268Z" fill="white"/>
</g>
<defs>
<clipPath id="clip0">
<rect width="22" height="22" fill="white"/>
</clipPath>
</defs>
</svg>
