<svg width="48" height="62" viewBox="0 0 48 62" fill="none" xmlns="http://www.w3.org/2000/svg">
<path d="M38.1242 53.6381L38.4416 53.3597C38.4923 53.3218 38.5304 53.2838 38.5685 53.2332C38.7335 53.0435 42.4401 48.7803 43.8491 45.5038H44.5219C46.4387 45.5038 48 43.9478 48 42.0376V36.5599C48 34.6497 46.4387 33.0937 44.5219 33.0937H43.773C42.6178 30.0956 40.6503 27.3884 38.0354 25.1872C37.6545 23.8336 37.9338 22.3914 38.8858 20.886C39.419 20.0384 39.419 18.9758 38.8732 18.1282C38.3273 17.2806 37.3753 16.8252 36.3725 16.9517C32.704 17.4071 30.5079 19.0644 29.2259 20.6077C28.0199 20.2788 26.776 20.0258 25.5193 19.8866C24.8338 19.8107 24.1991 20.2915 24.1229 20.9872C24.0468 21.6704 24.5291 22.3029 25.2273 22.3788C26.6236 22.5432 28.0073 22.8468 29.3274 23.2643C29.8605 23.4288 30.4318 23.2264 30.7491 22.7709C31.6123 21.4932 33.3513 19.874 36.6771 19.4565C36.7025 19.4565 36.7279 19.4565 36.7533 19.4945C36.7787 19.5324 36.766 19.5577 36.7533 19.5704C35.4331 21.6704 35.0396 23.8589 35.6235 25.9083C35.6362 26.2751 35.8013 26.6167 36.0932 26.8444C38.7716 28.995 40.7138 31.7275 41.7039 34.7509C41.8689 35.2696 42.364 35.6112 42.8971 35.6112H44.5219C45.055 35.6112 45.4866 36.0413 45.4866 36.5726V42.0502C45.4866 42.5816 45.055 43.0117 44.5219 43.0117H42.9859C42.4401 43.0117 41.9451 43.3659 41.78 43.8972C41.0692 46.2122 37.9465 50.1339 36.7279 51.5381L36.4486 51.7784C33.8337 54.1314 33.5671 56.9145 33.5544 57.7495V59.5079H26.3063V57.8127C26.3063 57.4585 26.154 57.1169 25.8874 56.8766C25.6208 56.6362 25.2654 56.5224 24.91 56.5603C23.0567 56.7501 21.1907 56.7248 19.3882 56.4844C19.0327 56.4338 18.6646 56.5477 18.398 56.788C18.1188 57.0284 17.9664 57.3699 17.9664 57.7368V59.4952H10.7183V59.0018C10.7183 58.9892 10.7183 58.9639 10.7183 58.9512C10.6548 57.6229 10.2359 54.2579 7.5956 51.5507C6.35161 50.273 5.23456 48.5779 4.26983 46.5285C4.25713 46.5158 4.25713 46.5032 4.24444 46.4779C3.67322 45.39 3.24163 44.2388 2.94967 43.0243L2.93698 42.9737C2.93698 42.9611 2.92428 42.9484 2.92428 42.9358C2.4673 41.4177 2.51808 39.5075 2.51808 39.4948C2.51808 39.4822 2.51808 39.4695 2.51808 39.4569C2.51808 38.622 2.59424 37.7744 2.72118 36.9521C2.83543 36.269 2.37845 35.6238 1.69298 35.51C1.00752 35.3961 0.360132 35.8515 0.245888 36.5346C0.0808684 37.4834 0.00470578 38.4575 0.00470578 39.4316C-0.00798803 39.6846 -0.0333757 41.8099 0.512458 43.6442C0.842497 44.9978 1.35025 46.3261 1.99763 47.5911C3.06391 49.8935 4.34599 51.8037 5.78039 53.2838C7.7987 55.3585 8.14144 57.9645 8.19221 59.0271V59.5458C8.19221 59.5964 8.19221 59.6344 8.20491 59.7103C8.29377 60.988 9.37274 62 10.6548 62H18.0045C19.3628 62 20.4671 60.8994 20.4671 59.5458V59.1283C21.5715 59.2169 22.6632 59.2295 23.7802 59.1789V59.5458C23.7802 60.8994 24.8846 62 26.2428 62H33.5925C34.9508 62 36.0551 60.8994 36.0551 59.5458V57.7621C36.0805 57.3699 36.2201 55.3459 38.1242 53.6381Z" fill="#1A5BBC"/>
<path d="M0.106256 24.213C0.106256 29.8931 4.7395 34.5231 10.4517 34.5231C16.1512 34.5231 20.7972 29.9057 20.7972 24.213C20.7972 18.533 16.1639 13.9029 10.4517 13.9029C4.75219 13.9029 0.106256 18.5203 0.106256 24.213ZM18.2838 24.213C18.2838 28.5142 14.7676 32.0184 10.4517 32.0184C6.13582 32.0184 2.61963 28.5142 2.61963 24.213C2.61963 19.9119 6.13582 16.4077 10.4517 16.4077C14.7676 16.4077 18.2838 19.9119 18.2838 24.213Z" fill="#1A5BBC"/>
<path d="M29.4797 7.18546C29.4797 3.22587 26.2428 0 22.2697 0C18.2965 0 15.0596 3.22587 15.0596 7.18546C15.0596 11.1451 18.2965 14.3709 22.2697 14.3709C26.2428 14.3709 29.4797 11.1451 29.4797 7.18546ZM17.5602 7.18546C17.5602 4.60477 19.6674 2.50479 22.257 2.50479C24.8465 2.50479 26.9537 4.60477 26.9537 7.18546C26.9537 9.76615 24.8465 11.8661 22.257 11.8661C19.6674 11.8661 17.5602 9.76615 17.5602 7.18546Z" fill="#1A5BBC"/>
</svg>
