<svg width="50" height="50" viewBox="0 0 50 50" fill="none" xmlns="http://www.w3.org/2000/svg">
<path d="M22.9845 33.9121C23.3657 33.5303 23.3657 32.9123 22.9845 32.5305C22.603 32.1498 21.9848 32.1498 21.6028 32.5305C21.222 32.9123 21.222 33.5303 21.6028 33.9121C21.9848 34.2928 22.603 34.2928 22.9845 33.9121Z" fill="#1A5BBC"/>
<path d="M18.3598 10.739C18.3598 16.6604 23.1788 21.4783 29.1021 21.4783C35.0254 21.4783 39.8444 16.6604 39.8444 10.739C39.8444 4.8175 35.0254 0 29.1021 0C23.1788 0 18.3598 4.8175 18.3598 10.739ZM37.8915 10.739C37.8915 15.5839 33.9486 19.5256 29.1021 19.5256C24.2556 19.5256 20.3127 15.5839 20.3127 10.739C20.3127 5.89438 24.2556 1.95271 29.1021 1.95271C33.9486 1.95271 37.8915 5.89438 37.8915 10.739Z" fill="#1A5BBC"/>
<path d="M11.2486 49.7113C11.6271 50.0928 12.2434 50.097 12.6269 49.7193L17.3615 45.0563C18.1659 44.2522 18.4105 43.0616 18.0568 42.0267L19.0752 41.0448C19.6236 40.5154 20.3455 40.2235 21.1087 40.2235H34.0913C36.3945 40.2235 38.5714 39.3393 40.2218 37.7337C40.2897 37.6677 39.7063 38.3548 49.0787 27.1565C50.4688 25.5124 50.2608 23.0436 48.6147 21.6524C46.9788 20.2741 44.5283 20.4721 43.1344 22.088L37.3717 28.0091C36.6441 27.1138 35.5344 26.5557 34.3355 26.5557H23.4455C21.8959 25.9076 20.2516 25.5795 18.5551 25.5795C13.8525 25.5795 9.74629 27.7508 7.54265 31.8218C6.61426 31.646 5.63512 31.9267 4.93072 32.6309L0.284948 37.2889C-0.0943457 37.6693 -0.0951088 38.2846 0.283421 38.666L11.2486 49.7113ZM18.5547 27.5319C20.0505 27.5319 21.4967 27.8328 22.854 28.4264C22.9777 28.4806 23.1108 28.5084 23.2455 28.5084H34.3355C35.3944 28.5084 36.2888 29.3717 36.2888 30.4607C36.2888 31.5376 35.4127 32.4135 34.3355 32.4135H26.3676C25.8285 32.4135 25.3912 32.8506 25.3912 33.3896C25.3912 33.929 25.8285 34.3658 26.3676 34.3658H34.3355C36.4895 34.3658 38.2417 32.6141 38.2417 30.4607C38.2417 30.2891 38.2295 30.1189 38.2074 29.9503C43.7819 24.2219 44.568 23.417 44.6016 23.377C45.2976 22.5557 46.5331 22.4515 47.3551 23.1443C48.1778 23.8397 48.2819 25.0741 47.584 25.9L38.8248 36.3681C37.5457 37.5956 35.8664 38.2712 34.0913 38.2712H21.1087C19.8365 38.2712 18.6322 38.7576 17.7187 39.6399L16.8888 40.4406L9.23802 32.7926C11.0261 29.4392 14.3814 27.5319 18.5547 27.5319ZM6.31281 34.0106C6.63486 33.6887 7.1294 33.6307 7.52204 33.8733C7.69109 33.9763 7.20571 33.5346 15.9806 42.2945C16.3709 42.6847 16.35 43.3065 15.9859 43.6704L11.9495 47.6457L2.35389 37.9798L6.31281 34.0106Z" fill="#1A5BBC"/>
<path d="M27.9302 4.88159V6.0256C26.7935 6.42843 25.9769 7.51369 25.9769 8.78663C25.9769 10.4014 27.2911 11.7155 28.9067 11.7155C29.4451 11.7155 29.8832 12.1534 29.8832 12.6917C29.8832 13.2299 29.4451 13.6678 28.9067 13.6678C28.4896 13.6678 28.039 13.4058 27.6387 12.9293C27.2915 12.5166 26.6756 12.4636 26.2627 12.8103C25.8498 13.1574 25.7964 13.7731 26.1437 14.1859C26.6657 14.8065 27.2796 15.2391 27.9302 15.4573V16.5967C27.9302 17.1361 28.3675 17.5729 28.9067 17.5729C29.4459 17.5729 29.8832 17.1361 29.8832 16.5967V15.4527C31.0199 15.0495 31.8365 13.9642 31.8365 12.6917C31.8365 11.0766 30.5223 9.7628 28.9067 9.7628C28.3683 9.7628 27.9302 9.32488 27.9302 8.78663C27.9302 8.24839 28.3683 7.81009 28.9067 7.81009C29.2528 7.81009 29.618 7.98671 29.9629 8.32049C30.3506 8.69547 30.9688 8.68517 31.3439 8.29798C31.719 7.91041 31.7087 7.29244 31.3214 6.91746C30.8257 6.43796 30.3296 6.16674 29.8832 6.01873V4.88159C29.8832 4.3422 29.4459 3.90504 28.9067 3.90504C28.3675 3.90504 27.9302 4.3422 27.9302 4.88159Z" fill="#1A5BBC"/>
</svg>
