<?xml version="1.0" encoding="UTF-8"?>
<svg xmlns="http://www.w3.org/2000/svg" xmlns:xlink="http://www.w3.org/1999/xlink" width="13px" height="15px" viewBox="0 0 13 15" version="1.1">
    
    <title>Icon / UI / Utility / Calendar</title>
    <desc>Created with Sketch.</desc>
    <g id="Sportsbook" stroke="none" stroke-width="1" fill="none" fill-rule="evenodd">
        <g id="Live-Event-::-Football" transform="translate(-282.000000, -138.000000)">
            <g id="Icon-/-UI-/-Utility-/-Calendar" transform="translate(280.000000, 137.000000)">
                <g id="baseline-date_range-24px">
                    <path d="M13.4583333,2.83333333 L12.75,2.83333333 L12.75,1.41666667 L11.3333333,1.41666667 L11.3333333,2.83333333 L5.66666667,2.83333333 L5.66666667,1.41666667 L4.25,1.41666667 L4.25,2.83333333 L3.54166667,2.83333333 C2.75541667,2.83333333 2.13208333,3.47083333 2.13208333,4.25 L2.125,14.1666667 C2.125,14.9458333 2.75541667,15.5833333 3.54166667,15.5833333 L13.4583333,15.5833333 C14.2375,15.5833333 14.875,14.9458333 14.875,14.1666667 L14.875,4.25 C14.875,3.47083333 14.2375,2.83333333 13.4583333,2.83333333 Z M13.4583333,14.1666667 L3.54166667,14.1666667 L3.54166667,6.375 L13.4583333,6.375 L13.4583333,14.1666667 Z" id="Shape" fill="#FFFFFF" fill-rule="nonzero"/>
                    <polygon id="Shape" points="0 0 17 0 17 17 0 17"/>
                </g>
            </g>
        </g>
    </g>
</svg>
