<svg width="14" height="14" viewBox="0 0 14 14" fill="none" xmlns="http://www.w3.org/2000/svg">
<path d="M13.3636 1.90909C13.7151 1.55764 13.7151 0.987818 13.3636 0.636364C13.0122 0.28491 12.4424 0.284911 12.0909 0.636365L7.70711 5.02017C7.31658 5.4107 6.68342 5.4107 6.29289 5.02017L1.90909 0.636366C1.55764 0.284911 0.987816 0.284911 0.636362 0.636366C0.284909 0.987819 0.284909 1.55764 0.636363 1.90909L5.02017 6.2929C5.41069 6.68343 5.41069 7.31659 5.02017 7.70711L0.636377 12.0909C0.284923 12.4424 0.284923 13.0122 0.636377 13.3636C0.987831 13.7151 1.55765 13.7151 1.9091 13.3636L6.29289 8.97984C6.68342 8.58932 7.31658 8.58932 7.70711 8.97984L12.0909 13.3636C12.4424 13.7151 13.0122 13.7151 13.3636 13.3636C13.7151 13.0122 13.7151 12.4424 13.3636 12.0909L8.97983 7.70711C8.58931 7.31659 8.58931 6.68342 8.97983 6.2929L13.3636 1.90909Z" fill="white"/>
</svg>
