<svg width="70" height="70" viewBox="0 0 70 70" fill="none" xmlns="http://www.w3.org/2000/svg">
<path d="M54.1392 32.4248C53.9439 32.4248 53.7456 32.3827 53.5571 32.2938L41.7737 26.7384C41.0908 26.4164 40.7981 25.6017 41.1202 24.9187C41.442 24.2357 42.2567 23.9429 42.9399 24.2651L54.7233 29.8206C55.4062 30.1425 55.6989 30.9572 55.3768 31.6403C55.1437 32.1348 54.6521 32.4248 54.1392 32.4248Z" fill="#429BDB"/>
<path d="M15.8597 32.4247C15.3468 32.4247 14.8553 32.1349 14.6221 31.6402C14.3001 30.9572 14.5927 30.1425 15.2756 29.8205L27.059 24.2651C27.7419 23.943 28.5566 24.2357 28.8787 24.9186C29.2007 25.6016 28.9081 26.4163 28.2252 26.7383L16.4418 32.2937C16.2534 32.3826 16.055 32.4247 15.8597 32.4247Z" fill="#429BDB"/>
<path d="M50.0391 54.9612C49.5007 54.9612 48.9904 54.6413 48.7736 54.1123C46.6348 48.8957 41.0994 45.3906 34.9995 45.3906C28.8995 45.3906 23.3641 48.8957 21.2253 54.1123C20.9389 54.8108 20.1402 55.1452 19.4417 54.8587C18.743 54.5723 18.4089 53.7737 18.6953 53.075C19.9425 50.033 22.1283 47.4358 25.0167 45.564C27.9524 43.6618 31.4043 42.6562 34.9995 42.6562C38.5946 42.6562 42.0465 43.6618 44.9821 45.5641C47.8704 47.4358 50.0564 50.0332 51.3034 53.0752C51.5899 53.7738 51.2557 54.5724 50.5571 54.8588C50.3874 54.9284 50.2117 54.9612 50.0391 54.9612Z" fill="#429BDB"/>
<path d="M60.2002 58.6409C60.9553 58.6409 61.5674 58.0288 61.5674 57.2737C61.5674 56.5186 60.9553 55.9065 60.2002 55.9065C59.4451 55.9065 58.833 56.5186 58.833 57.2737C58.833 58.0288 59.4451 58.6409 60.2002 58.6409Z" fill="#429BDB"/>
<path d="M69.2713 27.9483C67.9483 21.5812 64.8644 15.604 60.3556 10.8659C53.7971 3.97387 44.5085 0 35.0001 0C25.3682 0 15.9651 4.08119 9.39463 11.1312C3.40197 17.5612 0 26.2119 0 34.9984C0 43.8825 3.481 52.6273 9.59438 59.0781C16.1517 65.9973 25.4744 70 35.0027 70C38.9826 70 42.8873 69.3369 46.6102 68.0284C50.21 66.7622 53.5609 64.9232 56.5729 62.5621C56.86 62.3365 57.0432 62.0125 57.0869 61.65C57.1307 61.2877 57.0309 60.9295 56.8053 60.6424C56.5455 60.3102 56.1518 60.1188 55.7293 60.1188C55.4203 60.1188 55.1291 60.22 54.8871 60.41C49.1627 64.8945 42.2871 67.2655 35 67.2655C26.384 67.2655 18.2807 63.9089 12.1844 57.8151C6.09082 51.7185 2.73438 43.6148 2.73438 34.9984C2.73438 26.3819 6.09082 18.2782 12.1844 12.1816C18.2807 6.08768 26.384 2.73109 35 2.73109C43.616 2.73109 51.7193 6.08768 57.8156 12.1816C63.9092 18.2782 67.2643 26.3806 67.2656 34.9984C67.2656 40.868 65.6742 46.6145 62.6637 51.616C62.2754 52.2613 62.4832 53.1035 63.1299 53.4933C63.3432 53.6204 63.5865 53.6888 63.834 53.6888C64.318 53.6888 64.7568 53.4413 65.0057 53.0271C66.6107 50.3623 67.8508 47.4965 68.6916 44.5091C69.5598 41.4273 70 38.2278 70 34.9985C70 32.624 69.7517 30.2604 69.2713 27.9483Z" fill="#429BDB"/>
</svg>
