<svg width="20" height="16" viewBox="0 0 20 16" fill="none" xmlns="http://www.w3.org/2000/svg">
<path d="M17.8452 0.5H2.15485C0.966644 0.5 0 1.46664 0 2.655V13.3242C0 14.5125 0.966644 15.4792 2.15485 15.4792H17.8452C19.0334 15.4792 20 14.5125 20 13.3242V2.655C20 1.46664 19.0334 0.5 17.8452 0.5V0.5ZM18.8281 10.5417H17.8452C17.303 10.5417 16.8619 10.1007 16.8619 9.55853V6.42056C16.8619 5.87857 17.303 5.43744 17.8452 5.43744H18.8281V10.5417ZM9.41406 10.473C8.28842 10.2075 7.44781 9.19522 7.44781 7.98962C7.44781 6.78403 8.28842 5.77176 9.41406 5.5061V10.473ZM10.5859 5.5061C11.7116 5.77176 12.5522 6.78403 12.5522 7.98962C12.5522 9.19522 11.7116 10.2075 10.5859 10.473V5.5061ZM1.17188 5.43744H2.15485C2.69699 5.43744 3.13812 5.87857 3.13812 6.42056V9.55853C3.13812 10.1007 2.69699 10.5417 2.15485 10.5417H1.17188V5.43744ZM1.17188 13.3242V11.7135H2.15485C3.3432 11.7135 4.31 10.7469 4.31 9.55853V6.42056C4.31 5.23236 3.3432 4.26556 2.15485 4.26556H1.17188V2.655C1.17188 2.11285 1.61285 1.67188 2.15485 1.67188H9.41406V4.31195C7.63809 4.59378 6.27594 6.13553 6.27594 7.98962C6.27594 9.84372 7.63809 11.3855 9.41406 11.6673V14.3072H2.15485C1.61285 14.3072 1.17188 13.8662 1.17188 13.3242ZM17.8452 14.3072H10.5859V11.6673C12.3619 11.3853 13.7241 9.84357 13.7241 7.98962C13.7241 6.13553 12.3619 4.59378 10.5859 4.31195V1.67188H17.8452C18.3871 1.67188 18.8281 2.11285 18.8281 2.655V4.26556H17.8452C16.6568 4.26556 15.69 5.23236 15.69 6.42056V9.55853C15.69 10.7469 16.6568 11.7135 17.8452 11.7135H18.8281V13.3242C18.8281 13.8662 18.3871 14.3072 17.8452 14.3072Z" fill="white"/>
</svg>
