<svg width="27" height="20" viewBox="0 0 27 20" fill="none" xmlns="http://www.w3.org/2000/svg">
<path fill-rule="evenodd" clip-rule="evenodd" d="M1.66667 0C0.746256 0 0 0.746206 0 1.66667V18.3333C0 19.2538 0.746256 20 1.66667 20H25C25.9204 20 26.6667 19.2538 26.6667 18.3333V1.66667C26.6667 0.746206 25.9204 0 25 0H1.66667ZM8.33333 18.3333V4.16667H1.66667V18.3333H8.33333ZM10 4.16667H16.6667V18.3333H10V4.16667ZM25 4.16667H18.3333V18.3333H25V4.16667ZM1.66667 2.5H25V3.33333H1.66667V2.5ZM2.08333 1.66667C2.31344 1.66667 2.5 1.4801 2.5 1.25C2.5 1.0199 2.31344 0.833333 2.08333 0.833333C1.85323 0.833333 1.66667 1.0199 1.66667 1.25C1.66667 1.4801 1.85323 1.66667 2.08333 1.66667ZM4.16667 1.25C4.16667 1.4801 3.9801 1.66667 3.75 1.66667C3.5199 1.66667 3.33333 1.4801 3.33333 1.25C3.33333 1.20631 3.34005 1.16414 3.35246 1.12457C3.36405 1.08785 3.38053 1.05331 3.40129 1.02178C3.47575 0.908305 3.60413 0.833333 3.75 0.833333C3.9801 0.833333 4.16667 1.0199 4.16667 1.25ZM5.41667 1.66667C5.64677 1.66667 5.83333 1.4801 5.83333 1.25C5.83333 1.0199 5.64677 0.833333 5.41667 0.833333C5.18656 0.833333 5 1.0199 5 1.25C5 1.4801 5.18656 1.66667 5.41667 1.66667Z" fill="#268BE9"/>
</svg>
