<svg enable-background="new 0 0 400 400" viewBox="0 0 400 400" xmlns="http://www.w3.org/2000/svg"><g fill="#fff"><path d="m341.8 382h-283.6c-29.3 0-53.2-23.9-53.2-53.2v-257.6c0-29.3 23.9-53.2 53.2-53.2h283.5c29.4 0 53.3 23.9 53.3 53.3v257.5c0 29.3-23.9 53.2-53.2 53.2zm-283.6-344c-18.3 0-33.2 14.9-33.2 33.2v257.5c0 18.3 14.9 33.3 33.3 33.3h283.5c18.3 0 33.3-14.9 33.3-33.3v-257.5c0-18.3-14.9-33.3-33.3-33.3h-283.6z"/><g clip-rule="evenodd" fill-rule="evenodd"><path d="m332.8 185c-.8 5.1-1.5 10.3-2.4 15.4-2.4 13-5.3 25.9-7.3 38.9-.8 5 0 10.4.3 15.6.2 3.1.5 3.1-2.6 3.1-10 0-20.1 0-30.2 0-1.9 0-2.7-.4-3-2.4-.6-5.3-.7-5.3-5.2-2.4-10 6.3-20.7 9.5-32.6 6.9-12.2-2.7-20.1-12.5-19-24 1.1-11.2 6.8-19.7 15.7-26.2 6.2-4.5 13.2-7.3 20.5-9.7 8.4-2.8 16.8-5.8 25-9.1 8-3.2 9.6-10.8 8.1-17.6-.5-2.1-1.9-3.6-4.1-4.2-5.2-1.4-11.7-.3-13 5.2-.3 1.4-.3 2.9-.1 4.3.8 4.5.3 5.9-4 7.6-5.1 2.1-10.3 4.1-16.1 3.2-4.6-.8-7.9-3.3-10.2-7.3-3.9-7-4.7-14.5-3-22.3.2-1 .4-2 1.7-1.2 6.5 4 13.6 2.7 20.5 2.3 7.4-.5 14.7-2.1 22.1-2.7 8.9-.7 17.8.1 26.3 3.1 7.6 2.7 11 8.4 11.9 16.1.1 1 .3 1.9.5 2.9.2 1.5.2 3 .2 4.5zm-36.7 14.8c-3.1 1.3-5.9 2.2-8.3 3.7-8 5.1-14.3 11.9-18.9 20.1-2.4 4.2-3.2 8.9-2.7 13.7.7 6.4 6.4 10.7 11.9 8.5 6-2.4 11.1-6 11.7-13.4.1-1.3.5-2.6.7-3.8 1.7-9.3 3.6-18.6 5.6-28.8z"/><path d="m179.3 285.4c-.1 0-.3 0-.4-.1-1.8-.3-3.6-.8-5.4-1.3 0 0 .7-.8.8-.8 7.1-5.4 10.6-12.8 12.3-21.3 5.1-25.6 10.2-51.1 15.3-76.7.5-2.4.9-4.8 1.5-7.2 1.4-5.5 1-10.8-1.5-15.9-1.2-2.5-1-2.6 1.7-2.6h33.3c1.7 0 2.2.3 1.8 2.1-3.8 18.9-7.4 37.9-11.1 56.9-3 15.4-6.1 30.9-9 46.3-1.1 6-4.3 10.5-9.4 13.7-6.8 4.4-15.2 6.7-23.3 7.1-2.1.2-4.4.1-6.6-.2z"/><path d="m143 122.9c12.4.2 24.9 2.7 35.4 11.3 10.6 8.7 16.5 20 17.6 33.7 2.1 25.5-10.1 65.2-44.8 83.8-12.2 6.6-25.4 9.2-39.1 9-10.3-.1-20.3-1.7-29.9-5.7-3.3-1.4-6.5-3.2-9.2-5.4-7.4-6-7.8-15.9-1.1-23.1 9.9-10.6 29.6-10.3 39.2.6 1.5 1.6 1.8 2.6-.3 4.1-4.2 2.9-6.8 6.9-6.2 12.2.6 4.7 4.7 8.3 9.9 9.2 5.3.9 10.3-.2 14-4s7.1-7.9 9.8-12.4c6.2-10.3 9.9-21.6 11.9-33.4.1-.7-.2-1.5-.3-2.3-.6.3-1.3.5-1.8.9-11.7 8.4-24.6 13-39.1 12.5-11.8-.4-22.1-4.2-29.4-14-6.2-8.3-7.2-17.7-5.4-27.5 4.3-23.8 19.8-37.3 41.5-45.1 8.5-3.2 17.5-4.3 27.3-4.4zm-28.7 55.5c.4 2.9.6 6.3 1.3 9.7 1.9 9.2 7.5 13.1 16.8 11.6 6.4-1 11.4-4.4 15.4-9.2 11.1-13.5 14.2-29.1 11.2-45.9-1.8-9.9-8-14.2-17.4-13-5.9.8-10.7 3.8-14.4 8.5-8.7 11-11.8 24-12.9 38.3z"/></g><path d="m237.8 121.9c-1.5-1.8-3.2-3.4-5.3-4.6-2.5-1.5-5.4-2.5-8.5-2.9-.8-.1-1.5-.1-2.3-.1-.4 0-.8 0-1.2 0-3.4.2-6.5 1.2-9.2 2.7-2.8 1.6-5.2 3.9-6.9 6.6-.6.9-1.1 1.9-1.5 3-.9 2.2-1.5 4.6-1.5 7.2v.3c0 4.6 1.6 8.9 4.4 12.3 1.4 1.8 3.2 3.3 5.1 4.5s4.1 2.1 6.4 2.6c1.4.3 2.9.5 4.5.5 1.4 0 2.7-.1 4-.4.4-.1.9-.2 1.3-.3.8-.2 1.6-.5 2.3-.7 2.6-1 5-2.6 6.9-4.5 2-2 3.6-4.4 4.6-7.1.8-2.1 1.2-4.3 1.2-6.7v-.1c0-4.7-1.7-8.9-4.3-12.3z"/></g></svg>