<?xml version="1.0" encoding="UTF-8"?>
<svg width="269px" height="85px" viewBox="0 0 269 85" version="1.1" xmlns="http://www.w3.org/2000/svg" xmlns:xlink="http://www.w3.org/1999/xlink">
    <!-- Generator: Sketch 60.1 (88133) - https://sketch.com -->
    <title>logo / white</title>
    <desc>Created with Sketch.</desc>
    <g id="Page-1" stroke="none" stroke-width="1" fill="none" fill-rule="evenodd">
        <g id="logo-/-white" fill="#FFFFFF">
            <path d="M135.685,29.1479301 C151.019,29.1479301 163.446,41.4418235 163.446,56.6047206 C163.446,71.7676176 151.019,84.0625 135.685,84.0625 C120.351,84.0625 107.923,71.7676176 107.923,56.6047206 C107.923,54.6670305 108.12874,52.7814097 108.511789,50.9579517 L108.646,50.3524485 L114.101,50.3524485 C113.515,52.3343456 113.196,54.4359081 113.196,56.6047206 C113.196,68.8818015 123.267,78.8437022 135.685,78.8437022 C148.105,78.8437022 158.169,68.8818015 158.169,56.6047206 C158.169,44.3226949 148.105,34.365739 135.685,34.365739 C129.326395,34.365739 123.585048,36.9811399 119.487847,41.1788676 L119.198,41.4813824 L112.511,41.4813824 C117.48,34.0502574 126.005,29.1479301 135.685,29.1479301 Z M186.997,41.223261 C190.285316,41.223261 193.4049,41.9466615 196.195052,43.2471473 L196.657,43.4692132 L196.657,49.5899522 C193.95,47.6268456 190.614,46.4657941 186.997,46.4657941 C177.96,46.4657941 170.64,53.7090147 170.64,62.6384301 C170.64,71.5747684 177.96,78.8150221 186.997,78.8150221 C190.46932,78.8150221 193.68267,77.7440856 196.329163,75.9207046 L196.657,75.688886 L196.657,81.810614 C193.751,83.2475882 190.468,84.0575551 186.997,84.0575551 C175.04,84.0575551 165.343,74.4645404 165.343,62.6384301 C165.343,50.8123199 175.04,41.223261 186.997,41.223261 Z M48.11,43.8697463 C53.462,45.6726397 58.146,48.8996507 58.052,57.2099706 C57.979,63.4118051 54.979,67.8077794 49.765,70.0388971 C50.509,72.2383676 51.263,73.4627132 52.905,75.1152831 C55.3137805,77.530301 59.3158983,78.7338447 59.5096906,78.7911175 L59.517,78.7932647 L59.515,83.7400956 C59.515,83.7400956 53.901,82.5197059 51.144,80.3597941 C47.8682308,77.7942713 45.4504837,71.4292602 45.3587049,71.1854009 L45.356,71.1781912 L43.841,71.1781912 L43.841,83.3840662 L38.567,83.3840662 L38.567,42.9598934 C38.567,42.9598934 44.571,42.6730919 48.11,43.8697463 Z M210.511,43.8697463 C215.858,45.6726397 220.544,48.8996507 220.444,57.2099706 C220.378,63.4118051 217.374,67.8077794 212.167,70.0388971 C212.913,72.2383676 213.657,73.4627132 215.308,75.1152831 C217.708976,77.530301 221.713758,78.7338447 221.907685,78.7911175 L221.915,78.7932647 L221.911,83.7400956 C221.911,83.7400956 216.298,82.5197059 213.54,80.3597941 C210.266192,77.7942713 207.849445,71.4292602 207.757704,71.1854009 L207.755,71.1781912 L206.241,71.1781912 L206.241,83.3840662 L200.966,83.3840662 L200.966,42.9598934 C200.966,42.9598934 206.97,42.6730919 210.511,43.8697463 Z M263.839,81.3408529 L264.349,82.7740631 L264.86,81.3408529 L265.497,81.3408529 L265.497,83.4424154 L265.105,83.4424154 L265.105,81.7946344 L265.095,81.7946344 L264.505,83.4424154 L264.196,83.4424154 L263.607,81.7946344 L263.595,81.7946344 L263.595,83.4424154 L263.198,83.4424154 L263.198,81.3408529 L263.839,81.3408529 Z M262.739,81.3408529 L262.739,81.6960755 L262.116,81.6960755 L262.116,83.4424154 L261.72,83.4424154 L261.72,81.6960755 L261.095,81.6960755 L261.095,81.3408529 L262.739,81.3408529 Z M225.247,42.7561654 C227.444,44.0705074 239.077,49.5612721 246.243,66.2026801 C247.519211,69.1641786 249.653502,73.4267618 249.549718,82.8842888 L249.542,83.3959338 L244.267,83.3632978 C244.267,80.7286801 244.182213,76.945654 242.975728,73.2689377 L242.819,72.8099926 L230.528,72.8099926 L230.528,83.3632978 L225.247,83.3632978 L225.247,42.7561654 Z M33.496,30.5522684 L33.492,83.3840662 L28.225,83.3840662 L28.225,68.7215882 L9.285,68.7215882 C8.66295918,70.2919928 6.80687255,78.3176065 5.92107878,83.0901084 L5.867,83.3840662 L0,83.3840662 C0,83.3840662 2.57,63.9982647 11.434,51.077364 C19.873,38.7538015 33.496,30.5522684 33.496,30.5522684 Z M268.259,43.309 L268.259,48.5228529 L258.339,48.5228529 L258.339,83.3652757 L253.06,83.3652757 L253.06,48.5228529 L243.138,48.5228529 L243.138,43.309 L268.259,43.309 Z M141.136,43.309 L141.136,48.5268088 L103.56,48.5228529 L103.55,83.3652757 L98.278,83.3652757 L98.278,48.5228529 L90.011,48.519886 L90.011,43.309 L141.136,43.309 Z M68.137,43.3109779 L68.137,83.3652757 L62.86,83.3652757 L62.86,43.3109779 L68.137,43.3109779 Z M81.212,43.4336103 C83.7689474,43.4336103 86.0422825,44.2635237 87.9784385,45.4289063 L88.298,45.6261581 L88.298,52.2255588 C86.563,50.4117868 84.087,48.5337316 81.212,48.5337316 C79.47,48.5337316 75.419,49.0638199 75.419,53.9997721 C75.419,57.1981029 76.604,60.5873051 80.136,64.0823272 C82.976,66.8860588 87.202,70.9260037 87.202,75.7858051 C87.202,78.4803544 86.369895,80.86162 85.1009349,83.0254169 L84.897,83.3652757 L78.546,83.3652757 C80.454,81.1460257 82.052,78.6310735 82.052,75.7858051 C82.052,73.066136 78.503,69.5404559 76.528,67.7167941 C71.997,63.5344375 70.269,58.3947574 70.269,53.9997721 C70.269,47.681239 74.663,43.4336103 81.212,43.4336103 Z M230.528,52.2334706 L230.528,67.5902059 L240.843,67.5902059 C240.843,66.0820257 234.444,55.4367463 230.528,52.2334706 Z M43.841,47.9729853 L43.839,65.7883015 L43.8568606,65.7880757 C44.3053899,65.7803611 53.0514369,65.5123533 53.0300393,56.3416544 C53.013,48.4852721 43.841,47.9729853 43.841,47.9729853 Z M206.240992,47.9729853 L206.240992,65.7883015 L206.258107,65.7880757 C206.697494,65.7803611 215.445565,65.5123533 215.429023,56.3416544 C215.409,48.4852721 206.240992,47.9729853 206.240992,47.9729853 Z M28.225,41.0501912 C24.0807538,44.5450002 15.787187,50.4626332 11.2766313,62.9190365 L11.068,63.5077353 L28.225,63.5077353 L28.225,41.0501912 Z M196.657,32.4095551 L196.657,37.6283529 L168.898,37.6283529 L168.898,32.4095551 L196.657,32.4095551 Z M182.776,0.482617647 C190.444,0.482617647 196.657,6.63302574 196.657,14.2144743 C196.657,21.7929559 190.444,27.942375 182.776,27.942375 C175.11,27.942375 168.898,21.7929559 168.898,14.2144743 C168.898,6.63302574 175.11,0.482617647 182.776,0.482617647 Z" id="Combined-Shape"></path>
        </g>
    </g>
</svg>