<?xml version="1.0" encoding="utf-8"?>
<!-- Generator: Adobe Illustrator 24.0.1, SVG Export Plug-In . SVG Version: 6.00 Build 0)  -->
<svg version="1.1" id="Layer_1" xmlns="http://www.w3.org/2000/svg" xmlns:xlink="http://www.w3.org/1999/xlink" x="0px" y="0px"
	 viewBox="0 0 22 24" style="enable-background:new 0 0 22 24;" xml:space="preserve">
<style type="text/css">
	.st0{fill:#FFFFFF;}
</style>
<g>
	<path class="st0" d="M4.7,18.9L8.5,3.1L1.8,3.9c-0.3,0-0.5,0.3-0.5,0.6l1.9,17.2c0,0.3,0.3,0.5,0.6,0.5l6.7-0.8l-5-1.2
		C4.9,20,4.6,19.4,4.7,18.9z M4,6.2c0,0.2,0,0.3-0.1,0.4C3.8,6.7,3.6,6.8,3.4,6.8c-0.1,0-0.1,0-0.2,0c-0.1,0-0.1,0-0.2,0L3,6.4
		l0.2-0.1l0.1,0.3c0,0,0.1,0,0.1,0c0,0,0,0,0.1,0c0,0,0,0,0,0c0,0,0-0.1,0-0.1c0-0.1,0-0.1,0-0.2L3.4,5.1l-0.3,0l0-0.2L4,4.8L4,5
		L3.8,5L4,6.2z"/>
	<polygon class="st0" points="14.8,19.3 14.9,20 15.3,19.4 	"/>
	<polygon class="st0" points="14.8,19.3 14.9,20 14.9,20 14.9,20 14.8,19.3 	"/>
	<g>
		<path class="st0" d="M20.3,4.3L9.9,1.8c0,0-0.1,0-0.1,0C9.5,1.8,9.3,2,9.2,2.2L9,3.1L5.2,19c-0.1,0.3,0.1,0.6,0.4,0.7l6.3,1.5l4,1
			c0,0,0.1,0,0.1,0c0.2,0,0.5-0.2,0.5-0.4L20.7,5C20.7,4.7,20.6,4.4,20.3,4.3z M11,4.7l-0.6-0.2l-0.2,0.3l0.2,0.1l-0.1,0.2L9.7,5
			l0-0.2l0.1,0l1-1.5l0.4,0.1l0.2,1.8l0.1,0.1l-0.1,0.2l-0.7-0.2l0-0.2l0.2,0L11,4.7z M10.2,15c0,0,0.6-0.1,1.2-0.4
			c0.7-0.4,1.1-0.9,1.1-0.9s0.1,0.6,0.6,1.3C13.5,15.6,14,16,14,16l-1.9-0.5L10.2,15z M16.2,19L16,19l-1,1.5l-0.1,0l-0.3-0.1
			l-0.2-1.8l-0.1-0.1l0.1-0.2l0.3,0.1l0,0.2l0,0l0,0.4l0,0l0.6,0.1l0.2-0.3l-0.2-0.1l0.1-0.2l0.7,0.2L16.2,19z M16.2,13.1
			c-0.2,0.9-1,1.5-1.9,1.5c-0.2,0-0.3,0-0.5-0.1c-0.6-0.1-1-0.5-1.3-0.9c-0.4,0.3-1,0.4-1.6,0.3c-1.1-0.3-1.8-1.4-1.5-2.4
			c0.3-1.3,1.6-1.4,2.6-1.9c0.7-0.4,1.3-0.8,1.6-1c0.1-0.1,0.1-0.1,0.2-0.1c0.1,0,0.4,0.9,1,1.8C15.4,11.1,16.6,11.8,16.2,13.1z"/>
		<polygon class="st0" points="10.9,3.8 10.5,4.4 11,4.5 10.9,3.8 		"/>
	</g>
</g>
</svg>
