<svg enable-background="new 0 0 97.4 71.4" viewBox="0 0 97.4 71.4" xmlns="http://www.w3.org/2000/svg"><path d="m2.6 21.1c-.2.6-.4 1.4-.4 2.1l-1.7 11c-.2 1.5.1 2.4.7 2.9l22.8 13.7c.6.3 1.3.5 1.8.5h.2l3.2-13.2c.1-.7-.3-1.5-1.5-2.1h-.1l-24.5-14.6-.4-.6c-.1 0-.1.2-.1.3m.4 15.7c-.3-.6-.3-1.1-.1-1.4s.6-.4 1.3-.3 1.3.4 1.9.9 1.2 1 1.5 1.6c.3.5.3 1.1.1 1.4s-.6.4-1.3.3c-.6-.1-1.3-.4-2-.9-.6-.5-1.1-1.1-1.4-1.6m9.8-4.9c-.2-.4-.2-.9 0-1.1.2-.3.6-.4 1.3-.3.6.1 1.3.4 1.9.9.2.2.5.3.7.5s.3.4.5.5c.1.1.2.3.3.4.3.5.3 1.1.1 1.4s-.6.4-1.3.3c-.6-.1-1.3-.4-2-.9-.5-.4-1-.9-1.3-1.3-.1-.1-.1-.2-.2-.3.1.1.1 0 0-.1m-3.4-3.9c.3.5.3 1.1.1 1.4s-.6.4-1.3.3c-.6-.1-1.3-.4-2-.9s-1.2-1.1-1.5-1.6-.3-1-.1-1.3.6-.4 1.3-.3c.6.1 1.3.4 1.9.9.7.4 1.3.9 1.6 1.5m11.6 7.8c.2-.3.6-.4 1.3-.3.6.1 1.3.4 1.9.9s1.2 1 1.5 1.6.3 1.1.1 1.4-.6.4-1.3.3c-.6-.1-1.3-.4-2-.9-.6-.4-1.2-1-1.5-1.6-.2-.6-.2-1 0-1.4m-5.4 6.4c.3.6.3 1.1.1 1.4s-.6.4-1.3.3c-.6-.1-1.3-.4-2-.9-.6-.4-1.2-1-1.5-1.6-.3-.5-.3-1-.1-1.3s.6-.4 1.3-.3c.6.1 1.3.4 1.9.9.7.5 1.2 1 1.6 1.5m3 2.7c.2-.3.6-.4 1.3-.3.6.1 1.3.4 1.9.9s1.2 1 1.5 1.6.3 1.1.1 1.4-.6.4-1.3.3c-.6-.1-1.4-.4-2-.9-.6-.4-1.2-1-1.5-1.6-.1-.6-.2-1 0-1.4m44.4-9.7c.3-.9.2-1.6-.4-2.1l-11.5-13.5-9.4 25.8c-.6 1.6-.6 3 .1 4.1l9.3 14.6s0 .1.1.1zm-11.5 2.3c.4 0 .9.2 1.1.9.2.6.3 1.4.2 2.2-.1 1-.3 1.7-.6 2.3-.4.6-.9 1.1-1.3 1.1s-.9-.2-1.1-.9c-.3-.6-.3-1.4-.3-2.3.1-.9.3-1.7.7-2.3.5-.5.9-.8 1.3-1m-6.3-19.2-2 2.7-11.8 15.4c-.5.7-.9 1.5-1.1 2.2l-3.2 12.4c.1 0 .1 0 .2-.1.3-.2.5-.4.7-.6.1-.1.1-.1.2-.2l12.6-17.1c.1-.1.2-.3.2-.4.5-1 1-1.8 1.2-2.8zm-2.1 5.3c-.3.5-.6 1.1-1 1.4-.3.4-.5.5-.7.4-.1-.1-.1-.3.1-.9.2-.4.4-1 .7-1.6s.6-1.1 1-1.4c.3-.3.5-.5.7-.4.1.1.1.3-.1.9-.1.4-.3.9-.6 1.5-.1 0-.1.1-.1.1m-2.8 7.4c.3-.3.5-.5.6-.4s.1.3-.1.9c-.1.4-.4 1-.7 1.6-.3.5-.6 1.1-1 1.4-.3.4-.5.5-.7.4-.1-.1-.1-.3.1-.9.2-.4.4-1 .7-1.6.5-.6.8-1 1.1-1.4m-2.5 1.5c.1.1.1.3-.1.9-.1.4-.4 1-.7 1.6-.3.5-.6 1.1-1.1 1.4-.3.4-.5.5-.6.4s-.1-.3.1-.9c.2-.4.4-1 .7-1.6s.6-1.1 1-1.5c.4-.1.6-.4.7-.3m-3.4 1.6c.1.1.1.3-.1.9-.1.4-.4 1-.7 1.6-.3.5-.6 1.1-1 1.4-.3.4-.5.5-.7.4-.1-.1-.1-.3.1-.9.2-.4.4-1 .7-1.6s.6-1.1 1.1-1.5c.3-.2.5-.3.6-.3m-4.3 11c.3-.6.6-1.1 1-1.5.3-.3.5-.5.7-.4.1.1.1.3-.1.9-.1.4-.4 1-.7 1.6-.3.5-.6 1.1-1.1 1.4-.2.4-.4.5-.6.4-.1-.1-.1-.3.1-.9.2-.4.4-1 .7-1.5m15.1-29.5c-.2-.3-.5-.6-.9-.9l-22.8-13.7c-1.4-.7-2.4-.9-3.2-.2l-14.7 18c-.1.1-.1.2-.1.3-.2.5 0 1 .7 1.5l23.5 14.3c1.6.6 2.8.7 3.5.2l13.8-18c.3-.4.4-.9.2-1.5m-26.1-7.9c-.4-.6-.5-1.3-.4-2 .2-.8.6-1.3 1.3-1.7s1.5-.3 2.3-.1c.9.2 1.5.6 1.9 1.3.4.6.6 1.4.4 2-.2.7-.6 1.2-1.4 1.5-.7.4-1.5.4-2.3.2s-1.4-.6-1.8-1.2m8.4 8.7c.4.6.6 1.4.4 2s-.6 1.2-1.4 1.5c-.7.3-1.5.4-2.3.2-.9-.2-1.5-.6-1.9-1.3-.4-.6-.5-1.3-.4-2 .2-.7.6-1.2 1.4-1.6.7-.3 1.5-.4 2.3-.1.8.2 1.4.6 1.9 1.3m-1.9 13.8c-.4-.6-.5-1.3-.4-2 .2-.6.6-1.2 1.3-1.6.7-.3 1.5-.3 2.3-.1.9.2 1.5.6 1.9 1.3.4.6.6 1.4.4 2s-.6 1.2-1.4 1.5c-.7.3-1.5.4-2.3.2s-1.4-.7-1.8-1.3m71.2 11.8c.1-.4.2-.7.3-1.2 0-.1 0-.2 0-.4l-30.7-5.5c-1.1-.1-1.7.1-1.9.6l-12.1 30.1c.4.3 1.1.6 1.7.9l28.8 4.5c1.1.2 1.8-.1 2.4-.9zm-12.4 19.9c.5.6.6 1.4.5 2.2-.1.9-.6 1.7-1.4 2.3-.7.6-1.6 1.1-2.6 1.1s-1.6-.2-2.1-.9c-.5-.6-.7-1.4-.5-2.2.2-1 .6-1.7 1.5-2.3.7-.6 1.6-1 2.6-1.1.7-.1 1.4.3 2 .9m-12.6-22.7c.5.6.6 1.4.5 2.2-.1 1-.6 1.7-1.4 2.3-.7.6-1.6 1.1-2.6 1.1s-1.6-.2-2.1-.9-.7-1.4-.5-2.3.6-1.7 1.5-2.3c.7-.6 1.6-1 2.6-1.1.7.1 1.5.4 2 1m25.2-.5c-.2-.7-.6-1.5-1.3-2.1l-11.5-12.5c-.9-1.1-2-1.6-3.8-1.8l-26.1-4.6c-1-.2-1.7 0-2.3.4-.1 0-.1.1-.1.1l12.2 13.9c.6.7 1.6 1.2 2.8 1.3zm-14.3-14.4c.6.4.9.9.7 1.2-.1.3-.5.5-1.3.5-.7 0-1.6-.2-2.6-.5s-1.7-.6-2.2-1.1c-.5-.4-.9-.7-.7-1.1.1-.3.5-.5 1.3-.5s1.6.2 2.4.5c1.1.1 1.8.5 2.4 1m-11.6 7.7c-.7 0-1.7-.2-2.7-.5s-1.7-.6-2.3-1.1c-.6-.4-.9-.9-.7-1.2.1-.3.5-.5 1.3-.5s1.6.2 2.7.5c1 .3 1.8.7 2.3 1.2.6.5.9.9.7 1.2s-.6.4-1.3.4m2.9-3.6c-1-.3-1.7-.7-2.2-1.2-.6-.4-.9-.9-.7-1.2.1-.3.5-.5 1.3-.5.7 0 1.6.2 2.6.5s1.7.7 2.3 1.2.9.9.7 1.2-.5.5-1.3.5-1.7-.2-2.7-.5z" fill="#fff"/></svg>