<svg viewBox="0 0 29 24.5" xmlns="http://www.w3.org/2000/svg"><g fill="#fff"><path d="m15.26 6.66s-2.91-3.25-5.92-4a18.11 18.11 0 0 1 3.93 5.65s3.01-.03 1.99-1.65z"/><path d="m13.06 6.67a12.62 12.62 0 0 0 -3.91-2.34 10.58 10.58 0 0 1 3 4.08c.36.94 1.51-1.06.91-1.74z"/><path d="m15.71 5.85s1.16-3.47-.45-5.54c0 0-2.5 3.51-2.09 6.06 0 0 1.88.38 2.54-.52z"/><path d="m13 7.52a11 11 0 0 1 6.89-4 11.22 11.22 0 0 0 -4.32 5s-2.57-.08-2.57-1z"/><path d="m15.16 7.26a8.74 8.74 0 0 0 2.62-4.88s-3.12 1.87-3.78 3.8z"/><path d="m14.87 6s.71-2.31-2.59-4.77c0 0-.6 3.75 1.05 5.54z"/><path d="m14 8.43s1.37-2.43 5.75-3.13a7.71 7.71 0 0 0 -3.33 4.23s-2.42-.18-2.42-1.1z"/><path d="m15 9.22s2.78-2.49 5.66-2.6a13.49 13.49 0 0 0 -4.53 3.6s-1.35-.22-1.13-1z"/><path d="m13.39 8.51s-1-1.88-4.47-2.45c0 0 2.16 1.33 2.56 3.08 0 0 1.77.75 1.91-.63z"/><path d="m15.39 9.36a7.74 7.74 0 0 0 -1.53-5.27 6.18 6.18 0 0 0 -1.59 5.15s1.03.76 3.12.12z"/><path d="m13.92 10.28a6.78 6.78 0 0 0 -4.14-2s2.08 1.7 2.38 2.88c.12.4 2.05-.16 1.76-.88z"/><path d="m14.41 10.8a7 7 0 0 1 5.39-2.34 6.08 6.08 0 0 0 -3.26 2.76s-2.3.31-2.13-.42z"/><path d="m15.29 9.77a3.58 3.58 0 0 0 -1.69-2.77 2.7 2.7 0 0 0 -.57 3.8 4.16 4.16 0 0 0 2.26-1.03z"/><path d="m13.07 11c0-2 3.5-3.08 3.5-3.08a6.33 6.33 0 0 1 -.73 3.31 4.22 4.22 0 0 1 -1.64.08c-1.2-.08-1.13-.31-1.13-.31z"/><path d="m14.7 11.31a2.64 2.64 0 0 0 -1.34-2.81s-1.26 1.61-.7 2.76a6.18 6.18 0 0 0 2.04.05z"/><path d="m15.21 11.33a1.49 1.49 0 0 0 -.08-1.88 2.51 2.51 0 0 0 -1.76 1.89 5.26 5.26 0 0 0 1.84-.01z"/><path d="m11.79 10.92c0 .4 1.13.71 2.53.71s2.53-.31 2.53-.71-1.13-.71-2.53-.71-2.53.32-2.53.71z"/><path d="m17.88 16.1a10.06 10.06 0 0 0 1.17-1.5 18.94 18.94 0 0 0 -1.42-1.38 10.8 10.8 0 0 1 -1.29 1.49c.56.48 1.08.94 1.54 1.39z"/><path d="m12.68 14.72c.52.51 1.08 1 1.64 1.5.56-.49 1.12-1 1.64-1.5l-.35-.3-1.29-1.11-1.32 1.11z"/><path d="m16.14 14.54a11.48 11.48 0 0 0 1.29-1.54l-1-.89-.45-.39c-.43.46-.92.92-1.43 1.37l1.27 1.1z"/><path d="m16.16 21c.52-.44 1.05-.88 1.54-1.34l-.05-.06a15.67 15.67 0 0 0 -1.53-1.5c-.33.3-.67.59-1 .88l-.59.5c.6.53 1.17 1 1.63 1.53z"/><path d="m12.86 14.23c.42-.36.85-.73 1.26-1.1-.5-.45-1-.91-1.42-1.37l-.45.39-1 .89a11.48 11.48 0 0 0 1.29 1.5z"/><path d="m16.32 18a18.31 18.31 0 0 1 1.53 1.5v.05a10.74 10.74 0 0 0 1.25-1.4 6.29 6.29 0 0 0 -.75-1.15c-.14-.16-.3-.33-.47-.5-.47.5-1.01.96-1.56 1.5z"/><path d="m16.12 17.78c.55-.49 1.09-1 1.58-1.49-.46-.45-1-.91-1.54-1.39-.51.5-1.07 1-1.64 1.49.19.16.37.33.56.48.36.31.71.61 1.04.91z"/><path d="m14.12 16.39c-.57-.49-1.13-1-1.64-1.49-.56.48-1.09.94-1.54 1.39.48.5 1 1 1.58 1.49.33-.3.68-.6 1-.91z"/><path d="m12.29 14.71a11.42 11.42 0 0 1 -1.29-1.49 17.2 17.2 0 0 0 -1.41 1.38 9 9 0 0 0 1.17 1.5c.46-.45.98-.91 1.53-1.39z"/><path d="m14.94 18.8 1-.85-1-.88-.58-.51-.59.51-1 .88 1 .85.62.53z"/><path d="m11 19.62-.05.06c.49.46 1 .9 1.54 1.34.46-.49 1-1 1.63-1.53l-.59-.49c-.34-.28-.68-.58-1-.87a15.67 15.67 0 0 0 -1.53 1.49z"/><path d="m16.13 21.38c-.56.47-1.12.95-1.63 1.45q.25.26.48.51a5.43 5.43 0 0 1 .48.62c.48-.44 1-.87 1.49-1.29l.07-.06a6.16 6.16 0 0 0 -.75-1.07z"/><path d="m16.33 21.21a1.07 1.07 0 0 1 .14.16 6.73 6.73 0 0 1 .76 1.05c.49-.41 1-.82 1.42-1.25a6 6 0 0 0 -.78-1.3c-.49.47-1.02.91-1.54 1.34z"/><path d="m18.06 19.7a7.39 7.39 0 0 1 .8 1.28 12 12 0 0 0 .91-1 5.74 5.74 0 0 0 -.5-1.61 10.77 10.77 0 0 1 -1.21 1.33z"/><path d="m18.87 13a5.24 5.24 0 0 0 -4.55-2.85 5.27 5.27 0 0 0 -4.56 2.85c-1.5 2.51-1.86 6.46-.76 8.44s2.58 2.75 5.33 2.75 4.24-.77 5.33-2.75.71-5.93-.79-8.44zm.85 7.46c-.23.27-.48.54-.75.8a5 5 0 0 1 .2.58 3.28 3.28 0 0 1 -.2.31 5.35 5.35 0 0 0 -.21-.69c-.45.42-.93.83-1.4 1.23.11.22.21.45.29.66l-.23.13a6.48 6.48 0 0 0 -.27-.62c-.43.35-.86.72-1.27 1.09-.21 0-.42.06-.65.09a5.56 5.56 0 0 0 -.42-.54c-.14-.17-.3-.34-.46-.5-.16.16-.32.33-.46.5a4.43 4.43 0 0 0 -.43.54c-.22 0-.43-.05-.64-.09-.41-.37-.85-.74-1.27-1.09a6.48 6.48 0 0 0 -.27.62 1.71 1.71 0 0 1 -.23-.13c.08-.21.18-.44.29-.66-.47-.4-.95-.81-1.4-1.23a5.35 5.35 0 0 0 -.21.69 3.28 3.28 0 0 1 -.2-.31 5 5 0 0 1 .2-.58c-.27-.27-.52-.54-.76-.81a8.67 8.67 0 0 1 -.19-1.1 6.06 6.06 0 0 1 .47-1.22 5.86 5.86 0 0 1 -.48-.84l.06-.61a4.77 4.77 0 0 0 .56 1.19 6.67 6.67 0 0 1 .76-1c.15-.18.31-.35.48-.53a9.31 9.31 0 0 1 -1.16-1.47 5.79 5.79 0 0 0 -.43.58c0-.24.11-.46.18-.69l.11-.13v-.08a2.42 2.42 0 0 1 .12-.35c0 .08.07.15.1.22.4-.43.88-.89 1.41-1.36a5.28 5.28 0 0 1 -.42-.77l.2-.21a6.3 6.3 0 0 0 .42.81l1-.87.45-.39c-.17-.18-.33-.37-.47-.55l.24-.11c.14.16.28.33.43.49l.92-.81h.42c-.38.35-.77.69-1.16 1 .43.46.91.91 1.42 1.37.51-.46 1-.91 1.42-1.37-.39-.34-.78-.68-1.16-1h.42l.92.81c.15-.16.29-.33.42-.49l.25.11c-.15.18-.3.37-.47.55l.45.39c.34.29.68.58 1 .87a4.54 4.54 0 0 0 .34-.89 2 2 0 0 1 .19.22 5.65 5.65 0 0 1 -.41.76 18.36 18.36 0 0 1 1.4 1.36 2.12 2.12 0 0 0 .11-.21l.12.34v.08l.11.13c.06.22.12.44.17.67-.13-.19-.27-.38-.42-.56a9.41 9.41 0 0 1 -1.17 1.47c.18.18.34.35.49.53a6 6 0 0 1 .75 1 4.75 4.75 0 0 0 .57-1.18c0 .2 0 .4.05.6a5.79 5.79 0 0 1 -.47.84 5.71 5.71 0 0 1 .46 1.21 7.69 7.69 0 0 1 -.23 1.18z"/><path d="m9.37 18.36a5.74 5.74 0 0 0 -.5 1.64 10.64 10.64 0 0 0 .91 1 6.83 6.83 0 0 1 .8-1.28 10 10 0 0 1 -1.21-1.36z"/><path d="m14.32 19.68c-.61.52-1.17 1-1.63 1.51.56.47 1.12 1 1.63 1.45.51-.49 1.07-1 1.63-1.45-.46-.48-1.02-.99-1.63-1.51z"/><path d="m10.79 19.45a16.89 16.89 0 0 1 1.53-1.45c-.55-.49-1.09-1-1.57-1.48l-.46.5a6.29 6.29 0 0 0 -.79 1.08 10.13 10.13 0 0 0 1.25 1.4z"/><path d="m12.31 21.22c-.52-.43-1-.87-1.53-1.33a6 6 0 0 0 -.78 1.3c.45.43.93.85 1.42 1.25a6.73 6.73 0 0 1 .76-1.05 1.07 1.07 0 0 1 .13-.17z"/><path d="m12.37 21.54a6.85 6.85 0 0 0 -.76 1.07l.08.06c.5.42 1 .85 1.49 1.29a6.74 6.74 0 0 1 .47-.62l.48-.51c-.5-.5-1.06-1-1.62-1.45z"/></g></svg>