<?xml version="1.0" encoding="utf-8"?>
<!-- Generator: Adobe Illustrator 18.1.0, SVG Export Plug-In . SVG Version: 6.00 Build 0)  -->
<!DOCTYPE svg PUBLIC "-//W3C//DTD SVG 1.0//EN" "http://www.w3.org/TR/2001/REC-SVG-20010904/DTD/svg10.dtd">
<svg version="1.0" id="Layer_1" xmlns="http://www.w3.org/2000/svg" xmlns:xlink="http://www.w3.org/1999/xlink" x="0px" y="0px"
	 viewBox="0 286.3 595.3 269.3" enable-background="new 0 286.3 595.3 269.3" xml:space="preserve">
<path fill="#9FCF67" d="M149.8,436.7c-8.9,0-16.6,7.7-16.6,16.6s7.7,16.6,16.6,16.6s16.6-7.7,16.6-16.6
	C166.3,443.7,158.7,436.7,149.8,436.7"/>
<path fill="#FFFFFF" d="M41.9,305.7c-11.5,0-20.8,9.8-20.8,23.2c0,12.8,9.3,22.8,20.8,22.8s20.8-10.2,20.8-22.8
	C62.7,316.1,53.4,305.7,41.9,305.7 M83.4,365c0,26.8-16,43.5-41.9,43.5c-19.4,0.1-36.1-11.1-39.2-28.2h22.6
	c2.7,6.5,10.9,8.9,16.6,8.9c14.6,0,21.2-9.6,21.2-24v-3.5c-6.1,5.9-14.4,9-23.6,9c-21.3,0-38.7-18.9-38.7-42.1
	c0-23.3,17.1-42.5,41.5-42.5c24.3,0,41.4,19.1,41.4,42.5V365H83.4z"/>
<path fill="#FFFFFF" d="M142.3,306.2c-13.2-2.3-22,4.7-22,16.2v46.8H99.8v-46.8c0-22.9,15.9-39,42.6-35.6V306.2z"/>
<path fill="#FFFFFF" d="M206.1,311.8c-3.8-4.6-9.4-7.3-16-7.3c-11.9,0-21.4,9.4-22,23.2L206.1,311.8z M229.3,343.4
	c-4.7,16.4-19,27.6-39.1,27.6c-22.9,0-41.4-18.9-41.4-42.2s18.5-42.5,41.4-42.5c19.4,0,35.7,12.3,39.6,33.8l-57.2,24
	c4,5.5,10.2,8.6,17.3,8.6c6.7,0,13.6-3,17.1-9.4H229.3z"/>
<path fill="#FFFFFF" d="M296.8,311.8c-3.8-4.6-9.4-7.3-16-7.3c-11.9,0-21.4,9.4-22,23.2L296.8,311.8z M320,343.4
	c-4.7,16.4-19,27.6-39.1,27.6c-22.9,0-41.4-18.9-41.4-42.2s18.5-42.5,41.4-42.5c19.4,0,35.7,12.3,39.6,33.8l-57,24
	c4,5.5,10.2,8.6,17.3,8.6c6.7,0,13.6-3,17.1-9.4H320z"/>
<path fill="#FFFFFF" d="M370.2,286.3c22.6,0,35.9,15,35.9,36.1v46.8h-20.8V322c0-4.6-1.6-15.4-15.2-15.4c-9,0-15.6,6.3-15.6,15.4
	v47.2h-20.8v-46.8C333.8,301.8,348.2,286.3,370.2,286.3"/>
<path fill="#FFFFFF" d="M319.1,485c-23.7,2.6-36.3-11.7-36.3-33.8v-67.3h20.8v20.5h14.6v18.3h-14.6v28.6c0,11.3,5.1,15.5,15.5,15
	V485z"/>
<path fill="#FFFFFF" d="M369.2,487c-22.6,0-35.9-15-35.9-36.1v-46.5h20.8v47.2c0,4.6,1.6,15.4,15.2,15.4c9,0,15.6-6.5,15.6-15.4
	v-47.2h20.8V451C405.5,471.5,391.1,487,369.2,487"/>
<path fill="#FFFFFF" d="M463.3,421.8c-11.5,0-20.8,10.4-20.8,23.2c0,12.5,9.3,22.8,20.8,22.8c11.5,0,20.8-9.8,20.8-22.8
	C483.9,431.7,474.8,421.8,463.3,421.8 M463.3,487c-24.5,0-41.5-18.9-41.5-42.2v-76.3h20.9V412c6.1-6.5,14.2-9.4,23.6-9.4
	c21.3,0,38.6,19,38.6,42.2C504.7,468.3,487.6,487,463.3,487"/>
<path fill="#FFFFFF" d="M571.3,427.8c-3.8-4.6-9.4-7.3-16-7.3c-11.9,0-21.4,9.4-22,23.2L571.3,427.8z M594.6,459.5
	c-4.7,16.4-19,27.6-39.1,27.6c-22.9,0-41.4-18.9-41.4-42.2s18.5-42.5,41.4-42.5c19.4,0,35.7,12.3,39.6,33.8l-57,23.9
	c4,5.5,10.2,8.6,17.3,8.6c6.7,0,13.6-3,17.1-9.4h22.1V459.5z"/>
<path fill="#FFFFFF" d="M32.6,453.3c0-9.6-7-16.6-16-16.6c-8.9,0-16.6,7.7-16.6,16.6s7.7,16.6,16.6,16.6
	C25.6,470,32.6,462.3,32.6,453.3"/>
<path fill="#FFFFFF" d="M60.8,436.7c-8.9,0-16.6,7.7-16.6,16.6s7,16.6,16.6,16.6c8.9,0,16.6-7.7,16.6-16.6
	C77.4,443.7,69.7,436.7,60.8,436.7"/>
<path fill="#FFFFFF" d="M105.5,470c8.9,0,16-7.7,16-16.6c0-9.6-7-16.6-16-16.6c-9.6,0-16.6,7.7-16.6,16.6C89,462.3,96,470,105.5,470
	"/>
<path fill="#FFFFFF" d="M211.1,453.3c0-9.6-7.7-16.6-16.6-16.6c-8.9,0-16.6,7.7-16.6,16.6s7.7,16.6,16.6,16.6
	C203.4,470,211.1,462.3,211.1,453.3"/>
<path fill="#FFFFFF" d="M239.3,436.7c-8.9,0-16.6,7.7-16.6,16.6s7,16.6,16.6,16.6c9,0,16.6-7.7,16.6-16.6
	C255.9,443.7,248.3,436.7,239.3,436.7"/>
<polygon fill="#FFFFFF" points="594.6,521.5 0.9,521.5 0.9,523.4 374.9,523.4 594.6,523.4 "/>
<g>
	<path fill="#FFFFFF" d="M211.4,535.3h4.9l7.5,14.8l0,0v-14.8h3.8v20h-4.9l-7.5-14.8l0,0v14.8h-3.8V535.3z"/>
	<path fill="#FFFFFF" d="M242.4,535c6.2,0,9.7,4.2,9.7,10.2s-3.5,10.4-9.7,10.4c-6.3,0-9.7-4.3-9.7-10.4S236,535,242.4,535z
		 M242.4,552.4c4,0,5.5-3.6,5.5-7.3c0-3.5-1.6-7.1-5.5-7.1c-3.9,0-5.5,3.6-5.5,7.1C236.8,548.9,238.3,552.4,242.4,552.4z"/>
	<path fill="#FFFFFF" d="M255.2,535.3h4.3l5.1,15.6l0,0l5-15.6h3.9l-6.7,20h-4.9L255.2,535.3z"/>
	<path fill="#FFFFFF" d="M286.5,535c6.2,0,9.7,4.2,9.7,10.2s-3.5,10.4-9.7,10.4c-6.3,0-9.7-4.3-9.7-10.4S280.1,535,286.5,535z
		 M286.5,552.4c4,0,5.5-3.6,5.5-7.3c0-3.5-1.6-7.1-5.5-7.1c-3.9,0-5.5,3.6-5.5,7.1C280.8,548.9,282.4,552.4,286.5,552.4z"/>
	<path fill="#FFFFFF" d="M301.3,535.3h6.3l4.7,15.1l0,0l4.7-15.1h6.3v20h-3.8v-16.4l0,0l-5.4,16.4h-3.8l-5.4-16.4l0,0v16.3h-3.8
		L301.3,535.3L301.3,535.3z"/>
	<path fill="#FFFFFF" d="M335.4,535.3h4.4l7.8,20h-4.4l-1.8-4.6h-8.1l-1.8,4.6h-4L335.4,535.3z M337.5,539.3L337.5,539.3l-3,8.2h5.8
		L337.5,539.3z"/>
	<path fill="#FFFFFF" d="M353,538.5h-5.7v-3.1h15.4v3.1h-5.7v16.7h-4L353,538.5L353,538.5z"/>
	<path fill="#FFFFFF" d="M366.3,535.3h4v12.1v7.8h-4V535.3z"/>
	<path fill="#FFFFFF" d="M390.5,554.9c-1.5,0.4-3,0.7-4.6,0.7c-6.5,0-10.9-3.2-10.9-10c0-6.9,4.2-10.6,10.9-10.6
		c1.3,0,3.1,0.3,4.4,0.8l-0.3,3.4c-1.5-0.8-2.8-1.1-4.3-1.1c-4,0-6.7,3.1-6.7,7.3c0,4,2.6,7.1,6.7,7.1c1.6,0,3.4-0.4,4.3-0.8
		L390.5,554.9z"/>
	<path fill="#FFFFFF" d="M414.6,535.3h4.9l7.5,14.8l0,0v-14.8h3.8v20H426l-7.5-14.8l0,0v14.8h-3.8V535.3z"/>
	<path fill="#FFFFFF" d="M559.8,535.3h4.3l5.1,15.6l0,0l5-15.6h3.9l-6.7,20h-4.9L559.8,535.3z"/>
	<path fill="#FFFFFF" d="M497.4,535.3h4.4l7.8,20h-4.4l-1.8-4.6h-8.1l-1.8,4.6h-4.2L497.4,535.3z M499.6,539.3L499.6,539.3l-3,8.2
		h5.8L499.6,539.3z"/>
	<path fill="#FFFFFF" d="M440.1,538.4h-5.7v-3.1h15.4v3.1h-5.7v16.7h-4L440.1,538.4L440.1,538.4z"/>
	<path fill="#FFFFFF" d="M537.3,538.4h-5.7v-3.1H547v3.1h-5.7v16.7h-4L537.3,538.4L537.3,538.4z"/>
	<path fill="#FFFFFF" d="M404.7,535.3h4v12.1v7.8h-4V535.3z"/>
	<path fill="#FFFFFF" d="M551.6,535.3h4v12.1v7.8h-4V535.3z"/>
	<path fill="#FFFFFF" d="M527.3,554.9c-1.5,0.4-3,0.7-4.6,0.7c-6.5,0-10.9-3.2-10.9-10c0-6.9,4.2-10.6,10.9-10.6
		c1.3,0,3.1,0.3,4.4,0.8l-0.3,3.4c-1.5-0.8-2.8-1.1-4.3-1.1c-4,0-6.7,3.1-6.7,7.3c0,4,2.6,7.1,6.7,7.1c1.6,0,3.4-0.4,4.3-0.8
		L527.3,554.9z"/>
	<path fill="#FFFFFF" d="M472.2,535.3h4.3c4.3,0,9.4-0.1,9.4,5.4c0,2.3-1.6,4.3-4,4.6l0,0c1.1,0.1,1.8,1.2,2.2,2l3.2,7.8h-4.4
		l-2.4-6.2c-0.5-1.5-1.1-2-2.8-2h-1.3v8.2h-4L472.2,535.3L472.2,535.3z M476.3,543.7h1.3c2,0,4.2-0.3,4.2-2.8c0-2.4-2.3-2.6-4.2-2.6
		h-1.3V543.7z"/>
	<g>
		<path fill="#FFFFFF" d="M466,546.3h-8v5.8h8.9v3h-12.7v-20h12.3v3h-8.4v5.1h8v3.1H466z"/>
	</g>
	<g>
		<path fill="#FFFFFF" d="M594.3,546.3h-8v5.8h8.9v3h-12.7v-20h12.3v3h-8.5v5.1h8V546.3z"/>
	</g>
</g>
</svg>
