<svg height="400" preserveAspectRatio="none" viewBox="0 0 400 400" width="400" xmlns="http://www.w3.org/2000/svg"><path d="m386.75 197.75q14.45-34.05 1.95-68.95-12.4-34.85-44.35-50.15-31.95-15.4-64.8-2.2-.32207031.13222656-.65.25-33.09335937 12.41914063-71.8 19.2-45.75 8.45-64.25 50 13.05-20 33.2-20.6 15.62089844-.52324219 28.15 4.8-.58359375 5.83105469-14.9 16.25-14.26230469 10.4640625-49.8 12.65-35.54589844 2.19511719-50.65 33.2 8-14.2 18.9-14.55 25.05.45 22.3 17.45-5.9 18.15-25.6 17.3l-18.9.1q-39.95 2-52.35 29.9l-2.8 8.05q12.6-12.55 28.25-13.65 16.7-1.7 18.05 11.05-.1 14.6-21.7 15.65-1.6.05-3.3.05-29.65 1.15-46.8 19.3 20.45-5.65 43.25 11.25 22.8 16.9 45.65-4.25 10.3-6.15 18.75-6.05 13.2.55 13.6 9.5-1.75 22.9-36.95 12.05 22.75 16.3 51.65 8.9 34.45-9.3 51.3-42.45 16.75-33.1 43.65-38.8-22.97421875 12.009375-23.75 52.35 8.35546875-12.63164063 23.7-20.15 15.38515625-7.52480469 36.15 2.1 34.6 19.75 67.65-20.25 1.25-1.55 2.55-3.2 3.1-1.35 6.1-2.9 26.1-13.85 38.55-43.2m-34.35-81.8q18.75 18.7 18.75 45.15 0 26.35-18.75 45.05-18.65 18.75-45.05 18.75-26.4 0-45.1-18.75-18.7-18.7-18.7-45.05 0-26.45 18.7-45.15 18.7-18.7 45.1-18.7 26.4 0 45.05 18.7m-57.75 6.7q-3.8-3.8-9.15-3.8-5.35 0-9.15 3.8-3.8 3.8-3.8 9.15 0 5.3 3.8 9.1 3.8 3.8 9.15 3.8 5.35 0 9.15-3.8 3.75-3.8 3.75-9.1 0-5.35-3.75-9.15z" fill="#fff"/></svg>