<svg enable-background="new 0 0 581.2 333.1" fill="#fff" viewBox="0 0 581.2 333.1" xmlns="http://www.w3.org/2000/svg"><path clip-rule="evenodd" d="m581.2 144.7c-1.3 8.5-2.5 17-4 25.4-4 21.4-8.7 42.6-12.1 64.1-1.3 8.3-.1 17.1.5 25.6.4 5.2.8 5.1-4.3 5.1-16.6 0-33.1-.1-49.7.1-3.1 0-4.5-.7-4.9-4-1-8.7-1.2-8.7-8.5-4-16.5 10.5-34.1 15.6-53.7 11.3-20-4.4-33.1-20.6-31.3-39.5 1.8-18.4 11.2-32.4 25.9-43.2 10.2-7.5 21.8-12 33.7-16 13.9-4.6 27.6-9.6 41.2-15 13.2-5.2 15.9-17.7 13.4-29-.8-3.4-3.2-5.9-6.7-6.9-8.5-2.3-19.3-.6-21.4 8.5-.5 2.3-.5 4.8-.1 7.1 1.3 7.3.4 9.8-6.5 12.6-8.5 3.4-17 6.8-26.5 5.2-7.6-1.2-13.1-5.4-16.7-12-6.4-11.6-7.7-23.9-5-36.7.3-1.6.7-3.2 2.8-1.9 10.7 6.6 22.5 4.5 33.8 3.8 12.2-.8 24.2-3.4 36.3-4.4 14.7-1.2 29.3.2 43.3 5.1 12.5 4.4 18.2 13.9 19.6 26.6.2 1.6.5 3.1.8 4.7.1 2.5.1 4.9.1 7.4zm-60.6 24.4c-5.1 2.2-9.8 3.6-13.7 6.1-13.2 8.3-23.5 19.5-31.2 33.1-3.9 7-5.3 14.6-4.4 22.6 1.2 10.6 10.6 17.7 19.5 14 9.9-4 18.3-9.9 19.3-22 .2-2.1.8-4.2 1.2-6.3 3-15.4 6-30.8 9.3-47.5z" fill-rule="evenodd"/><path clip-rule="evenodd" d="m328.4 310.1c-.2 0-.5-.1-.7-.1-3-.4-6-1.3-8.9-2.1 0 0 1.2-1.3 1.4-1.4 11.7-8.8 17.5-21.1 20.3-35.1 8.5-42.1 16.8-84.2 25.2-126.4.8-3.9 1.4-7.9 2.4-11.8 2.2-9.1 1.7-17.8-2.5-26.3-2-4.1-1.7-4.3 2.8-4.3 18.3 0 36.6.1 54.9-.1 2.8 0 3.6.5 3 3.5-6.2 31.2-12.2 62.4-18.3 93.7-4.9 25.4-10 50.8-14.8 76.3-1.9 9.9-7.1 17.3-15.4 22.6-11.2 7.3-25.1 11.1-38.4 11.7-3.7.4-7.4.2-11-.2z" fill-rule="evenodd"/><circle cx="402.1" cy="56.6" r="34.6"/><path d="m91.7 193.3c2.5-16.2 5.1-32.1 7.7-49.2-16.2 16.8-31.7 32.7-47.6 49.2z"/><path d="m243.9 92.7c-7.4 1-13.4 4.8-18 10.6-10.9 13.9-14.8 30.1-16.1 48 .5 3.6.8 7.9 1.6 12.1 2.4 11.5 9.4 16.4 21 14.6 8-1.2 14.3-5.5 19.3-11.6 13.9-16.9 17.8-36.4 14-57.5-2.2-12.4-10-17.8-21.8-16.2z"/><path d="m166.6 0c-92 0-166.6 74.6-166.6 166.6s74.6 166.6 166.6 166.6 166.6-74.6 166.6-166.6c-.1-92-74.6-166.6-166.6-166.6zm-18.7 206.4h-13.3c-2-.1-2.7.7-3 2.5-.9 4.6-1.8 9.2-2.7 13.8-.1.5-.2.9-.2 1.4-.2 1.1-.4 2.3-.6 3.4-.1.9-.2 1.7-.3 2.6v.2c-.2 2.9-.1 5.8.1 8.7.2 2.4.4 4.8.6 7.2 0 .3.1.6.1.9 0 .6.1 1.2.1 1.6.2 2.3-.1 2.3-3.2 2.3h.6c.2 0 .1 0 0 0v.1c-13.8 0-22.5 0-36.4 0-1.6 0-3.2 0-4.8 0-2.4 0-4.8 0-7.1 0-.6 0-1.2-.1-2.1-.1.2-.5.4-1 .5-1.4l.3-.6c3.3-4.9 5.5-10.2 7.2-15.6 1.6-5.2 2.8-10.5 3.8-15.9.3-1.8.7-3.6 1.1-5.3.4-1.8.7-3.6 1.1-5.4-.3 0-.6 0-.9 0-18.5 0-37 0-55.4-.1-1.5 0-3.1-.1-4.6-.2-1.7-.1-3.3-.3-4.9-.6-3.8-.6-5.1-2.6-4.9-6.4.2-3.2 1.1-5.9 2.9-8.5 6.7-7.3 13.5-14.6 20.2-22 2.9-3.1 5.7-6.2 8.6-9.3 9.8-10.7 19.6-21.3 29.3-32 9.1-10 18.2-20 27.3-30.1 1.1-1.2 2.2-2.3 3.3-3.4 7.4-6.9 8.1-9.7 18.7-9.7 5 0 16 .7 16 .7 1.5.2 2.6.4 3.6.6 3.9 1.1 3.4 3 2.7 7.6-2.1 13.5-15.6 92.8-16.4 96.8-.1.4 0 .7 0 1 .2.9.8 1.7 1.7 2.1h13.8c.8 0 1.3.1 1.7.4.4.4.4 1 .2 2-.7 2.8-1.3 5.6-1.7 8.5-.4 1.9-1.3 2.2-3 2.2zm108.1 36.6c-15.3 8.2-31.7 11.5-49 11.3-12.9-.2-25.5-2.1-37.4-7.1-4.1-1.7-8.1-4-11.6-6.8-9.3-7.5-9.7-19.9-1.4-28.9 12.3-13.3 37-12.9 49 .7 1.8 2.1 2.2 3.2-.4 5.1-5.2 3.6-8.6 8.6-7.7 15.3.7 5.9 5.9 10.4 12.4 11.5 6.7 1.2 12.9-.2 17.6-5 4.6-4.7 8.8-9.9 12.2-15.6 7.7-12.9 12.4-27 14.9-41.9.2-.9-.2-1.9-.3-2.8-.8.4-1.6.6-2.3 1.1-14.6 10.6-30.8 16.2-49 15.6-14.8-.5-27.7-5.2-36.8-17.5-7.7-10.4-9-22.1-6.7-34.4 5.4-29.8 24.8-46.7 51.9-56.5 10.8-3.9 22-5.3 34.3-5.4 15.6.2 31.2 3.4 44.3 14.2 13.3 10.9 20.7 25.1 22.1 42.2 2.6 31.9-12.6 81.6-56.1 104.9z"/><path d="m126 251.1c.1 0 .2 0 0 0z"/><path d="m125.2 251.1h.2c-.2 0-.4 0-.2 0z"/></svg>