<svg enable-background="new 0 0 907.3 746.3" fill="#fff" viewBox="0 0 907.3 746.3" xmlns="http://www.w3.org/2000/svg"><path d="m906.9 622.5c-.4-1.5-.8-3.1-1.1-4.7-13.5-56-15.9-117-6.7-176.4.5-3.2-.2-6.5-2-9.2-3.3-4.9-25.2-30.6-134.6-49.9-83.6-14.7-229.3-16.9-308.7-16.9-75.6 0-216.3 2.2-308.5 16.9-110.2 17.7-132 45.1-135.3 50.4-1.6 2.6-2.2 5.7-1.7 8.7 9.1 59.4 6.8 120.3-6.7 176.4-.4 1.6-.8 3.1-1.1 4.7-1.5 6 1.3 12.3 6.8 15 .1 0 .2.1.2.1h-.1.1c.2.1.4.2.6.3.1.1.3.2.4.3l.6.3c.1.1.3.2.5.2.2.1.4.2.6.3s.3.2.5.2c.2.1.5.2.7.3s.3.1.5.2.5.2.8.3c.2.1.3.1.5.2l.9.3c.1 0 .3.1.4.1.5.1.9.3 1.4.4 17.8 4.5 60.2-2.8 97.1-11.1 30-6.7 64.2-7.5 79.8-.3 4.4 2 9.5-1.1 9.9-6 .1-1 .1-2 .2-3.1 0-.1 0-.2 0-.3.1-1 .1-2 .2-3.1 0-.2 0-.5 0-.7.1-1 .1-2 .2-3 0-.2 0-.3 0-.5.3-6.9.5-14.5.4-22 4.3-.4 8.6-.7 13.1-1 84.6-6.4 179.6-8.7 235.3-8.7 58.5 0 155 2.8 238.5 9 4.3.3 8.5.6 12.6 1-.1 7.8.1 15.8.4 22.9v.6c0 1 .1 1.9.1 2.9v.7c.2 3 .4 5.9.6 8.5.3 4.2 4.8 6.6 8.5 4.6 14.9-7.8 50.2-7.1 81-.3 36.9 8.2 79.3 15.5 97.1 11.1.5-.1 1-.3 1.4-.4.2 0 .3-.1.4-.1.3-.1.6-.2.9-.3.2-.1.3-.1.5-.2.3-.1.5-.2.8-.3.2-.1.3-.1.5-.2s.5-.2.7-.3.3-.2.5-.2c.2-.1.4-.2.6-.3s.3-.2.5-.2c.2-.1.4-.2.6-.3.1-.1.3-.2.4-.3.2-.1.4-.2.5-.3s.3-.2.4-.3c.2-.1.3-.2.5-.4.1-.1.3-.2.4-.3.2-.1.3-.2.5-.4.1-.1.2-.2.4-.3.1-.1.3-.2.4-.4l.3-.3.4-.4.3-.3c.1-.1.2-.3.3-.4s.2-.2.3-.3.2-.3.3-.4l.3-.3c.1-.1.2-.2.3-.4 0 0 .1-.1.1-.1h-.1c2.6-2.9 3.6-7.2 2.6-11.3zm-781.3-76.4c-3.6-38.3-7.2-76.6-10.9-114.9 3.8-.4 6.9-.7 9.9-.9.5 0 1-.1 1.5-.1 1-.1 1.9-.2 2.9-.3s1.9-.2 2.9-.3c2.5-.2 5.2-.5 8.4-.7 2.7 30.7 5.4 61.3 8 92 9.4-.8 18.8-1.6 28.2-2.3s18.8-1.5 28.2-2.2c.2 2.3.3 4.3.4 6.2 0 .5.1.9.1 1.4.1.9.1 1.8.2 2.6.3 3.9.5 7.6.9 12.8-26.9 1.9-53.8 4.2-80.7 6.7zm120.9-9.3c-7.1.4-14.3.9-21.4 1.3-1.3-19.2-2.5-38.4-3.8-57.6s-2.5-38.4-3.8-57.6c7.3-.5 14.6-.9 21.9-1.4 14.6-.9 29.3-1.6 43.9-2.4 7.3-.4 14.6-.7 22-1 .4 9 .6 13.5.9 22.6-15.5.6-31 1.4-46.5 2.2-5.2.3-10.3.6-15.5.9.3 5.3.5 9 .8 13 .2 3.1.4 6.3.6 10.4 18.1-1 36.1-2 54.2-2.8 0 1.1.1 2.2.1 3.2s.1 2 .1 2.9c.2 3.7.3 6.8.5 10.4 0 .9.1 1.9.1 2.9 0 .5 0 1 .1 1.5 0 .5 0 1.1.1 1.6-17.9.8-35.9 1.7-53.8 2.8.1 2.4.3 4.5.4 6.5s.2 3.8.3 5.6c.1 2.3.3 4.5.4 7.1.1 1.5.2 3.2.3 5 10.3-.6 20.5-1.1 30.8-1.6s20.5-1 30.8-1.4c0 1.1.1 2.2.1 3.2.1 3 .2 5.6.3 8.1 0 .8.1 1.7.1 2.6s.1 1.7.1 2.7c.1 1.8.2 3.8.3 6.1-21.5.8-43 1.9-64.4 3.2zm196.3-6.3c-10.4 0-15.6.1-25.9.2-4.2-10.3-6.4-15.5-10.7-25.8-8 .1-16 .3-24 .4-8 .2-16 .4-24 .6-3.9 10.5-5.8 15.7-9.6 26.2-.6 0-1.2 0-1.8.1-1.2 0-2.3.1-3.4.1s-2.1.1-3.1.1-2 .1-2.9.1c-1.4 0-2.8.1-4.3.1-2.9.1-6 .2-9.8.4 7.4-19.7 14.8-39.4 22.4-59s15.3-39.2 23.1-58.7c2.4-.1 4.4-.1 6.4-.1 1 0 1.9 0 2.8-.1h1.3c1.3 0 2.7-.1 4-.1h1.4c1.4 0 2.8-.1 4.4-.1 1.1 0 2.2 0 3.3-.1 8.6 19.2 17.1 38.4 25.5 57.7 4.2 9.6 8.4 19.3 12.5 29 4.2 9.6 8.3 19.3 12.4 29zm114.4-65c-.5 16.7-.9 33.4-1.4 50.1-4.2 3.6-8.8 6.6-13.7 9.1-2 1-4 1.9-6 2.7-5.1 2-10.4 3.5-15.9 4.4-4.3.7-8.7 1.1-13.1 1.1-.2 0-.3 0-.5 0-.4 0-.9 0-1.3 0-.5 0-1 0-1.5 0s-1-.1-1.6-.1c-.5 0-1-.1-1.5-.1-.5-.1-1-.1-1.5-.2s-1-.1-1.5-.2-1-.2-1.5-.3-1-.2-1.4-.3c-.5-.1-1-.2-1.5-.3s-.9-.2-1.4-.3-1-.3-1.5-.4-.9-.3-1.4-.4c-.5-.2-1-.3-1.4-.5s-.9-.3-1.3-.5c-.5-.2-.9-.4-1.4-.6-.4-.2-.9-.3-1.3-.5-.5-.2-.9-.4-1.4-.6-.4-.2-.8-.4-1.2-.6-.5-.2-.9-.5-1.3-.7s-.8-.4-1.2-.6-.9-.5-1.3-.8c-.4-.2-.8-.4-1.2-.7s-.8-.6-1.3-.8c-.4-.2-.7-.5-1.1-.7-.4-.3-.8-.6-1.2-.9s-.7-.5-1.1-.8-.8-.6-1.2-1c-.3-.3-.7-.5-1-.8-.4-.3-.8-.7-1.1-1s-.7-.6-1-.9c-.4-.3-.7-.7-1.1-1.1-.3-.3-.6-.6-.9-.9-.4-.4-.7-.7-1-1.1-.3-.3-.6-.6-.9-1s-.7-.8-1-1.2c-.3-.3-.6-.7-.8-1-.3-.4-.6-.8-.9-1.2-.3-.3-.5-.7-.8-1-.3-.4-.6-.9-.9-1.3-.2-.4-.5-.7-.7-1.1-.3-.4-.6-.9-.8-1.3s-.5-.7-.7-1.1c-.3-.5-.5-.9-.8-1.4-.2-.4-.4-.7-.6-1.1-.2-.5-.5-1-.7-1.4s-.4-.8-.6-1.1c-.2-.5-.4-1-.7-1.5-.2-.4-.4-.8-.5-1.2-.2-.5-.4-1-.6-1.5-.2-.4-.3-.8-.5-1.2-.2-.5-.4-1.1-.5-1.6-.1-.4-.3-.8-.4-1.2-.2-.5-.3-1.1-.5-1.6-.1-.4-.2-.8-.3-1.2-.1-.6-.3-1.1-.4-1.7-.1-.4-.2-.8-.3-1.2-.1-.6-.2-1.2-.3-1.8-.1-.4-.2-.8-.2-1.2-.1-.6-.2-1.3-.3-1.9 0-.4-.1-.7-.1-1.1-.1-.7-.1-1.4-.2-2.1 0-.3-.1-.6-.1-.9-.1-1-.1-2-.1-3.1 0-.1 0-.1 0-.2s0-.1 0-.2c0-1 .1-2 .1-3 0-.3.1-.7.1-1 .1-.7.1-1.3.2-2 0-.4.1-.8.2-1.2.1-.6.2-1.2.3-1.8.1-.4.2-.8.2-1.3.1-.6.2-1.1.3-1.7.1-.4.2-.9.3-1.3.1-.5.2-1.1.4-1.6.1-.4.3-.9.4-1.3.1-.5.3-1 .5-1.5.1-.4.3-.9.4-1.3.2-.5.3-1 .5-1.5.2-.4.3-.9.5-1.3.2-.5.4-1 .6-1.4s.4-.8.6-1.3.4-.9.6-1.4c.2-.4.4-.8.6-1.2s.5-.9.7-1.3.5-.8.7-1.2.5-.9.8-1.3c.2-.4.5-.8.8-1.2s.5-.8.8-1.2.5-.8.8-1.2.6-.8.9-1.2.6-.7.9-1.1.6-.8.9-1.1c.3-.4.6-.7.9-1.1s.6-.7 1-1.1c.3-.3.6-.7 1-1 .3-.4.7-.7 1-1s.7-.7 1-1c.4-.3.7-.7 1.1-1s.7-.6 1.1-.9.7-.6 1.1-.9.7-.6 1.1-.9.8-.6 1.1-.9c.4-.3.8-.6 1.1-.8.4-.3.8-.6 1.2-.8.4-.3.8-.5 1.2-.8s.8-.5 1.2-.8c.4-.2.8-.5 1.2-.7s.8-.5 1.3-.7c.4-.2.8-.4 1.3-.7.4-.2.9-.4 1.3-.7.4-.2.9-.4 1.3-.6s.9-.4 1.4-.6c.4-.2.9-.4 1.3-.5.5-.2.9-.4 1.4-.5.4-.2.9-.3 1.3-.5.5-.2.9-.3 1.4-.5.5-.1.9-.3 1.4-.4s1-.3 1.5-.4.9-.2 1.4-.3 1-.2 1.5-.3 1-.2 1.4-.3c.5-.1 1-.2 1.5-.2.5-.1 1-.1 1.5-.2s1-.1 1.5-.2c.5 0 1-.1 1.5-.1s1-.1 1.6-.1h1.5.7 1.8c3.1.1 6.2.3 9.2.7 9.2 1.2 18.2 3.9 26.2 8.6 3.5 2.1 6.9 4.6 9.9 7.5-1.7 1.9-3.1 3.5-4.5 5.1-.3.4-.7.8-1 1.1-.6.7-1.3 1.5-1.9 2.2s-1.2 1.4-1.9 2.1c-.6.7-1.2 1.4-1.9 2.2-.6.7-1.3 1.5-2 2.3-1 1.2-2.2 2.5-3.4 3.9-8.3-7.7-18.7-12.3-30-12.3-.3 0-.6 0-.9 0s-.6 0-.8 0c-.3 0-.6.1-.9.1s-.5 0-.8.1c-.3 0-.6.1-.9.1s-.5.1-.8.1c-.3.1-.6.1-.9.2s-.5.1-.8.2-.6.2-.9.2c-.2.1-.5.1-.7.2-.3.1-.6.2-.9.3-.2.1-.4.1-.7.2s-.6.2-.9.4c-.2.1-.4.2-.6.2-.3.1-.6.3-.9.4-.2.1-.4.2-.6.3-.3.2-.6.3-1 .5-.2.1-.4.2-.5.3-.3.2-.7.4-1 .6-.1.1-.3.2-.4.2-.3.2-.7.4-1 .6-.1.1-.3.2-.4.3-.3.2-.7.5-1 .7-.1.1-.3.2-.4.3-.3.2-.7.5-1 .8-.1.1-.2.2-.3.3-.3.3-.7.6-1 .9-.1.1-.2.2-.3.2-.3.3-.6.6-.9.9-.1.1-.2.2-.3.3-.3.3-.6.6-.9.9-.1.1-.2.2-.3.3-.3.3-.6.6-.9 1-.1.1-.2.2-.3.3-.3.3-.5.6-.8 1-.1.1-.2.2-.3.4-.2.3-.5.7-.7 1-.1.1-.2.3-.3.4-.2.3-.4.6-.6.9-.1.2-.2.3-.3.5-.2.3-.4.6-.5.9-.1.2-.2.4-.3.5-.2.3-.4.6-.5 1-.1.2-.2.3-.3.5-.2.3-.3.7-.5 1-.1.2-.2.4-.3.5-.2.3-.3.7-.4 1-.1.2-.2.4-.2.5-.1.3-.2.6-.3.9-.1.2-.2.4-.2.7-.1.3-.2.5-.2.8-.1.3-.2.6-.3.8-.1.3-.1.5-.2.8s-.2.6-.2.9c-.1.3-.1.5-.2.8s-.1.6-.2.9c0 .3-.1.6-.1.8 0 .3-.1.6-.1.9s-.1.6-.1.8c0 .3-.1.6-.1.9-.1 1.1-.1 2.3-.1 3.4v.3 1.8c0 .6 0 1.2.1 1.8 0 .6.1 1.2.1 1.8.1 1.2.3 2.3.6 3.5.5 2.3 1.2 4.5 2.1 6.7.9 2.1 2 4.2 3.3 6.1s2.8 3.7 4.4 5.3c.8.8 1.7 1.6 2.6 2.3 1.3 1.1 2.8 2.1 4.2 3 1 .6 2 1.1 3.1 1.6 1 .5 2.1.9 3.2 1.3s2.2.7 3.4 1c2.3.5 4.7.8 7.1.9h2.1 1.5c.6 0 1.2-.1 1.7-.1s1-.1 1.5-.1c.6-.1 1.1-.2 1.7-.3.5-.1.9-.1 1.4-.2.6-.1 1.1-.3 1.7-.4.4-.1.9-.2 1.3-.3.6-.2 1.1-.3 1.7-.5.4-.1.8-.2 1.2-.4.6-.2 1.1-.4 1.7-.7.4-.2.7-.3 1.1-.4.6-.3 1.2-.6 1.7-.9.3-.2.6-.3.9-.4.8-.5 1.7-1 2.5-1.6.1-3.3.1-5.8.2-8.2.1-2.5.1-4.9.2-8.2-1.3 0-2.4-.1-3.6-.1-2.8-.1-5.3-.1-7.6-.2-1.9 0-3.8-.1-5.8-.1-2.5 0-5.1-.1-8.3-.1 0-2.7.1-5.1.1-7.2 0-1.3 0-2.5.1-3.8 0-1.6 0-3.3.1-5.1s.1-3.7.1-5.9c8.3.1 16.6.3 25 .4 7.7-.1 16 .1 24.3.4zm121.6 21.7c0 1-.1 1.9-.2 2.8 0 .3-.1.6-.1.9-.1.6-.1 1.2-.2 1.8 0 .4-.1.7-.2 1.1-.1.5-.1 1.1-.2 1.6-.1.4-.1.7-.2 1.1-.1.5-.2 1-.3 1.5-.1.4-.2.8-.3 1.1-.1.5-.2.9-.3 1.4-.1.4-.2.8-.3 1.1-.1.4-.3.9-.4 1.3s-.2.7-.4 1.1c-.1.4-.3.9-.4 1.3s-.3.7-.4 1.1c-.2.4-.3.8-.5 1.2s-.3.7-.5 1.1-.4.8-.5 1.2c-.2.4-.4.7-.5 1-.2.4-.4.8-.6 1.1s-.4.7-.6 1c-.2.4-.4.7-.6 1.1-.2.3-.4.6-.6 1-.2.3-.4.7-.7 1-.2.3-.4.6-.7.9-.2.3-.5.7-.7 1s-.5.6-.7.9c-.3.3-.5.6-.8.9-.2.3-.5.6-.8.9s-.5.6-.8.9-.5.5-.8.8-.6.6-.9.8c-.3.3-.6.5-.8.8-.3.3-.6.5-.9.8-.3.2-.6.5-.9.7-.3.3-.6.5-.9.7s-.6.5-.9.7-.7.5-1 .7-.6.4-1 .6c-.3.2-.7.4-1 .6s-.7.4-1 .6c-.4.2-.7.4-1.1.6-.3.2-.7.4-1 .5-.4.2-.7.4-1.1.5-.4.2-.7.3-1.1.5s-.8.3-1.1.5c-.4.2-.7.3-1.1.4-.4.2-.8.3-1.2.4s-.8.3-1.1.4c-.4.1-.8.3-1.2.4s-.8.2-1.2.3-.8.2-1.2.3-.8.2-1.2.3-.9.2-1.3.3-.8.2-1.2.2c-.4.1-.9.2-1.3.2-.4.1-.8.1-1.2.2s-.9.1-1.3.2c-.4 0-.8.1-1.3.1s-.9.1-1.4.1c-.4 0-.9.1-1.3.1-.5 0-.9 0-1.4 0-.4 0-.9 0-1.3 0-.1 0-.3 0-.4 0-.7 0-1.3 0-2 0-6.7-.2-12.7-1.5-18.1-3.6-1.5-.6-3-1.3-4.4-2.1-8.5-4.5-15-11.6-19.1-20.2-.7-1.4-1.3-2.9-1.9-4.5-.3-.8-.5-1.5-.8-2.3-.7-2.4-1.3-4.8-1.8-7.3-.3-1.7-.5-3.4-.7-5.2s-.2-3.5-.3-5.3c0-.9 0-1.8 0-2.7.8-22 1.5-44 2.3-65.9 1.3 0 2.5.1 3.6.1.6 0 1.1 0 1.7.1 2.2.1 4.1.1 6.1.2 3.4.1 6.6.3 10.6.4 1.1 0 2.3.1 3.6.1-.9 21.8-1.8 43.5-2.7 65.3v1.3c0 .9 0 1.8.1 2.7s.2 1.8.3 2.7c.3 1.8.7 3.5 1.2 5.2.4 1.3.9 2.5 1.4 3.7.7 1.6 1.6 3.1 2.5 4.5.5.7 1 1.4 1.6 2 3.9 4.5 9.3 7.5 16.3 7.5h.8.7.7.7c.2 0 .4-.1.7-.1.2 0 .4 0 .7-.1.2 0 .4-.1.7-.1.2 0 .4-.1.6-.1s.4-.1.7-.1c.2 0 .4-.1.6-.1.2-.1.4-.1.6-.2s.4-.1.6-.2.4-.1.6-.2.4-.1.6-.2.4-.2.6-.2c.2-.1.4-.1.6-.2l.6-.3c.2-.1.4-.2.5-.2.2-.1.4-.2.6-.3s.3-.2.5-.3l.6-.3c.2-.1.3-.2.5-.3s.4-.2.6-.4c.2-.1.3-.2.5-.3s.4-.3.6-.4.3-.2.5-.3.4-.3.6-.4c.1-.1.3-.2.4-.3.2-.2.4-.3.5-.5.1-.1.3-.2.4-.3.2-.2.4-.3.5-.5.1-.1.3-.2.4-.4.2-.2.3-.4.5-.5.1-.1.2-.2.4-.4s.3-.4.5-.6c.1-.1.2-.3.3-.4.2-.2.3-.4.5-.6.1-.1.2-.3.3-.4.2-.2.3-.4.4-.6.1-.1.2-.3.3-.4.1-.2.3-.4.4-.6.1-.1.2-.3.3-.4.1-.2.2-.4.4-.7.1-.2.2-.3.2-.5.1-.2.2-.4.3-.7.1-.2.2-.3.2-.5.1-.2.2-.5.3-.7s.1-.3.2-.5.2-.5.3-.7.1-.3.2-.5c.1-.3.2-.5.2-.8 0-.2.1-.3.2-.5.1-.3.1-.5.2-.8 0-.2.1-.3.1-.5.1-.3.1-.5.2-.8 0-.2.1-.3.1-.5.1-.3.1-.6.1-.9 0-.2.1-.3.1-.5 0-.3.1-.6.1-.9 0-.2 0-.3 0-.5 0-.3 0-.6.1-1 0-.1 0-.3 0-.4 0-.5 0-.9 0-1.4 1.2-22 2.4-44 3.7-66 .6 0 1.3.1 1.9.1 1.8.1 3.5.2 5 .3 6.2.4 11 .6 18.7 1.1-1.7 22.2-3.1 43.9-4.4 65.6zm117.5-53c-.1 1-.2 2-.3 2.9s-.2 1.8-.2 2.7-.2 1.7-.2 2.5-.2 1.7-.2 2.5c-.2 1.7-.3 3.5-.5 5.5-.1 1-.2 2.1-.3 3.2-5.2-.5-10.3-1-15.5-1.4-10.3-.9-20.6-1.8-30.9-2.7-5.2-.4-10.3-.8-15.5-1.2-.1 1.8-.3 3.3-.4 4.8-.1 1-.1 1.9-.2 2.9-.1.9-.1 1.8-.2 2.7-.1 1.3-.2 2.6-.3 4-.1.9-.1 1.8-.2 2.8-.1.9-.1 1.9-.2 3-.1 1-.2 2.1-.3 3.3 9 .7 18 1.4 27 2.2s18 1.6 27 2.4c-.5 5.1-.8 8.7-1.2 12.5-.1.8-.2 1.7-.2 2.6-.1.9-.2 1.8-.3 2.7-.1 1.4-.3 3-.4 4.6-17.9-1.7-35.8-3.2-53.7-4.5-.1 1.8-.3 3.5-.4 5-.1 1-.2 2-.2 3-.2 2.8-.4 5.4-.6 8.3-.1.9-.1 1.9-.2 3-.1 1.5-.2 3.2-.4 5 20.5 1.6 41 3.4 61.4 5.3-.1 1.1-.2 2.2-.3 3.2s-.2 2-.3 2.9c-.2 2.3-.4 4.3-.6 6.5-.1.8-.2 1.7-.2 2.6-.2 2.2-.4 4.6-.7 7.4-21.4-2-42.8-3.8-64.2-5.4-7.1-.5-14.3-1.1-21.4-1.6 2.7-38.4 5.4-76.8 8-115.2 14.6 1 29.2 2.2 43.8 3.4s29.2 2.5 43.8 3.8c-.1.8-.2 1.8-.3 2.8z"/><path d="m365.8 489.7c11.3-.3 22.7-.5 34-.7-5.9-13.9-11.9-27.8-17.9-41.6-5.4 14.1-10.8 28.2-16.1 42.3z"/><g clip-rule="evenodd" fill-rule="evenodd"><path d="m313.4 107.3c9.5 3.4 18.7 6.9 27.8 10.7-2.8-10-5.7-19.9-8.8-29.9 6.3-8.1 13-16.1 19.8-24.1-10.6-.5-21.1-.8-31.8-.8-6-8.6-12.1-17.1-18.5-25.5-3.3 10-6.5 20-9.4 30-10.1 3.4-20 7-29.9 10.9 9 5.3 17.8 10.8 26.4 16.5.3 10.4.7 20.8 1.2 31.1 7.7-6.4 15.3-12.7 23.2-18.9z"/><path d="m603.4 110.3c6.1 7.9 12 15.9 17.6 24.1 3-9.9 5.9-19.9 8.8-29.9 9.7-3.4 19.6-6.6 29.7-9.5-8.6-6.2-17.3-12.1-26.3-17.9-.4-10.4-.9-20.9-1.7-31.4-8.2 6.6-16.3 13.3-24.2 20.2-10.3-2.6-20.7-4.9-31-7 4.7 9.4 9.2 18.7 13.3 28.2-5.3 8.9-10.6 17.9-15.8 26.8 9.7-1.5 19.6-2.7 29.6-3.6z"/><path d="m488 85.8c-1.1-10.3-2.2-20.6-3.5-31 7.6-6.9 15.5-13.7 23.7-20.3-10.3-2.4-20.7-4.4-31.2-6.3-4.4-9.5-9-18.9-13.8-28.3-5 9.3-9.8 18.6-14.4 28-10.5 1.6-21 3.5-31.3 5.6 8 6.8 15.7 13.7 23.2 20.8-1.5 10.3-2.9 20.6-4.2 30.9 8.4-5.1 17.1-10 25.9-14.8 8.8 5 17.3 10.1 25.6 15.4z"/><path d="m608.8 639c-9.5-3.4-18.7-6.9-27.8-10.7 2.8 10 5.7 19.9 8.8 29.9-6.3 8.1-13 16.1-19.8 24.1 10.6.5 21.1.8 31.8.8 6 8.6 12.1 17.1 18.5 25.5 3.3-10 6.5-20 9.4-30 10.1-3.4 20-7 29.9-10.9-9-5.3-17.8-10.8-26.4-16.5-.3-10.4-.7-20.8-1.2-31.1-7.6 6.4-15.3 12.7-23.2 18.9z"/><path d="m318.9 636c-6.1-7.9-12-15.9-17.6-24.1-3 9.9-5.9 19.9-8.8 29.9-9.7 3.4-19.6 6.6-29.7 9.5 8.6 6.2 17.3 12.1 26.3 17.9.4 10.4.9 20.9 1.7 31.4 8.2-6.6 16.3-13.3 24.2-20.2 10.3 2.6 20.7 4.9 31 7-4.7-9.4-9.2-18.7-13.3-28.2 5.3-8.9 10.6-17.9 15.8-26.8-9.7 1.5-19.6 2.7-29.6 3.6z"/><path d="m434.2 660.5c1.1 10.3 2.2 20.6 3.5 31-7.6 6.9-15.5 13.7-23.7 20.3 10.3 2.4 20.7 4.4 31.2 6.3 4.4 9.5 9 18.9 13.8 28.3 5-9.3 9.8-18.6 14.4-28 10.5-1.6 21-3.5 31.3-5.6-8-6.8-15.7-13.7-23.2-20.8 1.5-10.3 2.9-20.6 4.2-30.9-8.4 5.1-17.1 10-25.9 14.8-8.8-5-17.3-10.1-25.6-15.4z"/><path d="m813.2 228.2c-1.1 6.7-1.9 13.5-3.2 20.2-3.2 17-6.9 33.9-9.6 50.9-1 6.6-.1 13.6.4 20.3.3 4.1.7 4.1-3.4 4.1-13.1 0-26.3-.1-39.4.1-2.5 0-3.6-.6-3.9-3.2-.8-6.9-.9-6.9-6.8-3.2-13.1 8.3-27.1 12.4-42.7 9-15.9-3.5-26.3-16.4-24.8-31.3 1.4-14.6 8.9-25.8 20.6-34.3 8.1-5.9 17.3-9.5 26.8-12.7 11-3.6 22-7.6 32.7-11.9 10.5-4.2 12.6-14.1 10.6-23.1-.6-2.7-2.5-4.7-5.3-5.5-6.8-1.9-15.3-.5-17 6.7-.4 1.8-.4 3.8-.1 5.6 1.1 5.8.3 7.7-5.2 10-6.7 2.7-13.5 5.4-21 4.2-6-1-10.4-4.3-13.3-9.5-5.1-9.2-6.1-19-3.9-29.1.3-1.3.5-2.6 2.2-1.5 8.5 5.3 17.8 3.6 26.9 3 9.6-.6 19.2-2.7 28.8-3.5 11.7-1 23.2.1 34.4 4.1 9.9 3.5 14.4 11 15.5 21.1.1 1.3.4 2.5.6 3.8.1 1.9.1 3.8.1 5.7zm-48.1 19.4c-4.1 1.8-7.7 2.8-10.9 4.8-10.5 6.6-18.7 15.5-24.8 26.3-3.1 5.5-4.2 11.6-3.5 17.9 1 8.4 8.4 14 15.5 11.1 7.8-3.2 14.5-7.8 15.3-17.5.1-1.7.6-3.3.9-5 2.5-12.1 4.9-24.3 7.5-37.6z"/><path d="m612.5 359.6c-.2 0-.4 0-.5-.1-2.4-.3-4.8-1-7.1-1.7 0 0 1-1 1.1-1.1 9.3-7 13.9-16.7 16.1-27.8 6.7-33.4 13.3-66.9 20-100.3.6-3.1 1.1-6.3 1.9-9.4 1.8-7.2 1.4-14.1-2-20.9-1.6-3.3-1.4-3.4 2.2-3.4h43.6c2.3 0 2.9.4 2.4 2.8-4.9 24.8-9.7 49.6-14.5 74.4-3.9 20.2-8 40.4-11.8 60.6-1.5 7.9-5.7 13.7-12.2 18-8.9 5.8-19.9 8.8-30.5 9.3-2.9 0-5.9-.1-8.7-.4z"/><path d="m256.4 265.9c-2.5 5.7-5.3 13.6-9.2 20.8-7.5 13.9-17.7 25.4-32.4 32.1-6.9 3.1-14.1 4.9-21.7 4.9-25.2.1-50.5 0-75.7.1-.6 0-1.2-.1-2.1-.1.3-.8.5-1.6.8-2.1 6.6-9.9 9.2-21.1 11.4-32.6 7.6-39.3 15.6-78.6 23.5-117.9 1.2-5.9.2-11.5-1.3-17.1-.6-2-.3-2.6 1.9-2.6 14.8.1 29.5.1 44.3 0 2 0 2.2.6 1.9 2.5-3.5 17.4-6.8 34.9-10.3 52.6 2.3-1.4 4.5-2.8 6.7-4.1 8.2-4.8 16.7-8.8 26.3-9.3 20.3-.9 34 9.7 38.6 29.6 2 8.5 1.8 17.2.7 26.6 1.5-3.9 2.5-7.2 3.9-10.3 12.4-26.9 33.5-42.2 62.8-46 13.5-1.8 26.7-.9 39.1 5.3 12.7 6.3 22 15.6 24 30.3 1.3 9.6.4 19.2-1.7 28.7-.5 2.1-1.9 1.9-3.4 1.9-24.4 0-48.7.1-73.1.1-2.9 0-4 .7-4.5 3.7-1.9 10.8-4.4 21.5-3.6 32.7.9 12 7.9 19 19.9 19.4 16.8.6 29.2-8 33-22.9 1.3-5 1.1-10-1-14.7-.8-1.8-.4-2.6 1.4-2.8 3.2-.4 6.6-1.4 9.7-1 8.8 1.2 13.1 8.7 11.2 18.3-2 10.2-8 17.5-16.5 23-13.9 8.9-29.2 12.8-45.7 12-10.5-.5-20.9-1.8-30.6-6.2-18-8.1-27.3-22.2-28.2-41.8-.3-5.2-.1-10.1-.1-13.1zm-41.7-33.7c-.9-4-1.4-8.2-2.7-12.1-1.4-4.1-4.7-6.1-9.2-6.1-5.5-.1-9.6 2.6-13.1 6.5-5.1 5.6-8.1 12.3-9.7 19.6-1.8 7.9-3.2 15.9-4.8 23.8-3 15.3-5.9 30.6-8.9 45.8-.2 1.1-.6 2.1 1.2 2 3.5-.2 7.2.5 10.5-.5 12.4-3.6 21.1-11.3 25.1-23.8 2-6.1 3.4-12.3 4.8-18.6 2.9-12 5.9-24.1 6.8-36.6zm111.7 15.3c4.5 0 9-.1 13.4 0 2 .1 3-.3 3.3-2.6.5-3.9 1.7-7.7 2.2-11.6.9-7 2-14.1 2-21.2 0-6-4.6-9.5-10.7-9.5-7.8.1-13.2 4.3-16.5 10.8-5.1 9.9-7.8 20.7-9.8 31.6-.4 2 .4 2.6 2.3 2.5 4.7-.1 9.3 0 13.8 0z"/><path d="m565 147c16.3.2 32.6 3.5 46.3 14.8 13.9 11.4 21.6 26.2 23.1 44.1 2.7 33.3-13.2 85.2-58.6 109.6-16 8.6-33.2 12-51.2 11.8-13.5-.2-26.6-2.2-39.1-7.4-4.3-1.8-8.5-4.2-12.1-7.1-9.7-7.8-10.2-20.8-1.4-30.2 12.9-13.9 38.6-13.5 51.2.8 1.9 2.1 2.3 3.4-.4 5.3-5.4 3.8-8.9 9-8 16 .8 6.1 6.2 10.9 12.9 12.1 7 1.2 13.5-.2 18.4-5.2 4.8-4.9 9.2-10.4 12.8-16.3 8.1-13.5 12.9-28.3 15.5-43.7.2-.9-.2-2-.3-3-.8.4-1.7.6-2.4 1.2-15.3 11-32.2 17-51.2 16.3-15.4-.5-28.9-5.5-38.5-18.3-8-10.8-9.4-23.1-7.1-36 5.6-31.1 25.9-48.8 54.3-59 11.1-4.2 22.9-5.7 35.8-5.8zm-37.5 72.6c.5 3.8.8 8.3 1.7 12.6 2.5 12.1 9.9 17.1 22 15.2 8.3-1.3 14.9-5.8 20.1-12.1 14.5-17.6 18.6-38.1 14.6-60.1-2.3-12.9-10.5-18.5-22.8-17-7.8 1-14 5-18.8 11.1-11.5 14.6-15.5 31.7-16.8 50.3z"/><path d="m450.6 297.4c-4.3 21.9-25.4 34.3-45.7 27.1-11.5-4.1-18.2-15.7-16-27.8 5.4-28.7 10.7-57.4 16.2-86.1.5-2.6-.2-3.6-2.8-3.2-1.2.2-2.3.3-3.5.3-.9 0-1.9-.4-2.8-.6.5-1 .8-2.3 1.5-3 2.4-2 4.9-3.9 7.5-5.5 8.4-5.3 14.6-12.7 20.8-20.3 9-11 18.7-21.4 32.1-27.5 5.3-2.4 10.7-4.3 16.6-3.8.9.1 1.7.4 2.6.6-.5 1.2-.6 3.1-1.5 3.6-16.3 9.3-20.1 25.5-23.7 41.9-.4 1.8.6 1.6 1.7 1.6 4.8 0 9.6.1 14.4 0 2 0 2.3.7 1.9 2.4-.7 2.9-1.3 5.8-1.7 8.8-.3 1.9-1.1 2.4-3 2.4-4.6-.1-9.2.1-13.8-.1-2.1-.1-2.7.8-3.1 2.6-4.5 23.5-9 46.9-13.6 70.3-.6 2.9-1.4 5.8-2.2 8.7-2.1 7.8 3.3 10.7 9.7 9.6 2.7-.3 5.4-1.2 8.4-2z"/></g><path d="m688.9 145.7c-1.9-2.4-4.2-4.4-6.9-6-3.3-2-7.1-3.3-11.1-3.8-1-.1-2-.2-3-.2-.5 0-1 0-1.5 0-4.4.2-8.5 1.5-12.1 3.6-3.7 2.1-6.8 5.1-9.1 8.7-.8 1.2-1.5 2.5-2 3.9-1.2 2.9-1.9 6.1-2 9.4v.4c0 6.1 2.1 11.6 5.7 16.1 1.9 2.3 4.1 4.3 6.7 5.9 2.5 1.6 5.4 2.7 8.4 3.4 1.9.4 3.9.6 5.9.6 1.8 0 3.5-.2 5.2-.5.6-.1 1.2-.3 1.7-.4 1-.3 2-.6 3-1 3.4-1.3 6.5-3.4 9.1-5.9 2.6-2.6 4.7-5.8 6-9.3 1-2.7 1.6-5.7 1.6-8.8v-.1c0-6-2.1-11.6-5.6-16z"/></svg>