<svg enable-background="new 0 0 304 361.5" viewBox="0 0 304 361.5" xmlns="http://www.w3.org/2000/svg"><path d="m180.1 4.6c-.3-2.4-1.6-3.6-3.8-3.8h-50.6c-2.4.1-3.6 1.6-3.8 4.4v28.6c.1 2.6 1.2 4 3.2 4.4h5v12.5c.8-.1 1.7-.1 2.6-.1.1 0 .3-.1.5-.2 5.8-.7 11.7-1.1 17.9-1.1h3.7c4.8.2 9.5.6 14.1 1.1.2.1.3.2.5.2.9 0 1.8.1 2.8.3v-12.6h5.1c1.8-.4 2.8-1.6 2.9-3.8v-29.9m51.7 66.5c6.3 3.7 12.3 8 18.2 12.7l15.4-26.9-38.3-22.1-15.4 26.7c6.9 2.7 13.6 5.9 20.1 9.6m50.1 214.1.2-.1c13.2-22.4 19.9-47.6 19.9-75.6 0-28.1-6.6-53.3-19.9-75.8-6.6-11-14.6-21.4-24.3-31-4.2-4.2-8.5-8.1-13-11.6-5.8-4.8-11.9-9.1-18.1-12.9h-.1c-6.4-3.7-13.1-7-20-9.7-8.3-3.2-16.9-5.7-25.7-7.4-2.2-.4-4.4-.8-6.5-1.1-1.2-.2-2.3-.4-3.4-.6-5.3-.6-10.6-.9-16-1.1-1.3 0-2.6 0-3.9 0-6.8 0-13.4.4-19.9 1.1-1.2.2-2.4.4-3.5.6-2.2.3-4.4.7-6.4 1.1-16.5 3.1-31.8 8.8-46 17.1v.4c-11 6.4-21.4 14.5-31 24.3-9.7 9.6-17.9 19.9-24.5 31-13.2 22.4-19.9 47.7-19.9 75.8 0 27.8 6.6 53 19.9 75.6 6.6 10.9 14.7 21.2 24.5 31 9.6 9.7 19.9 17.8 31 24.3h.2c14 8.5 29.3 14.2 45.8 17.3 3.3.6 6.6 1.1 9.9 1.7 6.4.7 13.1 1.1 19.9 1.1 1.3 0 2.6-.1 3.9-.2 5.4-.1 10.7-.4 16-.9 3.3-.6 6.6-1.1 9.9-1.7 16.4-3.1 31.6-8.8 45.8-17.1v-.2c10.9-6.4 21.3-14.5 31.2-24.3 9.5-9.8 17.5-20.1 24-31.1m-150.7-199.4c6.4-1 13.1-1.5 19.9-1.5 1.3 0 2.6 0 3.9.1 5.5.2 10.8.6 16 1.4 1.1.2 2.2.4 3.4.6 2.1.4 4.3.8 6.5 1.4 4.2.9 8.4 2.2 12.5 3.8 7.1 2.5 13.8 5.6 20.1 9.4h.2c6.3 3.7 12.3 8.1 18 13.1 2.6 2.2 5.1 4.6 7.6 7.1 8.1 8.1 14.8 16.7 20.1 25.7 11 18.7 16.5 39.6 16.5 62.6 0 23.2-5.5 44.1-16.5 62.8-5.5 9.1-12.2 17.6-20.1 25.5-8.1 8.2-16.7 15-25.8 20.3-10.2 6.1-21.1 10.5-32.6 13.2-3.2.7-6.6 1.3-9.9 1.7-5.1.7-10.5 1.2-16 1.4-1.3.1-2.6.2-3.9.2-6.8 0-13.4-.5-19.9-1.6-3.4-.4-6.7-1-9.9-1.7-11.6-2.8-22.5-7.2-32.8-13.2h-.2c-9.2-5.3-17.8-12.1-25.7-20.3-8-7.9-14.7-16.4-20-25.5v-.2c-11-18.6-16.5-39.4-16.5-62.6 0-23 5.5-43.9 16.5-62.6 5.4-9.1 12.1-17.7 20.1-25.7s16.5-14.7 25.6-20c0-.1 0-.1.1-.1 10.3-6.1 21.3-10.4 33-13.1 2.1-.6 4.2-1 6.4-1.4 1-.4 2.2-.6 3.4-.8m12.8 140.3-.6-.2c.2.1.3.2.6.2zm16.2-28.4c-.8-.9-1.7-1.6-2.6-2.1l.1.2c-.4-.4-.8-.6-1.2-.8-1.1-.7-2.4-1.3-3.8-1.7-.2-.1-.5-.2-.6-.2-.2-.1-.3-.1-.5-.1-.1 0-.2 0-.3 0-.2 0-.5-.1-.8-.2-.7-.2-1.5-.3-2.2-.3h-.3c-.8.1-1.5.3-2.2.5-.2 0-.5 0-.8 0h-.1c-.1 0-.3 0-.5.1-.2 0-.4 0-.6 0l-85.2 16.5 83.9 16.1c.3 0 .6.1 1 .2.1 0 .2 0 .4.1.1 0 .3.1.5.2.1 0 .2 0 .3.1h.3.1c.3 0 .6.1 1 .2s.9.1 1.5.1h.7.1c.9 0 1.7 0 2.5-.1.2-.1.4-.2.6-.2h.3c.2 0 .4 0 .7-.1.1-.1.2-.2.4-.2 1.3-.2 2.5-.7 3.6-1.5.3-.1.6-.2 1-.3.9-.7 1.8-1.5 2.8-2.4.1 0 .1 0 .1-.1.9-1 1.7-2 2.4-2.9.1-.4.2-.6.4-.6 0-.1.1-.2.2-.3 1.3-2.5 2-5.3 2-8.3 0-3.1-.7-5.8-2.2-8.3h.2c-.7-1.1-1.6-2.2-2.5-3.2-.4-.2-.5-.3-.7-.4m107.6 11.9v-.2c0-21.7-5.1-41.2-15.3-58.6-5.1-8.6-11.3-16.7-18.8-24.2s-15.6-13.8-24.3-18.8c-9.6-5.7-19.8-9.8-30.8-12.3-3-.7-6.1-1.3-9.2-1.7-6.1-.9-12.2-1.3-18.5-1.3v92.9c.3 0 .6.1 1 .2.7 0 1.4.1 2 .4h.5c1.8.5 3.6 1.2 5.2 2.1 1 .2 1.9.7 2.8 1.4 1.7 1 3.3 2.2 4.9 3.7 1.3 1.5 2.5 3 3.6 4.7h.1c2 3.5 2.9 7.4 2.9 11.6s-1 8-2.9 11.3l-.1.3c-1 1.7-2.2 3.2-3.6 4.7-1.3 1.3-2.6 2.4-3.9 3.2-.4.2-.7.4-1 .6v.1c-.7.5-1.4.9-2 1.3-.1.1-.2.1-.3.1-1.8 1.1-3.8 1.9-6 2.4-.2 0-.3 0-.3.1-.4.1-.7.2-1.1.3-.2 0-.5 0-.6 0s-.2 0-.3 0h-.2c-1.1.2-2.2.3-3.3.3h-.1c-.2 0-.4 0-.7 0-1 0-1.9-.1-2.8-.3h-.3c-.5 0-.9 0-1.1-.1-.1-.1-.2-.2-.3-.2-.1-.1-.2-.1-.3-.1h-.3l-.2-.2c-.1 0-.2 0-.3 0-.2 0-.3 0-.3-.1-.2-.1-.3-.1-.3.1l-107.2-20.7c.4 20.3 5.5 38.7 15.3 55.3 5 8.6 11.2 16.7 18.8 24.3 2.4 2.3 4.8 4.5 7.4 6.6 5.3 4.6 10.9 8.6 16.6 12.1h.2c6.1 3.6 12.3 6.6 18.8 9 3.9 1.3 7.8 2.4 11.9 3.4 2 .5 4 .9 6.1 1.3 1 .2 2.1.3 3.3.4 4.8.9 9.7 1.3 14.9 1.4h3.6.2c6.3 0 12.4-.5 18.5-1.4 1-.1 2-.2 3-.4 2.1-.4 4.1-.8 6.2-1.3 11-2.6 21.2-6.7 30.8-12.4h.1c8.6-5 16.6-11.3 24.2-18.8 7.4-7.5 13.7-15.6 18.8-24.3 9.9-17.3 15-36.7 15-58.2z" fill="#fff"/></svg>