<svg xmlns="http://www.w3.org/2000/svg" width="64" height="75" viewBox="0 0 64 75">
  <defs>
    <style>
      .cls-1 {
        fill: #2abf9a;
        fill-rule: evenodd;
      }
    </style>
  </defs>
  <path class="cls-1" d="M885.685,268.792a0.792,0.792,0,0,0-.8-0.786h-11.78a0.812,0.812,0,0,0-.8.92v5.755a0.839,0.839,0,0,0,.682.919h1.2l0,2.869c0.168-.012.26-0.019,0.455-0.019a0.2,0.2,0,0,0,.1-0.038,32.692,32.692,0,0,1,3.97-.41c0.247,0,.867-0.061,1.14-0.061,1.013,0.039,2.295.356,3.27,0.471a0.194,0.194,0,0,0,.1.038,2.975,2.975,0,0,1,.585.058V275.6h1.071a0.932,0.932,0,0,0,.8-0.785v-6.023M896.147,282.7a34.372,34.372,0,0,1,3.858,2.644l3.273-5.613-8.125-4.6-3.254,5.556a37.644,37.644,0,0,1,4.248,2.011m10.6,44.619,0.039-.019a31.636,31.636,0,0,0,0-31.534,33,33,0,0,0-5.144-6.456,31.571,31.571,0,0,0-2.748-2.414,33.356,33.356,0,0,0-3.838-2.682h-0.02a32.328,32.328,0,0,0-4.248-2.031,30.231,30.231,0,0,0-5.455-1.533q-0.7-.134-1.384-0.23-0.37-.057-0.721-0.114-1.675-.173-3.39-0.231h-0.819a37.5,37.5,0,0,0-4.208.231q-0.39.057-.741,0.114-0.7.1-1.364,0.23a30.107,30.107,0,0,0-9.743,3.564v0.038a31.535,31.535,0,0,0-6.566,5.058,32.285,32.285,0,0,0-5.183,6.456,31.636,31.636,0,0,0,0,31.534,33.756,33.756,0,0,0,5.183,6.456,31.535,31.535,0,0,0,6.566,5.058H863a29.15,29.15,0,0,0,9.7,3.6l2.105,0.345a37.737,37.737,0,0,0,4.208.23q0.409,0,.819-0.039,1.715-.018,3.39-0.191l2.105-.345a30.1,30.1,0,0,0,9.7-3.564v-0.038a33.935,33.935,0,0,0,6.606-5.058,32.075,32.075,0,0,0,5.1-6.437m-31.936-41.553a28.284,28.284,0,0,1,4.208-.307q0.409,0,.819.019a31.593,31.593,0,0,1,3.39.288q0.351,0.057.721,0.114,0.683,0.115,1.384.288a17.921,17.921,0,0,1,2.65.785,22.654,22.654,0,0,1,4.267,1.954h0.039a25.867,25.867,0,0,1,3.819,2.721q0.819,0.69,1.617,1.475a26.874,26.874,0,0,1,4.267,5.364,26.087,26.087,0,0,1,0,26.132,27.36,27.36,0,0,1-4.267,5.307,26.287,26.287,0,0,1-5.475,4.234,24.731,24.731,0,0,1-6.917,2.758q-1.033.231-2.105,0.364a31.853,31.853,0,0,1-3.39.288q-0.409.037-.819,0.038a26.75,26.75,0,0,1-4.208-.326,20.873,20.873,0,0,1-2.105-.364,25.292,25.292,0,0,1-6.956-2.758h-0.039a25.21,25.21,0,0,1-5.456-4.234,25.9,25.9,0,0,1-4.248-5.307v-0.038a26.084,26.084,0,0,1-.019-26.094,27.837,27.837,0,0,1,4.267-5.364,26.384,26.384,0,0,1,5.437-4.176,0.017,0.017,0,0,1,.019-0.02,24.806,24.806,0,0,1,7-2.739q0.663-.173,1.364-0.288,0.351-.057.741-0.114M877.519,315l-0.117-.039a0.191,0.191,0,0,0,.1.039h0.019m3.449-5.92a2.494,2.494,0,0,0-.546-0.441l0.02,0.039a1.26,1.26,0,0,0-.254-0.173,2.653,2.653,0,0,0-.8-0.345,0.327,0.327,0,0,0-.137-0.038,0.315,0.315,0,0,0-.1-0.019H879.1a0.5,0.5,0,0,1-.175-0.038,1.922,1.922,0,0,0-.468-0.058H878.4a4.478,4.478,0,0,0-.468.1h-0.2a0.315,0.315,0,0,0-.1.019h-0.117l-18.082,3.429,17.79,3.353a0.707,0.707,0,0,1,.214.038,0.364,0.364,0,0,1,.078.019,0.185,0.185,0,0,1,.1.039,0.144,0.144,0,0,1,.059.019h0.078a0.707,0.707,0,0,1,.214.038,2.232,2.232,0,0,0,.312.019h0.175c0.182,0,.358-0.006.526-0.019a0.216,0.216,0,0,1,.117-0.038h0.059a0.925,0.925,0,0,0,.156-0.019,0.079,0.079,0,0,1,.078-0.039,2.077,2.077,0,0,0,.76-0.306,1.013,1.013,0,0,1,.214-0.058q0.292-.23.584-0.5a0.017,0.017,0,0,0,.02-0.019q0.273-.325.507-0.613a0.155,0.155,0,0,1,.077-0.134,0.062,0.062,0,0,1,.039-0.058,3.535,3.535,0,0,0,.429-1.724,3.243,3.243,0,0,0-.468-1.724h0.039a6.238,6.238,0,0,0-.526-0.671,0.426,0.426,0,0,0-.1-0.076m22.8,2.471v-0.038a23.357,23.357,0,0,0-3.235-12.2,25.6,25.6,0,0,0-3.975-5.038,25.137,25.137,0,0,0-5.144-3.928,22.708,22.708,0,0,0-6.527-2.567,19.657,19.657,0,0,0-1.949-.364,28.383,28.383,0,0,0-3.917-.268H878.98v19.369a0.683,0.683,0,0,1,.215.038,1.156,1.156,0,0,1,.428.077h0.1a4.92,4.92,0,0,1,1.111.44,1.742,1.742,0,0,1,.6.288,6.139,6.139,0,0,1,1.032.766,6.8,6.8,0,0,1,.76.977h0.02a4.79,4.79,0,0,1,.623,2.414,4.478,4.478,0,0,1-.623,2.356l-0.02.058a6.856,6.856,0,0,1-.76.977,5.357,5.357,0,0,1-.818.67,1.113,1.113,0,0,1-.214.115v0.02q-0.234.153-.429,0.268a0.167,0.167,0,0,1-.059.019,4.343,4.343,0,0,1-1.266.5c-0.039,0-.059.006-0.059,0.019a1.5,1.5,0,0,1-.233.058h-0.234a4.373,4.373,0,0,1-.7.057h-0.175a3.148,3.148,0,0,1-.6-0.057h-0.059a1.1,1.1,0,0,1-.233-0.019,0.11,0.11,0,0,0-.059-0.039,0.145,0.145,0,0,0-.058-0.019h-0.059l-0.039-.038H877.11c-0.039,0-.059-0.007-0.059-0.019-0.051-.026-0.071-0.019-0.058.019l-22.759-4.273a22.97,22.97,0,0,0,3.235,11.515,24.261,24.261,0,0,0,3.975,5.057q0.759,0.729,1.559,1.38a26.281,26.281,0,0,0,3.526,2.528h0.039a24.073,24.073,0,0,0,4,1.878q1.227,0.4,2.513.709,0.643,0.153,1.286.268a6.006,6.006,0,0,0,.7.077,19.448,19.448,0,0,0,3.156.287h0.8a26.63,26.63,0,0,0,3.917-.287,6.008,6.008,0,0,0,.643-0.077q0.663-.115,1.306-0.268a23.1,23.1,0,0,0,6.527-2.587h0.02a25.742,25.742,0,0,0,5.124-3.908,26.12,26.12,0,0,0,3.975-5.057A23.25,23.25,0,0,0,903.766,311.555Z" transform="translate(-847 -268)"/>
</svg>
