<?xml version="1.0" encoding="UTF-8"?>
<svg width="17px" height="26px" viewBox="0 0 17 26" version="1.1" xmlns="http://www.w3.org/2000/svg" xmlns:xlink="http://www.w3.org/1999/xlink">
    <!-- Generator: Sketch 59.1 (86144) - https://sketch.com -->
    <title>Combined Shape</title>
    <desc>Created with Sketch.</desc>
    <g id="Sportsbook" stroke="none" stroke-width="1" fill="none" fill-rule="evenodd">
        <g id="Home-/-Old" transform="translate(-180.000000, -60.000000)" fill="#FFFFFF">
            <g id="Quicklinks" transform="translate(0.000000, 45.000000)">
                <g id="Icon" transform="translate(154.000000, 6.000000)">
                    <path d="M26,10 C26,9.44771525 26.4477153,9 27,9 L28,9 C28.5522847,9 29,9.44771525 29,10 L29,14 L42,14 C42.5522847,14 43,14.4477153 43,15 L43,34 C43,34.5522847 42.5522847,35 42,35 L27,35 C26.4477153,35 26,34.5522847 26,34 L26,10 Z M32,31 L29,31 L29,33 L32,33 L32,31 Z M36,31 L33,31 L33,33 L36,33 L36,31 Z M40,31 L37,31 L37,33 L40,33 L40,31 Z M32,28 L29,28 L29,30 L32,30 L32,28 Z M36,28 L33,28 L33,30 L36,30 L36,28 Z M40,28 L37,28 L37,30 L40,30 L40,28 Z M32,25 L29,25 L29,27 L32,27 L32,25 Z M36,25 L33,25 L33,27 L36,27 L36,25 Z M40,25 L37,25 L37,27 L40,27 L40,25 Z M39,17 L30,17 C29.4871642,17 29.0644928,17.3860402 29.0067277,17.8833789 L29,18 L29,22 C29,22.5128358 29.3860402,22.9355072 29.8833789,22.9932723 L30,23 L39,23 C39.5128358,23 39.9355072,22.6139598 39.9932723,22.1166211 L40,22 L40,18 C40,17.4477153 39.5522847,17 39,17 Z" id="Combined-Shape"></path>
                </g>
            </g>
        </g>
    </g>
</svg>