<svg enable-background="new 0 0 874.6 678.6" viewBox="0 0 874.6 678.6" xmlns="http://www.w3.org/2000/svg"><g fill="#fff"><path d="m779 356.2c6.6-61.5-22.2-154.6-66.5-257.3l16.7-8.3c5.9-3 8.8-9.6 6.2-14.8l-28.4-58c-2.7-5.5-9.9-7.4-16-4.2l-14 7.4-96.5 50-11.5 6c-5.8 3-8.1 9.6-5.1 14.7l31 54.3c2.8 4.8 9.6 6.5 15.2 3.7l7.8-3.9c52 110.3 62.4 166.9 63 194.1 19.8 2 38.3 4.3 54.5 7.2 15.7 2.9 30.3 5.9 43.6 9.1z"/><path d="m193.7 340.3c.5-27 10.8-83.4 62.7-193.7l6.2 3.1c5.6 2.8 12.5 1.1 15.2-3.7l30.9-54.3c2.9-5.1.6-11.8-5.1-14.7l-9.9-5.1-96.5-50-15.8-8.2c-6.1-3.2-13.3-1.3-16 4.2l-28.3 58c-2.5 5.2.3 11.8 6.3 14.8l18.3 9.1c-44 102.1-72.6 194.6-66.2 256 13.5-3.2 28.3-6 44.2-8.6 16.6-2.8 34.8-5 54-6.9z"/><path d="m543.9 332.2c7.5-7.8 14.2-16.4 19.9-25.3 3.1-4.8 6-9.7 8.5-14.6l2-4.2 1.8-3.8c.5-1.3 1.1-2.5 1.6-3.7.3-.7-.2-1.5-.9-1.6l-30.3-4v-.1l-7.4-14.5-14-27.5c-.3-.6-1-.8-1.6-.5l-13.8 7.7c-.6.3-1.4.1-1.6-.6l-14.7-38.6-9.1-23.8c-.5-1.3-2.4-.8-2.2.6l1.7 9.4c.2 1.2-1.3 1.8-2 .9l-27.6-34.3c-.5-.6-1.4-.6-1.8 0l-5.9 8.1-4.3 5.9c-.5.7-1.6.6-2-.2l-7.4-16.9-8.2-19.2-12.7 1.7-.8.1c-.3 0-.7-.1-.9-.3l-10.2-9.5-1.3-1.1-.1-.2-.1-.1-.1-.1h.1.1l3.8 1.6 11.5 4.7c.2.1.5.1.8 0l9.9-3.2 2.2-.7c.5-.2 1.1 0 1.4.5l1.1 2 13.2 22.7c.3.5.9.7 1.5.5l13.1-6.3c.5-.2 1.1-.1 1.4.4l14.8 21.5c.5.8 1.8.6 2-.3l3-10.3c.3-.9 1.5-1.1 2.1-.3l35.6 57.6c.2.3.5.5.9.5l15.5.9 1.8.1c.4 0 .8.3 1 .7l3.8 8.9 10.5 24.3 7.1 16.1c.1.2.3.4.5.6l22.6 11.4c.1-.2.2-.4.3-.6.2-.5 0-1.1-.4-1.4l-10-7.1c-.5-.4-.6-1.1-.3-1.6l3.7-5 3.1-4.2c.3-.4.8-.5 1.2-.4l7.1 2c.6.2 1.2-.2 1.4-.8.1-.2.1-.4.2-.6.5-1.9.9-3.8 1.3-5.7.1-.4-.1-.8-.4-1.1l-19.1-15c-.1-.1-.2-.1-.4-.2l-8.7-2.8c-.7-.2-1-1-.6-1.7l5.7-9.5c.3-.5 1-.7 1.6-.4l15.2 9.2c1 .6 2.2-.6 1.6-1.6l-21.2-34.4c-.2-.3-.5-.5-.8-.5l-24.1-3.2c-.2 0-.3-.1-.4-.2l-9.7-5.9c-.9-.6-.6-2 .5-2.1l20.5-1.4c1-.1 1.4-1.3.7-2l-27.2-25.2c-.2-.2-.4-.3-.6-.3l-23.5-3.5c-.2 0-.3-.1-.4-.2l-8.3-5.2c-.9-.6-.5-2.1.6-2.1l17.1-.5c1.1 0 1.5-1.4.6-2.1l-18.4-12.5c-.2-.2-.5-.2-.8-.2l-24.3 3c-.7.1-1.3-.4-1.3-1.1v-8.3c0-.6-.4-1-1-1.1l-27.1-3.6-33.4-3c-.7-.1-1.2.5-1.2 1.1v.2l-.1-6.2c0-.3-.2-.7-.5-.9l-25.2-18.8c-.4-.3-.8-.3-1.2-.1l-3.1 1.7c-.5.3-.7.9-.5 1.5l3.6 8c.5 1.1-.8 2.1-1.7 1.4l-9.3-6.9c-.4-.3-.8-.3-1.2-.1l-2.6 1.4c-.5.3-.7.9-.5 1.5l15.3 33.9c.3.6 0 1.3-.7 1.5l-1.4.5c-.2.1-.4.2-.5.3l-46.6 56.4s-.1.1-.1.1l-31.2 52.7c-.1.1-.1.3-.2.5l-2.6 29.5c0 .3 0 .5.2.7l9.8 15.1c.2.3.6.5 1 .5h10.9c.3 0 .5.1.7.2l8.3 6.5c.4.3 1.1.3 1.5-.1l12.3-11.6c.1-.1.1-.2.2-.3l6.5-11.5c.1-.2.3-.3.4-.4l43.6-23.4c.1-.1.3-.1.5-.1l19.4-.9c.1 0 .2 0 .4-.1l12.4-4.7c.1 0 .1-.1.2-.1l16.2-10.6c.3-.2.4-.5.5-.8l.9-5.8c.2-1.4 2.2-1.2 2.3.2l.1 10.2c0 .3-.1.6-.3.8l-14.1 15.1c-.2.2-.3.6-.3.9l1.5 13 7.7 67.1h6.3c28.7-.1 66.4.2 106.6 1.4zm-175-156.8-6.7 6.4c-.2.2-.5.3-.8.3h-10.8c-.6 0-1-.4-1.1-1l-.9-6.1c-.1-.5.1-.9.5-1.1l8.7-5.3c.3-.2.8-.2 1.1 0l9.7 5c.7.3.9 1.2.3 1.8z"/><path d="m489.6 431.4v.4c.2 10 8.9 17.6 18.8 17.4 9.1-.2 19.3-6.1 19-16.5 0-.1 0-.2 0-.4.8-10.7-9.3-17.5-18.8-18.1-10-.6-18.6 7.2-19 17.2z"/><path d="m675.6 565.3c-.1 7.5.1 15 .4 21.9v.6c0 .9.1 1.8.1 2.7v.6c.2 2.9.3 5.6.5 8.1.2 3 2.7 5.1 5.5 5.1.9 0 1.8-.2 2.6-.6 7-3.7 18.8-5.4 32.5-5.4 14 0 30 1.8 44.9 5.1 27.9 6.2 59 11.9 79.2 11.9 5.4 0 10-.4 13.6-1.3.5-.1.9-.2 1.4-.4.1 0 .3-.1.4-.1l.9-.3c.2-.1.3-.1.5-.2s.5-.2.7-.3.3-.1.5-.2.4-.2.7-.3c.2-.1.3-.1.5-.2s.4-.2.6-.3.3-.2.4-.2c.2-.1.4-.2.6-.3.1-.1.3-.2.4-.2.2-.1.3-.2.5-.3.1-.1.3-.2.4-.3.2-.1.3-.2.5-.3.1-.1.2-.2.4-.3.1-.1.3-.2.4-.3s.2-.2.3-.3.3-.2.4-.4c.1-.1.2-.2.3-.3s.2-.2.4-.4c.1-.1.2-.2.3-.3s.2-.2.3-.4l.3-.3c.1-.1.2-.2.3-.4.1-.1.2-.2.2-.3.1-.1.2-.2.2-.3 0 0 .1-.1.1-.1h-.1c2.4-3 3.3-7.1 2.3-11-.4-1.5-.7-3-1.1-4.4-12.9-53.5-15.2-111.8-6.4-168.5.5-3.1-.2-6.2-1.9-8.8-3.1-4.7-24.1-29.2-128.5-47.6-79.8-14.1-219-16.2-294.8-16.2-72.2 0-206.6 2.1-294.6 16.1-105.1 16.8-125.9 43-129 48.1-1.5 2.5-2.1 5.5-1.7 8.3 8.7 56.7 6.5 114.9-6.4 168.5-.4 1.5-.7 3-1.1 4.4-1.4 5.7 1.2 11.8 6.5 14.3.1 0 .1.1.2.1h-.1c.2.1.3.2.5.3.1.1.3.2.4.2.2.1.4.2.6.3.1.1.3.2.4.2l.6.3c.2.1.3.1.5.2s.4.2.7.3c.2.1.3.1.5.2s.5.2.7.3.3.1.5.2c.3.1.6.2.9.3.1 0 .3.1.4.1.4.1.9.3 1.4.4 3.6.9 8.2 1.3 13.6 1.3 20.2 0 51.3-5.7 79.2-11.9 14.9-3.3 30.9-5.1 44.9-5.1 12.9 0 24.1 1.5 31.2 4.8.9.4 1.8.6 2.7.6 3.4 0 6.4-2.6 6.7-6.3.1-.9.1-1.9.2-2.9 0-.1 0-.2 0-.3.1-1 .1-1.9.2-3 0-.2 0-.5 0-.7.1-.9.1-1.9.1-2.9 0-.2 0-.3 0-.5.3-6.6.5-13.8.4-21.1 4.1-.3 8.2-.7 12.5-1 80.8-6.1 171.6-8.3 224.7-8.3 55.9 0 148 2.7 227.8 8.6 4.3.8 8.3 1.1 12.2 1.4zm-112-114.3v.4c-.8 37.4-23.7 71.4-62.8 70-16.6-.6-31.9-5.2-45.4-15.9 5.7-8.3 11.5-16.6 17.2-24.8 8.7 6.1 17.3 10.5 28.1 10.7 15.4.3 23.9-12.6 25.4-26.7-7.5 7-18.2 10.1-28.2 10.1-23.5-.1-45-16.4-44.3-41.5 0-.1 0-.2 0-.4 0-29.8 26.9-48 54.2-46.9 15.7.6 29.8 4.5 41.2 16.2 12.7 13.1 14.6 31.5 14.6 48.8zm-122.6-62.8v31.6c-13.4 0-26.9.1-40.3.3.4 32.9.9 65.7 1.3 98.6-12.1.2-24.1.4-36.2.7-.8-32.8-1.6-65.7-2.4-98.5-13.4.3-26.9.7-40.3 1.2-.4-10.5-.7-21.1-1.1-31.6 39.8-1.5 79.4-2.2 119-2.3zm-131.4 2.6c.4 10.2.8 20.4 1.2 30.7-23.7 1-47.4 2.1-71.1 3.5.4 6.6.8 13.1 1.2 19.7 21.3-1.2 42.7-2.3 64-3.2.4 9.5.8 19 1.2 28.4-21.2.9-42.4 2-63.5 3.2.4 6.9.8 13.7 1.2 20.6 23.5-1.4 47.1-2.5 70.7-3.5.4 10.2.8 20.4 1.2 30.7-35.3 1.4-70.5 3.3-105.7 5.8-3-43.3-6.1-86.6-9.1-129.9 36.1-2.5 72.4-4.5 108.7-6zm-165.6 141.2c-22.4 2-44.7 4.3-67 6.7-4.8-43.1-9.5-86.3-14.3-129.4 23.1-2.5 46.1-4.8 69.2-6.9 13.2-.6 27-.2 37.8 8.5 6.2 5 9.8 12.4 10.3 20.3v.4c1.2 13.2-6.6 24.9-18.3 30.6 15.4 3.4 27.7 12.9 28.8 29.6v.4c2.2 26.2-24.1 38.1-46.5 39.8zm471.3-7.2c-18.2-1.6-34.3-8.1-45-23.9 8.1-7 16.2-14 24.4-21 4.8 6.6 11.5 12.7 20 13 9.7.4 16.2-7.9 16-17.4 1.5-27.4 3-54.8 4.4-82.3 12.4.7 24.9 1.4 37.3 2.2-1.8 27.5-3.6 54.9-5.3 82.4-.7 13-5.1 27.1-15.3 35.7-9.8 8.5-23.8 12.4-36.5 11.3zm55 1c21.5-42.5 43.6-84.6 66.3-126.5 12 1 24.1 2.1 36.1 3.2 15 45.2 29.4 90.6 43.1 136.2-12.9-1.4-25.7-2.7-38.6-4-2.4-8-4.8-16-7.3-24.1-16.8-1.6-33.7-3.1-50.5-4.5-3.7 7.5-7.5 14.9-11.2 22.4-12.6-.9-25.2-1.8-37.9-2.7z"/><path d="m732.4 479c9.9.8 19.8 1.7 29.6 2.6-3.8-12.7-7.6-25.5-11.5-38.2-6 11.9-12 23.7-18.1 35.6z"/><path d="m144 442c0-.1 0-.2 0-.4-.9-8.8-10.6-10.3-17.8-9.6-8 .8-16.1 1.5-24.1 2.3.8 7.6 1.5 15.2 2.3 22.8 7.7-.8 15.5-1.5 23.2-2.2 7.4-.7 17-3.7 16.4-12.9z"/><path d="m153.7 490c0-.1 0-.2 0-.4-1-9.3-11.2-10.8-18.9-10.1-9.3.9-18.6 1.7-27.9 2.7.8 8 1.6 15.9 2.4 23.9 9.4-.9 18.7-1.8 28.1-2.7 7.6-.7 16.9-4.2 16.3-13.4z"/><path d="m251.4 637.4h10.6.3l18.1 27.3h26.9l.7-1.8-20.3-29.6c11.2-4.8 18.5-13.9 18.5-27.7v-.3c0-8.9-2.7-15.8-8-21-6-6.2-15.6-9.8-29.3-9.8h-29.9-12.7v7.2 82.9h12.7 12.3v-27.2zm29.8-30.2c0 6.6-4.9 10.7-13.4 10.7h-16.5v-21.6h16.3c8.4 0 13.5 3.6 13.5 10.7v.2z"/><path d="m309.3 664.7h24.3l6.4-16.1h34.7l6.6 16.1h26.8l-38.4-90.7h-24.1l-37.6 89-.7 1.8h2zm48.2-61.1 10 25.6h-20.2z"/><path d="m452.3 643.7c-12.6 0-21.5-10.6-21.5-24.1v-.3c0-13.1 8.9-23.8 21.5-23.8 8.6 0 14.5 4.1 19.7 10.6l18.8-14.5c-8-11.1-19.8-18.8-38.2-18.8-27.3 0-47.5 20.6-47.5 46.8v.3c0 26.9 20.7 46.6 46.5 46.6 19.9 0 31.4-8.6 39.9-20.3l-18.8-13.4c-5.5 6.5-11 10.9-20.4 10.9z"/><path d="m524 629.2h43.2v-19.7h-43.2v-13.7h47.7v-21.2h-72.4v90.1h73.1v-21.3h-48.4z"/><path d="m614.6 573.1c-21.6 0-34.9 12.1-34.9 28.8v.3c0 18.5 14.8 23.9 34 28.3 12.2 2.8 15.2 4.9 15.2 8.6v.3c0 3.9-3.6 6.2-10.3 6.2-10.4 0-20.3-3.7-29.2-10.8l-13.9 16.6c11.1 9.9 26.3 14.9 42.2 14.9 5.4 0 10.3-.7 14.7-1.9 13.5-3.9 21.7-13.5 21.7-27.4v-.3c0-13.4-8.1-20.3-21.7-24.9-3.6-1.2-7.5-2.2-11.8-3.2-12.5-2.8-15.6-4.6-15.6-8.8v-.3c0-3.2 3-5.8 9-5.8 5.8 0 12.2 1.7 18.4 4.8 2.3 1.2 4.6 2.5 6.8 4.1l12.5-17.6c-1.3-1-2.6-2-4-2.9-4.6-3-9.7-5.3-15.3-6.8-5.4-1.5-11.3-2.2-17.8-2.2z"/></g></svg>