<svg enable-background="new 0 0 38.1 40" viewBox="0 0 38.1 40" xmlns="http://www.w3.org/2000/svg"><g fill="#fff"><path d="m37.9 7.5s-6.1 1.1-8.3 7.5c.7.7.9 1.8 1.1 3.1v.9c0 2.2-1.1 4-2.6 4.2h-.2c-1.5 0-2.9-2-2.9-4.2 0-.2 0-.7 0-.9.2-1.5.7-2.6 1.3-3.3-1.1-2.4-2.9-5.7-5.5-8.3-.4-.4-.9-.9-1.5-1.3l-.3-.4c-.7.4-1.1 1.1-1.8 1.8-2.6 2.9-4.4 5.9-5.5 8.3.7.7 1.3 2 1.3 3.3v.9c0 2.2-1.1 4-2.6 4.2h-.2c-1.5 0-2.9-2-2.9-4.2 0-.2 0-.7 0-.9 0-1.3.4-2.2 1.1-3.1-2.4-5.5-6.1-7-7.7-7.5-.4 0-.7-.2-.7-.2.2.4 2.2 4.6 3.3 11.6.4 3.1.9 5.5.9 9.4h29.8c0-.2 0-.4 0-.7 0-3.7.2-5.9.9-8.8.6-6.1 2.6-10.3 3-11.4z"/><path d="m4.1 30.8v4.4h29.4v-4.4zm4.6 3.3c0 .2-.2.2 0 0-.2.2-.2.2 0 0l-1.1-.2-.6.4v-.9l-.7-.7.9-.2.4-.7h.2l.4.7.9.2v.2l-.7.7zm4.4 0c0 .2 0 .2 0 0-.2.2-.2.2 0 0l-.9-.2-.7.4v-.9l-.7-.7.9-.2.4-.7h.2l.4.7.9.2v.2l-.7.7zm4.4 0c0 .2 0 .2 0 0-.2.2-.2.2 0 0l-.9-.2-.6.4v-.9l-.7-.7.9-.2.4-.9h.2l.4.7.9.2v.2l-.7.7v.7zm4.4 0c0 .2 0 .2 0 0l-.9-.3-.7.4v-.9l-.7-.7.9-.2.4-.9h.2l.4.7.9.2v.2l-.7.7v.8zm4.4 0c0 .2 0 .2 0 0l-.9-.2-.7.4v-.9l-.7-.7.9-.2.4-.9h.2l.4.7.9.2v.2l-.7.7v.7zm4.6 0c0 .2-.2.2 0 0-.2.2-.2.2 0 0l-.9-.3-.7.4v-.9l-.7-.7.9-.2.2-.9h.2l.4.7.9.2v.2l-.7.7z"/></g></svg>