<svg viewBox="0 0 90 90" xmlns="http://www.w3.org/2000/svg"><g fill="#fff"><path d="m61.9 36.5-5.6-15.4-18.3-4.3-11.6 12.4 5.6 17.9 17.4 3.1z"/><path d="m53.5 68.1 14.6 2.6 11.8-12.7-2.9-16.7-13.3-3.3-12.6 13.9z"/><path d="m12.3 29.3-7.4 14.2 4.8 15.2 12.3 2.8 7.8-13.5-5.7-18z"/><path d="m86.8 28.3a1.45 1.45 0 0 1 -.2-.7 45.2 45.2 0 1 0 3.4 17.4 46.37 46.37 0 0 0 -3.2-16.7zm-45.3 59.1a41.48 41.48 0 0 1 -11.2-2.5c-.4-.2-.9-.3-1.3-.5l.1-.6 5.5-.4-.1-6.4-12.5-13-11.9-2.7.7 9.1c-.4-.6-.9-1.2-1.3-1.8a42.59 42.59 0 0 1 -7.1-23.6c0-.3.1-2.5.1-2.8h.4l7.7-14.6 3.3-11.7c.6-.6 1.1-1.2 1.7-1.8.4-.3 3.5-3 4.7-3.9l9.2-4 1.9-.8 5.5-2.2a36.21 36.21 0 0 1 4.6-.6 21.75 21.75 0 0 1 2.6-.1l.1.3-11.3 4.6 5.3 7.1 18.7 4.5 9.2-5.7-6-7.9.1-.1c.7.3 1.3.5 2 .8s1.6.7 2.4 1.1l4.6 6 12.5 13.8 2 .3c.2.4.4.9.6 1.3s.3.9.5 1.3l-2.8-.4-2.8 11 2.9 17.1 3.3.9c-.1.4-.3.7-.4 1.1a42.27 42.27 0 0 1 -18.1 22 9.13 9.13 0 0 1 -1.3.8l1.6-9.4-14.6-2.5-15.7 6.9v6.6l5.9 2.8-.2.7a4.48 4.48 0 0 1 -1.1-.1z"/></g></svg>