<svg xmlns="http://www.w3.org/2000/svg" width="70" height="70" viewBox="0 0 70 70">
  <defs>
    <style>
      .cls-1 {
        fill: #f6f6f8;
        fill-rule: evenodd;
      }
    </style>
  </defs>
  <path class="cls-1" d="M732.144,300.389l-4.355-11.978-14.233-3.344-9.023,9.644,4.356,13.922,13.533,2.412Zm-6.533,24.578,11.356,2.022,9.177-9.878-2.255-12.989-10.345-2.567-9.8,10.812Zm-32.044-30.178-5.756,11.044,3.733,11.823,9.567,2.177,6.067-10.5-4.434-14Zm57.944-.778a1.119,1.119,0,0,1-.155-0.544A35.157,35.157,0,1,0,754,307,36.055,36.055,0,0,0,751.511,294.011Zm-35.233,45.967a32.25,32.25,0,0,1-8.711-1.945c-0.312-.155-0.7-0.233-1.012-0.389l0.078-.466,4.278-.311-0.078-4.978-9.722-10.111-9.256-2.1,0.545,7.078c-0.311-.467-0.7-0.934-1.011-1.4A33.119,33.119,0,0,1,685.867,307c0-.233.077-1.944,0.077-2.178h0.312l5.988-11.355,2.567-9.1c0.467-.467.856-0.933,1.322-1.4,0.311-.234,2.723-2.334,3.656-3.034l7.155-3.111h0l1.478-.622h0l4.278-1.711a28.266,28.266,0,0,1,3.578-.467,17.081,17.081,0,0,1,2.022-.077l0.078,0.233-8.789,3.578,4.122,5.522,14.544,3.5,7.156-4.434-4.667-6.144,0.078-.078c0.545,0.234,1.011.389,1.556,0.622,0.622,0.312,1.244.545,1.867,0.856l3.577,4.667L747.544,293l1.556,0.233c0.156,0.311.311,0.7,0.467,1.012s0.233,0.7.389,1.011l-2.178-.311L745.6,303.5l2.255,13.3,2.567,0.7c-0.078.311-.233,0.544-0.311,0.856a32.877,32.877,0,0,1-14.078,17.111,7.169,7.169,0,0,1-1.011.622l1.245-7.311-11.356-1.945L712.7,332.2v5.133l4.589,2.178-0.156.545A3.475,3.475,0,0,1,716.278,339.978Z" transform="translate(-684 -272)"/>
</svg>
