<svg enable-background="new 0 0 399.4 288.6" fill="#fff" viewBox="0 0 399.4 288.6" xmlns="http://www.w3.org/2000/svg"><path d="m229.9 82.7c-11.5.1-23 0-34.5 0-2.8 0-3 .1-1.8 2.7 2.6 5.3 3 10.8 1.6 16.5-.6 2.5-1 5-1.5 7.4-5.3 26.4-10.5 52.9-15.8 79.3-1.8 8.8-5.4 16.5-12.7 22-.1.1-.9.9-.9.9 1.8.5 3.7 1.1 5.6 1.3.1 0 .3 0 .4.1 2.3.3 4.6.4 6.9.3 8.4-.4 17-2.8 24.1-7.3 5.2-3.4 8.5-8 9.7-14.2 3-16 6.2-31.9 9.3-47.9 3.8-19.6 7.6-39.2 11.5-58.8.3-2-.1-2.3-1.9-2.3z"/><path d="m301.3 12.7-199.9-1.1-81 126.5 179.3 145.8 180.6-144zm-101.5 245.2-100.4-81.6c4.6 1 9.4 1.5 14.2 1.6 10.8.1 21.1-1.9 30.8-7.1 27.2-14.6 36.8-45.8 35.2-65.8-.9-10.8-5.5-19.6-13.9-26.5-8.2-6.8-18-8.8-27.8-8.9-7.7.1-14.8.9-21.5 3.4-17 6.1-29.2 16.8-32.6 35.5-1.4 7.7-.6 15.1 4.2 21.6 5.7 7.7 13.8 10.7 23.1 11 11.4.4 21.6-3.2 30.7-9.8.4-.3 1-.5 1.5-.7.1.6.3 1.2.2 1.8-1.6 9.3-4.5 18.2-9.3 26.3-2.1 3.5-4.8 6.8-7.7 9.8s-6.8 3.9-11 3.2c-4-.7-7.3-3.6-7.8-7.2-.5-4.2 1.6-7.3 4.8-9.6 1.7-1.2 1.4-1.9.3-3.2-7.6-8.5-23-8.8-30.8-.5-2.3 2.5-3.5 5.3-3.7 8.2l-31.2-25.4 65.2-101.9 100 .5c-9.9 2-17.5 10.8-17.5 21.3 0 12 9.7 21.7 21.7 21.7s21.7-9.7 21.7-21.7c0-10.4-7.4-19.2-17.2-21.2l68.9.4 63.5 102.4-34.1 27.2c2.1-12.5 4.8-25 7.1-37.5 1-5.3 1.7-10.6 2.5-15.9 0-1.5 0-3 0-4.6-.2-1-.4-2-.5-3-.8-8-4.4-13.9-12.3-16.7-8.8-3.1-18-4-27.2-3.2-7.6.6-15.2 2.3-22.8 2.8-7.1.5-14.5 1.8-21.2-2.4-1.3-.8-1.5.2-1.7 1.2-1.7 8.1-.9 15.8 3.1 23 2.3 4.1 5.7 6.7 10.5 7.5 6 1 11.3-1.2 16.6-3.3 4.4-1.8 4.9-3.3 4.1-7.9-.3-1.4-.3-3 .1-4.5 1.4-5.7 8.1-6.8 13.4-5.3 2.2.6 3.7 2.2 4.2 4.3 1.6 7.1-.1 14.9-8.4 18.2-8.5 3.4-17.2 6.5-25.9 9.4-7.5 2.5-14.7 5.3-21.1 10-9.2 6.8-15.1 15.6-16.3 27.1-1.2 11.8 7 22 19.6 24.8 12.3 2.7 23.4-.5 33.7-7.1 4.6-2.9 4.7-2.9 5.3 2.5.2 2.1 1.1 2.5 3.1 2.5h6.3zm-58.1-135.2c-3.1 3.8-7.1 6.5-12.1 7.3-7.3 1.1-11.7-1.9-13.2-9.1-.5-2.6-.7-5.3-1-7.6.8-11.2 3.2-21.4 10.1-30.1 2.9-3.7 6.6-6.1 11.3-6.7 7.4-1 12.3 2.4 13.7 10.2 2.4 13.1 0 25.4-8.8 36zm149.3 1.7c-2.1 10.5-3.9 20.1-5.8 29.8-.3 1.3-.6 2.6-.7 4-.6 7.6-5.9 11.3-12.1 13.8-5.6 2.3-11.5-2.1-12.3-8.8-.6-5 .3-9.8 2.8-14.2 4.8-8.5 11.3-15.6 19.6-20.8 2.4-1.6 5.3-2.4 8.5-3.8z"/></svg>