<svg width="576" height="65" viewBox="0 0 576 65" fill="none" xmlns="http://www.w3.org/2000/svg">
<path d="M63.9997 60.2574C63.9997 62.9301 60.7683 64.2686 58.8784 62.3787L1.62102 5.12132C-0.268872 3.23143 1.06963 0 3.74234 0H60.9997C62.6566 0 63.9997 1.34315 63.9997 3V60.2574Z" fill="white"/>
<path d="M76.121 63.8787C74.2311 65.7686 70.9997 64.4301 70.9997 61.7574V3C70.9997 1.34315 72.3428 0 73.9997 0H132.757C135.43 0 136.768 3.23142 134.878 5.12132L76.121 63.8787Z" fill="white"/>
<path d="M142.5 60.2574C142.5 62.9301 145.731 64.2686 147.621 62.3787L204.878 5.12132C206.768 3.23142 205.43 0 202.757 0H145.5C143.843 0 142.5 1.34315 142.5 3V60.2574Z" fill="white"/>
<path d="M236 0V64H250L266.5 30.5L284 64H298V0H286V37.5L272 12H262.5L250 37.5V0H236Z" fill="white"/>
<path d="M363.5 0V12H388.5L363.5 54.5V64H406.5V52.5H380L405.5 8.5V0H363.5Z" fill="white"/>
<path fill-rule="evenodd" clip-rule="evenodd" d="M414.5 0V63.5H441.5C448.333 63.3333 462 56.9 462 32.5C462 8.1 448.333 0.666667 441.5 0H414.5ZM427 52.5V11C427 11 439.5 11 442 11.5C444.5 12 449 19.1 449 33.5C449 47.9 444 52.1667 441.5 52.5H427Z" fill="white"/>
<path fill-rule="evenodd" clip-rule="evenodd" d="M486.5 0L464 63.5V64H477.5L482 52.5H504L507 64H521.5L497.5 0H486.5ZM485 40H499.5L492.5 18.5L485 40Z" fill="white"/>
<path d="M527.5 64V0H538.5L563.5 39V0H575.5V64H564.5L540.5 25V64H527.5Z" fill="white"/>
<path fill-rule="evenodd" clip-rule="evenodd" d="M325.5 0L303 64H315.5L321.5 51H341L346 64H360L337 0H325.5ZM325.5 40L331.5 19.5L339 40H325.5Z" fill="white"/>
</svg>
