<?xml version="1.0" encoding="utf-8"?>
<!-- Generator: Adobe Illustrator 24.0.1, SVG Export Plug-In . SVG Version: 6.00 Build 0)  -->
<svg version="1.1" id="Layer_1" xmlns="http://www.w3.org/2000/svg" xmlns:xlink="http://www.w3.org/1999/xlink" x="0px" y="0px"
	 viewBox="0 0 22 24" style="enable-background:new 0 0 22 24;" xml:space="preserve">
<style type="text/css">
	.st0{fill-rule:evenodd;clip-rule:evenodd;fill:#FFFFFF;}
</style>
<g>
	<path class="st0" d="M5.3,6.7C4.7,6.5,4.8,6.1,5,5.5c0.5-1.6,0.9-3.3,2.6-3.9C6.7,1.3,6.4,2.1,6,1.2C5.8,1.4,5.9,2.7,5.3,1.7
		C5.1,2.1,5.2,2.4,5.2,2.7C5.1,3.1,4.9,3.3,4.6,2.9c0.2,0.6,0,1.7-0.2,2.6C4.3,6.2,4.1,6.7,5,7.1c0.3,0.1,0.5,0.3,0.8,0.5
		c0.2,0.1,0.3,0.3,0.4,0c0-0.1,0.1-0.4,0.2-0.5c0.1-0.2,0-0.3-0.2-0.3C5.8,6.8,5.7,6.9,5.3,6.7L5.3,6.7z"/>
	<path class="st0" d="M2.5,11.6c-0.3,0.2-0.1,0.3,0,0.4c0.1,0.1,0.3,0.4,0.3,0.6c0,0.3,0.1,0.4,0.3,0c0.5-0.8,1.1-0.9,2-1
		c0.4,0,0.4,0,0.4-0.4c0-0.1,0-0.3,0.1-0.4c0.1-0.4-0.1-0.4-0.4-0.3C4,10.8,3.4,11,2.5,11.6L2.5,11.6z"/>
	<path class="st0" d="M4.8,17.4c0,0.4,0,0.6,0,1C4.7,19,4.5,19.1,4.9,19c0.2-0.1,0.3-0.1,0.5-0.1c0.3,0,0.2,0,0.1-0.5
		c-0.1-0.7,0-1,0.2-1.9c0.1-0.4,0.1-0.5,0-0.9c-0.1-0.4-0.2-0.8-0.2-1.1c-0.1-1.1-0.4-0.1-0.5,0.3C4.8,15.6,4.7,16.8,4.8,17.4
		L4.8,17.4z"/>
	<path class="st0" d="M4.6,19.5c-0.1,0.3-0.3,0.7-0.4,1c-0.4,1-1,3.5,1.2,3c-0.4-0.3-0.6-0.4-0.6-1c-0.3-0.3-0.2-0.2-0.3-0.6
		c-0.2-0.6,0-1,0.3-1.5c0.2-0.3,0.4-0.7,0.5-1c0.1-0.2,0.2-0.3,0-0.4c-0.2,0-0.3,0-0.5,0.1C4.7,19.3,4.7,19.4,4.6,19.5L4.6,19.5z"/>
	<path class="st0" d="M2.1,12.3c-0.5,0.7-0.9,1.2-1.3,1.7c-0.5,0.6-0.7,1.2-0.3,1.8c-0.1-0.5-0.1-0.7,0.3-0.8
		c0.3-0.1,0.5-0.2,0.6-0.4c0.1-0.6,0.5-1,1.1-1.5c0.2-0.1,0.2-0.1,0.2-0.4c0-0.2-0.1-0.4-0.2-0.6C2.2,12,2.2,12.1,2.1,12.3L2.1,12.3
		z"/>
	<path class="st0" d="M5.7,11.9c0.1,3.1,0.1,5.7,3.1,7.2c1.6,0.8,1.8,0.8,1.8-0.6c0.1-1.8,0.2-3.4,0.2-5.1c0-1-0.1-0.7-0.6-1.1
		C10,12,9.8,11.8,9.7,11.6c-0.4-0.7-0.5-0.7-1.4-0.9C6.4,10.2,5.6,9.8,5.7,11.9L5.7,11.9z"/>
	<path class="st0" d="M12.1,5.3c1.2-0.2,1.6-0.1,2.1,0.4c1,0.8,1.6,2.1,1.6,3.3c0,0.8,0,0.9-0.9,1c-3.4,0.7-4.5,0.7-7.9,0
		C6.2,9.8,6.2,9.8,6.2,9c0-1.2,0.6-2.5,1.6-3.3c0.6-0.5,0.9-0.5,2.1-0.4C10.5,5.4,11.5,5.4,12.1,5.3L12.1,5.3z"/>
	<path class="st0" d="M10.4,10.8c-0.6,0-0.7,0.2-0.3,0.7c0.6,0.9,1.2,0.9,1.8,0c0.4-0.5,0.3-0.7-0.3-0.7
		C11.2,10.8,10.8,10.8,10.4,10.8L10.4,10.8z"/>
	<path class="st0" d="M16.3,11.9c-0.1,3.1-0.1,5.7-3.1,7.2c-1.6,0.8-1.8,0.8-1.8-0.6c-0.1-1.8-0.2-3.4-0.2-5.1c0-1,0.1-0.7,0.6-1.1
		c0.3-0.2,0.5-0.4,0.6-0.6c0.4-0.7,0.5-0.7,1.4-0.9C15.6,10.2,16.4,9.8,16.3,11.9L16.3,11.9z"/>
	<path class="st0" d="M9.2,4C9,4.7,9.2,4.8,9.8,4.9c0.8,0.1,1.5,0.1,2.3,0C12.8,4.8,13,4.7,12.8,4C12.3,2.3,9.7,2.3,9.2,4L9.2,4z"/>
	<path class="st0" d="M12,2.7c0.6-0.5,0.9-0.9,0.8-1.8c0-0.2-0.1-0.2,0.1-0.1c0.1,0.1,0.2,0,0.3-0.2c0.2-0.4,0.3-0.3,0.3,0.1
		c-0.1,0.8-0.6,1.7-1.2,2.1C12.2,3,11.9,2.8,12,2.7L12,2.7z"/>
	<path class="st0" d="M10,2.7C9.3,2.1,9,1.8,9.2,0.9c0-0.2,0.1-0.2-0.1-0.1C9,0.9,8.9,0.8,8.8,0.6C8.6,0.2,8.5,0.3,8.5,0.8
		c0.1,0.8,0.6,1.7,1.2,2.1C9.8,3,10.1,2.8,10,2.7L10,2.7z"/>
	<path class="st0" d="M16.7,6.7c0.6-0.2,0.6-0.6,0.4-1.2c-0.5-1.6-0.9-3.3-2.6-3.9c0.8-0.2,1.2,0.5,1.5-0.3c0.3,0.2,0.1,1.4,0.7,0.5
		c0.2,0.4,0.1,0.6,0.1,0.9c0.1,0.4,0.3,0.6,0.6,0.2c-0.2,0.6,0,1.7,0.2,2.6c0.1,0.8,0.3,1.3-0.6,1.7c-0.3,0.1-0.5,0.3-0.8,0.5
		c-0.2,0.1-0.3,0.3-0.4,0c0-0.1-0.1-0.4-0.2-0.5c-0.1-0.2,0-0.3,0.2-0.3C16.2,6.8,16.3,6.9,16.7,6.7L16.7,6.7z"/>
	<path class="st0" d="M19.5,11.6c0.3,0.2,0.1,0.3,0,0.4c-0.1,0.1-0.3,0.4-0.3,0.6c0,0.3-0.1,0.4-0.3,0c-0.5-0.8-1.1-0.9-2-1
		c-0.4,0-0.4,0-0.4-0.4c0-0.1,0-0.3-0.1-0.4c-0.1-0.4,0.1-0.4,0.4-0.3C18,10.8,18.6,11,19.5,11.6L19.5,11.6z"/>
	<path class="st0" d="M17.2,17.4c0,0.4,0,0.6,0,1c0.1,0.6,0.2,0.7-0.1,0.6c-0.2-0.1-0.3-0.1-0.5-0.1c-0.3,0-0.2,0-0.1-0.5
		c0.1-0.7,0-1-0.2-1.9c-0.1-0.4-0.1-0.5,0-0.9c0.1-0.4,0.2-0.8,0.2-1.1c0.1-1.1,0.4-0.1,0.5,0.3C17.2,15.6,17.3,16.8,17.2,17.4
		L17.2,17.4z"/>
	<path class="st0" d="M17.4,19.5c0.1,0.3,0.3,0.7,0.4,1c0.4,1,1,3.5-1.2,3c0.4-0.3,0.6-0.4,0.6-1c0.3-0.3,0.2-0.2,0.3-0.6
		c0.2-0.6,0-1-0.3-1.5c-0.2-0.3-0.4-0.7-0.5-1c-0.1-0.2-0.2-0.3,0-0.4c0.2,0,0.3,0,0.5,0.1C17.3,19.3,17.3,19.4,17.4,19.5L17.4,19.5
		z"/>
	<path class="st0" d="M19.9,12.3c0.5,0.7,0.9,1.2,1.3,1.7c0.5,0.6,0.7,1.2,0.3,1.8c0.1-0.5,0.1-0.7-0.3-0.8
		c-0.3-0.1-0.5-0.2-0.6-0.4c-0.1-0.6-0.5-1-1.1-1.5c-0.2-0.1-0.2-0.1-0.2-0.4c0-0.2,0.1-0.4,0.2-0.6C19.8,12,19.8,12.1,19.9,12.3
		L19.9,12.3z"/>
</g>
</svg>
