<svg width="30" height="34" viewBox="0 0 30 34" fill="none" xmlns="http://www.w3.org/2000/svg">
<path d="M2.66281 10.9074C1.54531 10.9074 0.632812 11.8199 0.632812 12.9374V21.0574C0.632812 22.1762 1.54531 23.0874 2.66281 23.0874C3.77906 23.0874 4.69281 22.1749 4.69281 21.0574V12.9374C4.69281 11.8199 3.78031 10.9074 2.66281 10.9074ZM19.3953 3.19991L21.0453 0.656161C21.0894 0.588442 21.105 0.506029 21.0886 0.426886C21.0722 0.347743 21.0252 0.278288 20.9578 0.233661C20.8894 0.189651 20.8064 0.174418 20.7268 0.19127C20.6472 0.208122 20.5775 0.255699 20.5328 0.323661L18.8253 2.95491C17.6044 2.48771 16.3076 2.25039 15.0003 2.25491C13.6328 2.25491 12.3378 2.50491 11.1778 2.95491L9.46781 0.324912C9.44606 0.29126 9.4179 0.262223 9.38492 0.239456C9.35195 0.21669 9.31482 0.200641 9.27564 0.192226C9.23647 0.18381 9.19602 0.183194 9.15661 0.19041C9.11719 0.197627 9.07959 0.212536 9.04594 0.234287C9.01229 0.256037 8.98325 0.284202 8.96048 0.317174C8.93772 0.350147 8.92167 0.38728 8.91325 0.426455C8.90484 0.46563 8.90422 0.506078 8.91144 0.545491C8.91865 0.584904 8.93356 0.62251 8.95531 0.656161L10.6053 3.19991C7.87531 4.46241 6.01531 6.85991 5.96281 9.62241H24.0428C23.9891 6.85991 22.1303 4.45991 19.3978 3.19991H19.3953ZM11.1228 7.07741C10.9862 7.07741 10.851 7.05051 10.7248 6.99825C10.5986 6.94598 10.484 6.86938 10.3874 6.7728C10.2908 6.67623 10.2142 6.56158 10.162 6.4354C10.1097 6.30922 10.0828 6.17399 10.0828 6.03741C10.0828 5.90084 10.1097 5.7656 10.162 5.63942C10.2142 5.51324 10.2908 5.39859 10.3874 5.30202C10.484 5.20545 10.5986 5.12884 10.7248 5.07658C10.851 5.02431 10.9862 4.99741 11.1228 4.99741C11.3986 4.99741 11.6632 5.10698 11.8582 5.30202C12.0532 5.49706 12.1628 5.76159 12.1628 6.03741C12.1628 6.31324 12.0532 6.57776 11.8582 6.7728C11.6632 6.96784 11.3986 7.07741 11.1228 7.07741ZM18.8778 7.07741C18.7412 7.07741 18.606 7.05051 18.4798 6.99825C18.3536 6.94598 18.239 6.86938 18.1424 6.7728C18.0458 6.67623 17.9692 6.56158 17.917 6.4354C17.8647 6.30922 17.8378 6.17399 17.8378 6.03741C17.8378 5.90084 17.8647 5.7656 17.917 5.63942C17.9692 5.51324 18.0458 5.39859 18.1424 5.30202C18.239 5.20545 18.3536 5.12884 18.4798 5.07658C18.606 5.02431 18.7412 4.99741 18.8778 4.99741C19.1536 4.99741 19.4182 5.10698 19.6132 5.30202C19.8082 5.49706 19.9178 5.76159 19.9178 6.03741C19.9178 6.31324 19.8082 6.57776 19.6132 6.7728C19.4182 6.96784 19.1536 7.07741 18.8778 7.07741ZM27.3378 10.9074C26.2203 10.9074 25.3078 11.8199 25.3078 12.9374V21.0574C25.3078 22.1762 26.2203 23.0874 27.3378 23.0874C28.4553 23.0874 29.3678 22.1749 29.3678 21.0574V12.9374C29.3678 11.8199 28.4553 10.9074 27.3378 10.9074ZM5.94531 25.6299C5.94531 26.5337 6.68281 27.2699 7.58781 27.2699H9.29156V31.7824C9.29156 32.9024 10.2041 33.8124 11.3228 33.8124C12.4391 33.8124 13.3528 32.8999 13.3528 31.7824V27.2699H16.6478V31.7824C16.6478 32.9012 17.5603 33.8112 18.6791 33.8112C19.7966 33.8112 20.7078 32.8987 20.7078 31.7799V27.2674H22.4116C23.3141 27.2674 24.0491 26.5299 24.0491 25.6274V10.8374H5.94656V25.6299H5.94531Z" fill="#429BDB"/>
</svg>
