<svg width="37" height="37" viewBox="0 0 37 37" fill="none" xmlns="http://www.w3.org/2000/svg">
<g clip-path="url(#clip0)">
<path d="M22.8414 5.43975L8.58781 17.3089L8.84584 17.6188C8.98847 17.7901 8.96525 18.0441 8.794 18.1867C8.62271 18.3293 8.36872 18.3061 8.22612 18.1348L7.9681 17.825L4.86947 20.4052C4.52723 20.6902 4.48078 21.1987 4.7658 21.541L7.03724 24.2688C7.16732 24.425 7.36773 24.5094 7.56899 24.481C8.50464 24.3487 9.48449 24.6871 10.1336 25.4667C10.7828 26.2462 10.9382 27.2712 10.6387 28.1674C10.5743 28.3602 10.6211 28.5726 10.7512 28.7288L13.0226 31.4566C13.3076 31.7988 13.8161 31.8452 14.1584 31.5602L17.257 28.98L16.999 28.6701C16.8564 28.4988 16.8796 28.2448 17.0508 28.1022C17.2221 27.9596 17.4761 27.9828 17.6187 28.1541L17.8767 28.4639L32.1303 16.5947C32.4726 16.3097 32.519 15.8012 32.234 15.459L23.9772 5.54342C23.6922 5.20114 23.1837 5.15476 22.8414 5.43975ZM16.5866 26.9146C16.7292 27.0859 16.706 27.3399 16.5348 27.4825C16.3635 27.6251 16.1095 27.6019 15.9669 27.4307L15.4508 26.8109C15.3082 26.6397 15.3314 26.3857 15.5027 26.2431C15.674 26.1004 15.928 26.1236 16.0706 26.2949L16.5866 26.9146ZM15.0384 25.0554C15.1811 25.2267 15.1579 25.4807 14.9866 25.6233C14.8153 25.7659 14.5613 25.7427 14.4187 25.5715L13.9027 24.9518C13.76 24.7805 13.7833 24.5265 13.9545 24.3839C14.1258 24.2412 14.3798 24.2645 14.5224 24.4357L15.0384 25.0554ZM13.4903 23.1963C13.6329 23.3676 13.6097 23.6216 13.4385 23.7642C13.2672 23.9068 13.0132 23.8836 12.8706 23.7123L12.3545 23.0926C12.2119 22.9213 12.2351 22.6673 12.4064 22.5247C12.5777 22.3821 12.8316 22.4053 12.9742 22.5766L13.4903 23.1963ZM11.9422 21.3371C12.0848 21.5084 12.0616 21.7624 11.8903 21.905C11.719 22.0476 11.465 22.0244 11.3224 21.8532L10.8064 21.2335C10.6638 21.0622 10.687 20.8082 10.8582 20.6656C11.0295 20.5229 11.2835 20.5462 11.4261 20.7174L11.9422 21.3371ZM10.394 19.4779C10.5366 19.6492 10.5134 19.9032 10.3421 20.0458C10.1709 20.1885 9.91686 20.1652 9.77426 19.994L9.25821 19.3743C9.11558 19.203 9.1388 18.949 9.31005 18.8064C9.48134 18.6637 9.73533 18.687 9.87793 18.8582L10.394 19.4779Z" fill="#FFC350"/>
<path d="M31.3045 16.233L18.2903 27.0701C18.1192 27.2126 17.8649 27.1894 17.7224 27.0183L9.98166 17.7224C9.83915 17.5513 9.86235 17.2971 10.0335 17.1545L23.0477 6.31746C23.2188 6.17495 23.473 6.19815 23.6155 6.36929L31.3563 15.6651C31.4988 15.8363 31.4756 16.0905 31.3045 16.233Z" fill="#FFD164"/>
<path d="M22.1957 19.0486L21.4292 21.3944C21.2603 21.9113 20.5474 21.9585 20.3119 21.4683L19.2431 19.244L16.7753 19.2399C16.2314 19.239 15.9663 18.5755 16.3597 18.2L18.1449 16.4962L17.3862 14.148C17.219 13.6304 17.768 13.1732 18.2468 13.4314L20.4188 14.6027L22.4177 13.1555C22.8582 12.8365 23.4627 13.2174 23.3651 13.7524L22.9224 16.1802L24.9164 17.634C25.3559 17.9544 25.1805 18.647 24.6414 18.7195L22.1957 19.0486Z" fill="white"/>
<path d="M24.0479 17.0007C21.9378 18.55 19.2006 18.7246 16.9653 17.6222L16.3598 18.2C15.9664 18.5755 16.2315 19.239 16.7754 19.2398L19.2432 19.2439L20.3119 21.4683C20.5475 21.9585 21.2603 21.9113 21.4293 21.3943L22.1958 19.0486L24.6414 18.7195C25.1804 18.647 25.3559 17.9544 24.9164 17.634L24.0479 17.0007Z" fill="#FFF6D8"/>
<path opacity="0.5" fill-rule="evenodd" clip-rule="evenodd" d="M10.8378 28.8327L10.7512 28.7287C10.6211 28.5726 10.5743 28.3601 10.6387 28.1673C10.9382 27.2711 10.7828 26.2461 10.1336 25.4666C9.48449 24.687 8.50464 24.3486 7.56899 24.4809C7.36773 24.5094 7.16732 24.4249 7.03724 24.2687L4.7658 21.5409C4.48078 21.1987 4.52723 20.6902 4.86947 20.4052L7.9681 17.8249L8.22612 18.1348C8.36872 18.306 8.62271 18.3292 8.794 18.1866C8.96525 18.044 8.98847 17.79 8.84584 17.6187L8.58781 17.3088L22.8414 5.43967C23.1776 5.15972 23.6742 5.19953 23.9618 5.52545C23.5753 13.2436 20.2719 20.1933 15.1315 25.2946C15.1276 25.2098 15.097 25.1256 15.0384 25.0554L14.5224 24.4356C14.3798 24.2644 14.1258 24.2412 13.9545 24.3838C13.7833 24.5264 13.76 24.7804 13.9027 24.9517L14.4187 25.5714C14.4916 25.6589 14.5935 25.7078 14.6987 25.7156C13.5017 26.8569 12.2104 27.9002 10.8378 28.8327ZM13.4903 23.1962C13.6329 23.3675 13.6097 23.6215 13.4385 23.7641C13.2672 23.9067 13.0132 23.8835 12.8706 23.7122L12.3545 23.0925C12.2119 22.9212 12.2351 22.6673 12.4064 22.5246C12.5777 22.382 12.8316 22.4052 12.9742 22.5765L13.4903 23.1962ZM11.9422 21.337C12.0848 21.5083 12.0616 21.7623 11.8903 21.9049C11.719 22.0476 11.465 22.0243 11.3224 21.8531L10.8064 21.2334C10.6638 21.0621 10.687 20.8081 10.8582 20.6655C11.0295 20.5229 11.2835 20.5461 11.4261 20.7173L11.9422 21.337ZM10.394 19.4779C10.5366 19.6491 10.5134 19.9031 10.3421 20.0457C10.1709 20.1884 9.91686 20.1652 9.77426 19.9939L9.25821 19.3742C9.11558 19.2029 9.1388 18.9489 9.31005 18.8063C9.48134 18.6637 9.73533 18.6869 9.87793 18.8581L10.394 19.4779Z" fill="url(#paint0_linear)"/>
</g>
<defs>
<linearGradient id="paint0_linear" x1="20" y1="34" x2="0.999997" y2="4" gradientUnits="userSpaceOnUse">
<stop stop-color="white"/>
<stop offset="1" stop-color="white" stop-opacity="0"/>
</linearGradient>
<clipPath id="clip0">
<rect width="25" height="25" fill="white" transform="translate(0.895508 16.8931) rotate(-39.7846)"/>
</clipPath>
</defs>
</svg>
