<svg width="16" height="18" viewBox="0 0 16 18" fill="none" xmlns="http://www.w3.org/2000/svg">
<path d="M15.4824 2.75H11.125V0.875C11.125 0.70924 11.0592 0.550268 10.9419 0.433058C10.8247 0.315848 10.6658 0.25 10.5 0.25H5.5C5.33424 0.25 5.17527 0.315848 5.05806 0.433058C4.94085 0.550268 4.875 0.70924 4.875 0.875V2.75H0.517578L0.5 4.3125H1.78906L2.57383 16.5781C2.59369 16.8953 2.73363 17.193 2.96518 17.4107C3.19673 17.6284 3.5025 17.7497 3.82031 17.75H12.1797C12.4973 17.75 12.803 17.629 13.0347 17.4117C13.2664 17.1944 13.4066 16.8971 13.427 16.5801L14.2109 4.3125H15.5L15.4824 2.75ZM4.875 15.25L4.52344 5.25H5.8125L6.16406 15.25H4.875ZM8.625 15.25H7.375V5.25H8.625V15.25ZM9.5625 2.75H6.4375V1.65625C6.4375 1.61481 6.45396 1.57507 6.48326 1.54576C6.51257 1.51646 6.55231 1.5 6.59375 1.5H9.40625C9.44769 1.5 9.48743 1.51646 9.51674 1.54576C9.54604 1.57507 9.5625 1.61481 9.5625 1.65625V2.75ZM11.125 15.25H9.83594L10.1875 5.25H11.4766L11.125 15.25Z" fill="#6C7883"/>
</svg>
