<svg width="25" height="25" viewBox="0 0 25 25" fill="none" xmlns="http://www.w3.org/2000/svg">
<path d="M9.2002 4.2002L14.5 14.1002H17.9502C18.8302 14.1002 19.4902 13.6602 19.8202 13.0002L23.7802 5.8502C24.0002 5.6302 24.0002 5.5202 24.0002 5.3002C24.0002 4.6402 23.5602 4.2002 22.9002 4.2002H9.2002Z" fill="white"/>
<path d="M8.6 19.6C7.39 19.6 6.4 20.59 6.4 21.8C6.4 23.01 7.39 24 8.6 24C9.81 24 10.8 23.01 10.8 21.8C10.8 20.59 9.81 19.6 8.6 19.6ZM19.6 19.6C18.39 19.6 17.4 20.59 17.4 21.8C17.4 23.01 18.39 24 19.6 24C20.81 24 21.8 23.01 21.8 21.8C21.8 20.59 20.81 19.6 19.6 19.6Z" fill="#429BDB"/>
<path d="M2 2V4.2H4.2L8.16 12.56L6.62 15.2C6.51 15.53 6.4 15.97 6.4 16.3C6.4 17.51 7.39 18.5 8.6 18.5H21.8V16.3H9.04C8.93 16.3 8.82 16.19 8.82 16.08V15.97L9.81 14.1H12L5.63 2H2Z" fill="#429BDB"/>
</svg>
