<svg width="15" height="15" viewBox="0 0 15 15" fill="none" xmlns="http://www.w3.org/2000/svg">
<path fill-rule="evenodd" clip-rule="evenodd" d="M14.0625 4.20974H11.0963C11.3091 4.06442 11.4919 3.92005 11.6194 3.79067C12.3759 3.03036 12.3759 1.79286 11.6194 1.03255C10.8844 0.291924 9.60375 0.293799 8.86969 1.03255C8.46281 1.44036 7.38469 3.10067 7.53375 4.20974H7.46625C7.61438 3.10067 6.53625 1.44036 6.13031 1.03255C5.39531 0.293799 4.11469 0.293799 3.38063 1.03255C2.625 1.79286 2.625 3.03036 3.37969 3.79067C3.50813 3.92005 3.69094 4.06442 3.90375 4.20974H0.9375C0.420938 4.20974 0 4.63067 0 5.14724V6.55349C0 6.81224 0.21 7.02224 0.46875 7.02224H6.5625V5.14724H8.4375V7.02224H14.5312C14.79 7.02224 15 6.81224 15 6.55349V5.14724C15 4.63067 14.58 4.20974 14.0625 4.20974ZM6.50719 4.1788C6.50719 4.1788 6.46781 4.20974 6.33375 4.20974C5.68594 4.20974 4.44938 3.53661 4.04531 3.12974C3.6525 2.73411 3.6525 2.08911 4.04531 1.69349C4.23563 1.50224 4.48781 1.39724 4.75594 1.39724C5.02313 1.39724 5.27531 1.50224 5.46562 1.69349C6.0975 2.32911 6.72563 3.95286 6.50719 4.1788ZM8.66531 4.20974C8.53219 4.20974 8.49281 4.1788 8.49281 4.1788C8.27437 3.95286 8.9025 2.32911 9.53438 1.69349C9.91219 1.31192 10.5731 1.31005 10.9547 1.69349C11.3484 2.08911 11.3484 2.73411 10.9547 3.12974C10.5506 3.53661 9.31406 4.20974 8.66531 4.20974Z" fill="#6C7883"/>
<path d="M0.9375 7.95972V13.5847C0.9375 14.1022 1.35844 14.5222 1.875 14.5222H6.5625V7.95972H0.9375Z" fill="#6C7883"/>
<path d="M8.4375 14.5222V7.95972H14.0625V13.5847C14.0625 14.1022 13.6425 14.5222 13.125 14.5222H8.4375Z" fill="#6C7883"/>
</svg>
