<svg width="25" height="25" viewBox="0 0 25 25" fill="none" xmlns="http://www.w3.org/2000/svg">
<path d="M24.0658 16.8962C23.5888 16.8603 22.5988 17.4143 22.3321 17.558C21.3677 18.0606 20.0289 18.8506 19.1518 19.4815C19.0902 19.5225 19.0082 19.579 18.9466 19.62C18.5516 19.8867 18.131 20.0611 17.6694 20.1637C15.1149 20.728 11.3857 20.7895 11.3857 20.7895L11.1703 20.7998C11.0062 20.81 10.8625 20.6921 10.8369 20.5279C10.8112 20.3484 10.9395 20.1791 11.1241 20.1637L16.664 19.6149C17.2744 19.5482 17.7617 18.9532 17.695 18.2863C17.6283 17.6195 17.0384 17.1322 16.428 17.204L11.4986 17.1425C11.1652 17.1373 10.6266 17.0501 10.3034 16.9527C7.12827 15.9883 5.33808 16.8911 4.38399 17.3117C4.17368 16.9475 3.76846 16.7116 3.31706 16.7424L1.19345 16.8911C0.485582 16.9424 -0.0478848 17.5528 0.00341011 18.2607L0.341956 23.1542C0.393251 23.8621 1.00366 24.3956 1.71153 24.3443L3.83514 24.1955C4.2814 24.1647 4.65073 23.8775 4.80974 23.4876L14.1403 23.9031C15.1816 24.016 16.1562 23.8877 17.0692 23.3902L17.336 23.2466L24.3941 18.9634C24.7429 18.7531 24.9892 18.3889 24.9994 17.9837C25.0148 17.4913 24.7378 16.9475 24.0658 16.8962ZM2.48608 23.185C2.08598 23.185 1.76282 22.8618 1.76282 22.4617C1.76282 22.0616 2.08598 21.7385 2.48608 21.7385C2.88618 21.7385 3.20934 22.0616 3.20934 22.4617C3.20934 22.8567 2.88618 23.185 2.48608 23.185Z" fill="green"/>
<path d="M18.7107 17.6754C18.762 17.8344 18.803 17.9985 18.8184 18.1729C18.8338 18.3114 18.8338 18.4499 18.8235 18.5833C18.8954 18.532 18.9723 18.4756 19.0441 18.4243C19.7622 17.9011 21.2395 17.0701 22.0705 16.6341C22.3219 16.5007 22.5886 16.3725 22.8707 16.2648C22.5065 16.0134 22.1167 16.0031 21.7166 16.1622C20.9215 16.4853 19.4647 17.2188 18.721 17.6395C18.721 17.6548 18.7158 17.6651 18.7107 17.6754Z" fill="white"/>
<path d="M19.8135 15.5871C19.3262 15.7872 18.2285 16.1565 17.7412 16.4232C17.9515 16.5566 18.1362 16.7208 18.2952 16.9157C18.326 16.8952 18.3568 16.8695 18.3927 16.849L18.7466 16.6438C19.2698 16.3463 20.3778 15.9411 20.9523 15.6743C20.5881 15.4332 20.2034 15.423 19.8135 15.5871Z" fill="white"/>
<path d="M7.56926 7.81122C7.64107 7.91381 7.63594 7.98562 7.56926 8.08821C7.25636 8.56012 6.94859 9.03203 6.65108 9.50908C6.36383 9.97073 6.54336 10.5042 7.05118 10.6991C7.57951 10.9043 8.10272 11.1043 8.63106 11.2993C8.74391 11.3403 8.77982 11.3967 8.78495 11.5096C8.81059 12.043 8.86702 12.5765 8.86189 13.11C8.85676 13.6537 9.3338 14.1307 9.98012 13.9256C10.4931 13.7614 11.0214 13.6434 11.5395 13.4947C11.6421 13.4639 11.7036 13.4844 11.7754 13.5716C12.1191 14.0025 12.4679 14.4334 12.8219 14.8591C13.2066 15.3259 13.7606 15.3259 14.1401 14.8591C14.4889 14.4283 14.8326 14.0025 15.1763 13.5665C15.243 13.4844 15.2994 13.4537 15.4071 13.4844C15.9457 13.6332 16.4843 13.7768 17.028 13.9204C17.582 14.0692 18.0488 13.7306 18.0796 13.1613C18.1104 12.6022 18.1411 12.0482 18.1617 11.4891C18.1668 11.3608 18.2232 11.3095 18.3309 11.2685C18.8439 11.0787 19.3517 10.8787 19.8595 10.6786C20.4084 10.4632 20.5828 9.9297 20.2647 9.43726C19.9621 8.97561 19.6646 8.50883 19.3568 8.0523C19.285 7.94971 19.2901 7.8779 19.3568 7.77531C19.6543 7.32391 19.9467 6.87252 20.2391 6.416C20.5828 5.88253 20.4032 5.34906 19.8082 5.13362C19.3004 4.94896 18.7977 4.74891 18.295 4.56425C18.1873 4.52321 18.1463 4.46679 18.1411 4.34881C18.1155 3.79483 18.0847 3.24597 18.0539 2.69712C18.0232 2.11235 17.5615 1.77894 16.9973 1.92769C16.4638 2.07132 15.9303 2.20981 15.402 2.3637C15.2789 2.39961 15.2173 2.36883 15.1404 2.2765C14.8018 1.85075 14.453 1.425 14.1094 1.00438C13.7349 0.537601 13.1707 0.537601 12.7911 1.00438C12.4525 1.425 12.1089 1.84049 11.7806 2.27137C11.6882 2.38935 11.6062 2.40986 11.4728 2.36883C10.9547 2.22007 10.4315 2.08671 10.0571 1.98412C9.32867 1.80971 8.90292 2.10722 8.86189 2.70225C8.82085 3.26136 8.80033 3.81534 8.77982 4.37446C8.77469 4.49244 8.73365 4.54373 8.63106 4.58477C8.10785 4.77969 7.58464 4.97974 7.06657 5.18492C6.52797 5.40036 6.3587 5.92869 6.67672 6.416C6.95885 6.88791 7.26149 7.34956 7.56926 7.81122ZM11.4933 10.1657C11.5446 9.98099 11.5959 9.79633 11.6523 9.61167C11.719 9.39623 11.7754 9.37058 11.9704 9.47317C12.3038 9.64757 12.6628 9.74503 13.0322 9.7912C13.2733 9.82198 13.5092 9.79633 13.7298 9.69887C14.1453 9.51934 14.2119 9.03716 13.858 8.74991C13.74 8.65245 13.6015 8.58064 13.463 8.51909C13.0988 8.36007 12.7193 8.23696 12.3756 8.03178C11.8165 7.69837 11.4625 7.24184 11.5087 6.55962C11.5549 5.7902 11.9909 5.31316 12.6936 5.05668C12.986 4.94896 12.986 4.95409 12.986 4.65145C12.986 4.54886 12.986 4.44627 12.986 4.34368C12.9911 4.11285 13.0322 4.07695 13.2579 4.07182C13.3297 4.07182 13.3964 4.07182 13.4682 4.07182C13.9503 4.07182 13.9503 4.07182 13.9555 4.55399C13.9555 4.89767 13.9555 4.89767 14.2991 4.95409C14.5608 4.99513 14.8121 5.07207 15.0532 5.17979C15.1866 5.23621 15.2378 5.33367 15.1968 5.47217C15.1353 5.68248 15.0788 5.89279 15.0121 6.09797C14.9506 6.29289 14.8839 6.32366 14.6992 6.23133C14.3197 6.04667 13.9247 5.96973 13.5041 5.99538C13.3964 6.00051 13.2886 6.01589 13.186 6.06206C12.827 6.22107 12.7654 6.61605 13.0732 6.86226C13.2271 6.98537 13.4066 7.0777 13.5913 7.15464C13.9093 7.28801 14.2325 7.41625 14.5351 7.58039C15.5046 8.11386 15.7611 9.32955 15.084 10.1605C14.8377 10.458 14.5197 10.6632 14.1453 10.7658C13.9811 10.812 13.9093 10.894 13.9144 11.0633C13.9196 11.2275 13.9144 11.3967 13.9144 11.5609C13.9144 11.7096 13.8375 11.7917 13.6939 11.7917C13.5143 11.7968 13.3348 11.7968 13.1553 11.7917C12.9963 11.7866 12.9244 11.6994 12.9244 11.5455C12.9244 11.4224 12.9244 11.3044 12.9193 11.1813C12.9142 10.9146 12.9091 10.8992 12.6475 10.8633C12.3192 10.812 11.9909 10.735 11.6882 10.5914C11.4472 10.4734 11.4266 10.4119 11.4933 10.1657Z" fill="green"/>
</svg>
