<svg width="30" height="30" viewBox="0 0 30 30" fill="none" xmlns="http://www.w3.org/2000/svg">
<path fill-rule="evenodd" clip-rule="evenodd" d="M15 2.43243C8.05912 2.43243 2.43243 8.05912 2.43243 15C2.43243 21.9409 8.05912 27.5676 15 27.5676C15.6717 27.5676 16.2162 28.1121 16.2162 28.7838C16.2162 29.4555 15.6717 30 15 30C6.71573 30 0 23.2843 0 15C0 6.71573 6.71573 0 15 0C23.2843 0 30 6.71573 30 15C30 15.6717 29.4555 16.2162 28.7838 16.2162C28.1121 16.2162 27.5676 15.6717 27.5676 15C27.5676 8.05912 21.9409 2.43243 15 2.43243Z" fill="#5288C1"/>
<path d="M16.5674 18.4237C16.5674 17.9233 16.4439 17.5306 16.1968 17.2455C15.9498 16.9605 15.5159 16.6913 14.8951 16.4379C14.2743 16.1845 13.7011 15.928 13.1753 15.6683C12.6495 15.4085 12.1966 15.1077 11.8166 14.7656C11.4365 14.4235 11.1451 14.0276 10.9424 13.5779C10.7397 13.1281 10.6384 12.5834 10.6384 11.9436C10.6384 10.8731 10.9994 9.99258 11.7215 9.30213C12.4437 8.60534 13.4065 8.19993 14.6101 8.08591V6.08105H16.1208V8.12392C17.28 8.29495 18.189 8.7732 18.8478 9.55867C19.5129 10.3378 19.8455 11.3292 19.8455 12.5327H16.6339C16.6339 11.8739 16.5072 11.3672 16.2539 11.0124C16.0005 10.6577 15.6394 10.4803 15.1707 10.4803C14.7526 10.4803 14.4264 10.6134 14.192 10.8794C13.9639 11.1391 13.8499 11.5002 13.8499 11.9626C13.8499 12.4314 13.9829 12.8051 14.249 13.0838C14.515 13.3562 14.9426 13.6191 15.5317 13.8724C16.1208 14.1195 16.6751 14.3792 17.1945 14.6516C17.7203 14.9176 18.1732 15.2217 18.5533 15.5637C18.9333 15.9058 19.231 16.3049 19.4464 16.761C19.6618 17.217 19.7695 17.765 19.7695 18.4047C19.7695 19.4879 19.4243 20.3716 18.7338 21.0557C18.0497 21.7398 17.1153 22.1389 15.9308 22.2529V24.1628H14.42V22.2434C13.0391 22.0977 11.9781 21.6258 11.237 20.8277C10.5022 20.0232 10.1348 18.9653 10.1348 17.6541H13.3368C13.3368 18.3762 13.4952 18.9273 13.8119 19.3074C14.135 19.6811 14.5911 19.868 15.1802 19.868C15.6109 19.868 15.9498 19.7413 16.1968 19.4879C16.4439 19.2282 16.5674 18.8735 16.5674 18.4237Z" fill="#5288C1"/>
<path d="M25.878 23.6846H28.578V25.973H25.878V29.0689H23.3838V25.973H20.6758V23.6846H23.3838V20.6758H25.878V23.6846Z" fill="#5288C1"/>
</svg>
