<svg width="25" height="25" viewBox="0 0 25 25" fill="none" xmlns="http://www.w3.org/2000/svg">
<g clip-path="url(#clip0)">
<path d="M12.4922 10.5661C12.8962 10.5661 13.2246 10.8944 13.2246 11.2986C13.2246 11.7033 13.5521 12.031 13.957 12.031C14.3618 12.031 14.6895 11.7033 14.6895 11.2986C14.6895 10.3479 14.0791 9.54418 13.2324 9.23862V8.1543C13.2324 7.74937 12.9048 7.42188 12.5 7.42188C12.0953 7.42188 11.7676 7.74937 11.7676 8.1543V9.23386C10.9129 9.53484 10.2949 10.342 10.2949 11.2986C10.2949 12.5101 11.2805 13.4958 12.4922 13.4958C12.8962 13.4958 13.2246 13.8241 13.2246 14.2282C13.2246 14.6322 12.8962 14.9607 12.4922 14.9607C12.088 14.9607 11.7598 14.6322 11.7598 14.2282C11.7598 13.8233 11.4321 13.4958 11.0273 13.4958C10.6224 13.4958 10.2949 13.8233 10.2949 14.2282C10.2949 15.1846 10.9129 15.9918 11.7676 16.293V16.9434C11.7676 17.3481 12.0953 17.6758 12.5 17.6758C12.9048 17.6758 13.2324 17.3481 13.2324 16.9434V16.288C14.0791 15.9824 14.6895 15.1789 14.6895 14.2281C14.6895 13.0165 13.7037 12.0308 12.4922 12.0308C12.088 12.0308 11.7598 11.7025 11.7598 11.2984C11.7598 10.8944 12.088 10.5661 12.4922 10.5661Z" fill="white"/>
<path d="M19.3543 20.0554L18.5368 18.8296C18.2915 18.4631 17.7729 18.3874 17.4338 18.6943C16.0828 19.9267 14.3303 20.6055 12.5 20.6055C12.5 20.4581 12.5 19.7264 12.5 19.874C12.5 19.3297 11.9271 18.9755 11.4401 19.2188L7.778 21.4154C7.23822 21.6852 7.23822 22.4554 7.778 22.7255L11.4401 24.9705C11.9271 25.214 12.5 24.86 12.5 24.3155C12.5 24.1679 12.5 23.4366 12.5 23.584C14.9748 23.584 17.3638 22.6397 19.2263 21.0133C19.5038 20.7714 19.5582 20.3615 19.3543 20.0554Z" fill="white"/>
<path d="M5.83 11.4888L3.63369 7.82673C3.36361 7.28676 2.59342 7.28676 2.32353 7.82673L0.0781999 11.4888C-0.165178 11.9758 0.189017 12.5487 0.733374 12.5487C0.881003 12.5487 1.66111 12.5487 1.51367 12.5487C1.51367 15.0235 2.40917 17.4125 4.03557 19.275C4.27742 19.5527 4.6875 19.6069 4.99344 19.403L6.22005 18.5855C6.59561 18.3341 6.65493 17.8098 6.35452 17.4827C5.12218 16.1315 4.44336 14.3787 4.44336 12.5484C4.5908 12.5484 5.32227 12.5484 5.17483 12.5484C5.71938 12.5484 6.07338 11.9758 5.83 11.4888Z" fill="white"/>
<path d="M7.56632 6.40335C8.9173 5.17101 10.6698 4.49219 12.5001 4.49219C12.5001 4.63962 12.5001 5.37109 12.5001 5.22366C12.5001 5.76801 13.073 6.12221 13.56 5.87864L17.2221 3.68233C17.7619 3.41244 17.7619 2.64225 17.2221 2.37217L13.56 0.127028C13.073 -0.11635 12.5001 0.237845 12.5001 0.782202C12.5001 0.92964 12.5001 1.71013 12.5001 1.5625C10.0253 1.5625 7.63632 2.458 5.77379 4.08459C5.49628 4.32625 5.44192 4.73614 5.64581 5.04227L6.4633 6.26812C6.71221 6.64005 7.23406 6.70567 7.56632 6.40335Z" fill="white"/>
<path d="M22.6765 17.2709L24.9219 13.6087C25.1652 13.1218 24.811 12.5488 24.2667 12.5488C24.1191 12.5488 23.3389 12.5488 23.4864 12.5488C23.4864 10.074 22.5909 7.68509 20.9645 5.82257C20.7234 5.54428 20.3135 5.48935 20.0066 5.69458L18.7808 6.51207C18.4077 6.76174 18.3444 7.2836 18.6455 7.61509C19.8779 8.96607 20.5567 10.7185 20.5567 12.5488C20.4093 12.5488 19.6778 12.5488 19.8252 12.5488C19.2807 12.5488 18.9267 13.1218 19.17 13.6087L21.3664 17.2709C21.6364 17.8106 22.4066 17.8106 22.6765 17.2709Z" fill="white"/>
</g>
<defs>
<clipPath id="clip0">
<rect width="25" height="25" fill="white"/>
</clipPath>
</defs>
</svg>
