<svg width="21" height="21" viewBox="0 0 21 21" fill="none" xmlns="http://www.w3.org/2000/svg">
<path d="M20.1128 10.5C20.1128 12.2448 19.6701 13.8594 18.7847 15.3438C17.9253 16.8281 16.7534 18 15.269 18.8594C13.7847 19.7448 12.1701 20.1875 10.4253 20.1875C9.3055 20.1875 8.22477 19.9922 7.1831 19.6016C6.14143 19.237 5.19091 18.7161 4.33154 18.0391C4.1232 17.8568 4.00602 17.6354 3.97998 17.375C3.97998 17.0885 4.08414 16.8411 4.29248 16.6328L4.72216 16.2031C4.87841 16.0469 5.07373 15.9688 5.3081 15.9688C5.56852 15.9427 5.78987 15.9948 5.97216 16.125C7.27425 17.1667 8.75862 17.6875 10.4253 17.6875C11.7274 17.6875 12.9253 17.375 14.019 16.75C15.1388 16.099 16.0112 15.2266 16.6362 14.1328C17.2873 13.013 17.6128 11.8021 17.6128 10.5C17.6128 9.19792 17.2873 8 16.6362 6.90625C16.0112 5.78646 15.1388 4.91406 14.019 4.28906C12.9253 3.63802 11.7274 3.3125 10.4253 3.3125C9.48779 3.3125 8.58935 3.48177 7.72998 3.82031C6.89664 4.15885 6.15445 4.64062 5.50341 5.26562L7.4956 7.25781C7.67789 7.4401 7.71695 7.66146 7.61279 7.92188C7.50862 8.18229 7.31331 8.3125 7.02685 8.3125H1.36279C1.1805 8.3125 1.02425 8.26042 0.894038 8.15625C0.789872 8.02604 0.737788 7.86979 0.737788 7.6875V2.02344C0.737788 1.73698 0.867997 1.54167 1.12841 1.4375C1.38883 1.33333 1.61018 1.3724 1.79248 1.55469L3.7456 3.50781C4.63102 2.64844 5.64664 1.98438 6.79248 1.51562C7.93831 1.04688 9.14925 0.8125 10.4253 0.8125C12.1701 0.8125 13.7847 1.25521 15.269 2.14062C16.7534 3 17.9253 4.17188 18.7847 5.65625C19.6701 7.11458 20.1128 8.72917 20.1128 10.5ZM13.0425 13.5469L13.4331 13.0781C13.5894 12.8698 13.6545 12.6354 13.6284 12.375C13.6024 12.1146 13.4852 11.9062 13.2769 11.75L11.6753 10.5V6.4375C11.6753 6.17708 11.5841 5.95573 11.4019 5.77344C11.2196 5.59115 10.9982 5.5 10.7378 5.5H10.1128C9.85237 5.5 9.63102 5.59115 9.44873 5.77344C9.26643 5.95573 9.17529 6.17708 9.17529 6.4375V11.75L11.7144 13.7422C11.9227 13.8984 12.1571 13.9635 12.4175 13.9375C12.6779 13.8854 12.8862 13.7552 13.0425 13.5469Z" fill="white"/>
</svg>
