<svg width="19" height="21" viewBox="0 0 19 21" fill="none" xmlns="http://www.w3.org/2000/svg">
<path d="M9.42529 10.5C10.3367 10.5 11.1701 10.2786 11.9253 9.83594C12.7065 9.39323 13.3185 8.79427 13.7612 8.03906C14.2039 7.25781 14.4253 6.41146 14.4253 5.5C14.4253 4.58854 14.2039 3.75521 13.7612 3C13.3185 2.21875 12.7065 1.60677 11.9253 1.16406C11.1701 0.721354 10.3367 0.5 9.42529 0.5C8.51383 0.5 7.66748 0.721354 6.88623 1.16406C6.13102 1.60677 5.53206 2.21875 5.08935 3C4.64664 3.75521 4.42529 4.58854 4.42529 5.5C4.42529 6.41146 4.64664 7.25781 5.08935 8.03906C5.53206 8.79427 6.13102 9.39323 6.88623 9.83594C7.66748 10.2786 8.51383 10.5 9.42529 10.5ZM12.9409 11.75H12.2769C11.3654 12.1667 10.4149 12.375 9.42529 12.375C8.4357 12.375 7.48518 12.1667 6.57373 11.75H5.90966C4.97216 11.75 4.09977 11.9844 3.29248 12.4531C2.48518 12.9219 1.84716 13.5599 1.37841 14.3672C0.909663 15.1745 0.675288 16.0469 0.675288 16.9844V18.625C0.675288 19.1458 0.85758 19.5885 1.22216 19.9531C1.58675 20.3177 2.02945 20.5 2.55029 20.5H16.3003C16.8211 20.5 17.2638 20.3177 17.6284 19.9531C17.993 19.5885 18.1753 19.1458 18.1753 18.625V16.9844C18.1753 16.0469 17.9409 15.1745 17.4722 14.3672C17.0034 13.5599 16.3654 12.9219 15.5581 12.4531C14.7508 11.9844 13.8784 11.75 12.9409 11.75Z" fill="white"/>
</svg>
