<svg width="25" height="25" viewBox="0 0 25 25" fill="none" xmlns="http://www.w3.org/2000/svg">
<path d="M5.84231 5.06919L15.8086 2.3488L15.2808 1.28199C14.9355 0.588556 14.0933 0.3022 13.3999 0.647512L4.47791 5.06919H5.84231Z" fill="white"/>
<path d="M18.9023 2.42749C18.7788 2.42749 18.6552 2.44433 18.5317 2.47802L16.1903 3.11811L9.03979 5.06926H17.156H20.6934L20.2554 3.46343C20.087 2.83737 19.5199 2.42749 18.9023 2.42749Z" fill="white"/>
<path d="M22.1561 6.05176H21.836H21.4009H20.9657H17.6446H5.44076H3.84054H2.49298H2.24312H1.40651C0.962942 6.05176 0.567097 6.2567 0.308815 6.57955C0.190904 6.72834 0.101067 6.8996 0.0505334 7.08769C0.0196519 7.2056 0 7.32913 0 7.45546V7.62391V9.22413V23.0956C0 23.8704 0.62886 24.4993 1.40371 24.4993H22.1533C22.9282 24.4993 23.557 23.8704 23.557 23.0956V19.1792H15.2274C13.9107 19.1792 12.8411 18.1096 12.8411 16.7929V15.5071V15.072V14.6368V13.6711C12.8411 13.0254 13.0994 12.4386 13.5177 12.0091C13.8883 11.6273 14.3852 11.369 14.941 11.3044C15.0337 11.2932 15.1291 11.2876 15.2246 11.2876H22.3891H22.8243H23.2594H23.557V7.45546C23.5598 6.68062 22.9309 6.05176 22.1561 6.05176Z" fill="white"/>
<path d="M24.5423 12.6296C24.4019 12.5004 24.2363 12.4022 24.051 12.3376C23.9078 12.2899 23.7562 12.2618 23.5962 12.2618H23.5597H23.5316H23.0965H21.5271H15.2273C14.4524 12.2618 13.8236 12.8907 13.8236 13.6655V14.3646V14.7997V15.2349V16.7902C13.8236 17.565 14.4524 18.1939 15.2273 18.1939H23.5597H23.5962C23.7562 18.1939 23.9078 18.1658 24.051 18.1181C24.2363 18.0563 24.4019 17.9552 24.5423 17.8261C24.823 17.5706 24.9999 17.2 24.9999 16.7902V13.6655C24.9999 13.2556 24.823 12.885 24.5423 12.6296ZM18.1582 15.5072C18.1582 15.8946 17.8438 16.209 17.4564 16.209H16.9904C16.6029 16.209 16.2885 15.8946 16.2885 15.5072V15.0412C16.2885 14.8166 16.3924 14.6172 16.558 14.4909C16.6787 14.3982 16.8276 14.3393 16.9904 14.3393H17.1083H17.4564C17.8438 14.3393 18.1582 14.6537 18.1582 15.0412V15.5072Z" fill="white"/>
</svg>
