<svg width="9" height="7" viewBox="0 0 9 7" fill="none" xmlns="http://www.w3.org/2000/svg">
<path d="M4.375 3.58203L1.71875 6.23828C1.6276 6.32943 1.51693 6.375 1.38672 6.375C1.25651 6.375 1.14583 6.32943 1.05469 6.23828L0.625 5.78906C0.533854 5.69792 0.488281 5.58724 0.488281 5.45703C0.488281 5.32682 0.533854 5.21615 0.625 5.125L2.5 3.25L0.625 1.375C0.533854 1.28385 0.488281 1.17318 0.488281 1.04297C0.488281 0.91276 0.533854 0.802083 0.625 0.710938L1.05469 0.261719C1.14583 0.170573 1.25651 0.125 1.38672 0.125C1.51693 0.125 1.6276 0.170573 1.71875 0.261719L4.375 2.91797C4.46615 3.00911 4.51172 3.11979 4.51172 3.25C4.51172 3.38021 4.46615 3.49089 4.375 3.58203ZM8.125 2.91797L5.46875 0.261719C5.3776 0.170573 5.26693 0.125 5.13672 0.125C5.00651 0.125 4.89583 0.170573 4.80469 0.261719L4.375 0.710938C4.28385 0.802083 4.23828 0.91276 4.23828 1.04297C4.23828 1.17318 4.28385 1.27734 4.375 1.35547L6.25 3.25L4.375 5.125C4.28385 5.21615 4.23828 5.32682 4.23828 5.45703C4.23828 5.58724 4.28385 5.69792 4.375 5.78906L4.80469 6.23828C4.89583 6.32943 5.00651 6.375 5.13672 6.375C5.26693 6.375 5.3776 6.32943 5.46875 6.23828L8.125 3.58203C8.21615 3.49089 8.26172 3.38021 8.26172 3.25C8.26172 3.11979 8.21615 3.00911 8.125 2.91797Z" fill="white"/>
</svg>
