<svg width="10" height="9" viewBox="0 0 10 9" fill="none" xmlns="http://www.w3.org/2000/svg">
<path d="M4.83244 0C6.1456 0 7.33453 0.504903 8.1976 1.31772C9.05721 2.13402 9.59119 3.25823 9.59119 4.49989C9.59119 5.74156 9.05721 6.86577 8.1976 7.68207C7.3343 8.49488 6.1456 8.99978 4.83244 8.99978C3.51928 8.99978 2.33058 8.49488 1.47096 7.68207C0.607665 6.86577 0.0771484 5.74177 0.0771484 4.49989C0.0771484 3.25823 0.607435 2.13402 1.47073 1.31772C2.33058 0.504903 3.51928 0 4.83244 0ZM7.25779 4.2543C7.40044 4.2543 7.51383 4.365 7.51383 4.49989C7.51383 4.63478 7.40044 4.74548 7.25779 4.74548H4.83981H4.83244C4.73726 4.74548 4.65314 4.69362 4.60936 4.62105L4.60567 4.61756L4.60198 4.61059V4.6071L4.59829 4.60013L4.59461 4.59316V4.58967L4.59092 4.5827L4.58723 4.57921V4.57224L4.58354 4.56527V4.56178L4.57986 4.55481V4.54783V4.54435V4.54086L4.57617 4.53737V4.5304V4.52343V4.51732V4.51384V4.50686V4.49989V1.57028C4.57617 1.43539 4.68956 1.32818 4.83221 1.32818C4.97486 1.32818 5.09194 1.43539 5.09194 1.57028V4.2543H7.25779ZM7.83186 1.66376C7.06374 0.937459 6.00294 0.491175 4.83244 0.491175C3.66194 0.491175 2.60114 0.937241 1.83302 1.66376C1.06858 2.39006 0.592916 3.39311 0.592916 4.49989C0.592916 5.60667 1.06835 6.60972 1.83302 7.33624C2.60114 8.06254 3.66194 8.50883 4.83244 8.50883C6.00294 8.50883 7.06374 8.06254 7.83186 7.33624C8.59998 6.60994 9.07565 5.60689 9.07565 4.49989C9.07565 3.39311 8.60021 2.39006 7.83186 1.66376Z" fill="white"/>
</svg>
