<svg width="25" height="25" viewBox="0 0 25 25" fill="none" xmlns="http://www.w3.org/2000/svg">
<path d="M8.6104 25C5.91591 15.8425 11.6093 12.4989 11.6093 12.4989C11.2109 17.3854 13.9033 21.1923 13.9033 21.1923C14.8935 20.8842 16.7836 19.444 16.7836 19.444C16.7836 21.1923 15.7863 24.9978 15.7863 24.9978C15.7863 24.9978 19.2775 22.2136 20.3764 17.5894C21.474 12.9651 18.2858 8.32265 18.2858 8.32265C18.4779 11.5956 17.4044 14.8147 15.3011 17.274C15.4063 17.1487 15.4946 17.0095 15.5624 16.8587C15.9402 16.0793 16.5469 14.0534 16.1917 9.36216C15.6916 2.77689 9.90643 0 9.90643 0C10.4051 4.01235 8.90986 4.93677 5.40738 12.5528C1.90491 20.1674 8.6104 25 8.6104 25Z" fill="#00AC63"/>
</svg>
