<svg width="11" height="11" viewBox="0 0 11 11" fill="none" xmlns="http://www.w3.org/2000/svg">
<path d="M0.820312 6.29688L0.304688 5.75781C0.195312 5.64844 0.140625 5.51562 0.140625 5.35938C0.140625 5.20312 0.195312 5.07031 0.304688 4.96094L4.85156 0.414062C4.96094 0.304687 5.09375 0.25 5.25 0.25C5.40625 0.25 5.53906 0.304687 5.64844 0.414062L10.1953 4.96094C10.3047 5.07031 10.3594 5.20312 10.3594 5.35938C10.3594 5.51562 10.3047 5.64844 10.1953 5.75781L9.67969 6.27344C9.57031 6.39844 9.4375 6.46094 9.28125 6.46094C9.125 6.44531 8.99219 6.38281 8.88281 6.27344L6.1875 3.46094V10.1875C6.1875 10.3438 6.13281 10.4766 6.02344 10.5859C5.91406 10.6953 5.78125 10.75 5.625 10.75H4.875C4.71875 10.75 4.58594 10.6953 4.47656 10.5859C4.36719 10.4766 4.3125 10.3438 4.3125 10.1875V3.46094L1.61719 6.27344C1.50781 6.38281 1.375 6.44531 1.21875 6.46094C1.0625 6.46094 0.929688 6.40625 0.820312 6.29688Z" fill="#222830"/>
</svg>
