<svg width="26" height="25" viewBox="0 0 26 25" fill="none" xmlns="http://www.w3.org/2000/svg">
<path d="M26 9.44504L17.389 7.62761L13 0V21.1359L21.0343 24.7272L20.1017 15.9762L26 9.44504Z" fill="url(#paint0_linear)"/>
<path d="M8.61102 7.62761L0 9.44504L5.89836 15.9762L4.96578 24.7272L13 21.1359V0L8.61102 7.62761Z" fill="#E7E7E7"/>
<path d="M1.90697 10.0646L8.81751 8.60603L9.25484 8.51373L9.47775 8.12633L13 2.00505L16.5223 8.12633L16.7452 8.51373L17.1825 8.60603L24.093 10.0646L19.3595 15.3059L19.0599 15.6376L19.1073 16.0821L19.8557 23.105L13.4081 20.2229L13 20.0405L12.5919 20.2229L6.1443 23.105L6.89271 16.0821L6.94008 15.6376L6.64049 15.3059L1.90697 10.0646Z" stroke="#BEBEBE" stroke-width="2"/>
<path opacity="0.5" d="M6.18578 24.1819L4.96578 24.7272L5.89836 15.9762L0 9.44505L8.61102 7.62761L13 0L16.205 5.56995C15.4992 13.0791 11.7418 19.7007 6.18578 24.1819Z" fill="url(#paint1_linear)"/>
<defs>
<linearGradient id="paint0_linear" x1="13.3023" y1="12.0613" x2="26" y2="12.0613" gradientUnits="userSpaceOnUse">
<stop stop-color="#DCDCDC"/>
<stop offset="0.0001" stop-color="#E7E5E5"/>
<stop offset="1" stop-color="#DFDFDF"/>
</linearGradient>
<linearGradient id="paint1_linear" x1="9.06979" y1="24.1544" x2="-10.8837" y2="1.78222" gradientUnits="userSpaceOnUse">
<stop stop-color="white"/>
<stop offset="1" stop-color="white" stop-opacity="0"/>
</linearGradient>
</defs>
</svg>
