<svg width="237" height="58" viewBox="0 0 237 58" fill="none" xmlns="http://www.w3.org/2000/svg">
<g filter="url(#filter0_i)">
<path fill-rule="evenodd" clip-rule="evenodd" d="M69.1864 57.3365L77.5281 57.349L77.4251 57.8367H104.097C109.635 57.8367 114.325 57.1212 118.168 55.6903C122.037 54.2328 124.965 52.1924 126.952 49.5689C128.94 46.919 129.933 43.7921 129.933 40.1882C129.933 36.8493 128.926 34.1066 126.913 31.9601C124.899 29.7872 122.103 28.4755 118.525 28.025V27.866C122.951 27.0445 126.422 25.4546 128.94 23.0961C131.484 20.7377 132.756 17.7698 132.756 14.1924C132.756 9.63448 131.126 6.26907 127.867 4.09613C124.607 1.92318 119.625 0.836712 112.921 0.836712H98.369L96.3334 10.5152C91.1666 17.1544 87.0974 22.7897 84.1258 27.4211C81.181 32.0258 78.4503 36.8312 75.9338 41.8374C73.511 46.6315 71.2619 51.7979 69.1864 57.3365ZM56.2632 0.747559H28.6762H28.6737H28.4563L28.4585 0.748366C18.6356 0.821678 9.10896 5.88208 3.84229 14.8818C-4.0674 28.3979 0.626545 45.6807 14.3265 53.4843C18.6708 55.9588 23.399 57.1829 28.083 57.27L28.0718 57.275L51.4021 57.3099C53.2425 52.3153 55.3159 47.6397 57.6224 43.283C60.0586 38.7319 62.7758 34.3147 65.7742 30.0313C68.7726 25.748 73.0426 20.3134 78.5842 13.7277H53.5264L56.2632 0.747559ZM41.2111 46.75L45.3021 46.768C40.7752 50.9031 34.8505 53.1589 28.7952 53.2003L31.1176 49.2319L41.2111 46.75ZM36.8823 34.2893L44.02 27.1841L50.3373 31.6643L49.4316 40.8495L41.2111 46.75L34.2142 43.9404L36.8823 34.2893ZM19.9808 34.6572L28.4038 40.6308L36.8823 34.2893L38.2096 23.8745L28.402 19.7579L37.696 17.1146L36.512 9.97285L43.9719 16.5738L49.8202 16.811C47.7423 13.2939 44.7351 10.2472 40.9056 8.06591C38.8793 6.91172 36.7554 6.07537 34.5932 5.54117L36.512 9.97285L29.0428 5.42442L20.35 9.58608L22.715 5.5447C16.5441 7.06403 10.9765 10.936 7.50842 16.7651L13.4358 16.8186L20.35 9.58608L18.5251 16.7778L28.402 19.7579L18.4628 23.5036L19.9808 34.6572ZM15.2229 46.3516L22.402 44.2675L19.9808 34.6572L12.461 27.1402L6.83698 32.168L9.82307 22.992L7.04288 17.5828C3.97333 23.2233 3.40293 29.5645 4.98551 35.3318L6.83698 32.168L8.23524 41.4895L15.2229 46.3516ZM15.2229 46.3516L24.4293 48.9499L28.4571 53.2003C24.3528 53.1725 20.1995 52.126 16.3909 49.9566C14.6359 48.957 13.0536 47.7756 11.6543 46.4504L15.2229 46.3516ZM52.1836 35.799C54.0745 29.4363 53.1887 22.6575 49.9551 17.0423L46.8586 22.3336L50.7497 32.4872L52.1836 35.799ZM114.551 17.5313C114.551 15.6233 114.007 14.2851 112.921 13.5166C111.861 12.7216 110.006 12.3242 107.356 12.3242H104.216L101.91 23.0961H107.277C109.396 23.0961 111.132 22.5529 112.484 21.4664C113.862 20.3799 114.551 19.0682 114.551 17.5313ZM111.689 39.8304C111.689 38.267 111.185 37.0083 110.178 36.0543C109.171 35.1003 107.78 34.6233 106.005 34.6233H99.5652L96.9418 46.2698H102.984C105.713 46.2698 107.846 45.7 109.383 44.5606C110.92 43.3946 111.689 41.8179 111.689 39.8304ZM179.182 14.2719H160.858L159.149 22.5794H176.32L173.498 36.0145H156.327L154.538 44.4016H174.134L171.272 57.8367H134.505L146.549 0.836712H182.044L179.182 14.2719ZM233.559 14.2719H217.421L208.239 57.8367H190.988L200.17 14.2719H184.231L187.053 0.836712H236.381L233.559 14.2719Z" fill="white"/>
<path fill-rule="evenodd" clip-rule="evenodd" d="M69.1864 57.3365L77.5281 57.349L77.4251 57.8367H104.097C109.635 57.8367 114.325 57.1212 118.168 55.6903C122.037 54.2328 124.965 52.1924 126.952 49.5689C128.94 46.919 129.933 43.7921 129.933 40.1882C129.933 36.8493 128.926 34.1066 126.913 31.9601C124.899 29.7872 122.103 28.4755 118.525 28.025V27.866C122.951 27.0445 126.422 25.4546 128.94 23.0961C131.484 20.7377 132.756 17.7698 132.756 14.1924C132.756 9.63448 131.126 6.26907 127.867 4.09613C124.607 1.92318 119.625 0.836712 112.921 0.836712H98.369L96.3334 10.5152C91.1666 17.1544 87.0974 22.7897 84.1258 27.4211C81.181 32.0258 78.4503 36.8312 75.9338 41.8374C73.511 46.6315 71.2619 51.7979 69.1864 57.3365ZM56.2632 0.747559H28.6762H28.6737H28.4563L28.4585 0.748366C18.6356 0.821678 9.10896 5.88208 3.84229 14.8818C-4.0674 28.3979 0.626545 45.6807 14.3265 53.4843C18.6708 55.9588 23.399 57.1829 28.083 57.27L28.0718 57.275L51.4021 57.3099C53.2425 52.3153 55.3159 47.6397 57.6224 43.283C60.0586 38.7319 62.7758 34.3147 65.7742 30.0313C68.7726 25.748 73.0426 20.3134 78.5842 13.7277H53.5264L56.2632 0.747559ZM41.2111 46.75L45.3021 46.768C40.7752 50.9031 34.8505 53.1589 28.7952 53.2003L31.1176 49.2319L41.2111 46.75ZM36.8823 34.2893L44.02 27.1841L50.3373 31.6643L49.4316 40.8495L41.2111 46.75L34.2142 43.9404L36.8823 34.2893ZM19.9808 34.6572L28.4038 40.6308L36.8823 34.2893L38.2096 23.8745L28.402 19.7579L37.696 17.1146L36.512 9.97285L43.9719 16.5738L49.8202 16.811C47.7423 13.2939 44.7351 10.2472 40.9056 8.06591C38.8793 6.91172 36.7554 6.07537 34.5932 5.54117L36.512 9.97285L29.0428 5.42442L20.35 9.58608L22.715 5.5447C16.5441 7.06403 10.9765 10.936 7.50842 16.7651L13.4358 16.8186L20.35 9.58608L18.5251 16.7778L28.402 19.7579L18.4628 23.5036L19.9808 34.6572ZM15.2229 46.3516L22.402 44.2675L19.9808 34.6572L12.461 27.1402L6.83698 32.168L9.82307 22.992L7.04288 17.5828C3.97333 23.2233 3.40293 29.5645 4.98551 35.3318L6.83698 32.168L8.23524 41.4895L15.2229 46.3516ZM15.2229 46.3516L24.4293 48.9499L28.4571 53.2003C24.3528 53.1725 20.1995 52.126 16.3909 49.9566C14.6359 48.957 13.0536 47.7756 11.6543 46.4504L15.2229 46.3516ZM52.1836 35.799C54.0745 29.4363 53.1887 22.6575 49.9551 17.0423L46.8586 22.3336L50.7497 32.4872L52.1836 35.799ZM114.551 17.5313C114.551 15.6233 114.007 14.2851 112.921 13.5166C111.861 12.7216 110.006 12.3242 107.356 12.3242H104.216L101.91 23.0961H107.277C109.396 23.0961 111.132 22.5529 112.484 21.4664C113.862 20.3799 114.551 19.0682 114.551 17.5313ZM111.689 39.8304C111.689 38.267 111.185 37.0083 110.178 36.0543C109.171 35.1003 107.78 34.6233 106.005 34.6233H99.5652L96.9418 46.2698H102.984C105.713 46.2698 107.846 45.7 109.383 44.5606C110.92 43.3946 111.689 41.8179 111.689 39.8304ZM179.182 14.2719H160.858L159.149 22.5794H176.32L173.498 36.0145H156.327L154.538 44.4016H174.134L171.272 57.8367H134.505L146.549 0.836712H182.044L179.182 14.2719ZM233.559 14.2719H217.421L208.239 57.8367H190.988L200.17 14.2719H184.231L187.053 0.836712H236.381L233.559 14.2719Z" fill="url(#paint0_linear)"/>
</g>
<path fill-rule="evenodd" clip-rule="evenodd" d="M59.6654 39.6116C61.5523 36.3471 63.5886 33.1536 65.7742 30.0313C68.7726 25.748 73.0426 20.3134 78.5842 13.7277H53.5264L56.2632 0.747559H28.6762H28.6737H28.4563L28.4585 0.748366C18.6356 0.821678 9.10896 5.88208 3.84229 14.8818C-4.0674 28.3979 0.626545 45.6807 14.3265 53.4843C16.7652 54.8733 19.3248 55.8684 21.9296 56.4895C23.9884 55.3831 26.1038 54.2858 28.2739 53.1984C24.2293 53.1411 20.1428 52.0937 16.3909 49.9566C14.6359 48.957 13.0536 47.7756 11.6543 46.4504L15.2229 46.3516L24.4293 48.9499L28.3969 53.1368C28.6014 53.0345 28.8064 52.9322 29.0119 52.8301L31.1176 49.2319L41.2111 46.75L42.0463 46.7537C47.6474 44.3019 53.5289 41.9168 59.6654 39.6116ZM36.8823 34.2893L34.2142 43.9404L41.2111 46.75L49.4316 40.8495L50.3373 31.6643L44.02 27.1841L36.8823 34.2893ZM19.9808 34.6572L28.4038 40.6308L36.8823 34.2893L38.2096 23.8745L28.402 19.7579L37.696 17.1146L36.512 9.97285L43.9719 16.5738L49.8202 16.811C47.7423 13.2939 44.7351 10.2472 40.9056 8.06591C38.8793 6.91172 36.7554 6.07537 34.5932 5.54117L36.512 9.97285L29.0428 5.42442L20.35 9.58608L22.715 5.5447C16.5441 7.06403 10.9765 10.936 7.50842 16.7651L13.4358 16.8186L20.35 9.58608L18.5251 16.7778L28.402 19.7579L18.4628 23.5036L19.9808 34.6572ZM6.83698 32.168L12.461 27.1402L19.9808 34.6572L22.402 44.2675L15.2229 46.3516L8.23524 41.4895L6.83698 32.168ZM6.83698 32.168L4.98551 35.3318C3.40293 29.5645 3.97333 23.2233 7.04288 17.5828L9.82307 22.992L6.83698 32.168ZM235.1 6.93672L236.381 0.836712H187.053L185.041 10.415C202.414 8.40848 219.206 7.26683 235.1 6.93672ZM179.872 11.0354L182.044 0.836712H146.549L143.181 16.7726C148.679 15.7368 154.255 14.7675 159.899 13.8694C166.623 12.7994 173.287 11.8557 179.872 11.0354ZM131.833 19.0271C132.448 17.5629 132.756 15.9513 132.756 14.1924C132.756 9.63448 131.126 6.26907 127.867 4.09613C124.607 1.92318 119.625 0.836712 112.921 0.836712H98.369L96.3334 10.5152C91.1666 17.1544 87.0974 22.7897 84.1258 27.4211C83.1241 28.9874 82.1472 30.577 81.195 32.1897C96.9265 27.2182 113.916 22.7728 131.833 19.0271ZM49.9551 17.0423C53.1887 22.6575 54.0745 29.4363 52.1836 35.799L50.7497 32.4872L46.8586 22.3336L49.9551 17.0423ZM112.921 13.5166C114.007 14.2851 114.551 15.6233 114.551 17.5313C114.551 19.0682 113.862 20.3799 112.484 21.4664C111.132 22.5529 109.396 23.0961 107.277 23.0961H101.91L104.216 12.3242H107.356C110.006 12.3242 111.861 12.7216 112.921 13.5166Z" fill="url(#paint1_linear)"/>
<defs>
<filter id="filter0_i" x="-1.15362" y="0.747559" width="237.535" height="58.2428" filterUnits="userSpaceOnUse" color-interpolation-filters="sRGB">
<feFlood flood-opacity="0" result="BackgroundImageFix"/>
<feBlend mode="normal" in="SourceGraphic" in2="BackgroundImageFix" result="shape"/>
<feColorMatrix in="SourceAlpha" type="matrix" values="0 0 0 0 0 0 0 0 0 0 0 0 0 0 0 0 0 0 127 0" result="hardAlpha"/>
<feOffset dx="-1.15362" dy="1.15362"/>
<feGaussianBlur stdDeviation="0.855367"/>
<feComposite in2="hardAlpha" operator="arithmetic" k2="-1" k3="1"/>
<feColorMatrix type="matrix" values="0 0 0 0 1 0 0 0 0 1 0 0 0 0 1 0 0 0 0.7 0"/>
<feBlend mode="normal" in2="shape" result="effect1_innerShadow"/>
</filter>
<linearGradient id="paint0_linear" x1="7.54084e-07" y1="29.561" x2="236.081" y2="29.561" gradientUnits="userSpaceOnUse">
<stop stop-color="#A1FF81"/>
<stop offset="1" stop-color="#52FF00"/>
</linearGradient>
<linearGradient id="paint1_linear" x1="243.825" y1="3.19589" x2="10.6101" y2="85.4977" gradientUnits="userSpaceOnUse">
<stop stop-color="white"/>
<stop offset="1" stop-color="white" stop-opacity="0"/>
</linearGradient>
</defs>
</svg>
