<svg width="16" height="26" viewBox="0 0 16 26" fill="none" xmlns="http://www.w3.org/2000/svg">
<mask id="mask0" mask-type="alpha" maskUnits="userSpaceOnUse" x="0" y="0" width="16" height="26">
<path d="M15.3261 8.91715C15.2551 8.76461 15.1021 8.6667 14.9335 8.6667H9.79851L14.8663 0.665185C14.9508 0.531732 14.956 0.362731 14.8798 0.224504C14.8035 0.0858205 14.6579 0 14.5002 0H7.56682C7.4026 0 7.25264 0.0927267 7.17901 0.239637L0.678994 13.2397C0.611811 13.3736 0.619174 13.533 0.698037 13.6608C0.777358 13.7887 0.916448 13.8667 1.06681 13.8667H5.52277L0.667264 25.3985C0.58449 25.5957 0.658174 25.8245 0.840581 25.9363C0.91076 25.9792 0.98876 26 1.06635 26C1.19072 26 1.31335 25.9467 1.39831 25.8462L15.265 9.37947C15.3737 9.25038 15.3972 9.07011 15.3261 8.91715Z" fill="black"/>
</mask>
<g mask="url(#mask0)">
<rect x="-9.58887" y="-3" width="32.8857" height="32.8857" fill="white"/>
</g>
</svg>
