<svg width="170" height="41" viewBox="0 0 170 41" fill="none" xmlns="http://www.w3.org/2000/svg">
<path fill-rule="evenodd" clip-rule="evenodd" d="M49.7461 40.9308L55.6937 40.9397L55.6824 40.9931H74.864C78.847 40.9931 82.2202 40.4785 84.9836 39.4494C87.766 38.4013 89.8719 36.9338 91.3012 35.0471C92.7306 33.1413 93.4452 30.8925 93.4452 28.3007C93.4452 25.8994 92.721 23.9269 91.2726 22.3833C89.8243 20.8205 87.8137 19.8772 85.2409 19.5532V19.4389C88.4235 18.8481 90.9201 17.7046 92.7306 16.0085C94.5601 14.3123 95.4749 12.1779 95.4749 9.60508C95.4749 6.32716 94.3028 3.90683 91.9587 2.3441C89.6146 0.781366 86.0318 0 81.2102 0H70.801L69.2808 7.22782C65.565 12.0026 62.6385 16.0554 60.5014 19.3862C58.3836 22.6977 56.4197 26.1537 54.6099 29.754C52.8631 33.2106 51.2418 36.9362 49.7461 40.9308ZM40.4569 0.233352H20.465L20.4665 0.233934C13.4022 0.286713 6.55093 3.92603 2.76329 10.3984C-2.92518 20.1188 0.450597 32.5483 10.3033 38.1604C13.4276 39.94 16.8279 40.8204 20.1965 40.883L20.1884 40.8866L36.9562 40.9117C38.2825 37.3084 39.7774 33.9357 41.4408 30.7937C43.1928 27.5207 45.147 24.3439 47.3034 21.2634C49.4597 18.1829 52.5306 14.2745 56.516 9.5382H38.495L40.4569 0.233352ZM82.3822 12.0063C82.3822 10.6342 81.9916 9.67178 81.2102 9.11911C80.4479 8.54738 79.1138 8.26151 77.2081 8.26151H74.9497L73.2917 16.0085H77.1509C78.6755 16.0085 79.9238 15.6178 80.8957 14.8364C81.8867 14.0551 82.3822 13.1117 82.3822 12.0063ZM80.324 28.0434C80.324 26.919 79.9619 26.0138 79.2377 25.3277C78.5135 24.6416 77.513 24.2986 76.2361 24.2986H71.6051L69.7184 32.6744H74.0635C76.0265 32.6744 77.5606 32.2647 78.666 31.4452C79.7713 30.6067 80.324 29.4727 80.324 28.0434ZM128.864 9.66225H115.686L114.456 15.6368H126.806L124.776 25.2991H112.427L111.14 31.3309H125.233L123.175 40.9931H96.7327L105.394 0H130.922L128.864 9.66225ZM167.97 9.66225H156.364L149.761 40.9931H137.354L143.958 9.66225H132.494L134.524 0H170L167.97 9.66225ZM29.6381 33.3173L32.5802 33.3302C29.3246 36.3041 25.0637 37.9264 20.7089 37.9562L22.3791 35.1022L29.6381 33.3173ZM35.5501 29.0737L29.6381 33.3173L24.6061 31.2967L26.5249 24.3558L31.6582 19.2459L36.2014 22.468L35.5501 29.0737ZM20.426 13.9052L27.1101 12.0042L26.2586 6.86797L31.6236 11.6152L35.8295 11.7858C34.3352 9.25636 32.1724 7.06526 29.4184 5.49654C27.9611 4.66648 26.4336 4.06499 24.8786 3.68081L26.2586 6.86797L20.8869 3.59685L14.6353 6.58981L16.3361 3.68335C11.8982 4.77602 7.89403 7.56067 5.39989 11.7528L9.6627 11.7913L14.6353 6.58981L13.3228 11.7619L20.426 13.9052ZM14.3697 24.6204L13.278 16.599L20.426 13.9052L27.4795 16.8657L26.5249 24.3558L20.4273 28.9165L14.3697 24.6204ZM4.917 22.8302L8.96164 19.2144L14.3697 24.6204L16.111 31.5319L10.948 33.0308L5.9226 29.5341L4.917 22.8302ZM4.917 22.8302L3.58547 25.1055C2.44731 20.9578 2.85753 16.3974 5.06508 12.3409L7.06453 16.231L4.917 22.8302ZM10.948 33.0308L17.569 34.8994L20.4657 37.9562C17.514 37.9362 14.527 37.1835 11.788 35.6234C10.5258 34.9045 9.38787 34.0548 8.38152 33.1018L10.948 33.0308ZM37.5293 25.4416C38.8892 20.8656 38.2521 15.9905 35.9266 11.9522L33.6996 15.7576L36.498 23.0598L37.5293 25.4416Z" fill="#429BDB"/>
</svg>
