<svg width="10" height="6" viewBox="0 0 10 6" fill="none" xmlns="http://www.w3.org/2000/svg">
<path fill="white" d="M5.20294 0.921509L8.992 4.71057C9.08315 4.80172 9.12872 4.91239 9.12872 5.0426C9.12872 5.17281 9.08315 5.28349 8.992 5.37463L8.56232 5.80432C8.47117 5.89547 8.36049 5.94755 8.23029 5.96057C8.10008 5.96057 7.9894 5.915 7.89825 5.82385L4.87091 2.79651L1.84357 5.82385C1.75242 5.915 1.64174 5.96057 1.51154 5.96057C1.38133 5.94755 1.27065 5.89547 1.1795 5.80432L0.749817 5.37463C0.658671 5.28349 0.613098 5.17281 0.613098 5.0426C0.613098 4.91239 0.658671 4.80172 0.749817 4.71057L4.53888 0.921509C4.63003 0.817342 4.7407 0.765259 4.87091 0.765259C5.00112 0.765259 5.1118 0.817342 5.20294 0.921509Z" fill="black"/>
</svg>
