<svg width="25" height="25" viewBox="0 0 25 25" fill="none" xmlns="http://www.w3.org/2000/svg">
<g clip-path="url(#clip123)">
<path d="M24.9204 11.0593C24.8673 10.9322 24.7913 10.8166 24.6944 10.7197L21.5704 7.5957C21.1632 7.18945 20.5048 7.18945 20.0976 7.5957C19.6903 8.00298 19.6903 8.66235 20.0976 9.0686L21.4444 10.4155H15.6256C15.0496 10.4155 14.584 10.8821 14.584 11.4571C14.584 12.0321 15.0496 12.4988 15.6256 12.4988H21.4444L20.0975 13.8457C19.6902 14.2529 19.6902 14.9123 20.0975 15.3186C20.3006 15.5227 20.5673 15.6238 20.834 15.6238C21.1007 15.6238 21.3673 15.5228 21.5704 15.3186L24.6944 12.1946C24.7913 12.0987 24.8673 11.9831 24.9204 11.855C25.0256 11.6009 25.0256 11.3134 24.9204 11.0593Z" fill="white"/>
<path d="M17.709 14.5833C17.133 14.5833 16.6674 15.05 16.6674 15.625V20.8333H12.5007V4.16665C12.5007 3.70728 12.1986 3.30103 11.758 3.16875L8.14028 2.08335H16.6674V7.2917C16.6674 7.8667 17.133 8.33335 17.709 8.33335C18.2851 8.33335 18.7507 7.8667 18.7507 7.2917V1.0417C18.7507 0.46665 18.2851 0 17.709 0H1.04238C1.00488 0 0.971533 0.015625 0.935107 0.0197754C0.886133 0.025 0.841357 0.0333008 0.794482 0.0447754C0.685107 0.0729004 0.586133 0.115625 0.493457 0.173926C0.470557 0.188525 0.442432 0.189551 0.420557 0.206201C0.412158 0.2125 0.409033 0.223975 0.400684 0.230225C0.287158 0.319775 0.192383 0.42915 0.123633 0.559375C0.109033 0.5875 0.105908 0.617725 0.0944824 0.646875C0.0611328 0.726025 0.024707 0.803125 0.012207 0.890625C0.00698242 0.921875 0.0163574 0.951025 0.015332 0.98125C0.0143066 1.0021 0.000732422 1.02085 0.000732422 1.04165V21.875C0.000732422 22.3719 0.351758 22.799 0.838232 22.8959L11.2549 24.9792C11.3226 24.9938 11.3914 25 11.459 25C11.6976 25 11.9319 24.9178 12.1194 24.7636C12.3601 24.5657 12.5007 24.2708 12.5007 23.9583V22.9167H17.709C18.2851 22.9167 18.7507 22.45 18.7507 21.875V15.625C18.7507 15.05 18.2851 14.5833 17.709 14.5833Z" fill="white"/>
</g>
<defs>
<clipPath id="clip123">
<rect width="25" height="25" fill="white"/>
</clipPath>
</defs>
</svg>
