<svg width="15" height="10" viewBox="0 0 15 10" fill="none" xmlns="http://www.w3.org/2000/svg">
<path d="M6.89404 8.90625L0.831538 2.84375C0.685705 2.69792 0.612788 2.52083 0.612788 2.3125C0.612788 2.10417 0.685705 1.92708 0.831538 1.78125L1.51904 1.09375C1.66487 0.947917 1.84195 0.875 2.05029 0.875C2.25862 0.854167 2.4357 0.916667 2.58154 1.0625L7.42529 5.90625L12.269 1.0625C12.4149 0.916667 12.592 0.854167 12.8003 0.875C13.0086 0.875 13.1857 0.947917 13.3315 1.09375L14.019 1.78125C14.1649 1.92708 14.2378 2.10417 14.2378 2.3125C14.2378 2.52083 14.1649 2.69792 14.019 2.84375L7.95654 8.90625C7.8107 9.07292 7.63362 9.15625 7.42529 9.15625C7.21695 9.15625 7.03987 9.07292 6.89404 8.90625Z" fill="white"/>
</svg>
