<svg width="26" height="26" viewBox="0 0 26 26" fill="none" xmlns="http://www.w3.org/2000/svg">
<g clip-path="url(#clip0)">
<path d="M23.0208 23.8506H2.97923C1.33578 23.8506 0 22.5148 0 20.8714V7.32962C0 5.68617 1.33578 4.35059 2.97923 4.35059H9.47923C9.92773 4.35059 10.2917 4.71458 10.2917 5.16309C10.2917 5.61159 9.92773 5.97559 9.47923 5.97559H2.97923C2.23279 5.97559 1.625 6.58318 1.625 7.32962V20.8714C1.625 21.6178 2.23279 22.2256 2.97923 22.2256H23.0208C23.7672 22.2256 24.375 21.6178 24.375 20.8714V7.32962C24.375 6.58318 23.7672 5.97559 23.0208 5.97559H16.5208C16.0723 5.97559 15.7083 5.61159 15.7083 5.16309C15.7083 4.71458 16.0723 4.35059 16.5208 4.35059H23.0208C24.6642 4.35059 26 5.68617 26 7.32962V20.8714C26 22.5148 24.6642 23.8506 23.0208 23.8506Z" fill="#429BDB"/>
<path d="M15.4378 8.14186H10.5628C9.51738 8.14186 8.66699 7.29147 8.66699 6.24609V4.07936C8.66699 3.03398 9.51738 2.18359 10.5628 2.18359H15.4378C16.4831 2.18359 17.3335 3.03398 17.3335 4.07936V6.24609C17.3335 7.29147 16.4831 8.14186 15.4378 8.14186ZM10.5628 3.80859C10.4132 3.80859 10.292 3.92999 10.292 4.07936V6.24609C10.292 6.39566 10.4132 6.51686 10.5628 6.51686H15.4378C15.5873 6.51686 15.7085 6.39566 15.7085 6.24609V4.07936C15.7085 3.92999 15.5873 3.80859 15.4378 3.80859H10.5628Z" fill="#429BDB"/>
<path d="M8.12526 15.1833C6.63237 15.1833 5.41699 13.9678 5.41699 12.4751C5.41699 10.9822 6.63237 9.7666 8.12526 9.7666C9.61815 9.7666 10.8335 10.9822 10.8335 12.4751C10.8335 13.9678 9.61815 15.1833 8.12526 15.1833ZM8.12526 11.3916C7.52838 11.3916 7.04199 11.878 7.04199 12.4751C7.04199 13.0719 7.52838 13.5583 8.12526 13.5583C8.72214 13.5583 9.20853 13.0719 9.20853 12.4751C9.20853 11.878 8.72214 11.3916 8.12526 11.3916Z" fill="white"/>
<path d="M12.1875 20.6001C11.739 20.6001 11.375 20.2361 11.375 19.7876V19.2458C11.375 18.4994 10.7672 17.8916 10.0208 17.8916H6.22923C5.48279 17.8916 4.875 18.4994 4.875 19.2458V19.7876C4.875 20.2361 4.511 20.6001 4.0625 20.6001C3.614 20.6001 3.25 20.2361 3.25 19.7876V19.2458C3.25 17.6024 4.58578 16.2666 6.22923 16.2666H10.0208C11.6642 16.2666 13 17.6024 13 19.2458V19.7876C13 20.2361 12.636 20.6001 12.1875 20.6001Z" fill="white"/>
<path d="M21.9378 11.9336H15.9795C15.531 11.9336 15.167 11.5696 15.167 11.1211C15.167 10.6726 15.531 10.3086 15.9795 10.3086H21.9378C22.3863 10.3086 22.7503 10.6726 22.7503 11.1211C22.7503 11.5696 22.3863 11.9336 21.9378 11.9336Z" fill="white"/>
<path d="M21.9378 16.2666H15.9795C15.531 16.2666 15.167 15.9026 15.167 15.4541C15.167 15.0056 15.531 14.6416 15.9795 14.6416H21.9378C22.3863 14.6416 22.7503 15.0056 22.7503 15.4541C22.7503 15.9026 22.3863 16.2666 21.9378 16.2666Z" fill="white"/>
<path d="M21.9378 20.6006H15.9795C15.531 20.6006 15.167 20.2366 15.167 19.7881C15.167 19.3396 15.531 18.9756 15.9795 18.9756H21.9378C22.3863 18.9756 22.7503 19.3396 22.7503 19.7881C22.7503 20.2366 22.3863 20.6006 21.9378 20.6006Z" fill="white"/>
</g>
<defs>
<clipPath id="clip0">
<rect width="26" height="26" fill="white"/>
</clipPath>
</defs>
</svg>
