<svg width="25" height="27" viewBox="0 0 25 27" fill="none" xmlns="http://www.w3.org/2000/svg">
<path d="M17.5869 11.6016C17.5869 11.0191 17.1147 10.5469 16.5322 10.5469H5.66895C5.08644 10.5469 4.61426 11.0191 4.61426 11.6016C4.61426 12.1841 5.08644 12.6562 5.66895 12.6562H16.5322C17.1147 12.6562 17.5869 12.1841 17.5869 11.6016Z" fill="white"/>
<path d="M5.66895 14.7656C5.08644 14.7656 4.61426 15.2378 4.61426 15.8203C4.61426 16.4028 5.08644 16.875 5.66895 16.875H12.2666C12.8491 16.875 13.3213 16.4028 13.3213 15.8203C13.3213 15.2378 12.8491 14.7656 12.2666 14.7656H5.66895Z" fill="white"/>
<path d="M8.14747 24.8906H4.62012C3.45701 24.8906 2.51074 23.9444 2.51074 22.7812V4.21875C2.51074 3.05564 3.45701 2.10938 4.62012 2.10938H17.5869C18.75 2.10938 19.6963 3.05564 19.6963 4.21875V10.7051C19.6963 11.2876 20.1685 11.7598 20.751 11.7598C21.3335 11.7598 21.8057 11.2876 21.8057 10.7051V4.21875C21.8057 1.89253 19.9131 0 17.5869 0H4.62012C2.2939 0 0.401367 1.89253 0.401367 4.21875V22.7812C0.401367 25.1075 2.2939 27 4.62012 27H8.14747C8.72997 27 9.20216 26.5278 9.20216 25.9453C9.20216 25.3628 8.72997 24.8906 8.14747 24.8906Z" fill="#429BDB"/>
<path d="M23.6739 15.2701C22.4402 14.0364 20.4329 14.0364 19.2001 15.2693L13.4097 21.0468C13.2867 21.1695 13.196 21.3207 13.1455 21.4869L11.8844 25.6384C11.7726 26.0065 11.87 26.4062 12.1387 26.6815C12.3399 26.8877 12.6133 26.9997 12.8937 26.9997C12.9875 26.9997 13.0822 26.9871 13.1752 26.9614L17.4321 25.7822C17.6073 25.7336 17.767 25.6407 17.8957 25.5122L23.6739 19.7448C24.9076 18.5112 24.9076 16.5039 23.6739 15.2701ZM16.6018 23.8234L14.4601 24.4167L15.0869 22.3532L18.9939 18.4548L20.4858 19.9467L16.6018 23.8234ZM22.1831 18.2526L21.9788 18.4566L20.4872 16.965L20.6909 16.7617C21.1021 16.3505 21.7712 16.3505 22.1824 16.7617C22.5936 17.173 22.5936 17.8421 22.1831 18.2526Z" fill="#429BDB"/>
<path d="M16.5322 6.32812H5.66895C5.08644 6.32812 4.61426 6.80031 4.61426 7.38281C4.61426 7.96532 5.08644 8.4375 5.66895 8.4375H16.5322C17.1147 8.4375 17.5869 7.96532 17.5869 7.38281C17.5869 6.80031 17.1147 6.32812 16.5322 6.32812Z" fill="white"/>
</svg>
