<svg width="18" height="32" viewBox="0 0 18 32" fill="none" xmlns="http://www.w3.org/2000/svg">
<path d="M7.41155 2.1333C7.11717 2.1333 6.88086 2.37224 6.88086 2.66661C6.88086 2.96099 7.12192 3.19993 7.41686 3.19993C7.7118 3.19993 7.95017 2.96099 7.95017 2.66661C7.95017 2.37224 7.7118 2.1333 7.41686 2.1333H7.41155Z" fill="white"/>
<path d="M7.93359 28.8001C7.93359 29.3883 8.41197 29.8668 9.00028 29.8668C9.58853 29.8668 10.067 29.3884 10.067 28.8001C10.067 28.2118 9.5886 27.7334 9.00028 27.7334C8.41203 27.7334 7.93359 28.2118 7.93359 28.8001Z" fill="white"/>
<path d="M1.00017 24.5333C1.29455 24.5333 1.53348 24.2944 1.53348 24V2.66669C1.53348 1.88906 2.35586 1.06669 3.13348 1.06669H14.8668C15.6444 1.06669 16.4668 1.88906 16.4668 2.66669C16.4668 2.96106 16.7057 3.2 17.0001 3.2C17.2945 3.2 17.5334 2.96106 17.5334 2.66669C17.5335 1.296 16.2375 0 14.8669 0H3.13348C1.7628 0 0.466797 1.296 0.466797 2.66669V24C0.466859 24.2944 0.705797 24.5333 1.00017 24.5333Z" fill="#429BDB"/>
<path d="M9.53331 2.1333C9.23894 2.1333 9 2.37224 9 2.66661C9 2.96099 9.23894 3.19993 9.53331 3.19993H11.6666C11.961 3.19993 12.1999 2.96099 12.1999 2.66661C12.1999 2.37224 11.961 2.1333 11.6666 2.1333H9.53331Z" fill="white"/>
<path d="M13.8003 9.60023C13.9369 9.60023 14.0734 9.54798 14.1774 9.44398C14.3859 9.23542 14.3859 8.89836 14.1774 8.68986L13.1107 7.62317C12.9021 7.41467 12.5651 7.41467 12.3566 7.62317C12.1481 7.83173 12.1481 8.1688 12.3566 8.3773L13.4233 9.44398C13.5273 9.54798 13.6638 9.60023 13.8003 9.60023Z" fill="white"/>
<path d="M9.15638 7.62322C8.94787 7.83178 8.94787 8.16884 9.15638 8.37734L13.4231 12.644C13.5271 12.748 13.6636 12.8003 13.8001 12.8003C13.9367 12.8003 14.0732 12.748 14.1772 12.644C14.3858 12.4355 14.3858 12.0984 14.1772 11.8899L9.9105 7.62322C9.702 7.41466 9.36494 7.41466 9.15638 7.62322Z" fill="white"/>
<path d="M17.0001 4.2666H3.13342C2.83905 4.2666 2.60011 4.50554 2.60011 4.79991C2.60011 5.09429 2.83905 5.33323 3.13342 5.33323H16.4667V29.3332C16.4667 30.1109 15.6444 30.9332 14.8667 30.9332H3.13342C2.3558 30.9332 1.53342 30.1109 1.53342 29.3332V26.6665H14.8667C15.1611 26.6665 15.4 26.4276 15.4 26.1332C15.4 25.8389 15.1611 25.5999 14.8667 25.5999H1.00011C0.705734 25.5999 0.466797 25.8389 0.466797 26.1332V29.3332C0.466797 30.7039 1.7628 31.9999 3.13348 31.9999H14.8668C16.2375 31.9999 17.5335 30.7039 17.5335 29.3332V4.79991C17.5334 4.50554 17.2945 4.2666 17.0001 4.2666Z" fill="#429BDB"/>
</svg>
