<svg width="46" height="46" viewBox="0 0 46 46" fill="none" xmlns="http://www.w3.org/2000/svg">
<rect width="46" height="46" rx="17" fill="url(#paint0_radial)"/>
<path d="M22.9201 8C20.7563 8.0039 19.0019 9.75635 19 11.9201V25.5713C19.076 27.737 20.8948 29.431 23.0624 29.355C25.1209 29.2809 26.772 27.6298 26.8441 25.5713V11.9201C26.8422 9.7544 25.0858 8 22.9201 8ZM25.3451 25.5713C25.2847 26.9124 24.1482 27.9514 22.807 27.8891C21.5517 27.8325 20.5458 26.8267 20.4893 25.5713V11.9201C20.4912 10.579 21.579 9.49514 22.9201 9.49514C24.2574 9.49709 25.3431 10.5809 25.3451 11.9201V25.5713Z" fill="white"/>
<path d="M25.3451 25.5713C25.2847 26.9124 24.1482 27.9514 22.807 27.8891C21.5517 27.8325 20.5458 26.8267 20.4893 25.5713V11.9201C20.4912 10.579 21.579 9.49514 22.9201 9.49514C24.2574 9.49709 25.3431 10.5809 25.3451 11.9201V25.5713Z" fill="white"/>
<path d="M22.9201 30.3823C20.7544 30.3862 19.0019 32.1425 19.0039 34.3082C19.0078 36.472 20.7641 38.2264 22.9299 38.2225C25.0936 38.2205 26.848 36.4622 26.8441 34.2985C26.8441 34.2965 26.8441 34.2946 26.8441 34.2926C26.8363 32.1308 25.0819 30.3823 22.9201 30.3823ZM22.9201 36.7332C21.579 36.7312 20.4971 35.6435 20.499 34.3024C20.501 32.9632 21.5907 31.8794 22.9299 31.8833C24.2612 31.8852 25.3412 32.9612 25.3509 34.2926C25.3587 35.6318 24.2788 36.7254 22.9396 36.7332C22.9338 36.7332 22.926 36.7332 22.9201 36.7332Z" fill="white"/>
<path d="M22.9201 36.7332C21.579 36.7312 20.4971 35.6435 20.499 34.3024C20.501 32.9632 21.5907 31.8794 22.9299 31.8833C24.2612 31.8852 25.3412 32.9612 25.3509 34.2926C25.3587 35.6318 24.2788 36.7254 22.9396 36.7332H22.9201Z" fill="white"/>
<defs>
<radialGradient id="paint0_radial" cx="0" cy="0" r="1" gradientUnits="userSpaceOnUse" gradientTransform="translate(2.875 2.875) rotate(61.8375) scale(53.8077)">
<stop offset="0.620898" stop-color="#FCC70D"/>
<stop offset="0.620998" stop-color="#ECB903"/>
<stop offset="1" stop-color="#ECB903"/>
</radialGradient>
</defs>
</svg>
