<svg width="80" height="20" viewBox="0 0 80 20" fill="none" xmlns="http://www.w3.org/2000/svg">
<path fill-rule="evenodd" clip-rule="evenodd" d="M23.4099 19.2616L26.2088 19.2658L26.2035 19.2909H35.2301C37.1045 19.2909 38.6919 19.0487 39.9923 18.5644C41.3017 18.0712 42.2927 17.3806 42.9653 16.4928C43.6379 15.5959 43.9742 14.5377 43.9742 13.318C43.9742 12.188 43.6334 11.2597 42.9518 10.5333C42.2702 9.7979 41.3241 9.35397 40.1134 9.2015V9.14769C41.6111 8.86968 42.7859 8.33158 43.6379 7.5334C44.4989 6.73521 44.9294 5.73076 44.9294 4.52004C44.9294 2.97748 44.3778 1.83851 43.2747 1.1031C42.1716 0.367701 40.4855 0 38.2166 0H33.3181L32.6027 3.40133C30.8541 5.64829 29.4769 7.55548 28.4712 9.12292C27.4746 10.6813 26.5505 12.3076 25.6988 14.0019C24.8767 15.6285 24.1138 17.3817 23.4099 19.2616ZM19.0385 0.109813H9.63057L9.63132 0.110087C6.30691 0.134924 3.08279 1.84754 1.30037 4.89335C-1.37655 9.46768 0.212046 15.3168 4.84862 17.9578C6.31886 18.7953 7.91902 19.2096 9.50424 19.2391L9.50043 19.2407L17.3911 19.2526C18.0153 17.5569 18.7188 15.9697 19.5015 14.4911C20.326 12.9509 21.2456 11.4559 22.2604 10.0063C23.2752 8.55665 24.7203 6.7174 26.5958 4.48857H18.1153L19.0385 0.109813ZM38.7681 5.65005C38.7681 5.00433 38.5843 4.55143 38.2166 4.29135C37.8578 4.02229 37.23 3.88777 36.3332 3.88777H35.2705L34.4902 7.5334H36.3063C37.0238 7.5334 37.6112 7.34954 38.0686 6.98184C38.5349 6.61414 38.7681 6.17021 38.7681 5.65005ZM37.7995 13.1969C37.7995 12.6678 37.6291 12.2418 37.2883 11.9189C36.9475 11.596 36.4767 11.4346 35.8758 11.4346H33.6965L32.8087 15.3762H34.8534C35.7772 15.3762 36.4991 15.1834 37.0193 14.7977C37.5394 14.4031 37.7995 13.8695 37.7995 13.1969ZM60.6419 4.54694H54.4403L53.8618 7.35851H59.6733L58.7182 11.9055H52.9067L52.3013 14.7439H58.9334L57.9648 19.2909H45.5213L49.5974 0H61.6104L60.6419 4.54694ZM79.0449 4.54694H73.5832L70.4756 19.2909H64.6373L67.7448 4.54694H62.3503L63.3055 0H80L79.0449 4.54694ZM13.9473 15.6787L15.3319 15.6848C13.7998 17.0843 11.7947 17.8477 9.74535 17.8617L10.5313 16.5187L13.9473 15.6787ZM16.7295 13.6818L13.9473 15.6787L11.5793 14.7278L12.4823 11.4616L14.898 9.05691L17.036 10.5732L16.7295 13.6818ZM9.61225 6.54361L12.7577 5.64902L12.357 3.23199L14.8817 5.46599L16.861 5.54626C16.1577 4.35594 15.14 3.32483 13.8439 2.58661C13.1582 2.19599 12.4394 1.91294 11.7076 1.73215L12.357 3.23199L9.82913 1.69263L6.88718 3.10109L7.68759 1.73334C5.59914 2.24754 3.71484 3.55796 2.54112 5.53073L4.54715 5.54883L6.88718 3.10109L6.26958 5.53503L9.61225 6.54361ZM6.76222 11.5861L6.24847 7.81128L9.61225 6.54361L12.9315 7.93682L12.4823 11.4616L9.61287 13.6078L6.76222 11.5861ZM2.31388 10.7436L4.21724 9.04205L6.76222 11.5861L7.58164 14.8385L5.15199 15.5439L2.78711 13.8984L2.31388 10.7436ZM2.31388 10.7436L1.68728 11.8144C1.15168 9.86251 1.34472 7.71641 2.38357 5.80747L3.32449 7.63813L2.31388 10.7436ZM5.15199 15.5439L8.26777 16.4232L9.63091 17.8617C8.24187 17.8523 6.83624 17.4981 5.54728 16.764C4.95333 16.4256 4.41782 16.0258 3.94424 15.5773L5.15199 15.5439ZM17.6608 11.9725C18.3008 9.81912 18.001 7.52493 16.9066 5.62455L15.8587 7.41532L17.1755 10.8517L17.6608 11.9725Z" fill="white"/>
</svg>
