<svg width="9" height="6" viewBox="0 0 9 6" fill="none" xmlns="http://www.w3.org/2000/svg">
<path d="M4.70703 0.455566L8.49609 4.24463C8.58724 4.33577 8.63281 4.44645 8.63281 4.57666C8.63281 4.70687 8.58724 4.81755 8.49609 4.90869L8.06641 5.33838C7.97526 5.42952 7.86458 5.48161 7.73438 5.49463C7.60417 5.49463 7.49349 5.44906 7.40234 5.35791L4.375 2.33057L1.34766 5.35791C1.25651 5.44906 1.14583 5.49463 1.01562 5.49463C0.885417 5.48161 0.77474 5.42952 0.683594 5.33838L0.253906 4.90869C0.16276 4.81755 0.117188 4.70687 0.117188 4.57666C0.117188 4.44645 0.16276 4.33577 0.253906 4.24463L4.04297 0.455566C4.13411 0.3514 4.24479 0.299316 4.375 0.299316C4.50521 0.299316 4.61589 0.3514 4.70703 0.455566Z" />
</svg>
